  0
SECTION
  2
HEADER
  9
$ACADVER
  1
AC1021
  9
$ACADMAINTVER
 70
25
  9
$DWGCODEPAGE
  3
ANSI_1252
  9
$LASTSAVEDBY
  1
ezdxf
  9
$INSBASE
 10
0.0
 20
0.0
 30
0.0
  9
$EXTMIN
 10
-575.0001532528913
 20
-565.2334058879494
 30
0.0
  9
$EXTMAX
 10
575.0001532528918
 20
565.2334058879496
 30
0.0
  9
$LIMMIN
 10
0.0
 20
0.0
  9
$LIMMAX
 10
420.0
 20
297.0
  9
$ORTHOMODE
 70
0
  9
$REGENMODE
 70
1
  9
$FILLMODE
 70
1
  9
$QTEXTMODE
 70
0
  9
$MIRRTEXT
 70
1
  9
$LTSCALE
 40
1.0
  9
$ATTMODE
 70
1
  9
$TEXTSIZE
 40
2.5
  9
$TRACEWID
 40
1.0
  9
$TEXTSTYLE
  7
Standard
  9
$CLAYER
  8
0
  9
$CELTYPE
  6
ByLayer
  9
$CECOLOR
 62
256
  9
$CELTSCALE
 40
1.0
  9
$DISPSILH
 70
0
  9
$DIMSCALE
 40
1.0
  9
$DIMASZ
 40
2.5
  9
$DIMEXO
 40
0.625
  9
$DIMDLI
 40
3.75
  9
$DIMRND
 40
0.0
  9
$DIMDLE
 40
0.0
  9
$DIMEXE
 40
1.25
  9
$DIMTP
 40
0.0
  9
$DIMTM
 40
0.0
  9
$DIMTXT
 40
2.5
  9
$DIMCEN
 40
2.5
  9
$DIMTSZ
 40
0.0
  9
$DIMTOL
 70
0
  9
$DIMLIM
 70
0
  9
$DIMTIH
 70
0
  9
$DIMTOH
 70
0
  9
$DIMSE1
 70
0
  9
$DIMSE2
 70
0
  9
$DIMTAD
 70
1
  9
$DIMZIN
 70
8
  9
$DIMBLK
  1

  9
$DIMASO
 70
1
  9
$DIMSHO
 70
1
  9
$DIMPOST
  1

  9
$DIMAPOST
  1

  9
$DIMALT
 70
0
  9
$DIMALTD
 70
3
  9
$DIMALTF
 40
0.03937007874
  9
$DIMLFAC
 40
1.0
  9
$DIMTOFL
 70
1
  9
$DIMTVP
 40
0.0
  9
$DIMTIX
 70
0
  9
$DIMSOXD
 70
0
  9
$DIMSAH
 70
0
  9
$DIMBLK1
  1

  9
$DIMBLK2
  1

  9
$DIMSTYLE
  2
ISO-25
  9
$DIMCLRD
 70
0
  9
$DIMCLRE
 70
0
  9
$DIMCLRT
 70
0
  9
$DIMTFAC
 40
1.0
  9
$DIMGAP
 40
0.625
  9
$DIMJUST
 70
0
  9
$DIMSD1
 70
0
  9
$DIMSD2
 70
0
  9
$DIMTOLJ
 70
0
  9
$DIMTZIN
 70
8
  9
$DIMALTZ
 70
0
  9
$DIMALTTZ
 70
0
  9
$DIMUPT
 70
0
  9
$DIMDEC
 70
2
  9
$DIMTDEC
 70
2
  9
$DIMALTU
 70
2
  9
$DIMALTTD
 70
3
  9
$DIMTXSTY
  7
Standard
  9
$DIMAUNIT
 70
0
  9
$DIMADEC
 70
0
  9
$DIMALTRND
 40
0.0
  9
$DIMAZIN
 70
0
  9
$DIMDSEP
 70
44
  9
$DIMATFIT
 70
3
  9
$DIMFRAC
 70
0
  9
$DIMLDRBLK
  1

  9
$DIMLUNIT
 70
2
  9
$DIMLWD
 70
-2
  9
$DIMLWE
 70
-2
  9
$DIMTMOVE
 70
0
  9
$DIMFXL
 40
1.0
  9
$DIMFXLON
 70
0
  9
$DIMJOGANG
 40
0.785398163397
  9
$DIMTFILL
 70
0
  9
$DIMTFILLCLR
 70
0
  9
$DIMARCSYM
 70
0
  9
$DIMLTYPE
  6

  9
$DIMLTEX1
  6

  9
$DIMLTEX2
  6

  9
$LUNITS
 70
2
  9
$LUPREC
 70
4
  9
$SKETCHINC
 40
1.0
  9
$FILLETRAD
 40
10.0
  9
$AUNITS
 70
0
  9
$AUPREC
 70
2
  9
$MENU
  1
.
  9
$ELEVATION
 40
0.0
  9
$PELEVATION
 40
0.0
  9
$THICKNESS
 40
0.0
  9
$LIMCHECK
 70
0
  9
$CHAMFERA
 40
0.0
  9
$CHAMFERB
 40
0.0
  9
$CHAMFERC
 40
0.0
  9
$CHAMFERD
 40
0.0
  9
$SKPOLY
 70
0
  9
$TDCREATE
 40
2461226.4424189813
  9
$TDUCREATE
 40
2458532.153996898
  9
$TDUPDATE
 40
2461226.4424305554
  9
$TDUUPDATE
 40
2458532.1544311
  9
$TDINDWG
 40
0.0
  9
$TDUSRTIMER
 40
0.0
  9
$USRTIMER
 70
1
  9
$ANGBASE
 50
0.0
  9
$ANGDIR
 70
0
  9
$PDMODE
 70
0
  9
$PDSIZE
 40
0.0
  9
$PLINEWID
 40
0.0
  9
$SPLFRAME
 70
0
  9
$SPLINETYPE
 70
6
  9
$SPLINESEGS
 70
8
  9
$HANDSEED
  5
69
  9
$SURFTAB1
 70
6
  9
$SURFTAB2
 70
6
  9
$SURFTYPE
 70
6
  9
$SURFU
 70
6
  9
$SURFV
 70
6
  9
$UCSBASE
  2

  9
$UCSNAME
  2

  9
$UCSORG
 10
0.0
 20
0.0
 30
0.0
  9
$UCSXDIR
 10
1.0
 20
0.0
 30
0.0
  9
$UCSYDIR
 10
0.0
 20
1.0
 30
0.0
  9
$UCSORTHOREF
  2

  9
$UCSORTHOVIEW
 70
0
  9
$UCSORGTOP
 10
0.0
 20
0.0
 30
0.0
  9
$UCSORGBOTTOM
 10
0.0
 20
0.0
 30
0.0
  9
$UCSORGLEFT
 10
0.0
 20
0.0
 30
0.0
  9
$UCSORGRIGHT
 10
0.0
 20
0.0
 30
0.0
  9
$UCSORGFRONT
 10
0.0
 20
0.0
 30
0.0
  9
$UCSORGBACK
 10
0.0
 20
0.0
 30
0.0
  9
$PUCSBASE
  2

  9
$PUCSNAME
  2

  9
$PUCSORG
 10
0.0
 20
0.0
 30
0.0
  9
$PUCSXDIR
 10
1.0
 20
0.0
 30
0.0
  9
$PUCSYDIR
 10
0.0
 20
1.0
 30
0.0
  9
$PUCSORTHOREF
  2

  9
$PUCSORTHOVIEW
 70
0
  9
$PUCSORGTOP
 10
0.0
 20
0.0
 30
0.0
  9
$PUCSORGBOTTOM
 10
0.0
 20
0.0
 30
0.0
  9
$PUCSORGLEFT
 10
0.0
 20
0.0
 30
0.0
  9
$PUCSORGRIGHT
 10
0.0
 20
0.0
 30
0.0
  9
$PUCSORGFRONT
 10
0.0
 20
0.0
 30
0.0
  9
$PUCSORGBACK
 10
0.0
 20
0.0
 30
0.0
  9
$USERI1
 70
0
  9
$USERI2
 70
0
  9
$USERI3
 70
0
  9
$USERI4
 70
0
  9
$USERI5
 70
0
  9
$USERR1
 40
0.0
  9
$USERR2
 40
0.0
  9
$USERR3
 40
0.0
  9
$USERR4
 40
0.0
  9
$USERR5
 40
0.0
  9
$WORLDVIEW
 70
1
  9
$SHADEDGE
 70
3
  9
$SHADEDIF
 70
70
  9
$TILEMODE
 70
1
  9
$MAXACTVP
 70
64
  9
$PINSBASE
 10
0.0
 20
0.0
 30
0.0
  9
$PLIMCHECK
 70
0
  9
$PEXTMIN
 10
1e+20
 20
1e+20
 30
1e+20
  9
$PEXTMAX
 10
-1e+20
 20
-1e+20
 30
-1e+20
  9
$PLIMMIN
 10
0.0
 20
0.0
  9
$PLIMMAX
 10
420.0
 20
297.0
  9
$UNITMODE
 70
0
  9
$VISRETAIN
 70
1
  9
$PLINEGEN
 70
0
  9
$PSLTSCALE
 70
1
  9
$TREEDEPTH
 70
3020
  9
$CMLSTYLE
  2
Standard
  9
$CMLJUST
 70
0
  9
$CMLSCALE
 40
20.0
  9
$PROXYGRAPHICS
 70
1
  9
$MEASUREMENT
 70
1
  9
$CELWEIGHT
370
-1
  9
$ENDCAPS
280
0
  9
$JOINSTYLE
280
0
  9
$LWDISPLAY
290
0
  9
$INSUNITS
 70
6
  9
$HYPERLINKBASE
  1

  9
$STYLESHEET
  1

  9
$XEDIT
290
1
  9
$CEPSNTYPE
380
0
  9
$PSTYLEMODE
290
1
  9
$FINGERPRINTGUID
  2
{71B1DB55-5303-4A4D-A2FD-29A8DA6FBA0C}
  9
$VERSIONGUID
  2
{62EF6822-0CCF-47FE-A8C4-DE59E7591F27}
  9
$EXTNAMES
290
1
  9
$PSVPSCALE
 40
0.0
  9
$OLESTARTUP
290
0
  9
$SORTENTS
280
127
  9
$INDEXCTL
280
0
  9
$HIDETEXT
280
1
  9
$XCLIPFRAME
290
1
  9
$HALOGAP
280
0
  9
$OBSCOLOR
 70
257
  9
$OBSLTYPE
280
0
  9
$INTERSECTIONDISPLAY
280
0
  9
$INTERSECTIONCOLOR
 70
257
  9
$DIMASSOC
280
2
  9
$PROJECTNAME
  1

  9
$CAMERADISPLAY
290
0
  9
$LENSLENGTH
 40
50.0
  9
$CAMERAHEIGHT
 40
0.0
  9
$STEPSPERSEC
 40
24.0
  9
$STEPSIZE
 40
100.0
  9
$3DDWFPREC
 40
2.0
  9
$PSOLWIDTH
 40
0.005
  9
$PSOLHEIGHT
 40
0.08
  9
$LOFTANG1
 40
1.570796326795
  9
$LOFTANG2
 40
1.570796326795
  9
$LOFTMAG1
 40
0.0
  9
$LOFTMAG2
 40
0.0
  9
$LOFTPARAM
 70
7
  9
$LOFTNORMALS
280
1
  9
$LATITUDE
 40
37.795
  9
$LONGITUDE
 40
-122.394
  9
$NORTHDIRECTION
 40
0.0
  9
$TIMEZONE
 70
-8000
  9
$LIGHTGLYPHDISPLAY
280
1
  9
$TILEMODELIGHTSYNCH
280
1
  9
$CMATERIAL
347
20
  9
$SOLIDHIST
280
0
  9
$SHOWHIST
280
1
  9
$DWFFRAME
280
2
  9
$DGNFRAME
280
2
  9
$REALWORLDSCALE
290
1
  9
$INTERFERECOLOR
 62
256
  9
$CSHADOW
280
0
  9
$SHADOWPLANELOCATION
 40
0.0
  0
ENDSEC
  0
SECTION
  2
CLASSES
  0
CLASS
  1
ACDBDICTIONARYWDFLT
  2
AcDbDictionaryWithDefault
  3
ObjectDBX Classes
 90
0
 91
0
280
0
281
0
  0
CLASS
  1
SUN
  2
AcDbSun
  3
SCENEOE
 90
1153
 91
0
280
0
281
0
  0
CLASS
  1
VISUALSTYLE
  2
AcDbVisualStyle
  3
ObjectDBX Classes
 90
4095
 91
0
280
0
281
0
  0
CLASS
  1
MATERIAL
  2
AcDbMaterial
  3
ObjectDBX Classes
 90
1153
 91
0
280
0
281
0
  0
CLASS
  1
SCALE
  2
AcDbScale
  3
ObjectDBX Classes
 90
1153
 91
0
280
0
281
0
  0
CLASS
  1
TABLESTYLE
  2
AcDbTableStyle
  3
ObjectDBX Classes
 90
4095
 91
0
280
0
281
0
  0
CLASS
  1
MLEADERSTYLE
  2
AcDbMLeaderStyle
  3
ACDB_MLEADERSTYLE_CLASS
 90
4095
 91
0
280
0
281
0
  0
CLASS
  1
DICTIONARYVAR
  2
AcDbDictionaryVar
  3
ObjectDBX Classes
 90
0
 91
0
280
0
281
0
  0
CLASS
  1
CELLSTYLEMAP
  2
AcDbCellStyleMap
  3
ObjectDBX Classes
 90
1152
 91
0
280
0
281
0
  0
CLASS
  1
MENTALRAYRENDERSETTINGS
  2
AcDbMentalRayRenderSettings
  3
SCENEOE
 90
1024
 91
0
280
0
281
0
  0
CLASS
  1
ACDBDETAILVIEWSTYLE
  2
AcDbDetailViewStyle
  3
ObjectDBX Classes
 90
1025
 91
0
280
0
281
0
  0
CLASS
  1
ACDBSECTIONVIEWSTYLE
  2
AcDbSectionViewStyle
  3
ObjectDBX Classes
 90
1025
 91
0
280
0
281
0
  0
CLASS
  1
RASTERVARIABLES
  2
AcDbRasterVariables
  3
ISM
 90
0
 91
0
280
0
281
0
  0
CLASS
  1
ACDBPLACEHOLDER
  2
AcDbPlaceHolder
  3
ObjectDBX Classes
 90
0
 91
0
280
0
281
0
  0
CLASS
  1
LAYOUT
  2
AcDbLayout
  3
ObjectDBX Classes
 90
0
 91
0
280
0
281
0
  0
ENDSEC
  0
SECTION
  2
TABLES
  0
TABLE
  2
VPORT
  5
8
330
0
100
AcDbSymbolTable
 70
1
  0
VPORT
  5
23
330
8
100
AcDbSymbolTableRecord
100
AcDbViewportTableRecord
  2
*Active
 70
0
 10
0.0
 20
0.0
 11
1.0
 21
1.0
 12
0.0
 22
0.0
 13
0.0
 23
0.0
 14
0.5
 24
0.5
 15
0.5
 25
0.5
 16
0.0
 26
0.0
 36
1.0
 17
0.0
 27
0.0
 37
0.0
 40
1000.0
 41
1.34
 42
50.0
 43
0.0
 44
0.0
 50
0.0
 51
0.0
 71
0
 72
1000
 73
1
 74
3
 75
0
 76
0
 77
0
 78
0
281
0
 65
0
146
0.0
  0
ENDTAB
  0
TABLE
  2
LTYPE
  5
2
330
0
100
AcDbSymbolTable
 70
3
  0
LTYPE
  5
24
330
2
100
AcDbSymbolTableRecord
100
AcDbLinetypeTableRecord
  2
ByBlock
 70
0
  3

 72
65
 73
0
 40
0.0
  0
LTYPE
  5
25
330
2
100
AcDbSymbolTableRecord
100
AcDbLinetypeTableRecord
  2
ByLayer
 70
0
  3

 72
65
 73
0
 40
0.0
  0
LTYPE
  5
26
330
2
100
AcDbSymbolTableRecord
100
AcDbLinetypeTableRecord
  2
Continuous
 70
0
  3

 72
65
 73
0
 40
0.0
  0
ENDTAB
  0
TABLE
  2
LAYER
  5
1
330
0
100
AcDbSymbolTable
 70
2
  0
LAYER
  5
27
330
1
100
AcDbSymbolTableRecord
100
AcDbLayerTableRecord
  2
0
 70
0
 62
7
  6
Continuous
370
-3
390
13
347
21
  0
LAYER
  5
28
330
1
100
AcDbSymbolTableRecord
100
AcDbLayerTableRecord
  2
Defpoints
 70
0
 62
7
  6
Continuous
290
0
370
-3
390
13
347
21
  0
ENDTAB
  0
TABLE
  2
STYLE
  5
5
330
0
100
AcDbSymbolTable
 70
1
  0
STYLE
  5
29
330
5
100
AcDbSymbolTableRecord
100
AcDbTextStyleTableRecord
  2
Standard
 70
0
 40
0.0
 41
1.0
 50
0.0
 71
0
 42
2.5
  3
txt
  4

  0
ENDTAB
  0
TABLE
  2
VIEW
  5
7
330
0
100
AcDbSymbolTable
 70
0
  0
ENDTAB
  0
TABLE
  2
UCS
  5
6
330
0
100
AcDbSymbolTable
 70
0
  0
ENDTAB
  0
TABLE
  2
APPID
  5
3
330
0
100
AcDbSymbolTable
 70
3
  0
APPID
  5
2A
330
3
100
AcDbSymbolTableRecord
100
AcDbRegAppTableRecord
  2
ACAD
 70
0
  0
APPID
  5
65
330
3
100
AcDbSymbolTableRecord
100
AcDbRegAppTableRecord
  2
HATCHBACKGROUNDCOLOR
 70
0
  0
APPID
  5
66
330
3
100
AcDbSymbolTableRecord
100
AcDbRegAppTableRecord
  2
EZDXF
 70
0
  0
ENDTAB
  0
TABLE
  2
DIMSTYLE
  5
4
330
0
100
AcDbSymbolTable
 70
1
100
AcDbDimStyleTable
  0
DIMSTYLE
105
2B
330
4
100
AcDbSymbolTableRecord
100
AcDbDimStyleTableRecord
  2
Standard
 70
0
 40
1.0
 41
2.5
 42
0.625
 43
3.75
 44
1.25
 45
0.0
 46
0.0
 47
0.0
 48
0.0
 49
2.5
140
2.5
141
2.5
142
0.0
143
0.03937007874
144
1.0
145
0.0
146
1.0
147
0.625
148
0.0
 69
0
 70
0
 71
0
 72
0
 73
0
 74
0
 75
0
 76
0
 77
1
 78
8
 79
3
170
0
171
3
172
1
173
0
174
0
175
0
176
0
177
0
178
0
179
2
271
2
272
2
273
2
274
3
275
0
276
0
277
2
278
44
279
0
280
0
281
0
282
0
283
0
284
8
285
0
286
0
288
0
289
3
290
0
371
-2
372
-2
  0
ENDTAB
  0
TABLE
  2
BLOCK_RECORD
  5
9
330
0
100
AcDbSymbolTable
 70
2
  0
BLOCK_RECORD
  5
17
330
9
100
AcDbSymbolTableRecord
100
AcDbBlockTableRecord
  2
*Model_Space
340
1A
 70
0
280
1
281
0
  0
BLOCK_RECORD
  5
1B
330
9
100
AcDbSymbolTableRecord
100
AcDbBlockTableRecord
  2
*Paper_Space
340
1E
 70
0
280
1
281
0
  0
ENDTAB
  0
ENDSEC
  0
SECTION
  2
BLOCKS
  0
BLOCK
  5
18
330
17
100
AcDbEntity
  8
0
100
AcDbBlockBegin
  2
*Model_Space
 70
0
 10
0.0
 20
0.0
 30
0.0
  3
*Model_Space
  1

  0
ENDBLK
  5
19
330
17
100
AcDbEntity
  8
0
100
AcDbBlockEnd
  0
BLOCK
  5
1C
330
1B
100
AcDbEntity
  8
0
100
AcDbBlockBegin
  2
*Paper_Space
 70
0
 10
0.0
 20
0.0
 30
0.0
  3
*Paper_Space
  1

  0
ENDBLK
  5
1D
330
1B
100
AcDbEntity
  8
0
100
AcDbBlockEnd
  0
ENDSEC
  0
SECTION
  2
ENTITIES
  0
LINE
  5
2F
330
17
100
AcDbEntity
  8
0
  6
Continuous
 62
7
370
18
100
AcDbLine
 10
-575.0001532528913
 20
507.43716608182444
 30
1.15e-14
 11
-575.0001532528913
 21
498.48039255775757
 31
1.51e-14
  0
LINE
  5
30
330
17
100
AcDbEntity
  8
0
  6
Continuous
 62
7
370
18
100
AcDbLine
 10
532.9998467471096
 20
498.2334058879494
 30
7.1e-15
 11
532.9998467471096
 21
511.23340588794963
 31
1.42e-14
  0
LINE
  5
31
330
17
100
AcDbEntity
  8
0
  6
Continuous
 62
7
370
18
100
AcDbLine
 10
532.9998467471096
 20
511.23340588794963
 30
1.42e-14
 11
530.9998467471082
 21
511.23340588794963
 31
1.42e-14
  0
LINE
  5
32
330
17
100
AcDbEntity
  8
0
  6
Continuous
 62
7
370
18
100
AcDbLine
 10
-575.0001532528904
 20
-433.4009807208081
 30
1.42e-14
 11
-575.0001532528904
 21
-430.22496024000975
 31
1.42e-14
  0
LINE
  5
33
330
17
100
AcDbEntity
  8
0
  6
Continuous
 62
7
370
18
100
AcDbLine
 10
-176.00015325289132
 20
539.2334058879496
 30
8e-15
 11
-176.00015325289132
 21
551.2334058879496
 31
7.5e-15
  0
LINE
  5
34
330
17
100
AcDbEntity
  8
0
  6
Continuous
 62
7
370
18
100
AcDbLine
 10
529.8355072771719
 20
498.48039255775757
 30
1.69e-14
 11
379.72941419490644
 21
-430.22496024000975
 31
1.42e-14
  0
LINE
  5
35
330
17
100
AcDbEntity
  8
0
  6
Continuous
 62
7
370
18
100
AcDbLine
 10
423.9998467471073
 20
539.2334058879496
 30
1.29e-14
 11
423.9998467471073
 21
551.2334058879485
 31
1.47e-14
  0
LINE
  5
36
330
17
100
AcDbEntity
  8
0
  6
Continuous
 62
7
370
18
100
AcDbLine
 10
23.999846747108677
 20
539.2334058879496
 30
1.11e-14
 11
23.999846747108677
 21
551.2334058879496
 31
1.07e-14
  0
LINE
  5
37
330
17
100
AcDbEntity
  8
0
  6
Continuous
 62
7
370
18
100
AcDbLine
 10
-390.0001532528913
 20
539.2334058879496
 30
1.91e-14
 11
-390.0001532528913
 21
551.2334058879496
 31
2.09e-14
  0
LINE
  5
38
330
17
100
AcDbEntity
  8
0
  6
Continuous
 62
7
370
18
100
AcDbLine
 10
-575.0001532528904
 20
-565.233405887949
 30
2.13e-14
 11
-575.0001532528904
 21
-433.4009807208083
 31
1.42e-14
  0
LINE
  5
39
330
17
100
AcDbEntity
  8
0
  6
Continuous
 62
7
370
18
100
AcDbLine
 10
223.99984674710868
 20
539.2334058879496
 30
1.42e-14
 11
223.99984674710868
 21
551.2334058879496
 31
1.6e-14
  0
LINE
  5
3A
330
17
100
AcDbEntity
  8
0
  6
Continuous
 62
7
370
18
100
AcDbLine
 10
9.999846747108677
 20
539.2334058879496
 30
1.07e-14
 11
9.999846747108677
 21
551.2334058879496
 31
1.02e-14
  0
LINE
  5
3B
330
17
100
AcDbEntity
  8
0
  6
Continuous
 62
7
370
18
100
AcDbLine
 10
-190.00015325289132
 20
539.2334058879496
 30
7.5e-15
 11
-190.00015325289132
 21
551.2334058879496
 31
7.1e-15
  0
LINE
  5
3C
330
17
100
AcDbEntity
  8
0
  6
Continuous
 62
7
370
18
100
AcDbLine
 10
-575.0001532528904
 20
-430.22496024000975
 30
2.13e-14
 11
-575.0001532528913
 21
498.48039255775757
 31
4.4e-15
  0
LINE
  5
3D
330
17
100
AcDbEntity
  8
0
  6
Continuous
 62
7
370
18
100
AcDbLine
 10
573.5356871588233
 20
526.6978719820165
 30
1.6e-14
 11
536.4646193469584
 21
563.7689397938816
 31
1.33e-14
  0
LINE
  5
3E
330
17
100
AcDbEntity
  8
0
  6
Continuous
 62
7
370
18
100
AcDbLine
 10
-575.0001532528913
 20
507.43716608182444
 30
2.13e-14
 11
-575.0001532528913
 21
560.2334058879496
 31
1.51e-14
  0
LINE
  5
3F
330
17
100
AcDbEntity
  8
0
  6
Continuous
 62
7
370
18
100
AcDbLine
 10
530.9998467471082
 20
507.43716608182376
 30
1.15e-14
 11
530.9998467471082
 21
511.23340588794963
 31
1.42e-14
  0
LINE
  5
40
330
17
100
AcDbEntity
  8
0
  6
Continuous
 62
7
370
18
100
AcDbLine
 10
209.99984674710868
 20
539.2334058879496
 30
1.38e-14
 11
209.99984674710868
 21
551.2334058879496
 31
1.55e-14
  0
LINE
  5
41
330
17
100
AcDbEntity
  8
0
  6
Continuous
 62
7
370
18
100
AcDbLine
 10
409.9998467471087
 20
539.2334058879496
 30
1.29e-14
 11
409.9998467471087
 21
551.2334058879485
 31
1.47e-14
  0
LINE
  5
42
330
17
100
AcDbEntity
  8
0
  6
Continuous
 62
7
370
18
100
AcDbLine
 10
363.0362932097996
 20
-433.400980720808
 30
7.1e-15
 11
-575.0001532528913
 21
-565.2334058879494
 31
2.13e-14
  0
LINE
  5
43
330
17
100
AcDbEntity
  8
0
  6
Continuous
 62
7
370
18
100
AcDbLine
 10
575.0001532528918
 20
498.2334058879494
 30
9.8e-15
 11
532.9998467471096
 21
498.2334058879494
 31
7.1e-15
  0
LINE
  5
44
330
17
100
AcDbEntity
  8
0
  6
Continuous
 62
7
370
18
100
AcDbLine
 10
-376.0001532528913
 20
539.2334058879496
 30
1.91e-14
 11
-376.0001532528913
 21
551.2334058879496
 31
2.09e-14
  0
LINE
  5
45
330
17
100
AcDbEntity
  8
0
  6
Continuous
 62
7
370
18
100
AcDbLine
 10
575.0001532528918
 20
523.1623380760834
 30
8.4e-15
 11
575.0001532528918
 21
498.2334058879494
 31
9.8e-15
  0
LINE
  5
46
330
17
100
AcDbEntity
  8
0
  6
Continuous
 62
7
370
18
100
AcDbLine
 10
-570.0001532528913
 20
565.2334058879496
 30
1.64e-14
 11
532.9290854410256
 21
565.2334058879496
 31
1.69e-14
  0
ARC
  5
47
330
17
100
AcDbEntity
  8
0
  6
Continuous
 62
7
370
18
100
AcDbCircle
 10
570.0001532528918
 20
523.1623380760848
 30
-5.4e-14
 40
5.0
100
AcDbArc
 50
0.0
 51
45.00000000000054
  0
ARC
  5
48
330
17
100
AcDbEntity
  8
0
  6
Continuous
 62
7
370
18
100
AcDbCircle
 10
-183.0001532528927
 20
539.2334058879496
 30
-2.76e-14
 40
7.000000000000001
100
AcDbArc
 50
180.0
 51
0.0
  0
ARC
  5
49
330
17
100
AcDbEntity
  8
0
  6
Continuous
 62
7
370
18
100
AcDbCircle
 10
216.9998467471073
 20
539.2334058879496
 30
-2.73e-14
 40
7.000000000000001
100
AcDbArc
 50
180.0
 51
0.0
  0
CIRCLE
  5
4A
330
17
100
AcDbEntity
  8
0
  6
Continuous
 62
7
370
18
100
AcDbCircle
 10
391.44119541461805
 20
93.48039255776166
 30
1.206e-12
 40
7.000000000000001
  0
CIRCLE
  5
4B
330
17
100
AcDbEntity
  8
0
  6
Continuous
 62
7
370
18
100
AcDbCircle
 10
-11.000153252883592
 20
-375.5196074422439
 30
1.2078e-12
 40
7.000000000000001
  0
CIRCLE
  5
4C
330
17
100
AcDbEntity
  8
0
  6
Continuous
 62
7
370
18
100
AcDbCircle
 10
-135.00015325288223
 20
-375.519607442244
 30
1.2058e-12
 40
7.000000000000001
  0
ARC
  5
4D
330
17
100
AcDbEntity
  8
0
  6
Continuous
 62
7
370
18
100
AcDbCircle
 10
216.9998467471073
 20
551.2334058879496
 30
-2.72e-14
 40
7.000000000000001
100
AcDbArc
 50
6e-15
 51
180.0
  0
CIRCLE
  5
4E
330
17
100
AcDbEntity
  8
0
  6
Continuous
 62
7
370
18
100
AcDbCircle
 10
315.6370047275559
 20
-375.51960744224345
 30
1.2059e-12
 40
7.000000000000001
  0
CIRCLE
  5
4F
330
17
100
AcDbEntity
  8
0
  6
Continuous
 62
7
370
18
100
AcDbCircle
 10
-233.58544318181475
 20
-476.857594654133
 30
1.207e-12
 40
7.000000000000001
  0
ARC
  5
50
330
17
100
AcDbEntity
  8
0
  6
Continuous
 62
7
370
18
100
AcDbCircle
 10
16.999846747107313
 20
539.2334058879496
 30
-2.76e-14
 40
7.000000000000001
100
AcDbArc
 50
180.0
 51
0.0
  0
CIRCLE
  5
51
330
17
100
AcDbEntity
  8
0
  6
Continuous
 62
7
370
18
100
AcDbCircle
 10
-505.00015325288314
 20
-375.519607442244
 30
1.207e-12
 40
7.000000000000001
  0
CIRCLE
  5
52
330
17
100
AcDbEntity
  8
0
  6
Continuous
 62
7
370
18
100
AcDbCircle
 10
-505.00015325288314
 20
-494.805893107663
 30
1.2202e-12
 40
7.000000000000001
  0
ARC
  5
53
330
17
100
AcDbEntity
  8
0
  6
Continuous
 62
7
370
18
100
AcDbCircle
 10
416.9998467471073
 20
539.2334058879496
 30
-2.69e-14
 40
7.000000000000001
100
AcDbArc
 50
180.0
 51
0.0
  0
ARC
  5
54
330
17
100
AcDbEntity
  8
0
  6
Continuous
 62
7
370
18
100
AcDbCircle
 10
-383.0001532528927
 20
551.2334058879496
 30
-2.69e-14
 40
7.000000000000001
100
AcDbArc
 50
6e-15
 51
180.0
  0
CIRCLE
  5
55
330
17
100
AcDbEntity
  8
0
  6
Continuous
 62
7
370
18
100
AcDbCircle
 10
371.39914926281654
 20
-30.519607442238566
 30
1.209e-12
 40
7.000000000000001
  0
CIRCLE
  5
56
330
17
100
AcDbEntity
  8
0
  6
Continuous
 62
7
370
18
100
AcDbCircle
 10
52.427881952408825
 20
-456.8575946541325
 30
1.2023e-12
 40
7.000000000000001
  0
ARC
  5
57
330
17
100
AcDbEntity
  8
0
  6
Continuous
 62
7
370
18
100
AcDbCircle
 10
532.9290854410269
 20
560.2334058879496
 30
-5.36e-14
 40
5.0
100
AcDbArc
 50
45.00000000000099
 51
90.0
  0
CIRCLE
  5
58
330
17
100
AcDbEntity
  8
0
  6
Continuous
 62
7
370
18
100
AcDbCircle
 10
447.2033399498782
 20
438.4803925577535
 30
1.2056e-12
 40
7.000000000000001
  0
ARC
  5
59
330
17
100
AcDbEntity
  8
0
  6
Continuous
 62
7
370
18
100
AcDbCircle
 10
16.999846747107313
 20
551.2334058879496
 30
-2.76e-14
 40
7.000000000000001
100
AcDbArc
 50
6e-15
 51
180.0
  0
ARC
  5
5A
330
17
100
AcDbEntity
  8
0
  6
Continuous
 62
7
370
18
100
AcDbCircle
 10
-570.0001532528913
 20
560.2334058879496
 30
-5.42e-14
 40
5.0
100
AcDbArc
 50
90.0
 51
180.0
  0
ARC
  5
5B
330
17
100
AcDbEntity
  8
0
  6
Continuous
 62
7
370
18
100
AcDbCircle
 10
-383.0001532528927
 20
539.2334058879496
 30
-2.75e-14
 40
7.000000000000001
100
AcDbArc
 50
180.0
 51
0.0
  0
ARC
  5
5C
330
17
100
AcDbEntity
  8
0
  6
Continuous
 62
7
370
18
100
AcDbCircle
 10
416.9998467471073
 20
551.2334058879496
 30
-2.73e-14
 40
7.000000000000001
100
AcDbArc
 50
6e-15
 51
180.0
  0
CIRCLE
  5
5D
330
17
100
AcDbEntity
  8
0
  6
Continuous
 62
7
370
18
100
AcDbCircle
 10
-505.0001532528822
 20
-30.519607442239476
 30
1.2092e-12
 40
7.000000000000001
  0
ARC
  5
5E
330
17
100
AcDbEntity
  8
0
  6
Continuous
 62
7
370
18
100
AcDbCircle
 10
-183.0001532528927
 20
551.2334058879496
 30
-2.75e-14
 40
7.000000000000001
100
AcDbArc
 50
6e-15
 51
180.0
  0
SPLINE
  5
5F
330
17
100
AcDbEntity
  8
0
  6
Continuous
 62
7
370
18
100
AcDbSpline
 70
8
 71
3
 72
23
 73
19
 74
0
 42
1e-09
 40
0.0
 40
0.0
 40
0.0
 40
0.0
 40
0.0597236849471067
 40
0.1205662899735406
 40
0.1823731282479938
 40
0.2449835762503501
 40
0.3082330339580204
 40
0.3719546605656435
 40
0.4359809658938937
 40
0.5001453264071978
 40
0.5642834876938293
 40
0.6282351117381972
 40
0.6918454268267634
 40
0.7549670400435066
 40
0.817461976572909
 40
0.8792040158051958
 40
0.940081400481975
 40
1.0
 40
1.0
 40
1.0
 40
1.0
 10
529.8355072771719
 20
498.48039255775757
 30
8e-15
 10
529.8588336290136
 20
498.6588679302074
 30
1.15e-14
 10
529.9059233506646
 20
499.0191624017716
 30
6.2e-15
 10
529.9871172725107
 20
499.5627765881777
 30
4.4e-15
 10
530.0745269172276
 20
500.11421347507076
 30
3.6e-15
 10
530.1671944867135
 20
500.67214772141756
 30
1.42e-14
 10
530.2630352465817
 20
501.2353957424475
 30
6.2e-15
 10
530.3602724501739
 20
501.80273401562454
 30
9e-16
 10
530.4570450661017
 20
502.3729493132214
 30
9.8e-15
 10
530.5515143774546
 20
502.94482550311136
 30
1.07e-14
 10
530.6418361846045
 20
503.51714757295167
 30
8e-15
 10
530.7261643314173
 20
504.08870098911757
 30
2.7e-15
 10
530.8026645190248
 20
504.6582722988155
 30
4.4e-15
 10
530.8694556419732
 20
505.2246495498305
 30
9.8e-15
 10
530.9248272294544
 20
505.78662236198556
 30
2.7e-15
 10
530.9664386781205
 20
506.3429837411263
 30
3.6e-15
 10
530.9942501956393
 20
506.8925255241636
 30
1.8e-15
 10
530.997991127495
 20
507.25658243004955
 30
1.8e-15
 10
530.9998467471082
 20
507.43716608182376
 30
1.07e-14
  0
SPLINE
  5
60
330
17
100
AcDbEntity
  8
0
  6
Continuous
 62
7
370
18
100
AcDbSpline
 70
8
 71
3
 72
23
 73
19
 74
0
 42
1e-09
 40
0.0
 40
0.0
 40
0.0
 40
0.0
 40
0.0139948788055859
 40
0.0333763342657477
 40
0.0596211539525042
 40
0.0933018212297988
 40
0.1346675579262091
 40
0.1838336984227183
 40
0.2408501135187348
 40
0.3057297394265059
 40
0.37846199332005
 40
0.4590197159108639
 40
0.5473630522548233
 40
0.6434417641383589
 40
0.7471966854751634
 40
0.8585606840772387
 40
0.9774593264731655
 40
1.0
 40
1.0
 40
1.0
 40
1.0
 10
379.72941419482686
 20
-430.22496024001
 30
7.1e-15
 10
379.6946562619355
 20
-430.29845140875204
 30
1.42e-14
 10
379.61176219742447
 20
-430.4737202229792
 30
1.42e-14
 10
379.3195606356435
 20
-430.67212204270345
 30
1.42e-14
 10
378.9189029493764
 20
-430.8787059265818
 30
1.42e-14
 10
378.37310885735405
 20
-431.08246154316396
 30
1.42e-14
 10
377.69290111379905
 20
-431.2887777889971
 30
7.1e-15
 10
376.8731989516682
 20
-431.4953474623385
 30
1.42e-14
 10
375.91586629258654
 20
-431.7026568673482
 30
0.0
 10
374.82084018789783
 20
-431.91030163556115
 30
1.42e-14
 10
373.58900489749567
 20
-432.1182547251665
 30
1.42e-14
 10
372.2211433129796
 20
-432.32641634359913
 30
1.42e-14
 10
370.71824140368653
 20
-432.534744518935
 30
1.42e-14
 10
369.08137224997154
 20
-432.74319539255157
 30
2.13e-14
 10
367.3117250375467
 20
-432.9517631296819
 30
1.42e-14
 10
365.4105794475663
 20
-433.16034429497256
 30
1.42e-14
 10
363.97064861248873
 20
-433.3084500630041
 30
2.13e-14
 10
363.16472961329873
 20
-433.38826146551503
 30
7.1e-15
 10
363.0362932098037
 20
-433.4009807208081
 30
7.1e-15
  0
CIRCLE
  5
61
330
17
100
AcDbEntity
  8
0
  6
Continuous
 62
7
370
18
100
AcDbCircle
 10
-11.000153252891323
 20
438.4803925577535
 30
1.2045e-12
 40
7.000000000000001
  0
CIRCLE
  5
62
330
17
100
AcDbEntity
  8
0
  6
Continuous
 62
7
370
18
100
AcDbCircle
 10
-135.00015325288314
 20
-30.519607442238566
 30
1.2116e-12
 40
7.000000000000001
  0
CIRCLE
  5
63
330
17
100
AcDbEntity
  8
0
  6
Continuous
 62
7
370
18
100
AcDbCircle
 10
-11.000153252891323
 20
93.4803925577603
 30
1.2031e-12
 40
7.000000000000001
  0
CIRCLE
  5
64
330
17
100
AcDbEntity
  8
0
  6
Continuous
 62
7
370
18
100
AcDbCircle
 10
-11.000153252883592
 20
-30.519607442238566
 30
1.21e-12
 40
7.000000000000001
  0
SPLINE
  5
68
330
17
100
AcDbEntity
  8
0
  6
Continuous
 62
7
370
18
100
AcDbSpline
 70
9
 71
3
 72
51
 73
47
 74
0
 42
1e-09
 40
0.0
 40
0.0
 40
0.0
 40
0.0
 40
0.0078125
 40
0.015625
 40
0.03125
 40
0.046875
 40
0.0625
 40
0.09375
 40
0.125
 40
0.15625
 40
0.1875
 40
0.21875
 40
0.25
 40
0.28125
 40
0.3125
 40
0.34375
 40
0.375
 40
0.40625
 40
0.4375
 40
0.453125
 40
0.46875
 40
0.484375
 40
0.4921875
 40
0.5
 40
0.5078125
 40
0.515625
 40
0.53125
 40
0.546875
 40
0.5625
 40
0.59375
 40
0.625
 40
0.65625
 40
0.6875
 40
0.71875
 40
0.75
 40
0.78125
 40
0.8125
 40
0.84375
 40
0.875
 40
0.90625
 40
0.9375
 40
0.953125
 40
0.96875
 40
0.984375
 40
0.9921875
 40
1.0
 40
1.0
 40
1.0
 40
1.0
 10
-8.709711933461676
 20
230.87094496302757
 30
1.89e-14
 10
-8.709711933461676
 20
232.15604078292768
 30
1.95e-14
 10
-8.673253418287459
 20
234.72623242272857
 30
1.95e-14
 10
-8.44033287833554
 20
240.0671504499744
 30
1.42e-14
 10
-7.821447975926276
 20
247.0243580628205
 30
1.95e-14
 10
-6.4574285128665
 20
255.83222163406344
 30
1.6e-14
 10
-3.6687410461854597
 20
268.1225488671605
 30
1.07e-14
 10
1.9170202249956674
 20
284.37243455233556
 30
1.95e-14
 10
12.894268365194876
 20
304.42908383594977
 30
1.6e-14
 10
28.87477224310578
 20
323.5767346665766
 30
1.78e-14
 10
50.039322619745235
 20
339.7848521109545
 30
1.24e-14
 10
75.63978102060355
 20
350.77722647801056
 30
7.1e-15
 10
103.84028806653942
 20
354.6855012159235
 30
1.24e-14
 10
132.04079511247437
 20
350.77722647801056
 30
8.9e-15
 10
157.6412535133336
 20
339.7848521109545
 30
1.42e-14
 10
178.8058038899735
 20
323.5767346665766
 30
1.95e-14
 10
194.7863077678844
 20
304.42908383594977
 30
1.78e-14
 10
205.76355590808316
 20
284.37243455233556
 30
2.31e-14
 10
211.3493171792643
 20
268.1225488671605
 30
1.95e-14
 10
214.13800464594578
 20
255.83222163406344
 30
1.95e-14
 10
215.5020241090051
 20
247.0243580628205
 30
2.31e-14
 10
216.12090901141437
 20
240.0671504499744
 30
2.31e-14
 10
216.3538295513663
 20
234.72623242272857
 30
2.31e-14
 10
216.40851732412557
 20
230.87094496302757
 30
1.78e-14
 10
216.3538295513663
 20
227.01565750332566
 30
1.95e-14
 10
216.12090901141437
 20
221.67473947607937
 30
2.49e-14
 10
215.5020241090051
 20
214.71753186323372
 30
1.78e-14
 10
214.13800464594578
 20
205.9096682919917
 30
1.6e-14
 10
211.3493171792643
 20
193.61934105889463
 30
2.31e-14
 10
205.76355590808316
 20
177.36945537371957
 30
2.49e-14
 10
194.7863077678844
 20
157.3128060901056
 30
1.78e-14
 10
178.8058038899735
 20
138.16515525947761
 30
2.13e-14
 10
157.6412535133336
 20
121.95703781510065
 30
1.78e-14
 10
132.04079511247437
 20
110.96466344804367
 30
2.13e-14
 10
103.84028806653942
 20
107.05638871013048
 30
1.78e-14
 10
75.63978102060446
 20
110.96466344804367
 30
1.42e-14
 10
50.039322619745235
 20
121.95703781510065
 30
1.78e-14
 10
28.87477224310578
 20
138.16515525947761
 30
2.13e-14
 10
12.894268365194876
 20
157.3128060901056
 30
1.78e-14
 10
1.9170202249956674
 20
177.36945537371957
 30
2.13e-14
 10
-3.6687410461854597
 20
193.61934105889463
 30
2.31e-14
 10
-6.4574285128665
 20
205.9096682919917
 30
1.6e-14
 10
-7.821447975926276
 20
214.71753186323372
 30
1.95e-14
 10
-8.44033287833554
 20
221.67473947607937
 30
2.13e-14
 10
-8.673253418287459
 20
227.01565750332566
 30
1.6e-14
 10
-8.709711933460312
 20
229.58584914312655
 30
1.84e-14
 10
-8.709711933461676
 20
230.87094496302757
 30
1.89e-14
  0
ENDSEC
  0
SECTION
  2
OBJECTS
  0
DICTIONARY
  5
A
330
0
100
AcDbDictionary
281
1
  3
ACAD_COLOR
350
B
  3
ACAD_GROUP
350
C
  3
ACAD_LAYOUT
350
D
  3
ACAD_MATERIAL
350
E
  3
ACAD_MLEADERSTYLE
350
F
  3
ACAD_MLINESTYLE
350
10
  3
ACAD_PLOTSETTINGS
350
11
  3
ACAD_PLOTSTYLENAME
350
12
  3
ACAD_SCALELIST
350
14
  3
ACAD_TABLESTYLE
350
15
  3
ACAD_VISUALSTYLE
350
16
  3
EZDXF_META
350
2D
  0
DICTIONARY
  5
B
330
A
100
AcDbDictionary
281
1
  0
DICTIONARY
  5
C
330
A
100
AcDbDictionary
281
1
  0
DICTIONARY
  5
D
330
A
100
AcDbDictionary
281
1
  3
Model
350
1A
  3
Layout1
350
1E
  0
DICTIONARY
  5
E
330
A
100
AcDbDictionary
281
1
  3
ByBlock
350
1F
  3
ByLayer
350
20
  3
Global
350
21
  0
DICTIONARY
  5
F
330
A
100
AcDbDictionary
281
1
  3
Standard
350
2C
  0
DICTIONARY
  5
10
330
A
100
AcDbDictionary
281
1
  3
Standard
350
22
  0
DICTIONARY
  5
11
330
A
100
AcDbDictionary
281
1
  0
ACDBDICTIONARYWDFLT
  5
12
330
A
100
AcDbDictionary
281
1
  3
Normal
350
13
100
AcDbDictionaryWithDefault
340
13
  0
ACDBPLACEHOLDER
  5
13
330
12
  0
DICTIONARY
  5
14
330
A
100
AcDbDictionary
281
1
  0
DICTIONARY
  5
15
330
A
100
AcDbDictionary
281
1
  0
DICTIONARY
  5
16
330
A
100
AcDbDictionary
281
1
  0
LAYOUT
  5
1A
330
D
100
AcDbPlotSettings
  1

  4
A3
  6

 40
7.5
 41
20.0
 42
7.5
 43
20.0
 44
420.0
 45
297.0
 46
0.0
 47
0.0
 48
0.0
 49
0.0
140
0.0
141
0.0
142
1.0
143
1.0
 70
1024
 72
1
 73
0
 74
5
  7

 75
16
 76
0
 77
2
 78
300
147
1.0
148
0.0
149
0.0
100
AcDbLayout
  1
Model
 70
1
 71
0
 10
0.0
 20
0.0
 11
420.0
 21
297.0
 12
0.0
 22
0.0
 32
0.0
 14
-575.0001532528913
 24
-565.2334058879494
 34
0.0
 15
575.0001532528918
 25
565.2334058879496
 35
0.0
146
0.0
 13
0.0
 23
0.0
 33
0.0
 16
1.0
 26
0.0
 36
0.0
 17
0.0
 27
1.0
 37
0.0
 76
1
330
17
  0
LAYOUT
  5
1E
330
D
100
AcDbPlotSettings
  1

  4
A3
  6

 40
7.5
 41
20.0
 42
7.5
 43
20.0
 44
420.0
 45
297.0
 46
0.0
 47
0.0
 48
0.0
 49
0.0
140
0.0
141
0.0
142
1.0
143
1.0
 70
0
 72
1
 73
0
 74
5
  7

 75
16
 76
0
 77
2
 78
300
147
1.0
148
0.0
149
0.0
100
AcDbLayout
  1
Layout1
 70
1
 71
1
 10
0.0
 20
0.0
 11
420.0
 21
297.0
 12
0.0
 22
0.0
 32
0.0
 14
1e+20
 24
1e+20
 34
1e+20
 15
-1e+20
 25
-1e+20
 35
-1e+20
146
0.0
 13
0.0
 23
0.0
 33
0.0
 16
1.0
 26
0.0
 36
0.0
 17
0.0
 27
1.0
 37
0.0
 76
1
330
1B
  0
MATERIAL
  5
1F
102
{ACAD_REACTORS
330
E
102
}
330
E
100
AcDbMaterial
  1
ByBlock
  2

 70
0
 40
1.0
 71
1
 41
1.0
 91
-1023410177
 42
1.0
 72
1
  3

 73
1
 74
1
 75
1
 44
0.5
 73
0
 45
1.0
 46
1.0
 77
1
  4

 78
1
 79
1
170
1
 48
1.0
171
1
  6

172
1
173
1
174
1
140
1.0
141
1.0
175
1
  7

176
1
177
1
178
1
143
1.0
179
1
  8

270
1
271
1
272
1
145
1.0
146
1.0
273
1
  9

274
1
275
1
276
1
 42
1.0
 72
1
  3

 73
1
 74
1
 75
1
 94
63
  0
MATERIAL
  5
20
102
{ACAD_REACTORS
330
E
102
}
330
E
100
AcDbMaterial
  1
ByLayer
  2

 70
0
 40
1.0
 71
1
 41
1.0
 91
-1023410177
 42
1.0
 72
1
  3

 73
1
 74
1
 75
1
 44
0.5
 73
0
 45
1.0
 46
1.0
 77
1
  4

 78
1
 79
1
170
1
 48
1.0
171
1
  6

172
1
173
1
174
1
140
1.0
141
1.0
175
1
  7

176
1
177
1
178
1
143
1.0
179
1
  8

270
1
271
1
272
1
145
1.0
146
1.0
273
1
  9

274
1
275
1
276
1
 42
1.0
 72
1
  3

 73
1
 74
1
 75
1
 94
63
  0
MATERIAL
  5
21
102
{ACAD_REACTORS
330
E
102
}
330
E
100
AcDbMaterial
  1
Global
  2

 70
0
 40
1.0
 71
1
 41
1.0
 91
-1023410177
 42
1.0
 72
1
  3

 73
1
 74
1
 75
1
 44
0.5
 73
0
 45
1.0
 46
1.0
 77
1
  4

 78
1
 79
1
170
1
 48
1.0
171
1
  6

172
1
173
1
174
1
140
1.0
141
1.0
175
1
  7

176
1
177
1
178
1
143
1.0
179
1
  8

270
1
271
1
272
1
145
1.0
146
1.0
273
1
  9

274
1
275
1
276
1
 42
1.0
 72
1
  3

 73
1
 74
1
 75
1
 94
63
  0
MLINESTYLE
  5
22
102
{ACAD_REACTORS
330
10
102
}
330
10
100
AcDbMlineStyle
  2
Standard
 70
0
  3

 62
256
 51
90.0
 52
90.0
 71
2
 49
0.5
 62
256
  6
BYLAYER
 49
-0.5
 62
256
  6
BYLAYER
  0
MLEADERSTYLE
  5
2C
102
{ACAD_REACTORS
330
F
102
}
330
F
100
AcDbMLeaderStyle
179
2
170
2
171
1
172
0
 90
2
 40
0.0
 41
0.0
173
1
 91
-1056964608
 92
-2
290
1
 42
2.0
291
1
 43
8.0
  3
Standard
 44
4.0
300

342
29
174
1
175
1
176
0
178
1
 93
-1056964608
 45
4.0
292
0
297
0
 46
4.0
 94
-1056964608
 47
1.0
 49
1.0
140
1.0
294
1
141
0.0
177
0
142
1.0
295
0
296
0
143
3.75
271
0
272
9
273
9
  0
DICTIONARY
  5
2D
330
A
100
AcDbDictionary
280
1
281
1
  3
CREATED_BY_EZDXF
350
2E
  3
WRITTEN_BY_EZDXF
350
67
  0
DICTIONARYVAR
  5
2E
330
2D
100
DictionaryVariables
280
0
  1
1.4.4 @ 2026-07-04T08:21:23.261982+00:00
  0
DICTIONARYVAR
  5
67
330
2D
100
DictionaryVariables
280
0
  1
1.4.4 @ 2026-07-04T08:37:06.020642+00:00
  0
ENDSEC
  0
EOF
