  0
SECTION
  2
HEADER
  9
$ACADVER
  1
AC1021
  9
$ACADMAINTVER
 70
25
  9
$DWGCODEPAGE
  3
ANSI_1252
  9
$LASTSAVEDBY
  1
ezdxf
  9
$INSBASE
 10
0.0
 20
0.0
 30
0.0
  9
$EXTMIN
 10
-359.7925218252266
 20
-203.98828715506025
 30
0.0
  9
$EXTMAX
 10
359.95719447828327
 20
204.32958819515483
 30
0.0
  9
$LIMMIN
 10
0.0
 20
0.0
  9
$LIMMAX
 10
420.0
 20
297.0
  9
$ORTHOMODE
 70
0
  9
$REGENMODE
 70
1
  9
$FILLMODE
 70
1
  9
$QTEXTMODE
 70
0
  9
$MIRRTEXT
 70
1
  9
$LTSCALE
 40
1.0
  9
$ATTMODE
 70
1
  9
$TEXTSIZE
 40
2.5
  9
$TRACEWID
 40
1.0
  9
$TEXTSTYLE
  7
Standard
  9
$CLAYER
  8
0
  9
$CELTYPE
  6
ByLayer
  9
$CECOLOR
 62
256
  9
$CELTSCALE
 40
1.0
  9
$DISPSILH
 70
0
  9
$DIMSCALE
 40
1.0
  9
$DIMASZ
 40
2.5
  9
$DIMEXO
 40
0.625
  9
$DIMDLI
 40
3.75
  9
$DIMRND
 40
0.0
  9
$DIMDLE
 40
0.0
  9
$DIMEXE
 40
1.25
  9
$DIMTP
 40
0.0
  9
$DIMTM
 40
0.0
  9
$DIMTXT
 40
2.5
  9
$DIMCEN
 40
2.5
  9
$DIMTSZ
 40
0.0
  9
$DIMTOL
 70
0
  9
$DIMLIM
 70
0
  9
$DIMTIH
 70
0
  9
$DIMTOH
 70
0
  9
$DIMSE1
 70
0
  9
$DIMSE2
 70
0
  9
$DIMTAD
 70
1
  9
$DIMZIN
 70
8
  9
$DIMBLK
  1

  9
$DIMASO
 70
1
  9
$DIMSHO
 70
1
  9
$DIMPOST
  1

  9
$DIMAPOST
  1

  9
$DIMALT
 70
0
  9
$DIMALTD
 70
3
  9
$DIMALTF
 40
0.03937007874
  9
$DIMLFAC
 40
1.0
  9
$DIMTOFL
 70
1
  9
$DIMTVP
 40
0.0
  9
$DIMTIX
 70
0
  9
$DIMSOXD
 70
0
  9
$DIMSAH
 70
0
  9
$DIMBLK1
  1

  9
$DIMBLK2
  1

  9
$DIMSTYLE
  2
ISO-25
  9
$DIMCLRD
 70
0
  9
$DIMCLRE
 70
0
  9
$DIMCLRT
 70
0
  9
$DIMTFAC
 40
1.0
  9
$DIMGAP
 40
0.625
  9
$DIMJUST
 70
0
  9
$DIMSD1
 70
0
  9
$DIMSD2
 70
0
  9
$DIMTOLJ
 70
0
  9
$DIMTZIN
 70
8
  9
$DIMALTZ
 70
0
  9
$DIMALTTZ
 70
0
  9
$DIMUPT
 70
0
  9
$DIMDEC
 70
2
  9
$DIMTDEC
 70
2
  9
$DIMALTU
 70
2
  9
$DIMALTTD
 70
3
  9
$DIMTXSTY
  7
Standard
  9
$DIMAUNIT
 70
0
  9
$DIMADEC
 70
0
  9
$DIMALTRND
 40
0.0
  9
$DIMAZIN
 70
0
  9
$DIMDSEP
 70
44
  9
$DIMATFIT
 70
3
  9
$DIMFRAC
 70
0
  9
$DIMLDRBLK
  1

  9
$DIMLUNIT
 70
2
  9
$DIMLWD
 70
-2
  9
$DIMLWE
 70
-2
  9
$DIMTMOVE
 70
0
  9
$DIMFXL
 40
1.0
  9
$DIMFXLON
 70
0
  9
$DIMJOGANG
 40
0.785398163397
  9
$DIMTFILL
 70
0
  9
$DIMTFILLCLR
 70
0
  9
$DIMARCSYM
 70
0
  9
$DIMLTYPE
  6

  9
$DIMLTEX1
  6

  9
$DIMLTEX2
  6

  9
$LUNITS
 70
2
  9
$LUPREC
 70
4
  9
$SKETCHINC
 40
1.0
  9
$FILLETRAD
 40
10.0
  9
$AUNITS
 70
0
  9
$AUPREC
 70
2
  9
$MENU
  1
.
  9
$ELEVATION
 40
0.0
  9
$PELEVATION
 40
0.0
  9
$THICKNESS
 40
0.0
  9
$LIMCHECK
 70
0
  9
$CHAMFERA
 40
0.0
  9
$CHAMFERB
 40
0.0
  9
$CHAMFERC
 40
0.0
  9
$CHAMFERD
 40
0.0
  9
$SKPOLY
 70
0
  9
$TDCREATE
 40
2461228.8254050924
  9
$TDUCREATE
 40
2458532.153996898
  9
$TDUPDATE
 40
2461228.8254050924
  9
$TDUUPDATE
 40
2458532.1544311
  9
$TDINDWG
 40
0.0
  9
$TDUSRTIMER
 40
0.0
  9
$USRTIMER
 70
1
  9
$ANGBASE
 50
0.0
  9
$ANGDIR
 70
0
  9
$PDMODE
 70
0
  9
$PDSIZE
 40
0.0
  9
$PLINEWID
 40
0.0
  9
$SPLFRAME
 70
0
  9
$SPLINETYPE
 70
6
  9
$SPLINESEGS
 70
8
  9
$HANDSEED
  5
6A
  9
$SURFTAB1
 70
6
  9
$SURFTAB2
 70
6
  9
$SURFTYPE
 70
6
  9
$SURFU
 70
6
  9
$SURFV
 70
6
  9
$UCSBASE
  2

  9
$UCSNAME
  2

  9
$UCSORG
 10
0.0
 20
0.0
 30
0.0
  9
$UCSXDIR
 10
1.0
 20
0.0
 30
0.0
  9
$UCSYDIR
 10
0.0
 20
1.0
 30
0.0
  9
$UCSORTHOREF
  2

  9
$UCSORTHOVIEW
 70
0
  9
$UCSORGTOP
 10
0.0
 20
0.0
 30
0.0
  9
$UCSORGBOTTOM
 10
0.0
 20
0.0
 30
0.0
  9
$UCSORGLEFT
 10
0.0
 20
0.0
 30
0.0
  9
$UCSORGRIGHT
 10
0.0
 20
0.0
 30
0.0
  9
$UCSORGFRONT
 10
0.0
 20
0.0
 30
0.0
  9
$UCSORGBACK
 10
0.0
 20
0.0
 30
0.0
  9
$PUCSBASE
  2

  9
$PUCSNAME
  2

  9
$PUCSORG
 10
0.0
 20
0.0
 30
0.0
  9
$PUCSXDIR
 10
1.0
 20
0.0
 30
0.0
  9
$PUCSYDIR
 10
0.0
 20
1.0
 30
0.0
  9
$PUCSORTHOREF
  2

  9
$PUCSORTHOVIEW
 70
0
  9
$PUCSORGTOP
 10
0.0
 20
0.0
 30
0.0
  9
$PUCSORGBOTTOM
 10
0.0
 20
0.0
 30
0.0
  9
$PUCSORGLEFT
 10
0.0
 20
0.0
 30
0.0
  9
$PUCSORGRIGHT
 10
0.0
 20
0.0
 30
0.0
  9
$PUCSORGFRONT
 10
0.0
 20
0.0
 30
0.0
  9
$PUCSORGBACK
 10
0.0
 20
0.0
 30
0.0
  9
$USERI1
 70
0
  9
$USERI2
 70
0
  9
$USERI3
 70
0
  9
$USERI4
 70
0
  9
$USERI5
 70
0
  9
$USERR1
 40
0.0
  9
$USERR2
 40
0.0
  9
$USERR3
 40
0.0
  9
$USERR4
 40
0.0
  9
$USERR5
 40
0.0
  9
$WORLDVIEW
 70
1
  9
$SHADEDGE
 70
3
  9
$SHADEDIF
 70
70
  9
$TILEMODE
 70
1
  9
$MAXACTVP
 70
64
  9
$PINSBASE
 10
0.0
 20
0.0
 30
0.0
  9
$PLIMCHECK
 70
0
  9
$PEXTMIN
 10
1e+20
 20
1e+20
 30
1e+20
  9
$PEXTMAX
 10
-1e+20
 20
-1e+20
 30
-1e+20
  9
$PLIMMIN
 10
0.0
 20
0.0
  9
$PLIMMAX
 10
420.0
 20
297.0
  9
$UNITMODE
 70
0
  9
$VISRETAIN
 70
1
  9
$PLINEGEN
 70
0
  9
$PSLTSCALE
 70
1
  9
$TREEDEPTH
 70
3020
  9
$CMLSTYLE
  2
Standard
  9
$CMLJUST
 70
0
  9
$CMLSCALE
 40
20.0
  9
$PROXYGRAPHICS
 70
1
  9
$MEASUREMENT
 70
1
  9
$CELWEIGHT
370
-1
  9
$ENDCAPS
280
0
  9
$JOINSTYLE
280
0
  9
$LWDISPLAY
290
0
  9
$INSUNITS
 70
6
  9
$HYPERLINKBASE
  1

  9
$STYLESHEET
  1

  9
$XEDIT
290
1
  9
$CEPSNTYPE
380
0
  9
$PSTYLEMODE
290
1
  9
$FINGERPRINTGUID
  2
{E9486845-1D96-49B9-AA14-B3CAFA26C273}
  9
$VERSIONGUID
  2
{B6240390-7395-4025-B626-445586699AD2}
  9
$EXTNAMES
290
1
  9
$PSVPSCALE
 40
0.0
  9
$OLESTARTUP
290
0
  9
$SORTENTS
280
127
  9
$INDEXCTL
280
0
  9
$HIDETEXT
280
1
  9
$XCLIPFRAME
290
1
  9
$HALOGAP
280
0
  9
$OBSCOLOR
 70
257
  9
$OBSLTYPE
280
0
  9
$INTERSECTIONDISPLAY
280
0
  9
$INTERSECTIONCOLOR
 70
257
  9
$DIMASSOC
280
2
  9
$PROJECTNAME
  1

  9
$CAMERADISPLAY
290
0
  9
$LENSLENGTH
 40
50.0
  9
$CAMERAHEIGHT
 40
0.0
  9
$STEPSPERSEC
 40
24.0
  9
$STEPSIZE
 40
100.0
  9
$3DDWFPREC
 40
2.0
  9
$PSOLWIDTH
 40
0.005
  9
$PSOLHEIGHT
 40
0.08
  9
$LOFTANG1
 40
1.570796326795
  9
$LOFTANG2
 40
1.570796326795
  9
$LOFTMAG1
 40
0.0
  9
$LOFTMAG2
 40
0.0
  9
$LOFTPARAM
 70
7
  9
$LOFTNORMALS
280
1
  9
$LATITUDE
 40
37.795
  9
$LONGITUDE
 40
-122.394
  9
$NORTHDIRECTION
 40
0.0
  9
$TIMEZONE
 70
-8000
  9
$LIGHTGLYPHDISPLAY
280
1
  9
$TILEMODELIGHTSYNCH
280
1
  9
$CMATERIAL
347
20
  9
$SOLIDHIST
280
0
  9
$SHOWHIST
280
1
  9
$DWFFRAME
280
2
  9
$DGNFRAME
280
2
  9
$REALWORLDSCALE
290
1
  9
$INTERFERECOLOR
 62
256
  9
$CSHADOW
280
0
  9
$SHADOWPLANELOCATION
 40
0.0
  0
ENDSEC
  0
SECTION
  2
CLASSES
  0
CLASS
  1
ACDBDICTIONARYWDFLT
  2
AcDbDictionaryWithDefault
  3
ObjectDBX Classes
 90
0
 91
0
280
0
281
0
  0
CLASS
  1
SUN
  2
AcDbSun
  3
SCENEOE
 90
1153
 91
0
280
0
281
0
  0
CLASS
  1
VISUALSTYLE
  2
AcDbVisualStyle
  3
ObjectDBX Classes
 90
4095
 91
0
280
0
281
0
  0
CLASS
  1
MATERIAL
  2
AcDbMaterial
  3
ObjectDBX Classes
 90
1153
 91
0
280
0
281
0
  0
CLASS
  1
SCALE
  2
AcDbScale
  3
ObjectDBX Classes
 90
1153
 91
0
280
0
281
0
  0
CLASS
  1
TABLESTYLE
  2
AcDbTableStyle
  3
ObjectDBX Classes
 90
4095
 91
0
280
0
281
0
  0
CLASS
  1
MLEADERSTYLE
  2
AcDbMLeaderStyle
  3
ACDB_MLEADERSTYLE_CLASS
 90
4095
 91
0
280
0
281
0
  0
CLASS
  1
DICTIONARYVAR
  2
AcDbDictionaryVar
  3
ObjectDBX Classes
 90
0
 91
0
280
0
281
0
  0
CLASS
  1
CELLSTYLEMAP
  2
AcDbCellStyleMap
  3
ObjectDBX Classes
 90
1152
 91
0
280
0
281
0
  0
CLASS
  1
MENTALRAYRENDERSETTINGS
  2
AcDbMentalRayRenderSettings
  3
SCENEOE
 90
1024
 91
0
280
0
281
0
  0
CLASS
  1
ACDBDETAILVIEWSTYLE
  2
AcDbDetailViewStyle
  3
ObjectDBX Classes
 90
1025
 91
0
280
0
281
0
  0
CLASS
  1
ACDBSECTIONVIEWSTYLE
  2
AcDbSectionViewStyle
  3
ObjectDBX Classes
 90
1025
 91
0
280
0
281
0
  0
CLASS
  1
RASTERVARIABLES
  2
AcDbRasterVariables
  3
ISM
 90
0
 91
0
280
0
281
0
  0
CLASS
  1
ACDBPLACEHOLDER
  2
AcDbPlaceHolder
  3
ObjectDBX Classes
 90
0
 91
0
280
0
281
0
  0
CLASS
  1
LAYOUT
  2
AcDbLayout
  3
ObjectDBX Classes
 90
0
 91
0
280
0
281
0
  0
ENDSEC
  0
SECTION
  2
TABLES
  0
TABLE
  2
VPORT
  5
8
330
0
100
AcDbSymbolTable
 70
1
  0
VPORT
  5
23
330
8
100
AcDbSymbolTableRecord
100
AcDbViewportTableRecord
  2
*Active
 70
0
 10
0.0
 20
0.0
 11
1.0
 21
1.0
 12
0.0
 22
0.0
 13
0.0
 23
0.0
 14
0.5
 24
0.5
 15
0.5
 25
0.5
 16
0.0
 26
0.0
 36
1.0
 17
0.0
 27
0.0
 37
0.0
 40
1000.0
 41
1.34
 42
50.0
 43
0.0
 44
0.0
 50
0.0
 51
0.0
 71
0
 72
1000
 73
1
 74
3
 75
0
 76
0
 77
0
 78
0
281
0
 65
0
146
0.0
  0
ENDTAB
  0
TABLE
  2
LTYPE
  5
2
330
0
100
AcDbSymbolTable
 70
3
  0
LTYPE
  5
24
330
2
100
AcDbSymbolTableRecord
100
AcDbLinetypeTableRecord
  2
ByBlock
 70
0
  3

 72
65
 73
0
 40
0.0
  0
LTYPE
  5
25
330
2
100
AcDbSymbolTableRecord
100
AcDbLinetypeTableRecord
  2
ByLayer
 70
0
  3

 72
65
 73
0
 40
0.0
  0
LTYPE
  5
26
330
2
100
AcDbSymbolTableRecord
100
AcDbLinetypeTableRecord
  2
Continuous
 70
0
  3

 72
65
 73
0
 40
0.0
  0
ENDTAB
  0
TABLE
  2
LAYER
  5
1
330
0
100
AcDbSymbolTable
 70
3
  0
LAYER
  5
27
330
1
100
AcDbSymbolTableRecord
100
AcDbLayerTableRecord
  2
0
 70
0
 62
7
  6
Continuous
370
-3
390
13
347
21
  0
LAYER
  5
28
330
1
100
AcDbSymbolTableRecord
100
AcDbLayerTableRecord
  2
Defpoints
 70
0
 62
7
  6
Continuous
290
0
370
-3
390
13
347
21
  0
LAYER
  5
2F
330
1
100
AcDbSymbolTableRecord
100
AcDbLayerTableRecord
  2
101
 70
0
 62
7
  6
Continuous
370
-3
390
13
347
21
  0
ENDTAB
  0
TABLE
  2
STYLE
  5
5
330
0
100
AcDbSymbolTable
 70
1
  0
STYLE
  5
29
330
5
100
AcDbSymbolTableRecord
100
AcDbTextStyleTableRecord
  2
Standard
 70
0
 40
0.0
 41
1.0
 50
0.0
 71
0
 42
2.5
  3
txt
  4

  0
ENDTAB
  0
TABLE
  2
VIEW
  5
7
330
0
100
AcDbSymbolTable
 70
0
  0
ENDTAB
  0
TABLE
  2
UCS
  5
6
330
0
100
AcDbSymbolTable
 70
0
  0
ENDTAB
  0
TABLE
  2
APPID
  5
3
330
0
100
AcDbSymbolTable
 70
3
  0
APPID
  5
2A
330
3
100
AcDbSymbolTableRecord
100
AcDbRegAppTableRecord
  2
ACAD
 70
0
  0
APPID
  5
67
330
3
100
AcDbSymbolTableRecord
100
AcDbRegAppTableRecord
  2
HATCHBACKGROUNDCOLOR
 70
0
  0
APPID
  5
68
330
3
100
AcDbSymbolTableRecord
100
AcDbRegAppTableRecord
  2
EZDXF
 70
0
  0
ENDTAB
  0
TABLE
  2
DIMSTYLE
  5
4
330
0
100
AcDbSymbolTable
 70
1
100
AcDbDimStyleTable
  0
DIMSTYLE
105
2B
330
4
100
AcDbSymbolTableRecord
100
AcDbDimStyleTableRecord
  2
Standard
 70
0
 40
1.0
 41
2.5
 42
0.625
 43
3.75
 44
1.25
 45
0.0
 46
0.0
 47
0.0
 48
0.0
 49
2.5
140
2.5
141
2.5
142
0.0
143
0.03937007874
144
1.0
145
0.0
146
1.0
147
0.625
148
0.0
 69
0
 70
0
 71
0
 72
0
 73
0
 74
0
 75
0
 76
0
 77
1
 78
8
 79
3
170
0
171
3
172
1
173
0
174
0
175
0
176
0
177
0
178
0
179
2
271
2
272
2
273
2
274
3
275
0
276
0
277
2
278
44
279
0
280
0
281
0
282
0
283
0
284
8
285
0
286
0
288
0
289
3
290
0
371
-2
372
-2
  0
ENDTAB
  0
TABLE
  2
BLOCK_RECORD
  5
9
330
0
100
AcDbSymbolTable
 70
2
  0
BLOCK_RECORD
  5
17
330
9
100
AcDbSymbolTableRecord
100
AcDbBlockTableRecord
  2
*Model_Space
340
1A
 70
0
280
1
281
0
  0
BLOCK_RECORD
  5
1B
330
9
100
AcDbSymbolTableRecord
100
AcDbBlockTableRecord
  2
*Paper_Space
340
1E
 70
0
280
1
281
0
  0
ENDTAB
  0
ENDSEC
  0
SECTION
  2
BLOCKS
  0
BLOCK
  5
18
330
17
100
AcDbEntity
  8
0
100
AcDbBlockBegin
  2
*Model_Space
 70
0
 10
0.0
 20
0.0
 30
0.0
  3
*Model_Space
  1

  0
ENDBLK
  5
19
330
17
100
AcDbEntity
  8
0
100
AcDbBlockEnd
  0
BLOCK
  5
1C
330
1B
100
AcDbEntity
  8
0
100
AcDbBlockBegin
  2
*Paper_Space
 70
0
 10
0.0
 20
0.0
 30
0.0
  3
*Paper_Space
  1

  0
ENDBLK
  5
1D
330
1B
100
AcDbEntity
  8
0
100
AcDbBlockEnd
  0
ENDSEC
  0
SECTION
  2
ENTITIES
  0
LINE
  5
30
330
17
100
AcDbEntity
  8
101
  6
Continuous
 62
7
370
18
100
AcDbLine
 10
300.9272843934443
 20
202.8555460489937
 30
1.42e-14
 11
296.90820490325336
 21
204.15364464051675
 31
0.0
  0
LINE
  5
31
330
17
100
AcDbEntity
  8
101
  6
Continuous
 62
7
370
18
100
AcDbLine
 10
359.9555106280927
 20
112.35443647267743
 30
0.0
 11
359.71558652232807
 21
117.3278311035931
 31
-7.1e-15
  0
LINE
  5
32
330
17
100
AcDbEntity
  8
101
  6
Continuous
 62
6
370
13
100
AcDbLine
 10
-296.3662691113508
 20
-203.94071425487073
 30
4e-16
 11
-296.60619321711545
 21
-198.96731962395495
 31
9e-16
  0
LINE
  5
33
330
17
100
AcDbEntity
  8
101
  6
Continuous
 62
6
370
13
100
AcDbLine
 10
-353.815677501407
 20
-113.42215317121384
 30
9e-16
 11
-357.83475699159794
 21
-112.12405457969112
 31
9e-16
  0
LINE
  5
34
330
17
100
AcDbEntity
  8
101
  6
Continuous
 62
6
370
13
100
AcDbLine
 10
329.7986606115219
 20
146.73296545294772
 30
7.1e-15
 11
-350.9355304591386
 21
-181.39331903775962
 31
0.0
  0
LINE
  5
35
330
17
100
AcDbEntity
  8
101
  6
Continuous
 62
7
370
18
100
AcDbLine
 10
-357.1399907953704
 20
-174.36322394047056
 30
0.0
 11
-359.779155958783
 21
-119.6558830003969
 31
2e-16
  0
LINE
  5
36
330
17
100
AcDbEntity
  8
101
  6
Continuous
 62
7
370
18
100
AcDbLine
 10
-302.9924413460369
 20
-203.27579263291182
 30
0.0
 11
-347.20231573813953
 21
-188.99670812616057
 31
1e-16
  0
LINE
  5
37
330
17
100
AcDbEntity
  8
101
  6
Continuous
 62
7
370
18
100
AcDbLine
 10
-260.6213851307707
 20
-160.2045944557143
 30
0.0
 11
-280.0709334470762
 21
-169.57963115544885
 31
-9e-16
  0
LINE
  5
38
330
17
100
AcDbEntity
  8
101
  6
Continuous
 62
7
370
18
100
AcDbLine
 10
-187.68557894462947
 20
-125.0482068317101
 30
0.0
 11
-207.13512726093404
 21
-134.42324353144454
 31
1.8e-15
  0
LINE
  5
39
330
17
100
AcDbEntity
  8
101
  6
Continuous
 62
7
370
18
100
AcDbLine
 10
-184.26934914145772
 20
-70.68025491293031
 30
-1.8e-15
 11
-167.250994364691
 21
-62.477097800662705
 31
0.0
  0
LINE
  5
3A
330
17
100
AcDbEntity
  8
101
  6
Continuous
 62
7
370
18
100
AcDbLine
 10
357.6106968041513
 20
109.7546772840966
 30
7.1e-15
 11
-290.21599168020657
 21
-202.5095913167828
 31
0.0
  0
LINE
  5
3B
330
17
100
AcDbEntity
  8
101
  6
Continuous
 62
7
370
18
100
AcDbLine
 10
-207.3750513666987
 20
-129.44984890052876
 30
-1.8e-15
 11
-187.92550305039413
 21
-120.07481220079433
 31
0.0
  0
LINE
  5
3C
330
17
100
AcDbEntity
  8
101
  6
Continuous
 62
7
370
18
100
AcDbLine
 10
-191.2987334059335
 20
-134.6422432666202
 30
0.0
 11
-171.84918508962915
 21
-125.26720656688565
 31
0.0
  0
LINE
  5
3D
330
17
100
AcDbEntity
  8
101
  6
Continuous
 62
7
370
18
100
AcDbLine
 10
-280.31085755284107
 20
-164.60623652453307
 30
-9e-16
 11
-260.8613092365356
 21
-155.23119982479852
 31
0.0
  0
LINE
  5
3E
330
17
100
AcDbEntity
  8
101
  6
Continuous
 62
7
370
18
100
AcDbLine
 10
-264.23453959207586
 20
-169.7986308906244
 30
9e-16
 11
-244.78499127577152
 21
-160.42359419088996
 31
9e-16
  0
LINE
  5
3F
330
17
100
AcDbEntity
  8
101
  6
Continuous
 62
7
370
18
100
AcDbLine
 10
-347.4422398439043
 20
-184.0233134952448
 30
2e-16
 11
-303.2323654518017
 21
-198.30239800199604
 31
4e-16
  0
LINE
  5
40
330
17
100
AcDbEntity
  8
101
  6
Continuous
 62
7
370
18
100
AcDbLine
 10
357.3707726983864
 20
114.72807191501226
 30
7.1e-15
 11
-290.45591578597146
 21
-197.53619668586703
 31
0.0
  0
LINE
  5
41
330
17
100
AcDbEntity
  8
101
  6
Continuous
 62
7
370
18
100
AcDbLine
 10
359.70662107959834
 20
117.43335571393936
 30
7.1e-15
 11
357.58816312876684
 21
134.82261669389038
 31
0.0
  0
LINE
  5
42
330
17
100
AcDbEntity
  8
101
  6
Continuous
 62
7
370
18
100
AcDbLine
 10
333.2919512267549
 20
144.10297099546244
 30
-7.1e-15
 11
354.63183277941425
 21
137.21052951616844
 31
-7.1e-15
  0
LINE
  5
43
330
17
100
AcDbEntity
  8
101
  6
Continuous
 62
7
370
18
100
AcDbLine
 10
-181.20996607432517
 20
-52.084774980790144
 30
-1.8e-15
 11
-164.19161129755844
 21
-43.88161786852231
 31
1.8e-15
  0
LINE
  5
44
330
17
100
AcDbEntity
  8
101
  6
Continuous
 62
7
370
18
100
AcDbLine
 10
-180.25026965126608
 20
-71.97835350445314
 30
-1.8e-15
 11
-163.23191487449935
 21
-63.775196392185535
 31
0.0
  0
LINE
  5
45
330
17
100
AcDbEntity
  8
101
  6
Continuous
 62
7
370
18
100
AcDbLine
 10
326.3393681618056
 20
178.87191723227681
 30
-7.1e-15
 11
327.61327976548046
 21
152.4649619587134
 31
-7.1e-15
  0
LINE
  5
46
330
17
100
AcDbEntity
  8
101
  6
Continuous
 62
7
370
18
100
AcDbLine
 10
324.27641463816053
 20
183.87503005291876
 30
-7.1e-15
 11
302.1596261898121
 21
202.17279776693556
 31
7.1e-15
  0
LINE
  5
47
330
17
100
AcDbEntity
  8
101
  6
Continuous
 62
7
370
18
100
AcDbLine
 10
297.74472235500366
 20
202.52897702915322
 30
0.0
 11
-350.08196612935444
 21
-109.7352915717263
 31
9e-16
  0
LINE
  5
48
330
17
100
AcDbEntity
  8
101
  6
Continuous
 62
7
370
18
100
AcDbLine
 10
-355.76007646859125
 20
-120.95398159191973
 30
0.0
 11
-353.1209113051797
 21
-175.66132253199328
 31
1e-16
  0
LINE
  5
49
330
17
100
AcDbEntity
  8
101
  6
Continuous
 62
7
370
18
100
AcDbLine
 10
293.7256428648127
 20
203.8270756206756
 30
7.1e-15
 11
-354.1010456195452
 21
-108.43719298020358
 31
7e-16
  0
ELLIPSE
  5
4A
330
17
100
AcDbEntity
  8
101
  6
Continuous
 62
7
370
18
100
AcDbEllipse
 10
-347.76213865159036
 20
-177.39212065402364
 30
1e-16
 11
5.503724313016564
 21
-11.418083509866959
 31
8.59354351997251e-17
210
-7.664070995412832e-18
220
3.832035497706416e-18
230
0.9999999999999999
 40
0.6667997697314693
 41
4.146095330436964
 42
5.716891657231861
  0
ELLIPSE
  5
4B
330
17
100
AcDbEntity
  8
101
  6
Continuous
 62
7
370
18
100
AcDbEllipse
 10
-296.91445749719173
 20
-200.3460936642448
 30
4e-16
 11
9.043279640926686
 21
0.43626153604270806
 31
6.763656750703399e-17
210
-7.664070995412833e-18
220
3.8320354977064175e-18
230
1.0
 40
0.39982554694153505
 41
3.956231397249693
 42
5.527027724044588
  0
ELLIPSE
  5
4C
330
17
100
AcDbEntity
  8
101
  6
Continuous
 62
7
370
18
100
AcDbEllipse
 10
-353.7011721099369
 20
-116.72618403172976
 30
2e-16
 11
-2.7826885288327237
 21
-8.615560071366934
 31
1.168840958300523e-17
210
-7.664070995412832e-18
220
3.832035497706415e-18
230
1.0
 40
0.6289018994238784
 41
3.681731668291119
 42
5.252527995086014
  0
ELLIPSE
  5
4D
330
17
100
AcDbEntity
  8
101
  6
Continuous
 62
7
370
18
100
AcDbEllipse
 10
-272.0327744666936
 20
-172.17582833849428
 30
1.8e-15
 11
-10.851935569112026
 21
-0.5235138432512499
 31
-8.116388100844083e-17
210
-7.664070995412835e-18
220
3.832035497706415e-18
230
1.0
 40
0.3998255469415349
 41
5.527027724044591
 42
5.672915432895074
  0
ELLIPSE
  5
4E
330
17
100
AcDbEntity
  8
101
  6
Continuous
 62
7
370
18
100
AcDbEllipse
 10
-252.58322615038833
 20
-162.80079163875973
 30
0.0
 11
-10.851935569112026
 21
-0.5235138432512499
 31
-8.116388100844083e-17
210
-7.664070995412835e-18
220
3.832035497706415e-18
230
1.0
 40
0.3998255469415349
 41
3.751929699995931
 42
5.52702772404459
  0
ELLIPSE
  5
4F
330
17
100
AcDbEntity
  8
101
  6
Continuous
 62
7
370
18
100
AcDbEllipse
 10
-199.09696828055144
 20
-137.0194407144902
 30
-1.8e-15
 11
-10.851935569112026
 21
-0.5235138432512499
 31
-8.116388100844083e-17
210
-7.664070995412835e-18
220
3.832035497706415e-18
230
1.0
 40
0.3998255469415349
 41
5.52702772404459
 42
5.672915432895615
  0
ELLIPSE
  5
50
330
17
100
AcDbEntity
  8
101
  6
Continuous
 62
7
370
18
100
AcDbEllipse
 10
-179.64741996424596
 20
-127.64440401475565
 30
0.0
 11
-10.851935569112026
 21
-0.5235138432512499
 31
-8.116388100844083e-17
210
-7.664070995412835e-18
220
3.832035497706415e-18
230
1.0
 40
0.3998255469415349
 41
3.751929699995959
 42
5.527027724044589
  0
ELLIPSE
  5
51
330
17
100
AcDbEntity
  8
101
  6
Continuous
 62
7
370
18
100
AcDbEllipse
 10
-184.74919735298545
 20
-60.733465651098754
 30
0.0
 11
3.3392262345992703
 21
10.33867208564033
 31
-1.402609149960628e-17
210
-7.664070995412829e-18
220
3.8320354977064136e-18
230
1.0
 40
0.6289018994238782
 41
3.455782434165109
 42
3.681731668291119
  0
ELLIPSE
  5
52
330
17
100
AcDbEntity
  8
101
  6
Continuous
 62
7
370
18
100
AcDbEllipse
 10
-167.73084257621963
 20
-52.53030853883081
 30
0.0
 11
3.3392262345992703
 21
10.33867208564033
 31
-1.402609149960628e-17
210
-7.664070995412829e-18
220
3.8320354977064136e-18
230
1.0
 40
0.6289018994238782
 41
3.681731668291119
 42
5.968958382206729
  0
ELLIPSE
  5
53
330
17
100
AcDbEntity
  8
101
  6
Continuous
 62
7
370
18
100
AcDbEllipse
 10
150.99490141293086
 20
31.73121988073069
 30
-7.1e-15
 11
-10.851935569112026
 21
-0.5235138432512499
 31
-8.116388100844083e-17
210
-7.664070995412835e-18
220
3.832035497706415e-18
230
1.0
 40
0.3998255469415349
 41
3.751929700005306
 42
5.672817258125262
  0
ELLIPSE
  5
54
330
17
100
AcDbEntity
  8
101
  6
Continuous
 62
7
370
18
100
AcDbEllipse
 10
-347.76213865159036
 20
-177.39212065402364
 30
1e-16
 11
-3.144985321723754
 21
6.524619148495411
 31
-4.910596297127153e-17
210
-7.664070995412832e-18
220
3.832035497706414e-18
230
1.0
 40
0.6667997697314691
 41
1.004502676847154
 42
2.575299003642068
  0
ELLIPSE
  5
55
330
17
100
AcDbEntity
  8
101
  6
Continuous
 62
7
370
18
100
AcDbEllipse
 10
332.97205241906977
 20
150.73416383668393
 30
-1.42e-14
 11
3.144985321723754
 21
-6.524619148495411
 31
4.910596297127153e-17
210
-7.664070995412832e-18
220
3.832035497706414e-18
230
1.0
 40
0.6667997697314691
 41
4.146095330436975
 42
5.716891657231852
  0
ELLIPSE
  5
56
330
17
100
AcDbEntity
  8
101
  6
Continuous
 62
7
370
18
100
AcDbEllipse
 10
333.33441687828645
 20
119.62218894074181
 30
0.0
 11
-10.851935569112026
 21
-0.5235138432512499
 31
-8.116388100844083e-17
210
-7.664070995412835e-18
220
3.832035497706415e-18
230
1.0
 40
0.3998255469415349
 41
3.751929700005283
 42
5.672817258125221
  0
ELLIPSE
  5
57
330
17
100
AcDbEntity
  8
101
  6
Continuous
 62
7
370
18
100
AcDbEllipse
 10
350.91223098716637
 20
111.91817493663507
 30
-7.1e-15
 11
9.043279640926686
 21
0.43626153604270806
 31
6.763656750703399e-17
210
-7.664070995412833e-18
220
3.8320354977064175e-18
230
1.0
 40
0.39982554694153505
 41
5.527027724044604
 42
6.283182077710411
  0
ELLIPSE
  5
58
330
17
100
AcDbEntity
  8
101
  6
Continuous
 62
7
370
18
100
AcDbEllipse
 10
294.125516374422
 20
195.5380845691501
 30
-7.1e-15
 11
-2.7826885288327237
 21
-8.615560071366934
 31
1.168840958300523e-17
210
-7.664070995412832e-18
220
3.832035497706415e-18
230
1.0
 40
0.6289018994238784
 41
3.141598625087196
 42
3.681731668291102
  0
ELLIPSE
  5
59
330
17
100
AcDbEntity
  8
101
  6
Continuous
 62
7
370
18
100
AcDbEllipse
 10
150.7549773071662
 20
36.704614511646355
 30
3.6e-15
 11
10.851935569112026
 21
0.5235138432512499
 31
8.116388100844083e-17
210
-7.664070995412835e-18
220
3.832035497706415e-18
230
1.0
 40
0.3998255469415349
 41
0.0
 42
6.283185307179586
  0
ELLIPSE
  5
5A
330
17
100
AcDbEntity
  8
101
  6
Continuous
 62
7
370
18
100
AcDbEllipse
 10
333.0944927725218
 20
124.59558357165747
 30
-2.13e-14
 11
10.851935569112026
 21
0.5235138432512499
 31
8.116388100844083e-17
210
-7.664070995412835e-18
220
3.832035497706415e-18
230
1.0
 40
0.3998255469415349
 41
0.0
 42
6.283185307179586
  0
ELLIPSE
  5
5B
330
17
100
AcDbEntity
  8
101
  6
Continuous
 62
7
370
18
100
AcDbEllipse
 10
-199.3368923863161
 20
-132.04604608357442
 30
-1.8e-15
 11
-10.851935569112026
 21
-0.5235138432512499
 31
-8.116388100844083e-17
210
-7.664070995412835e-18
220
3.832035497706415e-18
230
1.0
 40
0.3998255469415349
 41
5.52702772404459
 42
2.385435070454797
  0
ELLIPSE
  5
5C
330
17
100
AcDbEntity
  8
101
  6
Continuous
 62
7
370
18
100
AcDbEllipse
 10
-179.88734407001175
 20
-122.67100938383987
 30
1.8e-15
 11
-10.851935569112026
 21
-0.5235138432512499
 31
-8.116388100844083e-17
210
-7.664070995412835e-18
220
3.832035497706415e-18
230
1.0
 40
0.3998255469415349
 41
2.385435070454799
 42
5.527027724044592
  0
ELLIPSE
  5
5D
330
17
100
AcDbEntity
  8
101
  6
Continuous
 62
7
370
18
100
AcDbEllipse
 10
-272.27269857245847
 20
-167.20243370757873
 30
9e-16
 11
-10.851935569112026
 21
-0.5235138432512499
 31
-8.116388100844083e-17
210
-7.664070995412835e-18
220
3.832035497706415e-18
230
1.0
 40
0.3998255469415349
 41
5.52702772404459
 42
2.385435070454797
  0
ELLIPSE
  5
5E
330
17
100
AcDbEntity
  8
101
  6
Continuous
 62
7
370
18
100
AcDbEllipse
 10
-252.8231502561539
 20
-157.82739700784418
 30
9e-16
 11
-10.851935569112026
 21
-0.5235138432512499
 31
-8.116388100844083e-17
210
-7.664070995412835e-18
220
3.832035497706415e-18
230
1.0
 40
0.3998255469415349
 41
2.385435070454795
 42
5.527027724044591
  0
ELLIPSE
  5
5F
330
17
100
AcDbEntity
  8
101
  6
Continuous
 62
7
370
18
100
AcDbEllipse
 10
-297.1543816029565
 20
-195.372699033329
 30
4e-16
 11
-9.043279640926686
 21
-0.43626153604270806
 31
-6.763656750703399e-17
210
-7.664070995412833e-18
220
3.8320354977064175e-18
230
1.0
 40
0.39982554694153505
 41
0.8146387436598997
 42
2.385435070454797
  0
ELLIPSE
  5
60
330
17
100
AcDbEntity
  8
101
  6
Continuous
 62
7
370
18
100
AcDbEllipse
 10
350.67230688140125
 20
116.89156956755073
 30
0.0
 11
-9.043279640926686
 21
-0.43626153604270806
 31
-6.763656750703399e-17
210
-7.664070995412833e-18
220
3.8320354977064175e-18
230
1.0
 40
0.39982554694153505
 41
2.385435070454774
 42
3.170833233852228
  0
ELLIPSE
  5
61
330
17
100
AcDbEntity
  8
101
  6
Continuous
 62
7
370
18
100
AcDbEllipse
 10
348.5538489305693
 20
134.28083054750175
 30
-7.1e-15
 11
-9.043279640926686
 21
-0.43626153604270806
 31
-6.763656750703399e-17
210
-7.664070995412833e-18
220
3.8320354977064175e-18
230
1.0
 40
0.39982554694153505
 41
3.170833233852257
 42
3.956231397249693
  0
ELLIPSE
  5
62
330
17
100
AcDbEntity
  8
101
  6
Continuous
 62
7
370
18
100
AcDbEllipse
 10
-180.73011786279562
 20
-62.031564242621585
 30
1.8e-15
 11
3.3392262345992703
 21
10.33867208564033
 31
-1.402609149960628e-17
210
-7.664070995412829e-18
220
3.8320354977064136e-18
230
1.0
 40
0.6289018994238782
 41
0.5401390147013267
 42
3.681731668291123
  0
ELLIPSE
  5
63
330
17
100
AcDbEntity
  8
101
  6
Continuous
 62
7
370
18
100
AcDbEllipse
 10
-163.7117630860289
 20
-53.82840713035375
 30
0.0
 11
3.3392262345992703
 21
10.33867208564033
 31
-1.402609149960628e-17
210
-7.664070995412829e-18
220
3.8320354977064136e-18
230
1.0
 40
0.6289018994238782
 41
3.681731668291119
 42
0.5401390147013272
  0
ELLIPSE
  5
64
330
17
100
AcDbEntity
  8
101
  6
Continuous
 62
7
370
18
100
AcDbEllipse
 10
320.26138431296135
 20
175.94221826361002
 30
7.1e-15
 11
2.7826885288327237
 21
8.615560071366934
 31
-1.168840958300523e-17
210
-7.664070995412832e-18
220
3.832035497706415e-18
230
1.0
 40
0.6289018994238784
 41
5.252527995086021
 42
6.037926158483464
  0
ELLIPSE
  5
65
330
17
100
AcDbEntity
  8
101
  6
Continuous
 62
7
370
18
100
AcDbEllipse
 10
298.1445958646118
 20
194.23998597762682
 30
0.0
 11
2.7826885288327237
 21
8.615560071366934
 31
-1.168840958300523e-17
210
-7.664070995412832e-18
220
3.832035497706415e-18
230
1.0
 40
0.6289018994238784
 41
6.037926158483464
 42
0.5401390147013307
  0
ELLIPSE
  5
66
330
17
100
AcDbEntity
  8
101
  6
Continuous
 62
7
370
18
100
AcDbEllipse
 10
-349.6820926197462
 20
-118.02428262325247
 30
4e-16
 11
2.7826885288327237
 21
8.615560071366934
 31
-1.168840958300523e-17
210
-7.664070995412832e-18
220
3.832035497706415e-18
230
1.0
 40
0.6289018994238784
 41
0.540139014701325
 42
2.110935341496222
  0
ENDSEC
  0
SECTION
  2
OBJECTS
  0
DICTIONARY
  5
A
330
0
100
AcDbDictionary
281
1
  3
ACAD_COLOR
350
B
  3
ACAD_GROUP
350
C
  3
ACAD_LAYOUT
350
D
  3
ACAD_MATERIAL
350
E
  3
ACAD_MLEADERSTYLE
350
F
  3
ACAD_MLINESTYLE
350
10
  3
ACAD_PLOTSETTINGS
350
11
  3
ACAD_PLOTSTYLENAME
350
12
  3
ACAD_SCALELIST
350
14
  3
ACAD_TABLESTYLE
350
15
  3
ACAD_VISUALSTYLE
350
16
  3
EZDXF_META
350
2D
  0
DICTIONARY
  5
B
330
A
100
AcDbDictionary
281
1
  0
DICTIONARY
  5
C
330
A
100
AcDbDictionary
281
1
  0
DICTIONARY
  5
D
330
A
100
AcDbDictionary
281
1
  3
Model
350
1A
  3
Layout1
350
1E
  0
DICTIONARY
  5
E
330
A
100
AcDbDictionary
281
1
  3
ByBlock
350
1F
  3
ByLayer
350
20
  3
Global
350
21
  0
DICTIONARY
  5
F
330
A
100
AcDbDictionary
281
1
  3
Standard
350
2C
  0
DICTIONARY
  5
10
330
A
100
AcDbDictionary
281
1
  3
Standard
350
22
  0
DICTIONARY
  5
11
330
A
100
AcDbDictionary
281
1
  0
ACDBDICTIONARYWDFLT
  5
12
330
A
100
AcDbDictionary
281
1
  3
Normal
350
13
100
AcDbDictionaryWithDefault
340
13
  0
ACDBPLACEHOLDER
  5
13
330
12
  0
DICTIONARY
  5
14
330
A
100
AcDbDictionary
281
1
  0
DICTIONARY
  5
15
330
A
100
AcDbDictionary
281
1
  0
DICTIONARY
  5
16
330
A
100
AcDbDictionary
281
1
  0
LAYOUT
  5
1A
330
D
100
AcDbPlotSettings
  1

  4
A3
  6

 40
7.5
 41
20.0
 42
7.5
 43
20.0
 44
420.0
 45
297.0
 46
0.0
 47
0.0
 48
0.0
 49
0.0
140
0.0
141
0.0
142
1.0
143
1.0
 70
1024
 72
1
 73
0
 74
5
  7

 75
16
 76
0
 77
2
 78
300
147
1.0
148
0.0
149
0.0
100
AcDbLayout
  1
Model
 70
1
 71
0
 10
0.0
 20
0.0
 11
420.0
 21
297.0
 12
0.0
 22
0.0
 32
0.0
 14
-359.7925218252266
 24
-203.98828715506025
 34
0.0
 15
359.95719447828327
 25
204.32958819515483
 35
0.0
146
0.0
 13
0.0
 23
0.0
 33
0.0
 16
1.0
 26
0.0
 36
0.0
 17
0.0
 27
1.0
 37
0.0
 76
1
330
17
  0
LAYOUT
  5
1E
330
D
100
AcDbPlotSettings
  1

  4
A3
  6

 40
7.5
 41
20.0
 42
7.5
 43
20.0
 44
420.0
 45
297.0
 46
0.0
 47
0.0
 48
0.0
 49
0.0
140
0.0
141
0.0
142
1.0
143
1.0
 70
0
 72
1
 73
0
 74
5
  7

 75
16
 76
0
 77
2
 78
300
147
1.0
148
0.0
149
0.0
100
AcDbLayout
  1
Layout1
 70
1
 71
1
 10
0.0
 20
0.0
 11
420.0
 21
297.0
 12
0.0
 22
0.0
 32
0.0
 14
1e+20
 24
1e+20
 34
1e+20
 15
-1e+20
 25
-1e+20
 35
-1e+20
146
0.0
 13
0.0
 23
0.0
 33
0.0
 16
1.0
 26
0.0
 36
0.0
 17
0.0
 27
1.0
 37
0.0
 76
1
330
1B
  0
MATERIAL
  5
1F
102
{ACAD_REACTORS
330
E
102
}
330
E
100
AcDbMaterial
  1
ByBlock
  2

 70
0
 40
1.0
 71
1
 41
1.0
 91
-1023410177
 42
1.0
 72
1
  3

 73
1
 74
1
 75
1
 44
0.5
 73
0
 45
1.0
 46
1.0
 77
1
  4

 78
1
 79
1
170
1
 48
1.0
171
1
  6

172
1
173
1
174
1
140
1.0
141
1.0
175
1
  7

176
1
177
1
178
1
143
1.0
179
1
  8

270
1
271
1
272
1
145
1.0
146
1.0
273
1
  9

274
1
275
1
276
1
 42
1.0
 72
1
  3

 73
1
 74
1
 75
1
 94
63
  0
MATERIAL
  5
20
102
{ACAD_REACTORS
330
E
102
}
330
E
100
AcDbMaterial
  1
ByLayer
  2

 70
0
 40
1.0
 71
1
 41
1.0
 91
-1023410177
 42
1.0
 72
1
  3

 73
1
 74
1
 75
1
 44
0.5
 73
0
 45
1.0
 46
1.0
 77
1
  4

 78
1
 79
1
170
1
 48
1.0
171
1
  6

172
1
173
1
174
1
140
1.0
141
1.0
175
1
  7

176
1
177
1
178
1
143
1.0
179
1
  8

270
1
271
1
272
1
145
1.0
146
1.0
273
1
  9

274
1
275
1
276
1
 42
1.0
 72
1
  3

 73
1
 74
1
 75
1
 94
63
  0
MATERIAL
  5
21
102
{ACAD_REACTORS
330
E
102
}
330
E
100
AcDbMaterial
  1
Global
  2

 70
0
 40
1.0
 71
1
 41
1.0
 91
-1023410177
 42
1.0
 72
1
  3

 73
1
 74
1
 75
1
 44
0.5
 73
0
 45
1.0
 46
1.0
 77
1
  4

 78
1
 79
1
170
1
 48
1.0
171
1
  6

172
1
173
1
174
1
140
1.0
141
1.0
175
1
  7

176
1
177
1
178
1
143
1.0
179
1
  8

270
1
271
1
272
1
145
1.0
146
1.0
273
1
  9

274
1
275
1
276
1
 42
1.0
 72
1
  3

 73
1
 74
1
 75
1
 94
63
  0
MLINESTYLE
  5
22
102
{ACAD_REACTORS
330
10
102
}
330
10
100
AcDbMlineStyle
  2
Standard
 70
0
  3

 62
256
 51
90.0
 52
90.0
 71
2
 49
0.5
 62
256
  6
BYLAYER
 49
-0.5
 62
256
  6
BYLAYER
  0
MLEADERSTYLE
  5
2C
102
{ACAD_REACTORS
330
F
102
}
330
F
100
AcDbMLeaderStyle
179
2
170
2
171
1
172
0
 90
2
 40
0.0
 41
0.0
173
1
 91
-1056964608
 92
-2
290
1
 42
2.0
291
1
 43
8.0
  3
Standard
 44
4.0
300

342
29
174
1
175
1
176
0
178
1
 93
-1056964608
 45
4.0
292
0
297
0
 46
4.0
 94
-1056964608
 47
1.0
 49
1.0
140
1.0
294
1
141
0.0
177
0
142
1.0
295
0
296
0
143
3.75
271
0
272
9
273
9
  0
DICTIONARY
  5
2D
330
A
100
AcDbDictionary
280
1
281
1
  3
CREATED_BY_EZDXF
350
2E
  3
WRITTEN_BY_EZDXF
350
69
  0
DICTIONARYVAR
  5
2E
330
2D
100
DictionaryVariables
280
0
  1
1.4.4 @ 2026-07-06T17:48:35.644743+00:00
  0
DICTIONARYVAR
  5
69
330
2D
100
DictionaryVariables
280
0
  1
1.4.4 @ 2026-07-06T17:48:35.651739+00:00
  0
ENDSEC
  0
EOF
