  0
SECTION
  2
HEADER
  9
$ACADVER
  1
AC1021
  9
$ACADMAINTVER
 70
25
  9
$DWGCODEPAGE
  3
ANSI_1252
  9
$LASTSAVEDBY
  1
ezdxf
  9
$INSBASE
 10
0.0
 20
0.0
 30
0.0
  9
$EXTMIN
 10
-855.0000000000005
 20
-173.52135520855734
 30
0.0
  9
$EXTMAX
 10
855.0000000000005
 20
173.52135520855768
 30
0.0
  9
$LIMMIN
 10
0.0
 20
0.0
  9
$LIMMAX
 10
420.0
 20
297.0
  9
$ORTHOMODE
 70
0
  9
$REGENMODE
 70
1
  9
$FILLMODE
 70
1
  9
$QTEXTMODE
 70
0
  9
$MIRRTEXT
 70
1
  9
$LTSCALE
 40
1.0
  9
$ATTMODE
 70
1
  9
$TEXTSIZE
 40
2.5
  9
$TRACEWID
 40
1.0
  9
$TEXTSTYLE
  7
Standard
  9
$CLAYER
  8
0
  9
$CELTYPE
  6
ByLayer
  9
$CECOLOR
 62
256
  9
$CELTSCALE
 40
1.0
  9
$DISPSILH
 70
0
  9
$DIMSCALE
 40
1.0
  9
$DIMASZ
 40
2.5
  9
$DIMEXO
 40
0.625
  9
$DIMDLI
 40
3.75
  9
$DIMRND
 40
0.0
  9
$DIMDLE
 40
0.0
  9
$DIMEXE
 40
1.25
  9
$DIMTP
 40
0.0
  9
$DIMTM
 40
0.0
  9
$DIMTXT
 40
2.5
  9
$DIMCEN
 40
2.5
  9
$DIMTSZ
 40
0.0
  9
$DIMTOL
 70
0
  9
$DIMLIM
 70
0
  9
$DIMTIH
 70
0
  9
$DIMTOH
 70
0
  9
$DIMSE1
 70
0
  9
$DIMSE2
 70
0
  9
$DIMTAD
 70
1
  9
$DIMZIN
 70
8
  9
$DIMBLK
  1

  9
$DIMASO
 70
1
  9
$DIMSHO
 70
1
  9
$DIMPOST
  1

  9
$DIMAPOST
  1

  9
$DIMALT
 70
0
  9
$DIMALTD
 70
3
  9
$DIMALTF
 40
0.03937007874
  9
$DIMLFAC
 40
1.0
  9
$DIMTOFL
 70
1
  9
$DIMTVP
 40
0.0
  9
$DIMTIX
 70
0
  9
$DIMSOXD
 70
0
  9
$DIMSAH
 70
0
  9
$DIMBLK1
  1

  9
$DIMBLK2
  1

  9
$DIMSTYLE
  2
ISO-25
  9
$DIMCLRD
 70
0
  9
$DIMCLRE
 70
0
  9
$DIMCLRT
 70
0
  9
$DIMTFAC
 40
1.0
  9
$DIMGAP
 40
0.625
  9
$DIMJUST
 70
0
  9
$DIMSD1
 70
0
  9
$DIMSD2
 70
0
  9
$DIMTOLJ
 70
0
  9
$DIMTZIN
 70
8
  9
$DIMALTZ
 70
0
  9
$DIMALTTZ
 70
0
  9
$DIMUPT
 70
0
  9
$DIMDEC
 70
2
  9
$DIMTDEC
 70
2
  9
$DIMALTU
 70
2
  9
$DIMALTTD
 70
3
  9
$DIMTXSTY
  7
Standard
  9
$DIMAUNIT
 70
0
  9
$DIMADEC
 70
0
  9
$DIMALTRND
 40
0.0
  9
$DIMAZIN
 70
0
  9
$DIMDSEP
 70
44
  9
$DIMATFIT
 70
3
  9
$DIMFRAC
 70
0
  9
$DIMLDRBLK
  1

  9
$DIMLUNIT
 70
2
  9
$DIMLWD
 70
-2
  9
$DIMLWE
 70
-2
  9
$DIMTMOVE
 70
0
  9
$DIMFXL
 40
1.0
  9
$DIMFXLON
 70
0
  9
$DIMJOGANG
 40
0.785398163397
  9
$DIMTFILL
 70
0
  9
$DIMTFILLCLR
 70
0
  9
$DIMARCSYM
 70
0
  9
$DIMLTYPE
  6

  9
$DIMLTEX1
  6

  9
$DIMLTEX2
  6

  9
$LUNITS
 70
2
  9
$LUPREC
 70
4
  9
$SKETCHINC
 40
1.0
  9
$FILLETRAD
 40
10.0
  9
$AUNITS
 70
0
  9
$AUPREC
 70
2
  9
$MENU
  1
.
  9
$ELEVATION
 40
0.0
  9
$PELEVATION
 40
0.0
  9
$THICKNESS
 40
0.0
  9
$LIMCHECK
 70
0
  9
$CHAMFERA
 40
0.0
  9
$CHAMFERB
 40
0.0
  9
$CHAMFERC
 40
0.0
  9
$CHAMFERD
 40
0.0
  9
$SKPOLY
 70
0
  9
$TDCREATE
 40
2461227.0043287035
  9
$TDUCREATE
 40
2458532.153996898
  9
$TDUPDATE
 40
2461227.0043287035
  9
$TDUUPDATE
 40
2458532.1544311
  9
$TDINDWG
 40
0.0
  9
$TDUSRTIMER
 40
0.0
  9
$USRTIMER
 70
1
  9
$ANGBASE
 50
0.0
  9
$ANGDIR
 70
0
  9
$PDMODE
 70
0
  9
$PDSIZE
 40
0.0
  9
$PLINEWID
 40
0.0
  9
$SPLFRAME
 70
0
  9
$SPLINETYPE
 70
6
  9
$SPLINESEGS
 70
8
  9
$HANDSEED
  5
24F
  9
$SURFTAB1
 70
6
  9
$SURFTAB2
 70
6
  9
$SURFTYPE
 70
6
  9
$SURFU
 70
6
  9
$SURFV
 70
6
  9
$UCSBASE
  2

  9
$UCSNAME
  2

  9
$UCSORG
 10
0.0
 20
0.0
 30
0.0
  9
$UCSXDIR
 10
1.0
 20
0.0
 30
0.0
  9
$UCSYDIR
 10
0.0
 20
1.0
 30
0.0
  9
$UCSORTHOREF
  2

  9
$UCSORTHOVIEW
 70
0
  9
$UCSORGTOP
 10
0.0
 20
0.0
 30
0.0
  9
$UCSORGBOTTOM
 10
0.0
 20
0.0
 30
0.0
  9
$UCSORGLEFT
 10
0.0
 20
0.0
 30
0.0
  9
$UCSORGRIGHT
 10
0.0
 20
0.0
 30
0.0
  9
$UCSORGFRONT
 10
0.0
 20
0.0
 30
0.0
  9
$UCSORGBACK
 10
0.0
 20
0.0
 30
0.0
  9
$PUCSBASE
  2

  9
$PUCSNAME
  2

  9
$PUCSORG
 10
0.0
 20
0.0
 30
0.0
  9
$PUCSXDIR
 10
1.0
 20
0.0
 30
0.0
  9
$PUCSYDIR
 10
0.0
 20
1.0
 30
0.0
  9
$PUCSORTHOREF
  2

  9
$PUCSORTHOVIEW
 70
0
  9
$PUCSORGTOP
 10
0.0
 20
0.0
 30
0.0
  9
$PUCSORGBOTTOM
 10
0.0
 20
0.0
 30
0.0
  9
$PUCSORGLEFT
 10
0.0
 20
0.0
 30
0.0
  9
$PUCSORGRIGHT
 10
0.0
 20
0.0
 30
0.0
  9
$PUCSORGFRONT
 10
0.0
 20
0.0
 30
0.0
  9
$PUCSORGBACK
 10
0.0
 20
0.0
 30
0.0
  9
$USERI1
 70
0
  9
$USERI2
 70
0
  9
$USERI3
 70
0
  9
$USERI4
 70
0
  9
$USERI5
 70
0
  9
$USERR1
 40
0.0
  9
$USERR2
 40
0.0
  9
$USERR3
 40
0.0
  9
$USERR4
 40
0.0
  9
$USERR5
 40
0.0
  9
$WORLDVIEW
 70
1
  9
$SHADEDGE
 70
3
  9
$SHADEDIF
 70
70
  9
$TILEMODE
 70
1
  9
$MAXACTVP
 70
64
  9
$PINSBASE
 10
0.0
 20
0.0
 30
0.0
  9
$PLIMCHECK
 70
0
  9
$PEXTMIN
 10
1e+20
 20
1e+20
 30
1e+20
  9
$PEXTMAX
 10
-1e+20
 20
-1e+20
 30
-1e+20
  9
$PLIMMIN
 10
0.0
 20
0.0
  9
$PLIMMAX
 10
420.0
 20
297.0
  9
$UNITMODE
 70
0
  9
$VISRETAIN
 70
1
  9
$PLINEGEN
 70
0
  9
$PSLTSCALE
 70
1
  9
$TREEDEPTH
 70
3020
  9
$CMLSTYLE
  2
Standard
  9
$CMLJUST
 70
0
  9
$CMLSCALE
 40
20.0
  9
$PROXYGRAPHICS
 70
1
  9
$MEASUREMENT
 70
1
  9
$CELWEIGHT
370
-1
  9
$ENDCAPS
280
0
  9
$JOINSTYLE
280
0
  9
$LWDISPLAY
290
0
  9
$INSUNITS
 70
6
  9
$HYPERLINKBASE
  1

  9
$STYLESHEET
  1

  9
$XEDIT
290
1
  9
$CEPSNTYPE
380
0
  9
$PSTYLEMODE
290
1
  9
$FINGERPRINTGUID
  2
{0B2CC8E9-B1C1-416E-B1B9-71CA47F8397D}
  9
$VERSIONGUID
  2
{A6A95296-128C-4D5B-9846-9381E89BF6EC}
  9
$EXTNAMES
290
1
  9
$PSVPSCALE
 40
0.0
  9
$OLESTARTUP
290
0
  9
$SORTENTS
280
127
  9
$INDEXCTL
280
0
  9
$HIDETEXT
280
1
  9
$XCLIPFRAME
290
1
  9
$HALOGAP
280
0
  9
$OBSCOLOR
 70
257
  9
$OBSLTYPE
280
0
  9
$INTERSECTIONDISPLAY
280
0
  9
$INTERSECTIONCOLOR
 70
257
  9
$DIMASSOC
280
2
  9
$PROJECTNAME
  1

  9
$CAMERADISPLAY
290
0
  9
$LENSLENGTH
 40
50.0
  9
$CAMERAHEIGHT
 40
0.0
  9
$STEPSPERSEC
 40
24.0
  9
$STEPSIZE
 40
100.0
  9
$3DDWFPREC
 40
2.0
  9
$PSOLWIDTH
 40
0.005
  9
$PSOLHEIGHT
 40
0.08
  9
$LOFTANG1
 40
1.570796326795
  9
$LOFTANG2
 40
1.570796326795
  9
$LOFTMAG1
 40
0.0
  9
$LOFTMAG2
 40
0.0
  9
$LOFTPARAM
 70
7
  9
$LOFTNORMALS
280
1
  9
$LATITUDE
 40
37.795
  9
$LONGITUDE
 40
-122.394
  9
$NORTHDIRECTION
 40
0.0
  9
$TIMEZONE
 70
-8000
  9
$LIGHTGLYPHDISPLAY
280
1
  9
$TILEMODELIGHTSYNCH
280
1
  9
$CMATERIAL
347
20
  9
$SOLIDHIST
280
0
  9
$SHOWHIST
280
1
  9
$DWFFRAME
280
2
  9
$DGNFRAME
280
2
  9
$REALWORLDSCALE
290
1
  9
$INTERFERECOLOR
 62
256
  9
$CSHADOW
280
0
  9
$SHADOWPLANELOCATION
 40
0.0
  0
ENDSEC
  0
SECTION
  2
CLASSES
  0
CLASS
  1
ACDBDICTIONARYWDFLT
  2
AcDbDictionaryWithDefault
  3
ObjectDBX Classes
 90
0
 91
0
280
0
281
0
  0
CLASS
  1
SUN
  2
AcDbSun
  3
SCENEOE
 90
1153
 91
0
280
0
281
0
  0
CLASS
  1
VISUALSTYLE
  2
AcDbVisualStyle
  3
ObjectDBX Classes
 90
4095
 91
0
280
0
281
0
  0
CLASS
  1
MATERIAL
  2
AcDbMaterial
  3
ObjectDBX Classes
 90
1153
 91
0
280
0
281
0
  0
CLASS
  1
SCALE
  2
AcDbScale
  3
ObjectDBX Classes
 90
1153
 91
0
280
0
281
0
  0
CLASS
  1
TABLESTYLE
  2
AcDbTableStyle
  3
ObjectDBX Classes
 90
4095
 91
0
280
0
281
0
  0
CLASS
  1
MLEADERSTYLE
  2
AcDbMLeaderStyle
  3
ACDB_MLEADERSTYLE_CLASS
 90
4095
 91
0
280
0
281
0
  0
CLASS
  1
DICTIONARYVAR
  2
AcDbDictionaryVar
  3
ObjectDBX Classes
 90
0
 91
0
280
0
281
0
  0
CLASS
  1
CELLSTYLEMAP
  2
AcDbCellStyleMap
  3
ObjectDBX Classes
 90
1152
 91
0
280
0
281
0
  0
CLASS
  1
MENTALRAYRENDERSETTINGS
  2
AcDbMentalRayRenderSettings
  3
SCENEOE
 90
1024
 91
0
280
0
281
0
  0
CLASS
  1
ACDBDETAILVIEWSTYLE
  2
AcDbDetailViewStyle
  3
ObjectDBX Classes
 90
1025
 91
0
280
0
281
0
  0
CLASS
  1
ACDBSECTIONVIEWSTYLE
  2
AcDbSectionViewStyle
  3
ObjectDBX Classes
 90
1025
 91
0
280
0
281
0
  0
CLASS
  1
RASTERVARIABLES
  2
AcDbRasterVariables
  3
ISM
 90
0
 91
0
280
0
281
0
  0
CLASS
  1
ACDBPLACEHOLDER
  2
AcDbPlaceHolder
  3
ObjectDBX Classes
 90
0
 91
0
280
0
281
0
  0
CLASS
  1
LAYOUT
  2
AcDbLayout
  3
ObjectDBX Classes
 90
0
 91
0
280
0
281
0
  0
ENDSEC
  0
SECTION
  2
TABLES
  0
TABLE
  2
VPORT
  5
8
330
0
100
AcDbSymbolTable
 70
1
  0
VPORT
  5
23
330
8
100
AcDbSymbolTableRecord
100
AcDbViewportTableRecord
  2
*Active
 70
0
 10
0.0
 20
0.0
 11
1.0
 21
1.0
 12
0.0
 22
0.0
 13
0.0
 23
0.0
 14
0.5
 24
0.5
 15
0.5
 25
0.5
 16
0.0
 26
0.0
 36
1.0
 17
0.0
 27
0.0
 37
0.0
 40
1000.0
 41
1.34
 42
50.0
 43
0.0
 44
0.0
 50
0.0
 51
0.0
 71
0
 72
1000
 73
1
 74
3
 75
0
 76
0
 77
0
 78
0
281
0
 65
0
146
0.0
  0
ENDTAB
  0
TABLE
  2
LTYPE
  5
2
330
0
100
AcDbSymbolTable
 70
3
  0
LTYPE
  5
24
330
2
100
AcDbSymbolTableRecord
100
AcDbLinetypeTableRecord
  2
ByBlock
 70
0
  3

 72
65
 73
0
 40
0.0
  0
LTYPE
  5
25
330
2
100
AcDbSymbolTableRecord
100
AcDbLinetypeTableRecord
  2
ByLayer
 70
0
  3

 72
65
 73
0
 40
0.0
  0
LTYPE
  5
26
330
2
100
AcDbSymbolTableRecord
100
AcDbLinetypeTableRecord
  2
Continuous
 70
0
  3

 72
65
 73
0
 40
0.0
  0
ENDTAB
  0
TABLE
  2
LAYER
  5
1
330
0
100
AcDbSymbolTable
 70
2
  0
LAYER
  5
27
330
1
100
AcDbSymbolTableRecord
100
AcDbLayerTableRecord
  2
0
 70
0
 62
7
  6
Continuous
370
-3
390
13
347
21
  0
LAYER
  5
28
330
1
100
AcDbSymbolTableRecord
100
AcDbLayerTableRecord
  2
Defpoints
 70
0
 62
7
  6
Continuous
290
0
370
-3
390
13
347
21
  0
ENDTAB
  0
TABLE
  2
STYLE
  5
5
330
0
100
AcDbSymbolTable
 70
1
  0
STYLE
  5
29
330
5
100
AcDbSymbolTableRecord
100
AcDbTextStyleTableRecord
  2
Standard
 70
0
 40
0.0
 41
1.0
 50
0.0
 71
0
 42
2.5
  3
txt
  4

  0
ENDTAB
  0
TABLE
  2
VIEW
  5
7
330
0
100
AcDbSymbolTable
 70
0
  0
ENDTAB
  0
TABLE
  2
UCS
  5
6
330
0
100
AcDbSymbolTable
 70
0
  0
ENDTAB
  0
TABLE
  2
APPID
  5
3
330
0
100
AcDbSymbolTable
 70
3
  0
APPID
  5
2A
330
3
100
AcDbSymbolTableRecord
100
AcDbRegAppTableRecord
  2
ACAD
 70
0
  0
APPID
  5
24C
330
3
100
AcDbSymbolTableRecord
100
AcDbRegAppTableRecord
  2
HATCHBACKGROUNDCOLOR
 70
0
  0
APPID
  5
24D
330
3
100
AcDbSymbolTableRecord
100
AcDbRegAppTableRecord
  2
EZDXF
 70
0
  0
ENDTAB
  0
TABLE
  2
DIMSTYLE
  5
4
330
0
100
AcDbSymbolTable
 70
1
100
AcDbDimStyleTable
  0
DIMSTYLE
105
2B
330
4
100
AcDbSymbolTableRecord
100
AcDbDimStyleTableRecord
  2
Standard
 70
0
 40
1.0
 41
2.5
 42
0.625
 43
3.75
 44
1.25
 45
0.0
 46
0.0
 47
0.0
 48
0.0
 49
2.5
140
2.5
141
2.5
142
0.0
143
0.03937007874
144
1.0
145
0.0
146
1.0
147
0.625
148
0.0
 69
0
 70
0
 71
0
 72
0
 73
0
 74
0
 75
0
 76
0
 77
1
 78
8
 79
3
170
0
171
3
172
1
173
0
174
0
175
0
176
0
177
0
178
0
179
2
271
2
272
2
273
2
274
3
275
0
276
0
277
2
278
44
279
0
280
0
281
0
282
0
283
0
284
8
285
0
286
0
288
0
289
3
290
0
371
-2
372
-2
  0
ENDTAB
  0
TABLE
  2
BLOCK_RECORD
  5
9
330
0
100
AcDbSymbolTable
 70
2
  0
BLOCK_RECORD
  5
17
330
9
100
AcDbSymbolTableRecord
100
AcDbBlockTableRecord
  2
*Model_Space
340
1A
 70
0
280
1
281
0
  0
BLOCK_RECORD
  5
1B
330
9
100
AcDbSymbolTableRecord
100
AcDbBlockTableRecord
  2
*Paper_Space
340
1E
 70
0
280
1
281
0
  0
ENDTAB
  0
ENDSEC
  0
SECTION
  2
BLOCKS
  0
BLOCK
  5
18
330
17
100
AcDbEntity
  8
0
100
AcDbBlockBegin
  2
*Model_Space
 70
0
 10
0.0
 20
0.0
 30
0.0
  3
*Model_Space
  1

  0
ENDBLK
  5
19
330
17
100
AcDbEntity
  8
0
100
AcDbBlockEnd
  0
BLOCK
  5
1C
330
1B
100
AcDbEntity
  8
0
100
AcDbBlockBegin
  2
*Paper_Space
 70
0
 10
0.0
 20
0.0
 30
0.0
  3
*Paper_Space
  1

  0
ENDBLK
  5
1D
330
1B
100
AcDbEntity
  8
0
100
AcDbBlockEnd
  0
ENDSEC
  0
SECTION
  2
ENTITIES
  0
LINE
  5
2F
330
17
100
AcDbEntity
  8
0
  6
Continuous
 62
7
370
18
100
AcDbLine
 10
-855.0000000000005
 20
121.49239968878805
 30
0.0
 11
-855.0000000000005
 21
123.16710681400014
 31
0.0
  0
LINE
  5
30
330
17
100
AcDbEntity
  8
0
  6
Continuous
 62
7
370
18
100
AcDbLine
 10
-855.0000000000005
 20
-152.83772733013393
 30
0.0
 11
-855.0000000000005
 21
-158.021355208557
 31
0.0
  0
LINE
  5
31
330
17
100
AcDbEntity
  8
0
  6
Continuous
 62
7
370
18
100
AcDbLine
 10
-855.0000000000005
 20
152.99723383292212
 30
0.0
 11
-855.0000000000005
 21
158.02135520855768
 31
0.0
  0
LINE
  5
32
330
17
100
AcDbEntity
  8
0
  6
Continuous
 62
7
370
18
100
AcDbLine
 10
-335.00000000000045
 20
-158.021355208557
 30
0.0
 11
-335.00000000000045
 21
-152.83772733013393
 31
0.0
  0
LINE
  5
33
330
17
100
AcDbEntity
  8
0
  6
Continuous
 62
7
370
18
100
AcDbLine
 10
-855.0000000000005
 20
-158.021355208557
 30
0.0
 11
-855.0000000000005
 21
-171.52135520855688
 31
0.0
  0
LINE
  5
34
330
17
100
AcDbEntity
  8
0
  6
Continuous
 62
7
370
18
100
AcDbLine
 10
-335.00000000000045
 20
-97.33772733013393
 30
0.0
 11
-335.00000000000045
 21
-152.83772733013393
 31
0.0
  0
LINE
  5
35
330
17
100
AcDbEntity
  8
0
  6
Continuous
 62
7
370
18
100
AcDbLine
 10
854.9999999999998
 20
123.16710681400014
 30
0.0
 11
854.9999999999998
 21
121.49239968878805
 31
0.0
  0
LINE
  5
36
330
17
100
AcDbEntity
  8
0
  6
Continuous
 62
7
370
18
100
AcDbLine
 10
854.9999999999998
 20
-97.33772733013393
 30
0.0
 11
854.9999999999998
 21
-102.36184870576949
 31
0.0
  0
LINE
  5
37
330
17
100
AcDbEntity
  8
0
  6
Continuous
 62
7
370
18
100
AcDbLine
 10
-330.00000000000045
 20
-102.36184870576949
 30
0.0
 11
-330.00000000000045
 21
-97.33772733013393
 31
0.0
  0
LINE
  5
38
330
17
100
AcDbEntity
  8
0
  6
Continuous
 62
7
370
18
100
AcDbLine
 10
-855.0000000000005
 20
-152.83772733013393
 30
0.0
 11
-855.0000000000005
 21
121.49239968878805
 31
0.0
  0
LINE
  5
39
330
17
100
AcDbEntity
  8
0
  6
Continuous
 62
7
370
18
100
AcDbLine
 10
854.9999999999998
 20
-97.33772733013393
 30
0.0
 11
854.9999999999998
 21
121.49239968878805
 31
0.0
  0
LINE
  5
3A
330
17
100
AcDbEntity
  8
0
  6
Continuous
 62
7
370
18
100
AcDbLine
 10
854.9999999999998
 20
158.02135520855768
 30
0.0
 11
854.9999999999998
 21
152.99723383292212
 31
0.0
  0
LINE
  5
3B
330
17
100
AcDbEntity
  8
0
  6
Continuous
 62
7
370
18
100
AcDbLine
 10
-855.0000000000005
 20
123.16710681400014
 30
0.0
 11
-855.0000000000005
 21
152.99723383292212
 31
0.0
  0
LINE
  5
3C
330
17
100
AcDbEntity
  8
0
  6
Continuous
 62
7
370
18
100
AcDbLine
 10
854.9999999999998
 20
123.16710681400014
 30
0.0
 11
854.9999999999998
 21
152.99723383292212
 31
0.0
  0
LINE
  5
3D
330
17
100
AcDbEntity
  8
0
  6
Continuous
 62
7
370
18
100
AcDbLine
 10
-335.00000000000045
 20
-158.021355208557
 30
0.0
 11
-335.00000000000045
 21
-171.52135520855734
 31
0.0
  0
LINE
  5
3E
330
17
100
AcDbEntity
  8
0
  6
Continuous
 62
7
370
18
100
AcDbLine
 10
-850.0000000000005
 20
173.52135520855768
 30
0.0
 11
850.0000000000018
 21
173.52135520855768
 31
0.0
  0
LINE
  5
3F
330
17
100
AcDbEntity
  8
0
  6
Continuous
 62
7
370
18
100
AcDbLine
 10
-855.0000000000005
 20
158.02135520855768
 30
0.0
 11
-855.0000000000005
 21
168.52135520855768
 31
0.0
  0
LINE
  5
40
330
17
100
AcDbEntity
  8
0
  6
Continuous
 62
7
370
18
100
AcDbLine
 10
-337.00000000000045
 20
-173.52135520855688
 30
0.0
 11
-853.0000000000005
 21
-173.52135520855688
 31
0.0
  0
LINE
  5
41
330
17
100
AcDbEntity
  8
0
  6
Continuous
 62
7
370
18
100
AcDbLine
 10
855.0000000000005
 20
158.02135520855768
 30
0.0
 11
855.0000000000005
 21
168.52135520855768
 31
0.0
  0
LINE
  5
42
330
17
100
AcDbEntity
  8
0
  6
Continuous
 62
7
370
18
100
AcDbLine
 10
-330.00000000000045
 20
-102.36184870576949
 30
0.0
 11
-330.00000000000045
 21
-112.86184870576938
 31
0.0
  0
LINE
  5
43
330
17
100
AcDbEntity
  8
0
  6
Continuous
 62
7
370
18
100
AcDbLine
 10
-330.00000000000045
 20
-97.33772733013393
 30
0.0
 11
-335.0000000000009
 21
-97.33772733013393
 31
0.0
  0
LINE
  5
44
330
17
100
AcDbEntity
  8
0
  6
Continuous
 62
7
370
18
100
AcDbLine
 10
854.9999999999998
 20
-112.86184870576938
 30
0.0
 11
854.9999999999998
 21
-102.36184870576949
 31
0.0
  0
LINE
  5
45
330
17
100
AcDbEntity
  8
0
  6
Continuous
 62
7
370
18
100
AcDbLine
 10
-325.0000000000009
 20
-117.86184870576938
 30
0.0
 11
849.9999999999998
 21
-117.86184870576938
 31
0.0
  0
ARC
  5
46
330
17
100
AcDbEntity
  8
0
  6
Continuous
 62
7
370
18
100
AcDbCircle
 10
849.9999999999998
 20
168.52135520855768
 30
0.0
 40
5.0
100
AcDbArc
 50
0.0
 51
89.99999999998983
  0
ARC
  5
47
330
17
100
AcDbEntity
  8
0
  6
Continuous
 62
7
370
18
100
AcDbCircle
 10
-850.0000000000005
 20
168.52135520855768
 30
0.0
 40
5.0
100
AcDbArc
 50
90.0
 51
180.0
  0
ARC
  5
48
330
17
100
AcDbEntity
  8
0
  6
Continuous
 62
7
370
18
100
AcDbCircle
 10
-325.00000000000045
 20
-112.86184870576938
 30
0.0
 40
5.0
100
AcDbArc
 50
180.0
 51
-90.0000000000026
  0
ARC
  5
49
330
17
100
AcDbEntity
  8
0
  6
Continuous
 62
7
370
18
100
AcDbCircle
 10
849.9999999999998
 20
-112.86184870576938
 30
0.0
 40
5.0
100
AcDbArc
 50
-90.0000000000051
 51
0.0
  0
ARC
  5
4A
330
17
100
AcDbEntity
  8
0
  6
Continuous
 62
7
370
18
100
AcDbCircle
 10
-337.00000000000045
 20
-171.52135520855734
 30
0.0
 40
2.0
100
AcDbArc
 50
-90.00000000000001
 51
0.0
  0
ARC
  5
4B
330
17
100
AcDbEntity
  8
0
  6
Continuous
 62
7
370
18
100
AcDbCircle
 10
-853.0000000000005
 20
-171.52135520855688
 30
0.0
 40
2.0
100
AcDbArc
 50
180.0
 51
-90.00000000000001
  0
LINE
  5
4C
330
17
100
AcDbEntity
  8
0
  6
Continuous
 62
7
370
18
100
AcDbLine
 10
774.9999999999998
 20
31.162272669866297
 30
0.0
 11
774.9999999999998
 21
-4.83772733013393
 31
0.0
  0
LINE
  5
4D
330
17
100
AcDbEntity
  8
0
  6
Continuous
 62
7
370
18
100
AcDbLine
 10
772.9999999999995
 20
43.16227266986607
 30
0.0
 11
736.9999999999991
 21
43.16227266986607
 31
0.0
  0
LINE
  5
4E
330
17
100
AcDbEntity
  8
0
  6
Continuous
 62
7
370
18
100
AcDbLine
 10
774.9999999999998
 20
81.1622726698663
 30
0.0
 11
774.9999999999998
 21
45.16227266986607
 31
0.0
  0
LINE
  5
4F
330
17
100
AcDbEntity
  8
0
  6
Continuous
 62
7
370
18
100
AcDbLine
 10
734.9999999999998
 20
-4.83772733013393
 30
0.0
 11
734.9999999999998
 21
31.162272669866297
 31
0.0
  0
LINE
  5
50
330
17
100
AcDbEntity
  8
0
  6
Continuous
 62
7
370
18
100
AcDbLine
 10
736.9999999999991
 20
33.16227266986607
 30
0.0
 11
772.9999999999991
 21
33.16227266986607
 31
0.0
  0
LINE
  5
51
330
17
100
AcDbEntity
  8
0
  6
Continuous
 62
7
370
18
100
AcDbLine
 10
534.9999999999998
 20
45.16227266986607
 30
0.0
 11
534.9999999999998
 21
81.1622726698663
 31
0.0
  0
LINE
  5
52
330
17
100
AcDbEntity
  8
0
  6
Continuous
 62
7
370
18
100
AcDbLine
 10
536.9999999999991
 20
83.16227266986607
 30
0.0
 11
572.9999999999995
 21
83.16227266986607
 31
0.0
  0
LINE
  5
53
330
17
100
AcDbEntity
  8
0
  6
Continuous
 62
7
370
18
100
AcDbLine
 10
572.9999999999995
 20
43.16227266986607
 30
0.0
 11
536.9999999999991
 21
43.16227266986607
 31
0.0
  0
LINE
  5
54
330
17
100
AcDbEntity
  8
0
  6
Continuous
 62
7
370
18
100
AcDbLine
 10
574.9999999999998
 20
81.1622726698663
 30
0.0
 11
574.9999999999998
 21
45.16227266986607
 31
0.0
  0
LINE
  5
55
330
17
100
AcDbEntity
  8
0
  6
Continuous
 62
7
370
18
100
AcDbLine
 10
534.9999999999998
 20
-4.83772733013393
 30
0.0
 11
534.9999999999998
 21
31.162272669866297
 31
0.0
  0
LINE
  5
56
330
17
100
AcDbEntity
  8
0
  6
Continuous
 62
7
370
18
100
AcDbLine
 10
536.9999999999991
 20
33.16227266986607
 30
0.0
 11
572.9999999999995
 21
33.16227266986607
 31
0.0
  0
LINE
  5
57
330
17
100
AcDbEntity
  8
0
  6
Continuous
 62
7
370
18
100
AcDbLine
 10
572.9999999999995
 20
-6.83772733013393
 30
0.0
 11
536.9999999999991
 21
-6.83772733013393
 31
0.0
  0
LINE
  5
58
330
17
100
AcDbEntity
  8
0
  6
Continuous
 62
7
370
18
100
AcDbLine
 10
574.9999999999998
 20
31.162272669866297
 30
0.0
 11
574.9999999999998
 21
-4.83772733013393
 31
0.0
  0
LINE
  5
59
330
17
100
AcDbEntity
  8
0
  6
Continuous
 62
7
370
18
100
AcDbLine
 10
536.9999999999991
 20
-16.83772733013393
 30
0.0
 11
572.9999999999995
 21
-16.83772733013393
 31
0.0
  0
LINE
  5
5A
330
17
100
AcDbEntity
  8
0
  6
Continuous
 62
7
370
18
100
AcDbLine
 10
572.9999999999995
 20
-56.83772733013393
 30
0.0
 11
536.9999999999991
 21
-56.83772733013393
 31
0.0
  0
LINE
  5
5B
330
17
100
AcDbEntity
  8
0
  6
Continuous
 62
7
370
18
100
AcDbLine
 10
574.9999999999998
 20
-18.837727330133703
 30
0.0
 11
574.9999999999998
 21
-54.83772733013393
 31
0.0
  0
LINE
  5
5C
330
17
100
AcDbEntity
  8
0
  6
Continuous
 62
7
370
18
100
AcDbLine
 10
584.9999999999998
 20
45.16227266986607
 30
0.0
 11
584.9999999999998
 21
81.1622726698663
 31
0.0
  0
LINE
  5
5D
330
17
100
AcDbEntity
  8
0
  6
Continuous
 62
7
370
18
100
AcDbLine
 10
586.9999999999991
 20
83.16227266986607
 30
0.0
 11
622.9999999999995
 21
83.16227266986607
 31
0.0
  0
LINE
  5
5E
330
17
100
AcDbEntity
  8
0
  6
Continuous
 62
7
370
18
100
AcDbLine
 10
622.9999999999995
 20
43.16227266986607
 30
0.0
 11
586.9999999999991
 21
43.16227266986607
 31
0.0
  0
LINE
  5
5F
330
17
100
AcDbEntity
  8
0
  6
Continuous
 62
7
370
18
100
AcDbLine
 10
624.9999999999998
 20
81.1622726698663
 30
0.0
 11
624.9999999999998
 21
45.16227266986607
 31
0.0
  0
LINE
  5
60
330
17
100
AcDbEntity
  8
0
  6
Continuous
 62
7
370
18
100
AcDbLine
 10
584.9999999999998
 20
-4.83772733013393
 30
0.0
 11
584.9999999999998
 21
31.162272669866297
 31
0.0
  0
LINE
  5
61
330
17
100
AcDbEntity
  8
0
  6
Continuous
 62
7
370
18
100
AcDbLine
 10
586.9999999999991
 20
33.16227266986607
 30
0.0
 11
622.9999999999995
 21
33.16227266986607
 31
0.0
  0
LINE
  5
62
330
17
100
AcDbEntity
  8
0
  6
Continuous
 62
7
370
18
100
AcDbLine
 10
622.9999999999995
 20
-6.83772733013393
 30
0.0
 11
586.9999999999991
 21
-6.83772733013393
 31
0.0
  0
LINE
  5
63
330
17
100
AcDbEntity
  8
0
  6
Continuous
 62
7
370
18
100
AcDbLine
 10
624.9999999999998
 20
31.162272669866297
 30
0.0
 11
624.9999999999998
 21
-4.83772733013393
 31
0.0
  0
LINE
  5
64
330
17
100
AcDbEntity
  8
0
  6
Continuous
 62
7
370
18
100
AcDbLine
 10
584.9999999999998
 20
-54.83772733013393
 30
0.0
 11
584.9999999999998
 21
-18.837727330133703
 31
0.0
  0
LINE
  5
65
330
17
100
AcDbEntity
  8
0
  6
Continuous
 62
7
370
18
100
AcDbLine
 10
586.9999999999991
 20
-16.83772733013393
 30
0.0
 11
622.9999999999995
 21
-16.83772733013393
 31
0.0
  0
LINE
  5
66
330
17
100
AcDbEntity
  8
0
  6
Continuous
 62
7
370
18
100
AcDbLine
 10
622.9999999999995
 20
-56.83772733013393
 30
0.0
 11
586.9999999999991
 21
-56.83772733013393
 31
0.0
  0
LINE
  5
67
330
17
100
AcDbEntity
  8
0
  6
Continuous
 62
7
370
18
100
AcDbLine
 10
624.9999999999998
 20
-18.837727330133703
 30
0.0
 11
624.9999999999998
 21
-54.83772733013393
 31
0.0
  0
LINE
  5
68
330
17
100
AcDbEntity
  8
0
  6
Continuous
 62
7
370
18
100
AcDbLine
 10
634.9999999999998
 20
45.16227266986607
 30
0.0
 11
634.9999999999998
 21
81.1622726698663
 31
0.0
  0
LINE
  5
69
330
17
100
AcDbEntity
  8
0
  6
Continuous
 62
7
370
18
100
AcDbLine
 10
636.9999999999991
 20
83.16227266986607
 30
0.0
 11
672.9999999999991
 21
83.16227266986607
 31
0.0
  0
LINE
  5
6A
330
17
100
AcDbEntity
  8
0
  6
Continuous
 62
7
370
18
100
AcDbLine
 10
672.9999999999991
 20
43.16227266986607
 30
0.0
 11
636.9999999999991
 21
43.16227266986607
 31
0.0
  0
LINE
  5
6B
330
17
100
AcDbEntity
  8
0
  6
Continuous
 62
7
370
18
100
AcDbLine
 10
674.9999999999998
 20
81.1622726698663
 30
0.0
 11
674.9999999999998
 21
45.16227266986607
 31
0.0
  0
LINE
  5
6C
330
17
100
AcDbEntity
  8
0
  6
Continuous
 62
7
370
18
100
AcDbLine
 10
634.9999999999998
 20
-4.83772733013393
 30
0.0
 11
634.9999999999998
 21
31.162272669866297
 31
0.0
  0
LINE
  5
6D
330
17
100
AcDbEntity
  8
0
  6
Continuous
 62
7
370
18
100
AcDbLine
 10
636.9999999999991
 20
33.16227266986607
 30
0.0
 11
672.9999999999991
 21
33.16227266986607
 31
0.0
  0
LINE
  5
6E
330
17
100
AcDbEntity
  8
0
  6
Continuous
 62
7
370
18
100
AcDbLine
 10
672.9999999999991
 20
-6.83772733013393
 30
0.0
 11
636.9999999999991
 21
-6.83772733013393
 31
0.0
  0
LINE
  5
6F
330
17
100
AcDbEntity
  8
0
  6
Continuous
 62
7
370
18
100
AcDbLine
 10
674.9999999999998
 20
31.162272669866297
 30
0.0
 11
674.9999999999998
 21
-4.83772733013393
 31
0.0
  0
LINE
  5
70
330
17
100
AcDbEntity
  8
0
  6
Continuous
 62
7
370
18
100
AcDbLine
 10
634.9999999999998
 20
-54.83772733013393
 30
0.0
 11
634.9999999999998
 21
-18.837727330133703
 31
0.0
  0
LINE
  5
71
330
17
100
AcDbEntity
  8
0
  6
Continuous
 62
7
370
18
100
AcDbLine
 10
636.9999999999991
 20
-16.83772733013393
 30
0.0
 11
672.9999999999991
 21
-16.83772733013393
 31
0.0
  0
LINE
  5
72
330
17
100
AcDbEntity
  8
0
  6
Continuous
 62
7
370
18
100
AcDbLine
 10
672.9999999999991
 20
-56.83772733013393
 30
0.0
 11
636.9999999999991
 21
-56.83772733013393
 31
0.0
  0
LINE
  5
73
330
17
100
AcDbEntity
  8
0
  6
Continuous
 62
7
370
18
100
AcDbLine
 10
674.9999999999998
 20
-18.837727330133703
 30
0.0
 11
674.9999999999998
 21
-54.83772733013393
 31
0.0
  0
LINE
  5
74
330
17
100
AcDbEntity
  8
0
  6
Continuous
 62
7
370
18
100
AcDbLine
 10
684.9999999999998
 20
45.16227266986607
 30
0.0
 11
684.9999999999998
 21
81.1622726698663
 31
0.0
  0
LINE
  5
75
330
17
100
AcDbEntity
  8
0
  6
Continuous
 62
7
370
18
100
AcDbLine
 10
686.9999999999991
 20
83.16227266986607
 30
0.0
 11
722.9999999999991
 21
83.16227266986607
 31
0.0
  0
LINE
  5
76
330
17
100
AcDbEntity
  8
0
  6
Continuous
 62
7
370
18
100
AcDbLine
 10
722.9999999999991
 20
43.16227266986607
 30
0.0
 11
686.9999999999991
 21
43.16227266986607
 31
0.0
  0
LINE
  5
77
330
17
100
AcDbEntity
  8
0
  6
Continuous
 62
7
370
18
100
AcDbLine
 10
724.9999999999998
 20
81.1622726698663
 30
0.0
 11
724.9999999999998
 21
45.16227266986607
 31
0.0
  0
LINE
  5
78
330
17
100
AcDbEntity
  8
0
  6
Continuous
 62
7
370
18
100
AcDbLine
 10
684.9999999999998
 20
-4.83772733013393
 30
0.0
 11
684.9999999999998
 21
31.162272669866297
 31
0.0
  0
LINE
  5
79
330
17
100
AcDbEntity
  8
0
  6
Continuous
 62
7
370
18
100
AcDbLine
 10
686.9999999999991
 20
33.16227266986607
 30
0.0
 11
722.9999999999991
 21
33.16227266986607
 31
0.0
  0
LINE
  5
7A
330
17
100
AcDbEntity
  8
0
  6
Continuous
 62
7
370
18
100
AcDbLine
 10
722.9999999999991
 20
-6.83772733013393
 30
0.0
 11
686.9999999999991
 21
-6.83772733013393
 31
0.0
  0
LINE
  5
7B
330
17
100
AcDbEntity
  8
0
  6
Continuous
 62
7
370
18
100
AcDbLine
 10
724.9999999999998
 20
31.162272669866297
 30
0.0
 11
724.9999999999998
 21
-4.83772733013393
 31
0.0
  0
LINE
  5
7C
330
17
100
AcDbEntity
  8
0
  6
Continuous
 62
7
370
18
100
AcDbLine
 10
684.9999999999998
 20
-54.83772733013393
 30
0.0
 11
684.9999999999998
 21
-18.837727330133703
 31
0.0
  0
LINE
  5
7D
330
17
100
AcDbEntity
  8
0
  6
Continuous
 62
7
370
18
100
AcDbLine
 10
686.9999999999991
 20
-16.83772733013393
 30
0.0
 11
722.9999999999991
 21
-16.83772733013393
 31
0.0
  0
LINE
  5
7E
330
17
100
AcDbEntity
  8
0
  6
Continuous
 62
7
370
18
100
AcDbLine
 10
722.9999999999991
 20
-56.83772733013393
 30
0.0
 11
686.9999999999991
 21
-56.83772733013393
 31
0.0
  0
LINE
  5
7F
330
17
100
AcDbEntity
  8
0
  6
Continuous
 62
7
370
18
100
AcDbLine
 10
734.9999999999998
 20
45.16227266986607
 30
0.0
 11
734.9999999999998
 21
81.1622726698663
 31
0.0
  0
LINE
  5
80
330
17
100
AcDbEntity
  8
0
  6
Continuous
 62
7
370
18
100
AcDbLine
 10
772.9999999999995
 20
-6.83772733013393
 30
0.0
 11
736.9999999999991
 21
-6.83772733013393
 31
0.0
  0
LINE
  5
81
330
17
100
AcDbEntity
  8
0
  6
Continuous
 62
7
370
18
100
AcDbLine
 10
736.9999999999991
 20
-16.83772733013393
 30
0.0
 11
772.9999999999991
 21
-16.83772733013393
 31
0.0
  0
LINE
  5
82
330
17
100
AcDbEntity
  8
0
  6
Continuous
 62
7
370
18
100
AcDbLine
 10
724.9999999999998
 20
-18.837727330133703
 30
0.0
 11
724.9999999999998
 21
-54.83772733013393
 31
0.0
  0
LINE
  5
83
330
17
100
AcDbEntity
  8
0
  6
Continuous
 62
7
370
18
100
AcDbLine
 10
734.9999999999998
 20
-54.83772733013393
 30
0.0
 11
734.9999999999998
 21
-18.837727330133703
 31
0.0
  0
LINE
  5
84
330
17
100
AcDbEntity
  8
0
  6
Continuous
 62
7
370
18
100
AcDbLine
 10
534.9999999999998
 20
-54.83772733013393
 30
0.0
 11
534.9999999999998
 21
-18.837727330133703
 31
0.0
  0
LINE
  5
85
330
17
100
AcDbEntity
  8
0
  6
Continuous
 62
7
370
18
100
AcDbLine
 10
774.9999999999998
 20
-18.837727330133703
 30
0.0
 11
774.9999999999998
 21
-54.83772733013393
 31
0.0
  0
LINE
  5
86
330
17
100
AcDbEntity
  8
0
  6
Continuous
 62
7
370
18
100
AcDbLine
 10
736.9999999999991
 20
83.16227266986607
 30
0.0
 11
772.9999999999991
 21
83.16227266986607
 31
0.0
  0
LINE
  5
87
330
17
100
AcDbEntity
  8
0
  6
Continuous
 62
7
370
18
100
AcDbLine
 10
772.9999999999995
 20
-56.83772733013393
 30
0.0
 11
736.9999999999991
 21
-56.83772733013393
 31
0.0
  0
ARC
  5
88
330
17
100
AcDbEntity
  8
0
  6
Continuous
 62
7
370
18
100
AcDbCircle
 10
736.9999999999991
 20
-54.83772733013393
 30
0.0
 40
2.0
100
AcDbArc
 50
180.0
 51
-90.00000000000001
  0
ARC
  5
89
330
17
100
AcDbEntity
  8
0
  6
Continuous
 62
7
370
18
100
AcDbCircle
 10
736.9999999999991
 20
-18.837727330133703
 30
0.0
 40
2.0
100
AcDbArc
 50
90.0
 51
180.0
  0
ARC
  5
8A
330
17
100
AcDbEntity
  8
0
  6
Continuous
 62
7
370
18
100
AcDbCircle
 10
772.9999999999995
 20
-18.837727330133703
 30
0.0
 40
2.0
100
AcDbArc
 50
0.0
 51
90.0
  0
ARC
  5
8B
330
17
100
AcDbEntity
  8
0
  6
Continuous
 62
7
370
18
100
AcDbCircle
 10
772.9999999999995
 20
-54.83772733013393
 30
0.0
 40
2.0
100
AcDbArc
 50
-90.00000000000001
 51
0.0
  0
ARC
  5
8C
330
17
100
AcDbEntity
  8
0
  6
Continuous
 62
7
370
18
100
AcDbCircle
 10
536.9999999999991
 20
45.16227266986607
 30
0.0
 40
2.0
100
AcDbArc
 50
180.0
 51
-90.00000000000001
  0
ARC
  5
8D
330
17
100
AcDbEntity
  8
0
  6
Continuous
 62
7
370
18
100
AcDbCircle
 10
536.9999999999991
 20
81.1622726698663
 30
0.0
 40
2.0
100
AcDbArc
 50
90.0
 51
180.0
  0
ARC
  5
8E
330
17
100
AcDbEntity
  8
0
  6
Continuous
 62
7
370
18
100
AcDbCircle
 10
572.9999999999995
 20
81.1622726698663
 30
0.0
 40
2.0
100
AcDbArc
 50
0.0
 51
90.0
  0
ARC
  5
8F
330
17
100
AcDbEntity
  8
0
  6
Continuous
 62
7
370
18
100
AcDbCircle
 10
572.9999999999995
 20
45.16227266986607
 30
0.0
 40
2.0
100
AcDbArc
 50
-90.00000000000001
 51
0.0
  0
ARC
  5
90
330
17
100
AcDbEntity
  8
0
  6
Continuous
 62
7
370
18
100
AcDbCircle
 10
536.9999999999991
 20
-4.83772733013393
 30
0.0
 40
2.0
100
AcDbArc
 50
180.0
 51
-90.00000000000001
  0
ARC
  5
91
330
17
100
AcDbEntity
  8
0
  6
Continuous
 62
7
370
18
100
AcDbCircle
 10
536.9999999999991
 20
31.162272669866297
 30
0.0
 40
2.0
100
AcDbArc
 50
90.0
 51
180.0
  0
ARC
  5
92
330
17
100
AcDbEntity
  8
0
  6
Continuous
 62
7
370
18
100
AcDbCircle
 10
572.9999999999995
 20
31.162272669866297
 30
0.0
 40
2.0
100
AcDbArc
 50
0.0
 51
90.0
  0
ARC
  5
93
330
17
100
AcDbEntity
  8
0
  6
Continuous
 62
7
370
18
100
AcDbCircle
 10
572.9999999999995
 20
-4.83772733013393
 30
0.0
 40
2.0
100
AcDbArc
 50
-90.00000000000001
 51
0.0
  0
ARC
  5
94
330
17
100
AcDbEntity
  8
0
  6
Continuous
 62
7
370
18
100
AcDbCircle
 10
536.9999999999991
 20
-54.83772733013393
 30
0.0
 40
2.0
100
AcDbArc
 50
180.0
 51
-90.00000000000001
  0
ARC
  5
95
330
17
100
AcDbEntity
  8
0
  6
Continuous
 62
7
370
18
100
AcDbCircle
 10
536.9999999999991
 20
-18.837727330133703
 30
0.0
 40
2.0
100
AcDbArc
 50
90.0
 51
180.0
  0
ARC
  5
96
330
17
100
AcDbEntity
  8
0
  6
Continuous
 62
7
370
18
100
AcDbCircle
 10
572.9999999999995
 20
-18.837727330133703
 30
0.0
 40
2.0
100
AcDbArc
 50
0.0
 51
90.0
  0
ARC
  5
97
330
17
100
AcDbEntity
  8
0
  6
Continuous
 62
7
370
18
100
AcDbCircle
 10
572.9999999999995
 20
-54.83772733013393
 30
0.0
 40
2.0
100
AcDbArc
 50
-90.00000000000001
 51
0.0
  0
ARC
  5
98
330
17
100
AcDbEntity
  8
0
  6
Continuous
 62
7
370
18
100
AcDbCircle
 10
586.9999999999991
 20
45.16227266986607
 30
0.0
 40
2.0
100
AcDbArc
 50
180.0
 51
-90.00000000000001
  0
ARC
  5
99
330
17
100
AcDbEntity
  8
0
  6
Continuous
 62
7
370
18
100
AcDbCircle
 10
586.9999999999991
 20
81.1622726698663
 30
0.0
 40
2.0
100
AcDbArc
 50
90.0
 51
180.0
  0
ARC
  5
9A
330
17
100
AcDbEntity
  8
0
  6
Continuous
 62
7
370
18
100
AcDbCircle
 10
622.9999999999995
 20
81.1622726698663
 30
0.0
 40
2.0
100
AcDbArc
 50
0.0
 51
90.0
  0
ARC
  5
9B
330
17
100
AcDbEntity
  8
0
  6
Continuous
 62
7
370
18
100
AcDbCircle
 10
622.9999999999995
 20
45.16227266986607
 30
0.0
 40
2.0
100
AcDbArc
 50
-90.00000000000001
 51
0.0
  0
ARC
  5
9C
330
17
100
AcDbEntity
  8
0
  6
Continuous
 62
7
370
18
100
AcDbCircle
 10
586.9999999999991
 20
-4.83772733013393
 30
0.0
 40
2.0
100
AcDbArc
 50
180.0
 51
-90.00000000000001
  0
ARC
  5
9D
330
17
100
AcDbEntity
  8
0
  6
Continuous
 62
7
370
18
100
AcDbCircle
 10
586.9999999999991
 20
31.162272669866297
 30
0.0
 40
2.0
100
AcDbArc
 50
90.0
 51
180.0
  0
ARC
  5
9E
330
17
100
AcDbEntity
  8
0
  6
Continuous
 62
7
370
18
100
AcDbCircle
 10
622.9999999999995
 20
31.162272669866297
 30
0.0
 40
2.0
100
AcDbArc
 50
0.0
 51
90.0
  0
ARC
  5
9F
330
17
100
AcDbEntity
  8
0
  6
Continuous
 62
7
370
18
100
AcDbCircle
 10
622.9999999999995
 20
-4.83772733013393
 30
0.0
 40
2.0
100
AcDbArc
 50
-90.00000000000001
 51
0.0
  0
ARC
  5
A0
330
17
100
AcDbEntity
  8
0
  6
Continuous
 62
7
370
18
100
AcDbCircle
 10
586.9999999999991
 20
-54.83772733013393
 30
0.0
 40
2.0
100
AcDbArc
 50
180.0
 51
-90.00000000000001
  0
ARC
  5
A1
330
17
100
AcDbEntity
  8
0
  6
Continuous
 62
7
370
18
100
AcDbCircle
 10
586.9999999999991
 20
-18.837727330133703
 30
0.0
 40
2.0
100
AcDbArc
 50
90.0
 51
180.0
  0
ARC
  5
A2
330
17
100
AcDbEntity
  8
0
  6
Continuous
 62
7
370
18
100
AcDbCircle
 10
622.9999999999995
 20
-18.837727330133703
 30
0.0
 40
2.0
100
AcDbArc
 50
0.0
 51
90.0
  0
ARC
  5
A3
330
17
100
AcDbEntity
  8
0
  6
Continuous
 62
7
370
18
100
AcDbCircle
 10
622.9999999999995
 20
-54.83772733013393
 30
0.0
 40
2.0
100
AcDbArc
 50
-90.00000000000001
 51
0.0
  0
ARC
  5
A4
330
17
100
AcDbEntity
  8
0
  6
Continuous
 62
7
370
18
100
AcDbCircle
 10
636.9999999999991
 20
45.16227266986607
 30
0.0
 40
2.0
100
AcDbArc
 50
180.0
 51
-90.00000000000001
  0
ARC
  5
A5
330
17
100
AcDbEntity
  8
0
  6
Continuous
 62
7
370
18
100
AcDbCircle
 10
636.9999999999991
 20
81.1622726698663
 30
0.0
 40
2.0
100
AcDbArc
 50
90.0
 51
180.0
  0
ARC
  5
A6
330
17
100
AcDbEntity
  8
0
  6
Continuous
 62
7
370
18
100
AcDbCircle
 10
672.9999999999991
 20
81.1622726698663
 30
0.0
 40
2.0
100
AcDbArc
 50
0.0
 51
90.0
  0
ARC
  5
A7
330
17
100
AcDbEntity
  8
0
  6
Continuous
 62
7
370
18
100
AcDbCircle
 10
672.9999999999991
 20
45.16227266986607
 30
0.0
 40
2.0
100
AcDbArc
 50
-90.00000000000001
 51
0.0
  0
ARC
  5
A8
330
17
100
AcDbEntity
  8
0
  6
Continuous
 62
7
370
18
100
AcDbCircle
 10
636.9999999999991
 20
-4.83772733013393
 30
0.0
 40
2.0
100
AcDbArc
 50
180.0
 51
-90.00000000000001
  0
ARC
  5
A9
330
17
100
AcDbEntity
  8
0
  6
Continuous
 62
7
370
18
100
AcDbCircle
 10
636.9999999999991
 20
31.162272669866297
 30
0.0
 40
2.0
100
AcDbArc
 50
90.0
 51
180.0
  0
ARC
  5
AA
330
17
100
AcDbEntity
  8
0
  6
Continuous
 62
7
370
18
100
AcDbCircle
 10
672.9999999999991
 20
31.162272669866297
 30
0.0
 40
2.0
100
AcDbArc
 50
0.0
 51
90.0
  0
ARC
  5
AB
330
17
100
AcDbEntity
  8
0
  6
Continuous
 62
7
370
18
100
AcDbCircle
 10
672.9999999999991
 20
-4.83772733013393
 30
0.0
 40
2.0
100
AcDbArc
 50
-90.00000000000001
 51
0.0
  0
ARC
  5
AC
330
17
100
AcDbEntity
  8
0
  6
Continuous
 62
7
370
18
100
AcDbCircle
 10
636.9999999999991
 20
-54.83772733013393
 30
0.0
 40
2.0
100
AcDbArc
 50
180.0
 51
-90.00000000000001
  0
ARC
  5
AD
330
17
100
AcDbEntity
  8
0
  6
Continuous
 62
7
370
18
100
AcDbCircle
 10
636.9999999999991
 20
-18.837727330133703
 30
0.0
 40
2.0
100
AcDbArc
 50
90.0
 51
180.0
  0
ARC
  5
AE
330
17
100
AcDbEntity
  8
0
  6
Continuous
 62
7
370
18
100
AcDbCircle
 10
672.9999999999991
 20
-18.837727330133703
 30
0.0
 40
2.0
100
AcDbArc
 50
0.0
 51
90.0
  0
ARC
  5
AF
330
17
100
AcDbEntity
  8
0
  6
Continuous
 62
7
370
18
100
AcDbCircle
 10
672.9999999999991
 20
-54.83772733013393
 30
0.0
 40
2.0
100
AcDbArc
 50
-90.00000000000001
 51
0.0
  0
ARC
  5
B0
330
17
100
AcDbEntity
  8
0
  6
Continuous
 62
7
370
18
100
AcDbCircle
 10
686.9999999999991
 20
45.16227266986607
 30
0.0
 40
2.0
100
AcDbArc
 50
180.0
 51
-90.00000000000001
  0
ARC
  5
B1
330
17
100
AcDbEntity
  8
0
  6
Continuous
 62
7
370
18
100
AcDbCircle
 10
686.9999999999991
 20
81.1622726698663
 30
0.0
 40
2.0
100
AcDbArc
 50
90.0
 51
180.0
  0
ARC
  5
B2
330
17
100
AcDbEntity
  8
0
  6
Continuous
 62
7
370
18
100
AcDbCircle
 10
722.9999999999991
 20
81.1622726698663
 30
0.0
 40
2.0
100
AcDbArc
 50
0.0
 51
90.0
  0
ARC
  5
B3
330
17
100
AcDbEntity
  8
0
  6
Continuous
 62
7
370
18
100
AcDbCircle
 10
722.9999999999991
 20
45.16227266986607
 30
0.0
 40
2.0
100
AcDbArc
 50
-90.00000000000001
 51
0.0
  0
ARC
  5
B4
330
17
100
AcDbEntity
  8
0
  6
Continuous
 62
7
370
18
100
AcDbCircle
 10
686.9999999999991
 20
-4.83772733013393
 30
0.0
 40
2.0
100
AcDbArc
 50
180.0
 51
-90.00000000000001
  0
ARC
  5
B5
330
17
100
AcDbEntity
  8
0
  6
Continuous
 62
7
370
18
100
AcDbCircle
 10
686.9999999999991
 20
31.162272669866297
 30
0.0
 40
2.0
100
AcDbArc
 50
90.0
 51
180.0
  0
ARC
  5
B6
330
17
100
AcDbEntity
  8
0
  6
Continuous
 62
7
370
18
100
AcDbCircle
 10
722.9999999999991
 20
31.162272669866297
 30
0.0
 40
2.0
100
AcDbArc
 50
0.0
 51
90.0
  0
ARC
  5
B7
330
17
100
AcDbEntity
  8
0
  6
Continuous
 62
7
370
18
100
AcDbCircle
 10
722.9999999999991
 20
-4.83772733013393
 30
0.0
 40
2.0
100
AcDbArc
 50
-90.00000000000001
 51
0.0
  0
ARC
  5
B8
330
17
100
AcDbEntity
  8
0
  6
Continuous
 62
7
370
18
100
AcDbCircle
 10
686.9999999999991
 20
-54.83772733013393
 30
0.0
 40
2.0
100
AcDbArc
 50
180.0
 51
-90.00000000000001
  0
ARC
  5
B9
330
17
100
AcDbEntity
  8
0
  6
Continuous
 62
7
370
18
100
AcDbCircle
 10
686.9999999999991
 20
-18.837727330133703
 30
0.0
 40
2.0
100
AcDbArc
 50
90.0
 51
180.0
  0
ARC
  5
BA
330
17
100
AcDbEntity
  8
0
  6
Continuous
 62
7
370
18
100
AcDbCircle
 10
722.9999999999991
 20
-18.837727330133703
 30
0.0
 40
2.0
100
AcDbArc
 50
0.0
 51
90.0
  0
ARC
  5
BB
330
17
100
AcDbEntity
  8
0
  6
Continuous
 62
7
370
18
100
AcDbCircle
 10
722.9999999999991
 20
-54.83772733013393
 30
0.0
 40
2.0
100
AcDbArc
 50
-90.00000000000001
 51
0.0
  0
ARC
  5
BC
330
17
100
AcDbEntity
  8
0
  6
Continuous
 62
7
370
18
100
AcDbCircle
 10
736.9999999999991
 20
45.16227266986607
 30
0.0
 40
2.0
100
AcDbArc
 50
180.0
 51
-90.00000000000001
  0
ARC
  5
BD
330
17
100
AcDbEntity
  8
0
  6
Continuous
 62
7
370
18
100
AcDbCircle
 10
736.9999999999991
 20
81.1622726698663
 30
0.0
 40
2.0
100
AcDbArc
 50
90.0
 51
180.0
  0
ARC
  5
BE
330
17
100
AcDbEntity
  8
0
  6
Continuous
 62
7
370
18
100
AcDbCircle
 10
772.9999999999995
 20
81.1622726698663
 30
0.0
 40
2.0
100
AcDbArc
 50
0.0
 51
90.0
  0
ARC
  5
BF
330
17
100
AcDbEntity
  8
0
  6
Continuous
 62
7
370
18
100
AcDbCircle
 10
772.9999999999995
 20
45.16227266986607
 30
0.0
 40
2.0
100
AcDbArc
 50
-90.00000000000001
 51
0.0
  0
ARC
  5
C0
330
17
100
AcDbEntity
  8
0
  6
Continuous
 62
7
370
18
100
AcDbCircle
 10
736.9999999999991
 20
-4.83772733013393
 30
0.0
 40
2.0
100
AcDbArc
 50
180.0
 51
-90.00000000000001
  0
ARC
  5
C1
330
17
100
AcDbEntity
  8
0
  6
Continuous
 62
7
370
18
100
AcDbCircle
 10
736.9999999999991
 20
31.162272669866297
 30
0.0
 40
2.0
100
AcDbArc
 50
90.0
 51
180.0
  0
ARC
  5
C2
330
17
100
AcDbEntity
  8
0
  6
Continuous
 62
7
370
18
100
AcDbCircle
 10
772.9999999999995
 20
31.162272669866297
 30
0.0
 40
2.0
100
AcDbArc
 50
0.0
 51
90.0
  0
ARC
  5
C3
330
17
100
AcDbEntity
  8
0
  6
Continuous
 62
7
370
18
100
AcDbCircle
 10
772.9999999999995
 20
-4.83772733013393
 30
0.0
 40
2.0
100
AcDbArc
 50
-90.00000000000001
 51
0.0
  0
LINE
  5
C4
330
17
100
AcDbEntity
  8
0
  6
Continuous
 62
7
370
18
100
AcDbLine
 10
-521.5434760696794
 20
-76.13910422089543
 30
0.0
 11
-521.5348972696789
 21
10.987465779104696
 31
0.0
  0
LINE
  5
C5
330
17
100
AcDbEntity
  8
0
  6
Continuous
 62
7
370
18
100
AcDbLine
 10
-677.0476864696792
 20
22.520591379104644
 30
0.0
 11
-677.0459872696791
 21
39.797304579104775
 31
0.0
  0
LINE
  5
C6
330
17
100
AcDbEntity
  8
0
  6
Continuous
 62
7
370
18
100
AcDbLine
 10
-743.3211520696781
 20
22.52711457910459
 30
0.0
 11
-677.0476864696792
 21
22.520591379104644
 31
0.0
  0
LINE
  5
C7
330
17
100
AcDbEntity
  8
0
  6
Continuous
 62
7
370
18
100
AcDbLine
 10
-757.7201512696793
 20
4.880371779104507
 30
0.0
 11
-757.719834400124
 21
8.131272985794112
 31
0.0
  0
LINE
  5
C8
330
17
100
AcDbEntity
  8
0
  6
Continuous
 62
7
370
18
100
AcDbLine
 10
-693.7503940696791
 20
-9.523192220895453
 30
0.0
 11
-743.3243094254498
 21
-9.518310620879902
 31
0.0
  0
LINE
  5
C9
330
17
100
AcDbEntity
  8
0
  6
Continuous
 62
7
370
18
100
AcDbLine
 10
-664.9595020696792
 20
-46.424819420895346
 30
0.0
 11
-664.9587064696029
 21
-38.32054544487937
 31
0.0
  0
LINE
  5
CA
330
17
100
AcDbEntity
  8
0
  6
Continuous
 62
7
370
18
100
AcDbLine
 10
-664.9595920696793
 20
-47.33046062089534
 30
0.0
 11
-664.9595020696792
 21
-46.424819420895346
 31
0.0
  0
LINE
  5
CB
330
17
100
AcDbEntity
  8
0
  6
Continuous
 62
7
370
18
100
AcDbLine
 10
-695.9148400696793
 20
-58.845222620895356
 30
0.0
 11
-772.3913212696792
 21
-58.83769142089545
 31
0.0
  0
LINE
  5
CC
330
17
100
AcDbEntity
  8
0
  6
Continuous
 62
7
370
18
100
AcDbLine
 10
-681.5158408696792
 20
-41.19836822089542
 30
0.0
 11
-681.5161649391604
 21
-44.449376673745746
 31
0.0
  0
LINE
  5
CD
330
17
100
AcDbEntity
  8
0
  6
Continuous
 62
7
370
18
100
AcDbLine
 10
-746.2054612696792
 20
-26.794735820895312
 30
0.0
 11
-695.9116843857631
 21
-26.799689490970422
 31
0.0
  0
LINE
  5
CE
330
17
100
AcDbEntity
  8
0
  6
Continuous
 62
7
370
18
100
AcDbLine
 10
-654.8333798862769
 20
-76.12598222079532
 30
0.0
 11
-579.4774768696793
 21
-76.13340542089543
 31
0.0
  0
LINE
  5
CF
330
17
100
AcDbEntity
  8
0
  6
Continuous
 62
7
370
18
100
AcDbLine
 10
-654.8268268696792
 20
-9.569463020895455
 30
0.0
 11
-654.8333798862769
 21
-76.12598222079532
 31
0.0
  0
LINE
  5
D0
330
17
100
AcDbEntity
  8
0
  6
Continuous
 62
7
370
18
100
AcDbLine
 10
-637.5501100696792
 20
-9.571162220895303
 30
0.0
 11
-654.8268268696792
 21
-9.569463020895455
 31
0.0
  0
LINE
  5
D1
330
17
100
AcDbEntity
  8
0
  6
Continuous
 62
7
370
18
100
AcDbLine
 10
-637.5549628696792
 20
-58.85096822089531
 30
0.0
 11
-637.5501100696792
 21
-9.571162220895303
 31
0.0
  0
LINE
  5
D2
330
17
100
AcDbEntity
  8
0
  6
Continuous
 62
7
370
18
100
AcDbLine
 10
-579.6680950533859
 20
-58.856670564894785
 30
0.0
 11
-637.5549628696791
 21
-58.85096822089531
 31
0.0
  0
LINE
  5
D3
330
17
100
AcDbEntity
  8
0
  6
Continuous
 62
7
370
18
100
AcDbLine
 10
-568.148269725205
 20
-38.37251638003431
 30
0.0
 11
-568.1491516696794
 21
-47.339993420895325
 31
0.0
  0
LINE
  5
D4
330
17
100
AcDbEntity
  8
0
  6
Continuous
 62
7
370
18
100
AcDbLine
 10
-619.9976368696792
 20
-26.849599820895264
 30
0.0
 11
-579.6649432696789
 21
-26.853574220895325
 31
0.0
  0
LINE
  5
D5
330
17
100
AcDbEntity
  8
0
  6
Continuous
 62
7
370
18
100
AcDbLine
 10
-619.9959376696792
 20
-9.572893820895388
 30
0.0
 11
-619.9976368696792
 21
-26.849599820895264
 31
0.0
  0
LINE
  5
D6
330
17
100
AcDbEntity
  8
0
  6
Continuous
 62
7
370
18
100
AcDbLine
 10
-583.2625582537454
 20
-9.576508220719916
 30
0.0
 11
-619.9959376696792
 21
-9.572893820895388
 31
0.0
  0
LINE
  5
D7
330
17
100
AcDbEntity
  8
0
  6
Continuous
 62
7
370
18
100
AcDbLine
 10
-571.7427221257789
 20
10.99240939027959
 30
0.0
 11
-571.7436148696794
 21
1.9401653791046556
 31
0.0
  0
LINE
  5
D8
330
17
100
AcDbEntity
  8
0
  6
Continuous
 62
7
370
18
100
AcDbLine
 10
-637.5469528696792
 20
22.516699779104556
 30
0.0
 11
-583.2593992696794
 21
22.51135377910464
 31
0.0
  0
LINE
  5
D9
330
17
100
AcDbEntity
  8
0
  6
Continuous
 62
7
370
18
100
AcDbLine
 10
-637.5484180696792
 20
7.6371905791045265
 30
0.0
 11
-637.5469528696792
 21
22.516699779104556
 31
0.0
  0
LINE
  5
DA
330
17
100
AcDbEntity
  8
0
  6
Continuous
 62
7
370
18
100
AcDbLine
 10
-654.8251312696791
 20
7.638893379104729
 30
0.0
 11
-637.5484180696792
 21
7.6371905791045265
 31
0.0
  0
LINE
  5
DB
330
17
100
AcDbEntity
  8
0
  6
Continuous
 62
7
370
18
100
AcDbLine
 10
-654.8219668696793
 20
39.79511577910466
 30
0.0
 11
-654.8251312696791
 21
7.638893379104729
 31
0.0
  0
LINE
  5
DC
330
17
100
AcDbEntity
  8
0
  6
Continuous
 62
7
370
18
100
AcDbLine
 10
-583.3669852696788
 20
39.7880813791046
 30
0.0
 11
-654.8219668696793
 21
39.79511577910466
 31
0.0
  0
LINE
  5
DD
330
17
100
AcDbEntity
  8
0
  6
Continuous
 62
7
370
18
100
AcDbLine
 10
-554.5756264562709
 20
7.62902007728394
 30
0.0
 11
-554.5752940696793
 21
10.990720179104528
 31
0.0
  0
LINE
  5
DE
330
17
100
AcDbEntity
  8
0
  6
Continuous
 62
7
370
18
100
AcDbLine
 10
-550.6958908766519
 20
-48.291863355804935
 30
0.0
 11
-550.6518556697519
 21
-41.124622232739284
 31
0.0
  0
LINE
  5
DF
330
17
100
AcDbEntity
  8
0
  6
Continuous
 62
7
370
18
100
AcDbLine
 10
-538.8201892696794
 20
-76.13740502089536
 30
0.0
 11
-521.5434760696794
 21
-76.13910422089543
 31
0.0
  0
LINE
  5
E0
330
17
100
AcDbEntity
  8
0
  6
Continuous
 62
7
370
18
100
AcDbLine
 10
-538.8174532696794
 20
-48.340537820895406
 30
0.0
 11
-538.8201892696794
 21
-76.13740502089536
 31
0.0
  0
LINE
  5
E1
330
17
100
AcDbEntity
  8
0
  6
Continuous
 62
7
370
18
100
AcDbLine
 10
-538.8116104694999
 20
10.989166798324504
 30
0.0
 11
-538.8174532696794
 21
-48.340537820895406
 31
0.0
  0
LINE
  5
E2
330
17
100
AcDbEntity
  8
0
  6
Continuous
 62
7
370
18
100
AcDbLine
 10
-497.05671505369685
 20
39.77957817908373
 30
0.0
 11
-510.01425004604994
 21
39.7808561788263
 31
0.0
  0
LINE
  5
E3
330
17
100
AcDbEntity
  8
0
  6
Continuous
 62
7
370
18
100
AcDbLine
 10
-443.78684644606335
 20
39.77433283979667
 30
0.0
 11
-456.7443832204483
 21
39.77561097909961
 31
0.0
  0
LINE
  5
E4
330
17
100
AcDbEntity
  8
0
  6
Continuous
 62
7
370
18
100
AcDbLine
 10
-432.28045006967943
 20
-76.14789542089534
 30
0.0
 11
-415.0037368696793
 21
-76.14959462089541
 31
0.0
  0
LINE
  5
E5
330
17
100
AcDbEntity
  8
0
  6
Continuous
 62
7
370
18
100
AcDbLine
 10
-432.2718713259179
 20
10.97867398311405
 30
0.0
 11
-432.28045006967943
 21
-76.14789542089534
 31
0.0
  0
LINE
  5
E6
330
17
100
AcDbEntity
  8
0
  6
Continuous
 62
7
370
18
100
AcDbLine
 10
-456.74608170986585
 20
22.498894179029776
 30
0.0
 11
-443.7885484696794
 21
22.497619779104525
 31
0.0
  0
LINE
  5
E7
330
17
100
AcDbEntity
  8
0
  6
Continuous
 62
7
370
18
100
AcDbLine
 10
-468.2736064696794
 20
-76.14434942124944
 30
0.0
 11
-468.2650276696794
 21
10.982220579104705
 31
0.0
  0
LINE
  5
E8
330
17
100
AcDbEntity
  8
0
  6
Continuous
 62
7
370
18
100
AcDbLine
 10
-485.5503196696794
 20
-76.14265022089535
 30
0.0
 11
-468.2736064696794
 21
-76.14434942124944
 31
0.0
  0
LINE
  5
E9
330
17
100
AcDbEntity
  8
0
  6
Continuous
 62
7
370
18
100
AcDbLine
 10
-485.5417445259179
 20
10.983922783469552
 30
0.0
 11
-485.5503196696794
 21
-76.14265022089535
 31
0.0
  0
LINE
  5
EA
330
17
100
AcDbEntity
  8
0
  6
Continuous
 62
7
370
18
100
AcDbLine
 10
-510.0159513098704
 20
22.50413932355923
 30
0.0
 11
-497.0584180696794
 21
22.502864979104515
 31
0.0
  0
LINE
  5
EB
330
17
100
AcDbEntity
  8
0
  6
Continuous
 62
7
370
18
100
AcDbLine
 10
-772.3930240696792
 20
-76.11440462089536
 30
0.0
 11
-693.7569524940029
 21
-76.12215528158731
 31
0.0
  0
LINE
  5
EC
330
17
100
AcDbEntity
  8
0
  6
Continuous
 62
7
370
18
100
AcDbLine
 10
-772.3913212696792
 20
-58.83769142089545
 30
0.0
 11
-772.3930240696792
 21
-76.11440462089536
 31
0.0
  0
LINE
  5
ED
330
17
100
AcDbEntity
  8
0
  6
Continuous
 62
7
370
18
100
AcDbLine
 10
-677.0459872696791
 20
39.797304579104775
 30
0.0
 11
-746.1989020696798
 21
39.80411577910468
 31
0.0
  0
LINE
  5
EE
330
17
100
AcDbEntity
  8
0
  6
Continuous
 62
7
370
18
100
AcDbLine
 10
-774.9962632696793
 20
11.012424579104618
 30
0.0
 11
-774.9971487303217
 21
2.002617905279749
 31
0.0
  0
LINE
  5
EF
330
17
100
AcDbEntity
  8
0
  6
Continuous
 62
7
370
18
100
AcDbLine
 10
-415.0037368696793
 20
-76.14959462089541
 30
0.0
 11
-414.99515806967895
 21
10.976975379104715
 31
0.0
  0
ARC
  5
F0
330
17
100
AcDbEntity
  8
0
  6
Continuous
 62
7
370
18
100
AcDbCircle
 10
-510.0170824696794
 20
10.98633537910473
 30
0.0
 40
11.517804000000005
100
AcDbArc
 50
89.99437300000002
 51
179.9943767849997
  0
ARC
  5
F1
330
17
100
AcDbEntity
  8
0
  6
Continuous
 62
7
370
18
100
AcDbCircle
 10
-746.2026280696792
 20
1.999784979104561
 30
0.0
 40
28.794520799999997
100
AcDbArc
 50
179.994363
 51
-90.0056375448342
  0
ARC
  5
F2
330
17
100
AcDbEntity
  8
0
  6
Continuous
 62
7
370
18
100
AcDbCircle
 10
-746.2017424696792
 20
11.00959137910445
 30
0.0
 40
28.794520800000008
100
AcDbArc
 50
89.99434812920194
 51
179.9943624551656
  0
ARC
  5
F3
330
17
100
AcDbEntity
  8
0
  6
Continuous
 62
7
370
18
100
AcDbCircle
 10
-743.3225740696793
 20
8.129857779104668
 30
0.0
 40
14.397260400000004
100
AcDbArc
 50
89.99434096374503
 51
179.994368
  0
ARC
  5
F4
330
17
100
AcDbEntity
  8
0
  6
Continuous
 62
7
370
18
100
AcDbCircle
 10
-743.3228944696793
 20
4.878953379104587
 30
0.0
 40
14.397264
100
AcDbArc
 50
179.994355290419
 51
-90.00563100000001
  0
ARC
  5
F5
330
17
100
AcDbEntity
  8
0
  6
Continuous
 62
7
370
18
100
AcDbCircle
 10
-693.7532308696792
 20
-38.317713020895326
 30
0.0
 40
28.794528000000007
100
AcDbArc
 50
-0.005636000000009469
 51
89.99435529183039
  0
ARC
  5
F6
330
17
100
AcDbEntity
  8
0
  6
Continuous
 62
7
370
18
100
AcDbCircle
 10
-693.7541200696792
 20
-47.327627420895396
 30
0.0
 40
28.794528000000007
100
AcDbArc
 50
-90.00563599999981
 51
-0.005637543424726411
  0
ARC
  5
F7
330
17
100
AcDbEntity
  8
0
  6
Continuous
 62
7
370
18
100
AcDbCircle
 10
-695.9134252696794
 20
-44.44796222089553
 30
0.0
 40
14.397260400000004
100
AcDbArc
 50
-90.00563038149892
 51
-0.005629000000109012
  0
ARC
  5
F8
330
17
100
AcDbEntity
  8
0
  6
Continuous
 62
7
370
18
100
AcDbCircle
 10
-695.9131048696793
 20
-41.1969534208954
 30
0.0
 40
14.397263999999995
100
AcDbArc
 50
-0.005630380091333287
 51
89.99434699999966
  0
ARC
  5
F9
330
17
100
AcDbEntity
  8
0
  6
Continuous
 62
7
370
18
100
AcDbCircle
 10
-579.6669592696794
 20
-47.33886302089536
 30
0.0
 40
11.517807600000001
100
AcDbArc
 50
-90.00564999999992
 51
-0.0056232185155910145
  0
ARC
  5
FA
330
17
100
AcDbEntity
  8
0
  6
Continuous
 62
7
370
18
100
AcDbCircle
 10
-579.6660772696794
 20
-38.37138542089542
 30
0.0
 40
11.517807600000001
100
AcDbArc
 50
-0.005626000000122596
 51
89.99435887490749
  0
ARC
  5
FB
330
17
100
AcDbEntity
  8
0
  6
Continuous
 62
7
370
18
100
AcDbCircle
 10
-583.2614224696794
 20
1.9413029791046483
 30
0.0
 40
11.517807600000001
100
AcDbArc
 50
-90.00564999999992
 51
-0.005659035193294186
  0
ARC
  5
FC
330
17
100
AcDbEntity
  8
0
  6
Continuous
 62
7
370
18
100
AcDbCircle
 10
-583.2605296696794
 20
10.993546179104442
 30
0.0
 40
11.517807600000001
100
AcDbArc
 50
-0.005655000000008262
 51
89.99437678148401
  0
ARC
  5
FD
330
17
100
AcDbEntity
  8
0
  6
Continuous
 62
7
370
18
100
AcDbCircle
 10
-583.3698184696793
 20
10.993556979104596
 30
0.0
 40
28.7945208
100
AcDbArc
 50
-0.0056447074637446725
 51
89.99436245587053
  0
ARC
  5
FE
330
17
100
AcDbEntity
  8
0
  6
Continuous
 62
7
370
18
100
AcDbCircle
 10
-598.1672296696793
 20
8.252714979104667
 30
0.0
 40
43.5960648
100
AcDbArc
 50
-34.38790682232491
 51
-0.8197140000000027
  0
ARC
  5
FF
330
17
100
AcDbEntity
  8
0
  6
Continuous
 62
7
370
18
100
AcDbCircle
 10
-582.2104168696794
 20
-40.768107020895286
 30
0.0
 40
31.5605772
100
AcDbArc
 50
-0.647239522270918
 51
50.62906199999992
  0
ARC
  5
100
330
17
100
AcDbEntity
  8
0
  6
Continuous
 62
7
370
18
100
AcDbCircle
 10
-579.4746400696794
 20
-47.338881020895315
 30
0.0
 40
28.794524399999997
100
AcDbArc
 50
-90.00564470746374
 51
-1.8966050000000338
  0
ARC
  5
101
330
17
100
AcDbEntity
  8
0
  6
Continuous
 62
7
370
18
100
AcDbCircle
 10
-510.0170824696794
 20
10.98633537910473
 30
0.0
 40
28.794520799999997
100
AcDbArc
 50
89.9943639999999
 51
179.994366
  0
ARC
  5
102
330
17
100
AcDbEntity
  8
0
  6
Continuous
 62
7
370
18
100
AcDbCircle
 10
-498.0646684696794
 20
10.478389779104646
 30
0.0
 40
29.318522400000013
100
AcDbArc
 50
43.79352595947381
 51
88.02981683521162
  0
ARC
  5
103
330
17
100
AcDbEntity
  8
0
  6
Continuous
 62
7
370
18
100
AcDbCircle
 10
-455.7421936696794
 20
10.47422097910453
 30
0.0
 40
29.31852240000016
100
AcDbArc
 50
91.95891239903844
 51
136.1951866811758
  0
ARC
  5
104
330
17
100
AcDbEntity
  8
0
  6
Continuous
 62
7
370
18
100
AcDbCircle
 10
-443.7896788696794
 20
10.979812179104556
 30
0.0
 40
28.7945208
100
AcDbArc
 50
-0.0056447081694207014
 51
89.9943639999999
  0
ARC
  5
105
330
17
100
AcDbEntity
  8
0
  6
Continuous
 62
7
370
18
100
AcDbCircle
 10
-443.7896788696794
 20
10.979812179104556
 30
0.0
 40
11.51780760000001
100
AcDbArc
 50
-0.005661999999908718
 51
89.99437678148377
  0
ARC
  5
106
330
17
100
AcDbEntity
  8
0
  6
Continuous
 62
7
370
18
100
AcDbCircle
 10
-456.7472128696794
 20
10.98109017910474
 30
0.0
 40
11.517811200000006
100
AcDbArc
 50
89.99437300000037
 51
179.9943767849997
  0
ARC
  5
107
330
17
100
AcDbEntity
  8
0
  6
Continuous
 62
7
370
18
100
AcDbCircle
 10
-497.0595484696794
 20
10.985060979104674
 30
0.0
 40
11.517804
100
AcDbArc
 50
-0.005661999999908718
 51
89.99437677972672
  0
CIRCLE
  5
108
330
17
100
AcDbEntity
  8
0
  6
Continuous
 62
7
370
18
100
AcDbCircle
 10
-401.0048419303214
 20
46.78912777831397
 30
0.0
 40
2.6000000000000005
  0
CIRCLE
  5
109
330
17
100
AcDbEntity
  8
0
  6
Continuous
 62
7
370
18
100
AcDbCircle
 10
-791.0048419303216
 20
46.78912777831397
 30
0.0
 40
2.6000000000000005
  0
CIRCLE
  5
10A
330
17
100
AcDbEntity
  8
0
  6
Continuous
 62
7
370
18
100
AcDbCircle
 10
-791.0048419303216
 20
-83.21087222168592
 30
0.0
 40
2.6000000000000005
  0
CIRCLE
  5
10B
330
17
100
AcDbEntity
  8
0
  6
Continuous
 62
7
370
18
100
AcDbCircle
 10
-401.0048419303214
 20
-83.21087222168592
 30
0.0
 40
2.6000000000000005
  0
LINE
  5
10C
330
17
100
AcDbEntity
  8
0
  6
Continuous
 62
7
370
18
100
AcDbLine
 10
-215.0000000000009
 20
45.16227266986607
 30
0.0
 11
-215.0000000000009
 21
81.1622726698663
 31
0.0
  0
LINE
  5
10D
330
17
100
AcDbEntity
  8
0
  6
Continuous
 62
7
370
18
100
AcDbLine
 10
-213.0000000000008
 20
83.16227266986607
 30
0.0
 11
-177.0000000000009
 21
83.16227266986607
 31
0.0
  0
LINE
  5
10E
330
17
100
AcDbEntity
  8
0
  6
Continuous
 62
7
370
18
100
AcDbLine
 10
-175.0000000000009
 20
81.1622726698663
 30
0.0
 11
-175.0000000000009
 21
45.16227266986607
 31
0.0
  0
LINE
  5
10F
330
17
100
AcDbEntity
  8
0
  6
Continuous
 62
7
370
18
100
AcDbLine
 10
-177.0000000000009
 20
43.16227266986607
 30
0.0
 11
-213.0000000000008
 21
43.16227266986607
 31
0.0
  0
LINE
  5
110
330
17
100
AcDbEntity
  8
0
  6
Continuous
 62
7
370
18
100
AcDbLine
 10
-215.0000000000009
 20
-4.83772733013393
 30
0.0
 11
-215.0000000000009
 21
31.162272669866297
 31
0.0
  0
LINE
  5
111
330
17
100
AcDbEntity
  8
0
  6
Continuous
 62
7
370
18
100
AcDbLine
 10
-213.0000000000008
 20
33.16227266986607
 30
0.0
 11
-177.0000000000009
 21
33.16227266986607
 31
0.0
  0
LINE
  5
112
330
17
100
AcDbEntity
  8
0
  6
Continuous
 62
7
370
18
100
AcDbLine
 10
-175.0000000000009
 20
31.162272669866297
 30
0.0
 11
-175.0000000000009
 21
-4.83772733013393
 31
0.0
  0
LINE
  5
113
330
17
100
AcDbEntity
  8
0
  6
Continuous
 62
7
370
18
100
AcDbLine
 10
-177.0000000000009
 20
-6.83772733013393
 30
0.0
 11
-213.0000000000008
 21
-6.83772733013393
 31
0.0
  0
LINE
  5
114
330
17
100
AcDbEntity
  8
0
  6
Continuous
 62
7
370
18
100
AcDbLine
 10
-213.0000000000008
 20
-16.83772733013393
 30
0.0
 11
-177.0000000000009
 21
-16.83772733013393
 31
0.0
  0
LINE
  5
115
330
17
100
AcDbEntity
  8
0
  6
Continuous
 62
7
370
18
100
AcDbLine
 10
-175.0000000000009
 20
-18.837727330133703
 30
0.0
 11
-175.0000000000009
 21
-54.83772733013393
 31
0.0
  0
LINE
  5
116
330
17
100
AcDbEntity
  8
0
  6
Continuous
 62
7
370
18
100
AcDbLine
 10
-177.0000000000009
 20
-56.83772733013393
 30
0.0
 11
-213.0000000000008
 21
-56.83772733013393
 31
0.0
  0
LINE
  5
117
330
17
100
AcDbEntity
  8
0
  6
Continuous
 62
7
370
18
100
AcDbLine
 10
-165.0000000000009
 20
45.16227266986607
 30
0.0
 11
-165.0000000000009
 21
81.1622726698663
 31
0.0
  0
LINE
  5
118
330
17
100
AcDbEntity
  8
0
  6
Continuous
 62
7
370
18
100
AcDbLine
 10
-163.0000000000008
 20
83.16227266986607
 30
0.0
 11
-127.00000000000091
 21
83.16227266986607
 31
0.0
  0
LINE
  5
119
330
17
100
AcDbEntity
  8
0
  6
Continuous
 62
7
370
18
100
AcDbLine
 10
-125.00000000000091
 20
81.1622726698663
 30
0.0
 11
-125.00000000000091
 21
45.16227266986607
 31
0.0
  0
LINE
  5
11A
330
17
100
AcDbEntity
  8
0
  6
Continuous
 62
7
370
18
100
AcDbLine
 10
-127.00000000000091
 20
43.16227266986607
 30
0.0
 11
-163.0000000000008
 21
43.16227266986607
 31
0.0
  0
LINE
  5
11B
330
17
100
AcDbEntity
  8
0
  6
Continuous
 62
7
370
18
100
AcDbLine
 10
-165.0000000000009
 20
-4.83772733013393
 30
0.0
 11
-165.0000000000009
 21
31.162272669866297
 31
0.0
  0
LINE
  5
11C
330
17
100
AcDbEntity
  8
0
  6
Continuous
 62
7
370
18
100
AcDbLine
 10
-163.0000000000008
 20
33.16227266986607
 30
0.0
 11
-127.00000000000091
 21
33.16227266986607
 31
0.0
  0
LINE
  5
11D
330
17
100
AcDbEntity
  8
0
  6
Continuous
 62
7
370
18
100
AcDbLine
 10
-125.00000000000091
 20
31.162272669866297
 30
0.0
 11
-125.00000000000091
 21
-4.83772733013393
 31
0.0
  0
LINE
  5
11E
330
17
100
AcDbEntity
  8
0
  6
Continuous
 62
7
370
18
100
AcDbLine
 10
-127.00000000000091
 20
-6.83772733013393
 30
0.0
 11
-163.0000000000008
 21
-6.83772733013393
 31
0.0
  0
LINE
  5
11F
330
17
100
AcDbEntity
  8
0
  6
Continuous
 62
7
370
18
100
AcDbLine
 10
-165.0000000000009
 20
-54.83772733013393
 30
0.0
 11
-165.0000000000009
 21
-18.837727330133703
 31
0.0
  0
LINE
  5
120
330
17
100
AcDbEntity
  8
0
  6
Continuous
 62
7
370
18
100
AcDbLine
 10
-163.0000000000008
 20
-16.83772733013393
 30
0.0
 11
-127.00000000000091
 21
-16.83772733013393
 31
0.0
  0
LINE
  5
121
330
17
100
AcDbEntity
  8
0
  6
Continuous
 62
7
370
18
100
AcDbLine
 10
-125.00000000000091
 20
-18.837727330133703
 30
0.0
 11
-125.00000000000091
 21
-54.83772733013393
 31
0.0
  0
LINE
  5
122
330
17
100
AcDbEntity
  8
0
  6
Continuous
 62
7
370
18
100
AcDbLine
 10
-127.00000000000091
 20
-56.83772733013393
 30
0.0
 11
-163.0000000000008
 21
-56.83772733013393
 31
0.0
  0
LINE
  5
123
330
17
100
AcDbEntity
  8
0
  6
Continuous
 62
7
370
18
100
AcDbLine
 10
-115.00000000000091
 20
45.16227266986607
 30
0.0
 11
-115.00000000000091
 21
81.1622726698663
 31
0.0
  0
LINE
  5
124
330
17
100
AcDbEntity
  8
0
  6
Continuous
 62
7
370
18
100
AcDbLine
 10
-113.0000000000008
 20
83.16227266986607
 30
0.0
 11
-77.00000000000091
 21
83.16227266986607
 31
0.0
  0
LINE
  5
125
330
17
100
AcDbEntity
  8
0
  6
Continuous
 62
7
370
18
100
AcDbLine
 10
-75.00000000000091
 20
81.1622726698663
 30
0.0
 11
-75.00000000000091
 21
45.16227266986607
 31
0.0
  0
LINE
  5
126
330
17
100
AcDbEntity
  8
0
  6
Continuous
 62
7
370
18
100
AcDbLine
 10
-77.00000000000091
 20
43.16227266986607
 30
0.0
 11
-113.0000000000008
 21
43.16227266986607
 31
0.0
  0
LINE
  5
127
330
17
100
AcDbEntity
  8
0
  6
Continuous
 62
7
370
18
100
AcDbLine
 10
-115.00000000000091
 20
-4.83772733013393
 30
0.0
 11
-115.00000000000091
 21
31.162272669866297
 31
0.0
  0
LINE
  5
128
330
17
100
AcDbEntity
  8
0
  6
Continuous
 62
7
370
18
100
AcDbLine
 10
-113.0000000000008
 20
33.16227266986607
 30
0.0
 11
-77.00000000000091
 21
33.16227266986607
 31
0.0
  0
LINE
  5
129
330
17
100
AcDbEntity
  8
0
  6
Continuous
 62
7
370
18
100
AcDbLine
 10
-75.00000000000091
 20
31.162272669866297
 30
0.0
 11
-75.00000000000091
 21
-4.83772733013393
 31
0.0
  0
LINE
  5
12A
330
17
100
AcDbEntity
  8
0
  6
Continuous
 62
7
370
18
100
AcDbLine
 10
-77.00000000000091
 20
-6.83772733013393
 30
0.0
 11
-113.0000000000008
 21
-6.83772733013393
 31
0.0
  0
LINE
  5
12B
330
17
100
AcDbEntity
  8
0
  6
Continuous
 62
7
370
18
100
AcDbLine
 10
-115.00000000000091
 20
-54.83772733013393
 30
0.0
 11
-115.00000000000091
 21
-18.837727330133703
 31
0.0
  0
LINE
  5
12C
330
17
100
AcDbEntity
  8
0
  6
Continuous
 62
7
370
18
100
AcDbLine
 10
-113.0000000000008
 20
-16.83772733013393
 30
0.0
 11
-77.00000000000091
 21
-16.83772733013393
 31
0.0
  0
LINE
  5
12D
330
17
100
AcDbEntity
  8
0
  6
Continuous
 62
7
370
18
100
AcDbLine
 10
-75.00000000000091
 20
-18.837727330133703
 30
0.0
 11
-75.00000000000091
 21
-54.83772733013393
 31
0.0
  0
LINE
  5
12E
330
17
100
AcDbEntity
  8
0
  6
Continuous
 62
7
370
18
100
AcDbLine
 10
-77.00000000000091
 20
-56.83772733013393
 30
0.0
 11
-113.0000000000008
 21
-56.83772733013393
 31
0.0
  0
LINE
  5
12F
330
17
100
AcDbEntity
  8
0
  6
Continuous
 62
7
370
18
100
AcDbLine
 10
-65.00000000000091
 20
45.16227266986607
 30
0.0
 11
-65.00000000000091
 21
81.1622726698663
 31
0.0
  0
LINE
  5
130
330
17
100
AcDbEntity
  8
0
  6
Continuous
 62
7
370
18
100
AcDbLine
 10
-63.00000000000091
 20
83.16227266986607
 30
0.0
 11
-27.00000000000091
 21
83.16227266986607
 31
0.0
  0
LINE
  5
131
330
17
100
AcDbEntity
  8
0
  6
Continuous
 62
7
370
18
100
AcDbLine
 10
-25.00000000000091
 20
81.1622726698663
 30
0.0
 11
-25.00000000000091
 21
45.16227266986607
 31
0.0
  0
LINE
  5
132
330
17
100
AcDbEntity
  8
0
  6
Continuous
 62
7
370
18
100
AcDbLine
 10
-27.00000000000091
 20
43.16227266986607
 30
0.0
 11
-63.00000000000091
 21
43.16227266986607
 31
0.0
  0
LINE
  5
133
330
17
100
AcDbEntity
  8
0
  6
Continuous
 62
7
370
18
100
AcDbLine
 10
-65.00000000000091
 20
-4.83772733013393
 30
0.0
 11
-65.00000000000091
 21
31.162272669866297
 31
0.0
  0
LINE
  5
134
330
17
100
AcDbEntity
  8
0
  6
Continuous
 62
7
370
18
100
AcDbLine
 10
-63.00000000000091
 20
33.16227266986607
 30
0.0
 11
-27.00000000000091
 21
33.16227266986607
 31
0.0
  0
LINE
  5
135
330
17
100
AcDbEntity
  8
0
  6
Continuous
 62
7
370
18
100
AcDbLine
 10
-25.00000000000091
 20
31.162272669866297
 30
0.0
 11
-25.00000000000091
 21
-4.83772733013393
 31
0.0
  0
LINE
  5
136
330
17
100
AcDbEntity
  8
0
  6
Continuous
 62
7
370
18
100
AcDbLine
 10
-27.00000000000091
 20
-6.83772733013393
 30
0.0
 11
-63.00000000000091
 21
-6.83772733013393
 31
0.0
  0
LINE
  5
137
330
17
100
AcDbEntity
  8
0
  6
Continuous
 62
7
370
18
100
AcDbLine
 10
-65.00000000000091
 20
-54.83772733013393
 30
0.0
 11
-65.00000000000091
 21
-18.837727330133703
 31
0.0
  0
LINE
  5
138
330
17
100
AcDbEntity
  8
0
  6
Continuous
 62
7
370
18
100
AcDbLine
 10
-63.00000000000091
 20
-16.83772733013393
 30
0.0
 11
-27.00000000000091
 21
-16.83772733013393
 31
0.0
  0
LINE
  5
139
330
17
100
AcDbEntity
  8
0
  6
Continuous
 62
7
370
18
100
AcDbLine
 10
-25.00000000000091
 20
-18.837727330133703
 30
0.0
 11
-25.00000000000091
 21
-54.83772733013393
 31
0.0
  0
LINE
  5
13A
330
17
100
AcDbEntity
  8
0
  6
Continuous
 62
7
370
18
100
AcDbLine
 10
-27.00000000000091
 20
-56.83772733013393
 30
0.0
 11
-63.00000000000091
 21
-56.83772733013393
 31
0.0
  0
LINE
  5
13B
330
17
100
AcDbEntity
  8
0
  6
Continuous
 62
7
370
18
100
AcDbLine
 10
-15.00000000000091
 20
45.16227266986607
 30
0.0
 11
-15.00000000000091
 21
81.1622726698663
 31
0.0
  0
LINE
  5
13C
330
17
100
AcDbEntity
  8
0
  6
Continuous
 62
7
370
18
100
AcDbLine
 10
-13.00000000000091
 20
83.16227266986607
 30
0.0
 11
22.99999999999909
 21
83.16227266986607
 31
0.0
  0
LINE
  5
13D
330
17
100
AcDbEntity
  8
0
  6
Continuous
 62
7
370
18
100
AcDbLine
 10
24.99999999999909
 20
81.1622726698663
 30
0.0
 11
24.99999999999909
 21
45.16227266986607
 31
0.0
  0
LINE
  5
13E
330
17
100
AcDbEntity
  8
0
  6
Continuous
 62
7
370
18
100
AcDbLine
 10
22.99999999999909
 20
43.16227266986607
 30
0.0
 11
-13.00000000000091
 21
43.16227266986607
 31
0.0
  0
LINE
  5
13F
330
17
100
AcDbEntity
  8
0
  6
Continuous
 62
7
370
18
100
AcDbLine
 10
-15.00000000000091
 20
-4.83772733013393
 30
0.0
 11
-15.00000000000091
 21
31.162272669866297
 31
0.0
  0
LINE
  5
140
330
17
100
AcDbEntity
  8
0
  6
Continuous
 62
7
370
18
100
AcDbLine
 10
-13.00000000000091
 20
33.16227266986607
 30
0.0
 11
22.99999999999909
 21
33.16227266986607
 31
0.0
  0
LINE
  5
141
330
17
100
AcDbEntity
  8
0
  6
Continuous
 62
7
370
18
100
AcDbLine
 10
24.99999999999909
 20
31.162272669866297
 30
0.0
 11
24.99999999999909
 21
-4.83772733013393
 31
0.0
  0
LINE
  5
142
330
17
100
AcDbEntity
  8
0
  6
Continuous
 62
7
370
18
100
AcDbLine
 10
22.99999999999909
 20
-6.83772733013393
 30
0.0
 11
-13.00000000000091
 21
-6.83772733013393
 31
0.0
  0
LINE
  5
143
330
17
100
AcDbEntity
  8
0
  6
Continuous
 62
7
370
18
100
AcDbLine
 10
-15.00000000000091
 20
-54.83772733013393
 30
0.0
 11
-15.00000000000091
 21
-18.837727330133703
 31
0.0
  0
LINE
  5
144
330
17
100
AcDbEntity
  8
0
  6
Continuous
 62
7
370
18
100
AcDbLine
 10
-13.00000000000091
 20
-16.83772733013393
 30
0.0
 11
22.99999999999909
 21
-16.83772733013393
 31
0.0
  0
LINE
  5
145
330
17
100
AcDbEntity
  8
0
  6
Continuous
 62
7
370
18
100
AcDbLine
 10
24.99999999999909
 20
-18.837727330133703
 30
0.0
 11
24.99999999999909
 21
-54.83772733013393
 31
0.0
  0
LINE
  5
146
330
17
100
AcDbEntity
  8
0
  6
Continuous
 62
7
370
18
100
AcDbLine
 10
22.99999999999909
 20
-56.83772733013393
 30
0.0
 11
-13.00000000000091
 21
-56.83772733013393
 31
0.0
  0
LINE
  5
147
330
17
100
AcDbEntity
  8
0
  6
Continuous
 62
7
370
18
100
AcDbLine
 10
34.99999999999909
 20
45.16227266986607
 30
0.0
 11
34.99999999999909
 21
81.1622726698663
 31
0.0
  0
LINE
  5
148
330
17
100
AcDbEntity
  8
0
  6
Continuous
 62
7
370
18
100
AcDbLine
 10
36.99999999999909
 20
83.16227266986607
 30
0.0
 11
72.99999999999909
 21
83.16227266986607
 31
0.0
  0
LINE
  5
149
330
17
100
AcDbEntity
  8
0
  6
Continuous
 62
7
370
18
100
AcDbLine
 10
74.99999999999909
 20
81.1622726698663
 30
0.0
 11
74.99999999999909
 21
45.16227266986607
 31
0.0
  0
LINE
  5
14A
330
17
100
AcDbEntity
  8
0
  6
Continuous
 62
7
370
18
100
AcDbLine
 10
72.99999999999909
 20
43.16227266986607
 30
0.0
 11
36.99999999999909
 21
43.16227266986607
 31
0.0
  0
LINE
  5
14B
330
17
100
AcDbEntity
  8
0
  6
Continuous
 62
7
370
18
100
AcDbLine
 10
34.99999999999909
 20
-4.83772733013393
 30
0.0
 11
34.99999999999909
 21
31.162272669866297
 31
0.0
  0
LINE
  5
14C
330
17
100
AcDbEntity
  8
0
  6
Continuous
 62
7
370
18
100
AcDbLine
 10
36.99999999999909
 20
33.16227266986607
 30
0.0
 11
72.99999999999909
 21
33.16227266986607
 31
0.0
  0
LINE
  5
14D
330
17
100
AcDbEntity
  8
0
  6
Continuous
 62
7
370
18
100
AcDbLine
 10
74.99999999999909
 20
31.162272669866297
 30
0.0
 11
74.99999999999909
 21
-4.83772733013393
 31
0.0
  0
LINE
  5
14E
330
17
100
AcDbEntity
  8
0
  6
Continuous
 62
7
370
18
100
AcDbLine
 10
72.99999999999909
 20
-6.83772733013393
 30
0.0
 11
36.99999999999909
 21
-6.83772733013393
 31
0.0
  0
LINE
  5
14F
330
17
100
AcDbEntity
  8
0
  6
Continuous
 62
7
370
18
100
AcDbLine
 10
34.99999999999909
 20
-54.83772733013393
 30
0.0
 11
34.99999999999909
 21
-18.837727330133703
 31
0.0
  0
LINE
  5
150
330
17
100
AcDbEntity
  8
0
  6
Continuous
 62
7
370
18
100
AcDbLine
 10
36.99999999999909
 20
-16.83772733013393
 30
0.0
 11
72.99999999999909
 21
-16.83772733013393
 31
0.0
  0
LINE
  5
151
330
17
100
AcDbEntity
  8
0
  6
Continuous
 62
7
370
18
100
AcDbLine
 10
74.99999999999909
 20
-18.837727330133703
 30
0.0
 11
74.99999999999909
 21
-54.83772733013393
 31
0.0
  0
LINE
  5
152
330
17
100
AcDbEntity
  8
0
  6
Continuous
 62
7
370
18
100
AcDbLine
 10
72.99999999999909
 20
-56.83772733013393
 30
0.0
 11
36.99999999999909
 21
-56.83772733013393
 31
0.0
  0
LINE
  5
153
330
17
100
AcDbEntity
  8
0
  6
Continuous
 62
7
370
18
100
AcDbLine
 10
84.99999999999909
 20
45.16227266986607
 30
0.0
 11
84.99999999999909
 21
81.1622726698663
 31
0.0
  0
LINE
  5
154
330
17
100
AcDbEntity
  8
0
  6
Continuous
 62
7
370
18
100
AcDbLine
 10
86.99999999999909
 20
83.16227266986607
 30
0.0
 11
122.99999999999909
 21
83.16227266986607
 31
0.0
  0
LINE
  5
155
330
17
100
AcDbEntity
  8
0
  6
Continuous
 62
7
370
18
100
AcDbLine
 10
124.99999999999909
 20
81.1622726698663
 30
0.0
 11
124.99999999999909
 21
45.16227266986607
 31
0.0
  0
LINE
  5
156
330
17
100
AcDbEntity
  8
0
  6
Continuous
 62
7
370
18
100
AcDbLine
 10
122.99999999999909
 20
43.16227266986607
 30
0.0
 11
86.99999999999909
 21
43.16227266986607
 31
0.0
  0
LINE
  5
157
330
17
100
AcDbEntity
  8
0
  6
Continuous
 62
7
370
18
100
AcDbLine
 10
84.99999999999909
 20
-4.83772733013393
 30
0.0
 11
84.99999999999909
 21
31.162272669866297
 31
0.0
  0
LINE
  5
158
330
17
100
AcDbEntity
  8
0
  6
Continuous
 62
7
370
18
100
AcDbLine
 10
86.99999999999909
 20
33.16227266986607
 30
0.0
 11
122.99999999999909
 21
33.16227266986607
 31
0.0
  0
LINE
  5
159
330
17
100
AcDbEntity
  8
0
  6
Continuous
 62
7
370
18
100
AcDbLine
 10
124.99999999999909
 20
31.162272669866297
 30
0.0
 11
124.99999999999909
 21
-4.83772733013393
 31
0.0
  0
LINE
  5
15A
330
17
100
AcDbEntity
  8
0
  6
Continuous
 62
7
370
18
100
AcDbLine
 10
122.99999999999909
 20
-6.83772733013393
 30
0.0
 11
86.99999999999909
 21
-6.83772733013393
 31
0.0
  0
LINE
  5
15B
330
17
100
AcDbEntity
  8
0
  6
Continuous
 62
7
370
18
100
AcDbLine
 10
84.99999999999909
 20
-54.83772733013393
 30
0.0
 11
84.99999999999909
 21
-18.837727330133703
 31
0.0
  0
LINE
  5
15C
330
17
100
AcDbEntity
  8
0
  6
Continuous
 62
7
370
18
100
AcDbLine
 10
86.99999999999909
 20
-16.83772733013393
 30
0.0
 11
122.99999999999909
 21
-16.83772733013393
 31
0.0
  0
LINE
  5
15D
330
17
100
AcDbEntity
  8
0
  6
Continuous
 62
7
370
18
100
AcDbLine
 10
124.99999999999909
 20
-18.837727330133703
 30
0.0
 11
124.99999999999909
 21
-54.83772733013393
 31
0.0
  0
LINE
  5
15E
330
17
100
AcDbEntity
  8
0
  6
Continuous
 62
7
370
18
100
AcDbLine
 10
122.99999999999909
 20
-56.83772733013393
 30
0.0
 11
86.99999999999909
 21
-56.83772733013393
 31
0.0
  0
LINE
  5
15F
330
17
100
AcDbEntity
  8
0
  6
Continuous
 62
7
370
18
100
AcDbLine
 10
134.9999999999991
 20
45.16227266986607
 30
0.0
 11
134.9999999999991
 21
81.1622726698663
 31
0.0
  0
LINE
  5
160
330
17
100
AcDbEntity
  8
0
  6
Continuous
 62
7
370
18
100
AcDbLine
 10
136.9999999999991
 20
83.16227266986607
 30
0.0
 11
172.9999999999991
 21
83.16227266986607
 31
0.0
  0
LINE
  5
161
330
17
100
AcDbEntity
  8
0
  6
Continuous
 62
7
370
18
100
AcDbLine
 10
174.9999999999991
 20
81.1622726698663
 30
0.0
 11
174.9999999999991
 21
45.16227266986607
 31
0.0
  0
LINE
  5
162
330
17
100
AcDbEntity
  8
0
  6
Continuous
 62
7
370
18
100
AcDbLine
 10
172.9999999999991
 20
43.16227266986607
 30
0.0
 11
136.9999999999991
 21
43.16227266986607
 31
0.0
  0
LINE
  5
163
330
17
100
AcDbEntity
  8
0
  6
Continuous
 62
7
370
18
100
AcDbLine
 10
134.9999999999991
 20
-4.83772733013393
 30
0.0
 11
134.9999999999991
 21
31.162272669866297
 31
0.0
  0
LINE
  5
164
330
17
100
AcDbEntity
  8
0
  6
Continuous
 62
7
370
18
100
AcDbLine
 10
136.9999999999991
 20
33.16227266986607
 30
0.0
 11
172.9999999999991
 21
33.16227266986607
 31
0.0
  0
LINE
  5
165
330
17
100
AcDbEntity
  8
0
  6
Continuous
 62
7
370
18
100
AcDbLine
 10
174.9999999999991
 20
31.162272669866297
 30
0.0
 11
174.9999999999991
 21
-4.83772733013393
 31
0.0
  0
LINE
  5
166
330
17
100
AcDbEntity
  8
0
  6
Continuous
 62
7
370
18
100
AcDbLine
 10
172.9999999999991
 20
-6.83772733013393
 30
0.0
 11
136.9999999999991
 21
-6.83772733013393
 31
0.0
  0
LINE
  5
167
330
17
100
AcDbEntity
  8
0
  6
Continuous
 62
7
370
18
100
AcDbLine
 10
134.9999999999991
 20
-54.83772733013393
 30
0.0
 11
134.9999999999991
 21
-18.837727330133703
 31
0.0
  0
LINE
  5
168
330
17
100
AcDbEntity
  8
0
  6
Continuous
 62
7
370
18
100
AcDbLine
 10
136.9999999999991
 20
-16.83772733013393
 30
0.0
 11
172.9999999999991
 21
-16.83772733013393
 31
0.0
  0
LINE
  5
169
330
17
100
AcDbEntity
  8
0
  6
Continuous
 62
7
370
18
100
AcDbLine
 10
174.9999999999991
 20
-18.837727330133703
 30
0.0
 11
174.9999999999991
 21
-54.83772733013393
 31
0.0
  0
LINE
  5
16A
330
17
100
AcDbEntity
  8
0
  6
Continuous
 62
7
370
18
100
AcDbLine
 10
172.9999999999991
 20
-56.83772733013393
 30
0.0
 11
136.9999999999991
 21
-56.83772733013393
 31
0.0
  0
LINE
  5
16B
330
17
100
AcDbEntity
  8
0
  6
Continuous
 62
7
370
18
100
AcDbLine
 10
184.9999999999991
 20
45.16227266986607
 30
0.0
 11
184.9999999999991
 21
81.1622726698663
 31
0.0
  0
LINE
  5
16C
330
17
100
AcDbEntity
  8
0
  6
Continuous
 62
7
370
18
100
AcDbLine
 10
186.9999999999991
 20
83.16227266986607
 30
0.0
 11
222.9999999999991
 21
83.16227266986607
 31
0.0
  0
LINE
  5
16D
330
17
100
AcDbEntity
  8
0
  6
Continuous
 62
7
370
18
100
AcDbLine
 10
224.9999999999991
 20
81.1622726698663
 30
0.0
 11
224.9999999999991
 21
45.16227266986607
 31
0.0
  0
LINE
  5
16E
330
17
100
AcDbEntity
  8
0
  6
Continuous
 62
7
370
18
100
AcDbLine
 10
222.9999999999991
 20
43.16227266986607
 30
0.0
 11
186.9999999999991
 21
43.16227266986607
 31
0.0
  0
LINE
  5
16F
330
17
100
AcDbEntity
  8
0
  6
Continuous
 62
7
370
18
100
AcDbLine
 10
184.9999999999991
 20
-4.83772733013393
 30
0.0
 11
184.9999999999991
 21
31.162272669866297
 31
0.0
  0
LINE
  5
170
330
17
100
AcDbEntity
  8
0
  6
Continuous
 62
7
370
18
100
AcDbLine
 10
186.9999999999991
 20
33.16227266986607
 30
0.0
 11
222.9999999999991
 21
33.16227266986607
 31
0.0
  0
LINE
  5
171
330
17
100
AcDbEntity
  8
0
  6
Continuous
 62
7
370
18
100
AcDbLine
 10
224.9999999999991
 20
31.162272669866297
 30
0.0
 11
224.9999999999991
 21
-4.83772733013393
 31
0.0
  0
LINE
  5
172
330
17
100
AcDbEntity
  8
0
  6
Continuous
 62
7
370
18
100
AcDbLine
 10
222.9999999999991
 20
-6.83772733013393
 30
0.0
 11
186.9999999999991
 21
-6.83772733013393
 31
0.0
  0
LINE
  5
173
330
17
100
AcDbEntity
  8
0
  6
Continuous
 62
7
370
18
100
AcDbLine
 10
184.9999999999991
 20
-54.83772733013393
 30
0.0
 11
184.9999999999991
 21
-18.837727330133703
 31
0.0
  0
LINE
  5
174
330
17
100
AcDbEntity
  8
0
  6
Continuous
 62
7
370
18
100
AcDbLine
 10
186.9999999999991
 20
-16.83772733013393
 30
0.0
 11
222.9999999999991
 21
-16.83772733013393
 31
0.0
  0
LINE
  5
175
330
17
100
AcDbEntity
  8
0
  6
Continuous
 62
7
370
18
100
AcDbLine
 10
224.9999999999991
 20
-18.837727330133703
 30
0.0
 11
224.9999999999991
 21
-54.83772733013393
 31
0.0
  0
LINE
  5
176
330
17
100
AcDbEntity
  8
0
  6
Continuous
 62
7
370
18
100
AcDbLine
 10
222.9999999999991
 20
-56.83772733013393
 30
0.0
 11
186.9999999999991
 21
-56.83772733013393
 31
0.0
  0
LINE
  5
177
330
17
100
AcDbEntity
  8
0
  6
Continuous
 62
7
370
18
100
AcDbLine
 10
234.9999999999991
 20
45.16227266986607
 30
0.0
 11
234.9999999999991
 21
81.1622726698663
 31
0.0
  0
LINE
  5
178
330
17
100
AcDbEntity
  8
0
  6
Continuous
 62
7
370
18
100
AcDbLine
 10
236.9999999999991
 20
83.16227266986607
 30
0.0
 11
272.9999999999991
 21
83.16227266986607
 31
0.0
  0
LINE
  5
179
330
17
100
AcDbEntity
  8
0
  6
Continuous
 62
7
370
18
100
AcDbLine
 10
274.9999999999991
 20
81.1622726698663
 30
0.0
 11
274.9999999999991
 21
45.16227266986607
 31
0.0
  0
LINE
  5
17A
330
17
100
AcDbEntity
  8
0
  6
Continuous
 62
7
370
18
100
AcDbLine
 10
272.99999999999955
 20
43.16227266986607
 30
0.0
 11
236.9999999999991
 21
43.16227266986607
 31
0.0
  0
LINE
  5
17B
330
17
100
AcDbEntity
  8
0
  6
Continuous
 62
7
370
18
100
AcDbLine
 10
234.9999999999991
 20
-4.83772733013393
 30
0.0
 11
234.9999999999991
 21
31.162272669866297
 31
0.0
  0
LINE
  5
17C
330
17
100
AcDbEntity
  8
0
  6
Continuous
 62
7
370
18
100
AcDbLine
 10
236.9999999999991
 20
33.16227266986607
 30
0.0
 11
272.9999999999991
 21
33.16227266986607
 31
0.0
  0
LINE
  5
17D
330
17
100
AcDbEntity
  8
0
  6
Continuous
 62
7
370
18
100
AcDbLine
 10
274.9999999999991
 20
31.162272669866297
 30
0.0
 11
274.9999999999991
 21
-4.83772733013393
 31
0.0
  0
LINE
  5
17E
330
17
100
AcDbEntity
  8
0
  6
Continuous
 62
7
370
18
100
AcDbLine
 10
272.99999999999955
 20
-6.83772733013393
 30
0.0
 11
236.9999999999991
 21
-6.83772733013393
 31
0.0
  0
LINE
  5
17F
330
17
100
AcDbEntity
  8
0
  6
Continuous
 62
7
370
18
100
AcDbLine
 10
234.9999999999991
 20
-54.83772733013393
 30
0.0
 11
234.9999999999991
 21
-18.837727330133703
 31
0.0
  0
LINE
  5
180
330
17
100
AcDbEntity
  8
0
  6
Continuous
 62
7
370
18
100
AcDbLine
 10
236.9999999999991
 20
-16.83772733013393
 30
0.0
 11
272.9999999999991
 21
-16.83772733013393
 31
0.0
  0
LINE
  5
181
330
17
100
AcDbEntity
  8
0
  6
Continuous
 62
7
370
18
100
AcDbLine
 10
274.9999999999991
 20
-18.837727330133703
 30
0.0
 11
274.9999999999991
 21
-54.83772733013393
 31
0.0
  0
LINE
  5
182
330
17
100
AcDbEntity
  8
0
  6
Continuous
 62
7
370
18
100
AcDbLine
 10
272.99999999999955
 20
-56.83772733013393
 30
0.0
 11
236.9999999999991
 21
-56.83772733013393
 31
0.0
  0
LINE
  5
183
330
17
100
AcDbEntity
  8
0
  6
Continuous
 62
7
370
18
100
AcDbLine
 10
284.9999999999991
 20
45.16227266986607
 30
0.0
 11
284.9999999999991
 21
81.1622726698663
 31
0.0
  0
LINE
  5
184
330
17
100
AcDbEntity
  8
0
  6
Continuous
 62
7
370
18
100
AcDbLine
 10
286.9999999999991
 20
83.16227266986607
 30
0.0
 11
322.9999999999991
 21
83.16227266986607
 31
0.0
  0
LINE
  5
185
330
17
100
AcDbEntity
  8
0
  6
Continuous
 62
7
370
18
100
AcDbLine
 10
324.9999999999991
 20
81.1622726698663
 30
0.0
 11
324.9999999999991
 21
45.16227266986607
 31
0.0
  0
LINE
  5
186
330
17
100
AcDbEntity
  8
0
  6
Continuous
 62
7
370
18
100
AcDbLine
 10
322.9999999999991
 20
43.16227266986607
 30
0.0
 11
286.9999999999991
 21
43.16227266986607
 31
0.0
  0
LINE
  5
187
330
17
100
AcDbEntity
  8
0
  6
Continuous
 62
7
370
18
100
AcDbLine
 10
284.9999999999991
 20
-4.83772733013393
 30
0.0
 11
284.9999999999991
 21
31.162272669866297
 31
0.0
  0
LINE
  5
188
330
17
100
AcDbEntity
  8
0
  6
Continuous
 62
7
370
18
100
AcDbLine
 10
286.9999999999991
 20
33.16227266986607
 30
0.0
 11
322.9999999999991
 21
33.16227266986607
 31
0.0
  0
LINE
  5
189
330
17
100
AcDbEntity
  8
0
  6
Continuous
 62
7
370
18
100
AcDbLine
 10
324.9999999999991
 20
31.162272669866297
 30
0.0
 11
324.9999999999991
 21
-4.83772733013393
 31
0.0
  0
LINE
  5
18A
330
17
100
AcDbEntity
  8
0
  6
Continuous
 62
7
370
18
100
AcDbLine
 10
322.9999999999991
 20
-6.83772733013393
 30
0.0
 11
286.9999999999991
 21
-6.83772733013393
 31
0.0
  0
LINE
  5
18B
330
17
100
AcDbEntity
  8
0
  6
Continuous
 62
7
370
18
100
AcDbLine
 10
284.9999999999991
 20
-54.83772733013393
 30
0.0
 11
284.9999999999991
 21
-18.837727330133703
 31
0.0
  0
LINE
  5
18C
330
17
100
AcDbEntity
  8
0
  6
Continuous
 62
7
370
18
100
AcDbLine
 10
286.9999999999991
 20
-16.83772733013393
 30
0.0
 11
322.9999999999991
 21
-16.83772733013393
 31
0.0
  0
LINE
  5
18D
330
17
100
AcDbEntity
  8
0
  6
Continuous
 62
7
370
18
100
AcDbLine
 10
324.9999999999991
 20
-18.837727330133703
 30
0.0
 11
324.9999999999991
 21
-54.83772733013393
 31
0.0
  0
LINE
  5
18E
330
17
100
AcDbEntity
  8
0
  6
Continuous
 62
7
370
18
100
AcDbLine
 10
322.9999999999991
 20
-56.83772733013393
 30
0.0
 11
286.9999999999991
 21
-56.83772733013393
 31
0.0
  0
LINE
  5
18F
330
17
100
AcDbEntity
  8
0
  6
Continuous
 62
7
370
18
100
AcDbLine
 10
334.9999999999991
 20
45.16227266986607
 30
0.0
 11
334.9999999999991
 21
81.1622726698663
 31
0.0
  0
LINE
  5
190
330
17
100
AcDbEntity
  8
0
  6
Continuous
 62
7
370
18
100
AcDbLine
 10
336.9999999999991
 20
83.16227266986607
 30
0.0
 11
372.9999999999991
 21
83.16227266986607
 31
0.0
  0
LINE
  5
191
330
17
100
AcDbEntity
  8
0
  6
Continuous
 62
7
370
18
100
AcDbLine
 10
374.9999999999991
 20
81.1622726698663
 30
0.0
 11
374.9999999999991
 21
45.16227266986607
 31
0.0
  0
LINE
  5
192
330
17
100
AcDbEntity
  8
0
  6
Continuous
 62
7
370
18
100
AcDbLine
 10
372.9999999999991
 20
43.16227266986607
 30
0.0
 11
336.9999999999991
 21
43.16227266986607
 31
0.0
  0
LINE
  5
193
330
17
100
AcDbEntity
  8
0
  6
Continuous
 62
7
370
18
100
AcDbLine
 10
334.9999999999991
 20
-4.83772733013393
 30
0.0
 11
334.9999999999991
 21
31.162272669866297
 31
0.0
  0
LINE
  5
194
330
17
100
AcDbEntity
  8
0
  6
Continuous
 62
7
370
18
100
AcDbLine
 10
336.9999999999991
 20
33.16227266986607
 30
0.0
 11
372.9999999999991
 21
33.16227266986607
 31
0.0
  0
LINE
  5
195
330
17
100
AcDbEntity
  8
0
  6
Continuous
 62
7
370
18
100
AcDbLine
 10
374.9999999999991
 20
31.162272669866297
 30
0.0
 11
374.9999999999991
 21
-4.83772733013393
 31
0.0
  0
LINE
  5
196
330
17
100
AcDbEntity
  8
0
  6
Continuous
 62
7
370
18
100
AcDbLine
 10
372.9999999999991
 20
-6.83772733013393
 30
0.0
 11
336.9999999999991
 21
-6.83772733013393
 31
0.0
  0
LINE
  5
197
330
17
100
AcDbEntity
  8
0
  6
Continuous
 62
7
370
18
100
AcDbLine
 10
334.9999999999991
 20
-54.83772733013393
 30
0.0
 11
334.9999999999991
 21
-18.837727330133703
 31
0.0
  0
LINE
  5
198
330
17
100
AcDbEntity
  8
0
  6
Continuous
 62
7
370
18
100
AcDbLine
 10
336.9999999999991
 20
-16.83772733013393
 30
0.0
 11
372.9999999999991
 21
-16.83772733013393
 31
0.0
  0
LINE
  5
199
330
17
100
AcDbEntity
  8
0
  6
Continuous
 62
7
370
18
100
AcDbLine
 10
374.9999999999991
 20
-18.837727330133703
 30
0.0
 11
374.9999999999991
 21
-54.83772733013393
 31
0.0
  0
LINE
  5
19A
330
17
100
AcDbEntity
  8
0
  6
Continuous
 62
7
370
18
100
AcDbLine
 10
372.9999999999991
 20
-56.83772733013393
 30
0.0
 11
336.9999999999991
 21
-56.83772733013393
 31
0.0
  0
LINE
  5
19B
330
17
100
AcDbEntity
  8
0
  6
Continuous
 62
7
370
18
100
AcDbLine
 10
384.9999999999991
 20
45.16227266986607
 30
0.0
 11
384.9999999999991
 21
81.1622726698663
 31
0.0
  0
LINE
  5
19C
330
17
100
AcDbEntity
  8
0
  6
Continuous
 62
7
370
18
100
AcDbLine
 10
386.9999999999991
 20
83.16227266986607
 30
0.0
 11
422.9999999999991
 21
83.16227266986607
 31
0.0
  0
LINE
  5
19D
330
17
100
AcDbEntity
  8
0
  6
Continuous
 62
7
370
18
100
AcDbLine
 10
424.9999999999991
 20
81.1622726698663
 30
0.0
 11
424.9999999999991
 21
45.16227266986607
 31
0.0
  0
LINE
  5
19E
330
17
100
AcDbEntity
  8
0
  6
Continuous
 62
7
370
18
100
AcDbLine
 10
422.9999999999991
 20
43.16227266986607
 30
0.0
 11
386.9999999999991
 21
43.16227266986607
 31
0.0
  0
LINE
  5
19F
330
17
100
AcDbEntity
  8
0
  6
Continuous
 62
7
370
18
100
AcDbLine
 10
384.9999999999991
 20
-4.83772733013393
 30
0.0
 11
384.9999999999991
 21
31.162272669866297
 31
0.0
  0
LINE
  5
1A0
330
17
100
AcDbEntity
  8
0
  6
Continuous
 62
7
370
18
100
AcDbLine
 10
386.9999999999991
 20
33.16227266986607
 30
0.0
 11
422.9999999999991
 21
33.16227266986607
 31
0.0
  0
LINE
  5
1A1
330
17
100
AcDbEntity
  8
0
  6
Continuous
 62
7
370
18
100
AcDbLine
 10
424.9999999999991
 20
31.162272669866297
 30
0.0
 11
424.9999999999991
 21
-4.83772733013393
 31
0.0
  0
LINE
  5
1A2
330
17
100
AcDbEntity
  8
0
  6
Continuous
 62
7
370
18
100
AcDbLine
 10
422.9999999999991
 20
-6.83772733013393
 30
0.0
 11
386.9999999999991
 21
-6.83772733013393
 31
0.0
  0
LINE
  5
1A3
330
17
100
AcDbEntity
  8
0
  6
Continuous
 62
7
370
18
100
AcDbLine
 10
384.9999999999991
 20
-54.83772733013393
 30
0.0
 11
384.9999999999991
 21
-18.837727330133703
 31
0.0
  0
LINE
  5
1A4
330
17
100
AcDbEntity
  8
0
  6
Continuous
 62
7
370
18
100
AcDbLine
 10
386.9999999999991
 20
-16.83772733013393
 30
0.0
 11
422.9999999999991
 21
-16.83772733013393
 31
0.0
  0
LINE
  5
1A5
330
17
100
AcDbEntity
  8
0
  6
Continuous
 62
7
370
18
100
AcDbLine
 10
422.9999999999991
 20
-56.83772733013393
 30
0.0
 11
386.9999999999991
 21
-56.83772733013393
 31
0.0
  0
LINE
  5
1A6
330
17
100
AcDbEntity
  8
0
  6
Continuous
 62
7
370
18
100
AcDbLine
 10
-215.0000000000009
 20
-54.83772733013393
 30
0.0
 11
-215.0000000000009
 21
-18.837727330133703
 31
0.0
  0
LINE
  5
1A7
330
17
100
AcDbEntity
  8
0
  6
Continuous
 62
7
370
18
100
AcDbLine
 10
424.9999999999991
 20
-18.837727330133703
 30
0.0
 11
424.9999999999991
 21
-54.83772733013393
 31
0.0
  0
ARC
  5
1A8
330
17
100
AcDbEntity
  8
0
  6
Continuous
 62
7
370
18
100
AcDbCircle
 10
386.9999999999991
 20
-18.837727330133703
 30
0.0
 40
2.0
100
AcDbArc
 50
90.0
 51
180.0
  0
ARC
  5
1A9
330
17
100
AcDbEntity
  8
0
  6
Continuous
 62
7
370
18
100
AcDbCircle
 10
422.9999999999991
 20
-18.837727330133703
 30
0.0
 40
2.0
100
AcDbArc
 50
0.0
 51
90.0
  0
ARC
  5
1AA
330
17
100
AcDbEntity
  8
0
  6
Continuous
 62
7
370
18
100
AcDbCircle
 10
422.9999999999991
 20
-54.83772733013393
 30
0.0
 40
2.0
100
AcDbArc
 50
-90.00000000000001
 51
0.0
  0
ARC
  5
1AB
330
17
100
AcDbEntity
  8
0
  6
Continuous
 62
7
370
18
100
AcDbCircle
 10
386.9999999999991
 20
-54.83772733013393
 30
0.0
 40
2.0
100
AcDbArc
 50
180.0
 51
-90.00000000000001
  0
ARC
  5
1AC
330
17
100
AcDbEntity
  8
0
  6
Continuous
 62
7
370
18
100
AcDbCircle
 10
-213.0000000000008
 20
45.16227266986607
 30
0.0
 40
2.0
100
AcDbArc
 50
180.0
 51
-90.00000000000001
  0
ARC
  5
1AD
330
17
100
AcDbEntity
  8
0
  6
Continuous
 62
7
370
18
100
AcDbCircle
 10
-213.0000000000008
 20
81.1622726698663
 30
0.0
 40
2.0
100
AcDbArc
 50
90.0
 51
180.0
  0
ARC
  5
1AE
330
17
100
AcDbEntity
  8
0
  6
Continuous
 62
7
370
18
100
AcDbCircle
 10
-177.0000000000009
 20
81.1622726698663
 30
0.0
 40
2.0
100
AcDbArc
 50
0.0
 51
90.0
  0
ARC
  5
1AF
330
17
100
AcDbEntity
  8
0
  6
Continuous
 62
7
370
18
100
AcDbCircle
 10
-177.0000000000009
 20
45.16227266986607
 30
0.0
 40
2.0
100
AcDbArc
 50
-90.00000000000001
 51
0.0
  0
ARC
  5
1B0
330
17
100
AcDbEntity
  8
0
  6
Continuous
 62
7
370
18
100
AcDbCircle
 10
-213.0000000000008
 20
-4.83772733013393
 30
0.0
 40
2.0
100
AcDbArc
 50
180.0
 51
-90.00000000000001
  0
ARC
  5
1B1
330
17
100
AcDbEntity
  8
0
  6
Continuous
 62
7
370
18
100
AcDbCircle
 10
-213.0000000000008
 20
31.162272669866297
 30
0.0
 40
2.0
100
AcDbArc
 50
90.0
 51
180.0
  0
ARC
  5
1B2
330
17
100
AcDbEntity
  8
0
  6
Continuous
 62
7
370
18
100
AcDbCircle
 10
-177.0000000000009
 20
31.162272669866297
 30
0.0
 40
2.0
100
AcDbArc
 50
0.0
 51
90.0
  0
ARC
  5
1B3
330
17
100
AcDbEntity
  8
0
  6
Continuous
 62
7
370
18
100
AcDbCircle
 10
-177.0000000000009
 20
-4.83772733013393
 30
0.0
 40
2.0
100
AcDbArc
 50
-90.00000000000001
 51
0.0
  0
ARC
  5
1B4
330
17
100
AcDbEntity
  8
0
  6
Continuous
 62
7
370
18
100
AcDbCircle
 10
-213.0000000000008
 20
-54.83772733013393
 30
0.0
 40
2.0
100
AcDbArc
 50
180.0
 51
-90.00000000000001
  0
ARC
  5
1B5
330
17
100
AcDbEntity
  8
0
  6
Continuous
 62
7
370
18
100
AcDbCircle
 10
-213.0000000000008
 20
-18.837727330133703
 30
0.0
 40
2.0
100
AcDbArc
 50
90.0
 51
180.0
  0
ARC
  5
1B6
330
17
100
AcDbEntity
  8
0
  6
Continuous
 62
7
370
18
100
AcDbCircle
 10
-177.0000000000009
 20
-18.837727330133703
 30
0.0
 40
2.0
100
AcDbArc
 50
0.0
 51
90.0
  0
ARC
  5
1B7
330
17
100
AcDbEntity
  8
0
  6
Continuous
 62
7
370
18
100
AcDbCircle
 10
-177.0000000000009
 20
-54.83772733013393
 30
0.0
 40
2.0
100
AcDbArc
 50
-90.00000000000001
 51
0.0
  0
ARC
  5
1B8
330
17
100
AcDbEntity
  8
0
  6
Continuous
 62
7
370
18
100
AcDbCircle
 10
-163.0000000000008
 20
45.16227266986607
 30
0.0
 40
2.0
100
AcDbArc
 50
180.0
 51
-90.00000000000001
  0
ARC
  5
1B9
330
17
100
AcDbEntity
  8
0
  6
Continuous
 62
7
370
18
100
AcDbCircle
 10
-163.0000000000008
 20
81.1622726698663
 30
0.0
 40
2.0
100
AcDbArc
 50
90.0
 51
180.0
  0
ARC
  5
1BA
330
17
100
AcDbEntity
  8
0
  6
Continuous
 62
7
370
18
100
AcDbCircle
 10
-127.00000000000091
 20
81.1622726698663
 30
0.0
 40
2.0
100
AcDbArc
 50
0.0
 51
90.0
  0
ARC
  5
1BB
330
17
100
AcDbEntity
  8
0
  6
Continuous
 62
7
370
18
100
AcDbCircle
 10
-127.00000000000091
 20
45.16227266986607
 30
0.0
 40
2.0
100
AcDbArc
 50
-90.00000000000001
 51
0.0
  0
ARC
  5
1BC
330
17
100
AcDbEntity
  8
0
  6
Continuous
 62
7
370
18
100
AcDbCircle
 10
-163.0000000000008
 20
-4.83772733013393
 30
0.0
 40
2.0
100
AcDbArc
 50
180.0
 51
-90.00000000000001
  0
ARC
  5
1BD
330
17
100
AcDbEntity
  8
0
  6
Continuous
 62
7
370
18
100
AcDbCircle
 10
-163.0000000000008
 20
31.162272669866297
 30
0.0
 40
2.0
100
AcDbArc
 50
90.0
 51
180.0
  0
ARC
  5
1BE
330
17
100
AcDbEntity
  8
0
  6
Continuous
 62
7
370
18
100
AcDbCircle
 10
-127.00000000000091
 20
31.162272669866297
 30
0.0
 40
2.0
100
AcDbArc
 50
0.0
 51
90.0
  0
ARC
  5
1BF
330
17
100
AcDbEntity
  8
0
  6
Continuous
 62
7
370
18
100
AcDbCircle
 10
-127.00000000000091
 20
-4.83772733013393
 30
0.0
 40
2.0
100
AcDbArc
 50
-90.00000000000001
 51
0.0
  0
ARC
  5
1C0
330
17
100
AcDbEntity
  8
0
  6
Continuous
 62
7
370
18
100
AcDbCircle
 10
-163.0000000000008
 20
-54.83772733013393
 30
0.0
 40
2.0
100
AcDbArc
 50
180.0
 51
-90.00000000000001
  0
ARC
  5
1C1
330
17
100
AcDbEntity
  8
0
  6
Continuous
 62
7
370
18
100
AcDbCircle
 10
-163.0000000000008
 20
-18.837727330133703
 30
0.0
 40
2.0
100
AcDbArc
 50
90.0
 51
180.0
  0
ARC
  5
1C2
330
17
100
AcDbEntity
  8
0
  6
Continuous
 62
7
370
18
100
AcDbCircle
 10
-127.00000000000091
 20
-18.837727330133703
 30
0.0
 40
2.0
100
AcDbArc
 50
0.0
 51
90.0
  0
ARC
  5
1C3
330
17
100
AcDbEntity
  8
0
  6
Continuous
 62
7
370
18
100
AcDbCircle
 10
-127.00000000000091
 20
-54.83772733013393
 30
0.0
 40
2.0
100
AcDbArc
 50
-90.00000000000001
 51
0.0
  0
ARC
  5
1C4
330
17
100
AcDbEntity
  8
0
  6
Continuous
 62
7
370
18
100
AcDbCircle
 10
-113.0000000000008
 20
45.16227266986607
 30
0.0
 40
2.0
100
AcDbArc
 50
180.0
 51
-90.00000000000001
  0
ARC
  5
1C5
330
17
100
AcDbEntity
  8
0
  6
Continuous
 62
7
370
18
100
AcDbCircle
 10
-113.0000000000008
 20
81.1622726698663
 30
0.0
 40
2.0
100
AcDbArc
 50
90.0
 51
180.0
  0
ARC
  5
1C6
330
17
100
AcDbEntity
  8
0
  6
Continuous
 62
7
370
18
100
AcDbCircle
 10
-77.00000000000091
 20
81.1622726698663
 30
0.0
 40
2.0
100
AcDbArc
 50
0.0
 51
90.0
  0
ARC
  5
1C7
330
17
100
AcDbEntity
  8
0
  6
Continuous
 62
7
370
18
100
AcDbCircle
 10
-77.00000000000091
 20
45.16227266986607
 30
0.0
 40
2.0
100
AcDbArc
 50
-90.00000000000001
 51
0.0
  0
ARC
  5
1C8
330
17
100
AcDbEntity
  8
0
  6
Continuous
 62
7
370
18
100
AcDbCircle
 10
-113.0000000000008
 20
-4.83772733013393
 30
0.0
 40
2.0
100
AcDbArc
 50
180.0
 51
-90.00000000000001
  0
ARC
  5
1C9
330
17
100
AcDbEntity
  8
0
  6
Continuous
 62
7
370
18
100
AcDbCircle
 10
-113.0000000000008
 20
31.162272669866297
 30
0.0
 40
2.0
100
AcDbArc
 50
90.0
 51
180.0
  0
ARC
  5
1CA
330
17
100
AcDbEntity
  8
0
  6
Continuous
 62
7
370
18
100
AcDbCircle
 10
-77.00000000000091
 20
31.162272669866297
 30
0.0
 40
2.0
100
AcDbArc
 50
0.0
 51
90.0
  0
ARC
  5
1CB
330
17
100
AcDbEntity
  8
0
  6
Continuous
 62
7
370
18
100
AcDbCircle
 10
-77.00000000000091
 20
-4.83772733013393
 30
0.0
 40
2.0
100
AcDbArc
 50
-90.00000000000001
 51
0.0
  0
ARC
  5
1CC
330
17
100
AcDbEntity
  8
0
  6
Continuous
 62
7
370
18
100
AcDbCircle
 10
-113.0000000000008
 20
-54.83772733013393
 30
0.0
 40
2.0
100
AcDbArc
 50
180.0
 51
-90.00000000000001
  0
ARC
  5
1CD
330
17
100
AcDbEntity
  8
0
  6
Continuous
 62
7
370
18
100
AcDbCircle
 10
-113.0000000000008
 20
-18.837727330133703
 30
0.0
 40
2.0
100
AcDbArc
 50
90.0
 51
180.0
  0
ARC
  5
1CE
330
17
100
AcDbEntity
  8
0
  6
Continuous
 62
7
370
18
100
AcDbCircle
 10
-77.00000000000091
 20
-18.837727330133703
 30
0.0
 40
2.0
100
AcDbArc
 50
0.0
 51
90.0
  0
ARC
  5
1CF
330
17
100
AcDbEntity
  8
0
  6
Continuous
 62
7
370
18
100
AcDbCircle
 10
-77.00000000000091
 20
-54.83772733013393
 30
0.0
 40
2.0
100
AcDbArc
 50
-90.00000000000001
 51
0.0
  0
ARC
  5
1D0
330
17
100
AcDbEntity
  8
0
  6
Continuous
 62
7
370
18
100
AcDbCircle
 10
-63.00000000000091
 20
45.16227266986607
 30
0.0
 40
2.0
100
AcDbArc
 50
180.0
 51
-90.00000000000001
  0
ARC
  5
1D1
330
17
100
AcDbEntity
  8
0
  6
Continuous
 62
7
370
18
100
AcDbCircle
 10
-63.00000000000091
 20
81.1622726698663
 30
0.0
 40
2.0
100
AcDbArc
 50
90.0
 51
180.0
  0
ARC
  5
1D2
330
17
100
AcDbEntity
  8
0
  6
Continuous
 62
7
370
18
100
AcDbCircle
 10
-27.00000000000091
 20
81.1622726698663
 30
0.0
 40
2.0
100
AcDbArc
 50
0.0
 51
90.0
  0
ARC
  5
1D3
330
17
100
AcDbEntity
  8
0
  6
Continuous
 62
7
370
18
100
AcDbCircle
 10
-27.00000000000091
 20
45.16227266986607
 30
0.0
 40
2.0
100
AcDbArc
 50
-90.00000000000001
 51
0.0
  0
ARC
  5
1D4
330
17
100
AcDbEntity
  8
0
  6
Continuous
 62
7
370
18
100
AcDbCircle
 10
-63.00000000000091
 20
-4.83772733013393
 30
0.0
 40
2.0
100
AcDbArc
 50
180.0
 51
-90.00000000000001
  0
ARC
  5
1D5
330
17
100
AcDbEntity
  8
0
  6
Continuous
 62
7
370
18
100
AcDbCircle
 10
-63.00000000000091
 20
31.162272669866297
 30
0.0
 40
2.0
100
AcDbArc
 50
90.0
 51
180.0
  0
ARC
  5
1D6
330
17
100
AcDbEntity
  8
0
  6
Continuous
 62
7
370
18
100
AcDbCircle
 10
-27.00000000000091
 20
31.162272669866297
 30
0.0
 40
2.0
100
AcDbArc
 50
0.0
 51
90.0
  0
ARC
  5
1D7
330
17
100
AcDbEntity
  8
0
  6
Continuous
 62
7
370
18
100
AcDbCircle
 10
-27.00000000000091
 20
-4.83772733013393
 30
0.0
 40
2.0
100
AcDbArc
 50
-90.00000000000001
 51
0.0
  0
ARC
  5
1D8
330
17
100
AcDbEntity
  8
0
  6
Continuous
 62
7
370
18
100
AcDbCircle
 10
-63.00000000000091
 20
-54.83772733013393
 30
0.0
 40
2.0
100
AcDbArc
 50
180.0
 51
-90.00000000000001
  0
ARC
  5
1D9
330
17
100
AcDbEntity
  8
0
  6
Continuous
 62
7
370
18
100
AcDbCircle
 10
-63.00000000000091
 20
-18.837727330133703
 30
0.0
 40
2.0
100
AcDbArc
 50
90.0
 51
180.0
  0
ARC
  5
1DA
330
17
100
AcDbEntity
  8
0
  6
Continuous
 62
7
370
18
100
AcDbCircle
 10
-27.00000000000091
 20
-18.837727330133703
 30
0.0
 40
2.0
100
AcDbArc
 50
0.0
 51
90.0
  0
ARC
  5
1DB
330
17
100
AcDbEntity
  8
0
  6
Continuous
 62
7
370
18
100
AcDbCircle
 10
-27.00000000000091
 20
-54.83772733013393
 30
0.0
 40
2.0
100
AcDbArc
 50
-90.00000000000001
 51
0.0
  0
ARC
  5
1DC
330
17
100
AcDbEntity
  8
0
  6
Continuous
 62
7
370
18
100
AcDbCircle
 10
-13.00000000000091
 20
45.16227266986607
 30
0.0
 40
2.0
100
AcDbArc
 50
180.0
 51
-90.00000000000001
  0
ARC
  5
1DD
330
17
100
AcDbEntity
  8
0
  6
Continuous
 62
7
370
18
100
AcDbCircle
 10
-13.00000000000091
 20
81.1622726698663
 30
0.0
 40
2.0
100
AcDbArc
 50
90.0
 51
180.0
  0
ARC
  5
1DE
330
17
100
AcDbEntity
  8
0
  6
Continuous
 62
7
370
18
100
AcDbCircle
 10
22.99999999999909
 20
81.1622726698663
 30
0.0
 40
2.0
100
AcDbArc
 50
0.0
 51
90.0
  0
ARC
  5
1DF
330
17
100
AcDbEntity
  8
0
  6
Continuous
 62
7
370
18
100
AcDbCircle
 10
22.99999999999909
 20
45.16227266986607
 30
0.0
 40
2.0
100
AcDbArc
 50
-90.00000000000001
 51
0.0
  0
ARC
  5
1E0
330
17
100
AcDbEntity
  8
0
  6
Continuous
 62
7
370
18
100
AcDbCircle
 10
-13.00000000000091
 20
-4.83772733013393
 30
0.0
 40
2.0
100
AcDbArc
 50
180.0
 51
-90.00000000000001
  0
ARC
  5
1E1
330
17
100
AcDbEntity
  8
0
  6
Continuous
 62
7
370
18
100
AcDbCircle
 10
-13.00000000000091
 20
31.162272669866297
 30
0.0
 40
2.0
100
AcDbArc
 50
90.0
 51
180.0
  0
ARC
  5
1E2
330
17
100
AcDbEntity
  8
0
  6
Continuous
 62
7
370
18
100
AcDbCircle
 10
22.99999999999909
 20
31.162272669866297
 30
0.0
 40
2.0
100
AcDbArc
 50
0.0
 51
90.0
  0
ARC
  5
1E3
330
17
100
AcDbEntity
  8
0
  6
Continuous
 62
7
370
18
100
AcDbCircle
 10
22.99999999999909
 20
-4.83772733013393
 30
0.0
 40
2.0
100
AcDbArc
 50
-90.00000000000001
 51
0.0
  0
ARC
  5
1E4
330
17
100
AcDbEntity
  8
0
  6
Continuous
 62
7
370
18
100
AcDbCircle
 10
-13.00000000000091
 20
-54.83772733013393
 30
0.0
 40
2.0
100
AcDbArc
 50
180.0
 51
-90.00000000000001
  0
ARC
  5
1E5
330
17
100
AcDbEntity
  8
0
  6
Continuous
 62
7
370
18
100
AcDbCircle
 10
-13.00000000000091
 20
-18.837727330133703
 30
0.0
 40
2.0
100
AcDbArc
 50
90.0
 51
180.0
  0
ARC
  5
1E6
330
17
100
AcDbEntity
  8
0
  6
Continuous
 62
7
370
18
100
AcDbCircle
 10
22.99999999999909
 20
-18.837727330133703
 30
0.0
 40
2.0
100
AcDbArc
 50
0.0
 51
90.0
  0
ARC
  5
1E7
330
17
100
AcDbEntity
  8
0
  6
Continuous
 62
7
370
18
100
AcDbCircle
 10
22.99999999999909
 20
-54.83772733013393
 30
0.0
 40
2.0
100
AcDbArc
 50
-90.00000000000001
 51
0.0
  0
ARC
  5
1E8
330
17
100
AcDbEntity
  8
0
  6
Continuous
 62
7
370
18
100
AcDbCircle
 10
36.99999999999909
 20
45.16227266986607
 30
0.0
 40
2.0
100
AcDbArc
 50
180.0
 51
-90.00000000000001
  0
ARC
  5
1E9
330
17
100
AcDbEntity
  8
0
  6
Continuous
 62
7
370
18
100
AcDbCircle
 10
36.99999999999909
 20
81.1622726698663
 30
0.0
 40
2.0
100
AcDbArc
 50
90.0
 51
180.0
  0
ARC
  5
1EA
330
17
100
AcDbEntity
  8
0
  6
Continuous
 62
7
370
18
100
AcDbCircle
 10
72.99999999999909
 20
81.1622726698663
 30
0.0
 40
2.0
100
AcDbArc
 50
0.0
 51
90.0
  0
ARC
  5
1EB
330
17
100
AcDbEntity
  8
0
  6
Continuous
 62
7
370
18
100
AcDbCircle
 10
72.99999999999909
 20
45.16227266986607
 30
0.0
 40
2.0
100
AcDbArc
 50
-90.00000000000001
 51
0.0
  0
ARC
  5
1EC
330
17
100
AcDbEntity
  8
0
  6
Continuous
 62
7
370
18
100
AcDbCircle
 10
36.99999999999909
 20
-4.83772733013393
 30
0.0
 40
2.0
100
AcDbArc
 50
180.0
 51
-90.00000000000001
  0
ARC
  5
1ED
330
17
100
AcDbEntity
  8
0
  6
Continuous
 62
7
370
18
100
AcDbCircle
 10
36.99999999999909
 20
31.162272669866297
 30
0.0
 40
2.0
100
AcDbArc
 50
90.0
 51
180.0
  0
ARC
  5
1EE
330
17
100
AcDbEntity
  8
0
  6
Continuous
 62
7
370
18
100
AcDbCircle
 10
72.99999999999909
 20
31.162272669866297
 30
0.0
 40
2.0
100
AcDbArc
 50
0.0
 51
90.0
  0
ARC
  5
1EF
330
17
100
AcDbEntity
  8
0
  6
Continuous
 62
7
370
18
100
AcDbCircle
 10
72.99999999999909
 20
-4.83772733013393
 30
0.0
 40
2.0
100
AcDbArc
 50
-90.00000000000001
 51
0.0
  0
ARC
  5
1F0
330
17
100
AcDbEntity
  8
0
  6
Continuous
 62
7
370
18
100
AcDbCircle
 10
36.99999999999909
 20
-54.83772733013393
 30
0.0
 40
2.0
100
AcDbArc
 50
180.0
 51
-90.00000000000001
  0
ARC
  5
1F1
330
17
100
AcDbEntity
  8
0
  6
Continuous
 62
7
370
18
100
AcDbCircle
 10
36.99999999999909
 20
-18.837727330133703
 30
0.0
 40
2.0
100
AcDbArc
 50
90.0
 51
180.0
  0
ARC
  5
1F2
330
17
100
AcDbEntity
  8
0
  6
Continuous
 62
7
370
18
100
AcDbCircle
 10
72.99999999999909
 20
-18.837727330133703
 30
0.0
 40
2.0
100
AcDbArc
 50
0.0
 51
90.0
  0
ARC
  5
1F3
330
17
100
AcDbEntity
  8
0
  6
Continuous
 62
7
370
18
100
AcDbCircle
 10
72.99999999999909
 20
-54.83772733013393
 30
0.0
 40
2.0
100
AcDbArc
 50
-90.00000000000001
 51
0.0
  0
ARC
  5
1F4
330
17
100
AcDbEntity
  8
0
  6
Continuous
 62
7
370
18
100
AcDbCircle
 10
86.99999999999909
 20
45.16227266986607
 30
0.0
 40
2.0
100
AcDbArc
 50
180.0
 51
-90.00000000000001
  0
ARC
  5
1F5
330
17
100
AcDbEntity
  8
0
  6
Continuous
 62
7
370
18
100
AcDbCircle
 10
86.99999999999909
 20
81.1622726698663
 30
0.0
 40
2.0
100
AcDbArc
 50
90.0
 51
180.0
  0
ARC
  5
1F6
330
17
100
AcDbEntity
  8
0
  6
Continuous
 62
7
370
18
100
AcDbCircle
 10
122.99999999999909
 20
81.1622726698663
 30
0.0
 40
2.0
100
AcDbArc
 50
0.0
 51
90.0
  0
ARC
  5
1F7
330
17
100
AcDbEntity
  8
0
  6
Continuous
 62
7
370
18
100
AcDbCircle
 10
122.99999999999909
 20
45.16227266986607
 30
0.0
 40
2.0
100
AcDbArc
 50
-90.00000000000001
 51
0.0
  0
ARC
  5
1F8
330
17
100
AcDbEntity
  8
0
  6
Continuous
 62
7
370
18
100
AcDbCircle
 10
86.99999999999909
 20
-4.83772733013393
 30
0.0
 40
2.0
100
AcDbArc
 50
180.0
 51
-90.00000000000001
  0
ARC
  5
1F9
330
17
100
AcDbEntity
  8
0
  6
Continuous
 62
7
370
18
100
AcDbCircle
 10
86.99999999999909
 20
31.162272669866297
 30
0.0
 40
2.0
100
AcDbArc
 50
90.0
 51
180.0
  0
ARC
  5
1FA
330
17
100
AcDbEntity
  8
0
  6
Continuous
 62
7
370
18
100
AcDbCircle
 10
122.99999999999909
 20
31.162272669866297
 30
0.0
 40
2.0
100
AcDbArc
 50
0.0
 51
90.0
  0
ARC
  5
1FB
330
17
100
AcDbEntity
  8
0
  6
Continuous
 62
7
370
18
100
AcDbCircle
 10
122.99999999999909
 20
-4.83772733013393
 30
0.0
 40
2.0
100
AcDbArc
 50
-90.00000000000001
 51
0.0
  0
ARC
  5
1FC
330
17
100
AcDbEntity
  8
0
  6
Continuous
 62
7
370
18
100
AcDbCircle
 10
86.99999999999909
 20
-54.83772733013393
 30
0.0
 40
2.0
100
AcDbArc
 50
180.0
 51
-90.00000000000001
  0
ARC
  5
1FD
330
17
100
AcDbEntity
  8
0
  6
Continuous
 62
7
370
18
100
AcDbCircle
 10
86.99999999999909
 20
-18.837727330133703
 30
0.0
 40
2.0
100
AcDbArc
 50
90.0
 51
180.0
  0
ARC
  5
1FE
330
17
100
AcDbEntity
  8
0
  6
Continuous
 62
7
370
18
100
AcDbCircle
 10
122.99999999999909
 20
-18.837727330133703
 30
0.0
 40
2.0
100
AcDbArc
 50
0.0
 51
90.0
  0
ARC
  5
1FF
330
17
100
AcDbEntity
  8
0
  6
Continuous
 62
7
370
18
100
AcDbCircle
 10
122.99999999999909
 20
-54.83772733013393
 30
0.0
 40
2.0
100
AcDbArc
 50
-90.00000000000001
 51
0.0
  0
ARC
  5
200
330
17
100
AcDbEntity
  8
0
  6
Continuous
 62
7
370
18
100
AcDbCircle
 10
136.9999999999991
 20
45.16227266986607
 30
0.0
 40
2.0
100
AcDbArc
 50
180.0
 51
-90.00000000000001
  0
ARC
  5
201
330
17
100
AcDbEntity
  8
0
  6
Continuous
 62
7
370
18
100
AcDbCircle
 10
136.9999999999991
 20
81.1622726698663
 30
0.0
 40
2.0
100
AcDbArc
 50
90.0
 51
180.0
  0
ARC
  5
202
330
17
100
AcDbEntity
  8
0
  6
Continuous
 62
7
370
18
100
AcDbCircle
 10
172.9999999999991
 20
81.1622726698663
 30
0.0
 40
2.0
100
AcDbArc
 50
0.0
 51
90.0
  0
ARC
  5
203
330
17
100
AcDbEntity
  8
0
  6
Continuous
 62
7
370
18
100
AcDbCircle
 10
172.9999999999991
 20
45.16227266986607
 30
0.0
 40
2.0
100
AcDbArc
 50
-90.00000000000001
 51
0.0
  0
ARC
  5
204
330
17
100
AcDbEntity
  8
0
  6
Continuous
 62
7
370
18
100
AcDbCircle
 10
136.9999999999991
 20
-4.83772733013393
 30
0.0
 40
2.0
100
AcDbArc
 50
180.0
 51
-90.00000000000001
  0
ARC
  5
205
330
17
100
AcDbEntity
  8
0
  6
Continuous
 62
7
370
18
100
AcDbCircle
 10
136.9999999999991
 20
31.162272669866297
 30
0.0
 40
2.0
100
AcDbArc
 50
90.0
 51
180.0
  0
ARC
  5
206
330
17
100
AcDbEntity
  8
0
  6
Continuous
 62
7
370
18
100
AcDbCircle
 10
172.9999999999991
 20
31.162272669866297
 30
0.0
 40
2.0
100
AcDbArc
 50
0.0
 51
90.0
  0
ARC
  5
207
330
17
100
AcDbEntity
  8
0
  6
Continuous
 62
7
370
18
100
AcDbCircle
 10
172.9999999999991
 20
-4.83772733013393
 30
0.0
 40
2.0
100
AcDbArc
 50
-90.00000000000001
 51
0.0
  0
ARC
  5
208
330
17
100
AcDbEntity
  8
0
  6
Continuous
 62
7
370
18
100
AcDbCircle
 10
136.9999999999991
 20
-54.83772733013393
 30
0.0
 40
2.0
100
AcDbArc
 50
180.0
 51
-90.00000000000001
  0
ARC
  5
209
330
17
100
AcDbEntity
  8
0
  6
Continuous
 62
7
370
18
100
AcDbCircle
 10
136.9999999999991
 20
-18.837727330133703
 30
0.0
 40
2.0
100
AcDbArc
 50
90.0
 51
180.0
  0
ARC
  5
20A
330
17
100
AcDbEntity
  8
0
  6
Continuous
 62
7
370
18
100
AcDbCircle
 10
172.9999999999991
 20
-18.837727330133703
 30
0.0
 40
2.0
100
AcDbArc
 50
0.0
 51
90.0
  0
ARC
  5
20B
330
17
100
AcDbEntity
  8
0
  6
Continuous
 62
7
370
18
100
AcDbCircle
 10
172.9999999999991
 20
-54.83772733013393
 30
0.0
 40
2.0
100
AcDbArc
 50
-90.00000000000001
 51
0.0
  0
ARC
  5
20C
330
17
100
AcDbEntity
  8
0
  6
Continuous
 62
7
370
18
100
AcDbCircle
 10
186.9999999999991
 20
45.16227266986607
 30
0.0
 40
2.0
100
AcDbArc
 50
180.0
 51
-90.00000000000001
  0
ARC
  5
20D
330
17
100
AcDbEntity
  8
0
  6
Continuous
 62
7
370
18
100
AcDbCircle
 10
186.9999999999991
 20
81.1622726698663
 30
0.0
 40
2.0
100
AcDbArc
 50
90.0
 51
180.0
  0
ARC
  5
20E
330
17
100
AcDbEntity
  8
0
  6
Continuous
 62
7
370
18
100
AcDbCircle
 10
222.9999999999991
 20
81.1622726698663
 30
0.0
 40
2.0
100
AcDbArc
 50
0.0
 51
90.0
  0
ARC
  5
20F
330
17
100
AcDbEntity
  8
0
  6
Continuous
 62
7
370
18
100
AcDbCircle
 10
222.9999999999991
 20
45.16227266986607
 30
0.0
 40
2.0
100
AcDbArc
 50
-90.00000000000001
 51
0.0
  0
ARC
  5
210
330
17
100
AcDbEntity
  8
0
  6
Continuous
 62
7
370
18
100
AcDbCircle
 10
186.9999999999991
 20
-4.83772733013393
 30
0.0
 40
2.0
100
AcDbArc
 50
180.0
 51
-90.00000000000001
  0
ARC
  5
211
330
17
100
AcDbEntity
  8
0
  6
Continuous
 62
7
370
18
100
AcDbCircle
 10
186.9999999999991
 20
31.162272669866297
 30
0.0
 40
2.0
100
AcDbArc
 50
90.0
 51
180.0
  0
ARC
  5
212
330
17
100
AcDbEntity
  8
0
  6
Continuous
 62
7
370
18
100
AcDbCircle
 10
222.9999999999991
 20
31.162272669866297
 30
0.0
 40
2.0
100
AcDbArc
 50
0.0
 51
90.0
  0
ARC
  5
213
330
17
100
AcDbEntity
  8
0
  6
Continuous
 62
7
370
18
100
AcDbCircle
 10
222.9999999999991
 20
-4.83772733013393
 30
0.0
 40
2.0
100
AcDbArc
 50
-90.00000000000001
 51
0.0
  0
ARC
  5
214
330
17
100
AcDbEntity
  8
0
  6
Continuous
 62
7
370
18
100
AcDbCircle
 10
186.9999999999991
 20
-54.83772733013393
 30
0.0
 40
2.0
100
AcDbArc
 50
180.0
 51
-90.00000000000001
  0
ARC
  5
215
330
17
100
AcDbEntity
  8
0
  6
Continuous
 62
7
370
18
100
AcDbCircle
 10
186.9999999999991
 20
-18.837727330133703
 30
0.0
 40
2.0
100
AcDbArc
 50
90.0
 51
180.0
  0
ARC
  5
216
330
17
100
AcDbEntity
  8
0
  6
Continuous
 62
7
370
18
100
AcDbCircle
 10
222.9999999999991
 20
-18.837727330133703
 30
0.0
 40
2.0
100
AcDbArc
 50
0.0
 51
90.0
  0
ARC
  5
217
330
17
100
AcDbEntity
  8
0
  6
Continuous
 62
7
370
18
100
AcDbCircle
 10
222.9999999999991
 20
-54.83772733013393
 30
0.0
 40
2.0
100
AcDbArc
 50
-90.00000000000001
 51
0.0
  0
ARC
  5
218
330
17
100
AcDbEntity
  8
0
  6
Continuous
 62
7
370
18
100
AcDbCircle
 10
236.9999999999991
 20
45.16227266986607
 30
0.0
 40
2.0
100
AcDbArc
 50
180.0
 51
-90.00000000000001
  0
ARC
  5
219
330
17
100
AcDbEntity
  8
0
  6
Continuous
 62
7
370
18
100
AcDbCircle
 10
236.9999999999991
 20
81.1622726698663
 30
0.0
 40
2.0
100
AcDbArc
 50
90.0
 51
180.0
  0
ARC
  5
21A
330
17
100
AcDbEntity
  8
0
  6
Continuous
 62
7
370
18
100
AcDbCircle
 10
272.99999999999955
 20
81.1622726698663
 30
0.0
 40
2.0
100
AcDbArc
 50
0.0
 51
90.0
  0
ARC
  5
21B
330
17
100
AcDbEntity
  8
0
  6
Continuous
 62
7
370
18
100
AcDbCircle
 10
272.99999999999955
 20
45.16227266986607
 30
0.0
 40
2.0
100
AcDbArc
 50
-90.00000000000001
 51
0.0
  0
ARC
  5
21C
330
17
100
AcDbEntity
  8
0
  6
Continuous
 62
7
370
18
100
AcDbCircle
 10
236.9999999999991
 20
-4.83772733013393
 30
0.0
 40
2.0
100
AcDbArc
 50
180.0
 51
-90.00000000000001
  0
ARC
  5
21D
330
17
100
AcDbEntity
  8
0
  6
Continuous
 62
7
370
18
100
AcDbCircle
 10
236.9999999999991
 20
31.162272669866297
 30
0.0
 40
2.0
100
AcDbArc
 50
90.0
 51
180.0
  0
ARC
  5
21E
330
17
100
AcDbEntity
  8
0
  6
Continuous
 62
7
370
18
100
AcDbCircle
 10
272.99999999999955
 20
31.162272669866297
 30
0.0
 40
2.0
100
AcDbArc
 50
0.0
 51
90.0
  0
ARC
  5
21F
330
17
100
AcDbEntity
  8
0
  6
Continuous
 62
7
370
18
100
AcDbCircle
 10
272.99999999999955
 20
-4.83772733013393
 30
0.0
 40
2.0
100
AcDbArc
 50
-90.00000000000001
 51
0.0
  0
ARC
  5
220
330
17
100
AcDbEntity
  8
0
  6
Continuous
 62
7
370
18
100
AcDbCircle
 10
236.9999999999991
 20
-54.83772733013393
 30
0.0
 40
2.0
100
AcDbArc
 50
180.0
 51
-90.00000000000001
  0
ARC
  5
221
330
17
100
AcDbEntity
  8
0
  6
Continuous
 62
7
370
18
100
AcDbCircle
 10
236.9999999999991
 20
-18.837727330133703
 30
0.0
 40
2.0
100
AcDbArc
 50
90.0
 51
180.0
  0
ARC
  5
222
330
17
100
AcDbEntity
  8
0
  6
Continuous
 62
7
370
18
100
AcDbCircle
 10
272.99999999999955
 20
-18.837727330133703
 30
0.0
 40
2.0
100
AcDbArc
 50
0.0
 51
90.0
  0
ARC
  5
223
330
17
100
AcDbEntity
  8
0
  6
Continuous
 62
7
370
18
100
AcDbCircle
 10
272.99999999999955
 20
-54.83772733013393
 30
0.0
 40
2.0
100
AcDbArc
 50
-90.00000000000001
 51
0.0
  0
ARC
  5
224
330
17
100
AcDbEntity
  8
0
  6
Continuous
 62
7
370
18
100
AcDbCircle
 10
286.9999999999991
 20
45.16227266986607
 30
0.0
 40
2.0
100
AcDbArc
 50
180.0
 51
-90.00000000000001
  0
ARC
  5
225
330
17
100
AcDbEntity
  8
0
  6
Continuous
 62
7
370
18
100
AcDbCircle
 10
286.9999999999991
 20
81.1622726698663
 30
0.0
 40
2.0
100
AcDbArc
 50
90.0
 51
180.0
  0
ARC
  5
226
330
17
100
AcDbEntity
  8
0
  6
Continuous
 62
7
370
18
100
AcDbCircle
 10
322.9999999999991
 20
81.1622726698663
 30
0.0
 40
2.0
100
AcDbArc
 50
0.0
 51
90.0
  0
ARC
  5
227
330
17
100
AcDbEntity
  8
0
  6
Continuous
 62
7
370
18
100
AcDbCircle
 10
322.9999999999991
 20
45.16227266986607
 30
0.0
 40
2.0
100
AcDbArc
 50
-90.00000000000001
 51
0.0
  0
ARC
  5
228
330
17
100
AcDbEntity
  8
0
  6
Continuous
 62
7
370
18
100
AcDbCircle
 10
286.9999999999991
 20
-4.83772733013393
 30
0.0
 40
2.0
100
AcDbArc
 50
180.0
 51
-90.00000000000001
  0
ARC
  5
229
330
17
100
AcDbEntity
  8
0
  6
Continuous
 62
7
370
18
100
AcDbCircle
 10
286.9999999999991
 20
31.162272669866297
 30
0.0
 40
2.0
100
AcDbArc
 50
90.0
 51
180.0
  0
ARC
  5
22A
330
17
100
AcDbEntity
  8
0
  6
Continuous
 62
7
370
18
100
AcDbCircle
 10
322.9999999999991
 20
31.162272669866297
 30
0.0
 40
2.0
100
AcDbArc
 50
0.0
 51
90.0
  0
ARC
  5
22B
330
17
100
AcDbEntity
  8
0
  6
Continuous
 62
7
370
18
100
AcDbCircle
 10
322.9999999999991
 20
-4.83772733013393
 30
0.0
 40
2.0
100
AcDbArc
 50
-90.00000000000001
 51
0.0
  0
ARC
  5
22C
330
17
100
AcDbEntity
  8
0
  6
Continuous
 62
7
370
18
100
AcDbCircle
 10
286.9999999999991
 20
-54.83772733013393
 30
0.0
 40
2.0
100
AcDbArc
 50
180.0
 51
-90.00000000000001
  0
ARC
  5
22D
330
17
100
AcDbEntity
  8
0
  6
Continuous
 62
7
370
18
100
AcDbCircle
 10
286.9999999999991
 20
-18.837727330133703
 30
0.0
 40
2.0
100
AcDbArc
 50
90.0
 51
180.0
  0
ARC
  5
22E
330
17
100
AcDbEntity
  8
0
  6
Continuous
 62
7
370
18
100
AcDbCircle
 10
322.9999999999991
 20
-18.837727330133703
 30
0.0
 40
2.0
100
AcDbArc
 50
0.0
 51
90.0
  0
ARC
  5
22F
330
17
100
AcDbEntity
  8
0
  6
Continuous
 62
7
370
18
100
AcDbCircle
 10
322.9999999999991
 20
-54.83772733013393
 30
0.0
 40
2.0
100
AcDbArc
 50
-90.00000000000001
 51
0.0
  0
ARC
  5
230
330
17
100
AcDbEntity
  8
0
  6
Continuous
 62
7
370
18
100
AcDbCircle
 10
336.9999999999991
 20
45.16227266986607
 30
0.0
 40
2.0
100
AcDbArc
 50
180.0
 51
-90.00000000000001
  0
ARC
  5
231
330
17
100
AcDbEntity
  8
0
  6
Continuous
 62
7
370
18
100
AcDbCircle
 10
336.9999999999991
 20
81.1622726698663
 30
0.0
 40
2.0
100
AcDbArc
 50
90.0
 51
180.0
  0
ARC
  5
232
330
17
100
AcDbEntity
  8
0
  6
Continuous
 62
7
370
18
100
AcDbCircle
 10
372.9999999999991
 20
81.1622726698663
 30
0.0
 40
2.0
100
AcDbArc
 50
0.0
 51
90.0
  0
ARC
  5
233
330
17
100
AcDbEntity
  8
0
  6
Continuous
 62
7
370
18
100
AcDbCircle
 10
372.9999999999991
 20
45.16227266986607
 30
0.0
 40
2.0
100
AcDbArc
 50
-90.00000000000001
 51
0.0
  0
ARC
  5
234
330
17
100
AcDbEntity
  8
0
  6
Continuous
 62
7
370
18
100
AcDbCircle
 10
336.9999999999991
 20
-4.83772733013393
 30
0.0
 40
2.0
100
AcDbArc
 50
180.0
 51
-90.00000000000001
  0
ARC
  5
235
330
17
100
AcDbEntity
  8
0
  6
Continuous
 62
7
370
18
100
AcDbCircle
 10
336.9999999999991
 20
31.162272669866297
 30
0.0
 40
2.0
100
AcDbArc
 50
90.0
 51
180.0
  0
ARC
  5
236
330
17
100
AcDbEntity
  8
0
  6
Continuous
 62
7
370
18
100
AcDbCircle
 10
372.9999999999991
 20
31.162272669866297
 30
0.0
 40
2.0
100
AcDbArc
 50
0.0
 51
90.0
  0
ARC
  5
237
330
17
100
AcDbEntity
  8
0
  6
Continuous
 62
7
370
18
100
AcDbCircle
 10
372.9999999999991
 20
-4.83772733013393
 30
0.0
 40
2.0
100
AcDbArc
 50
-90.00000000000001
 51
0.0
  0
ARC
  5
238
330
17
100
AcDbEntity
  8
0
  6
Continuous
 62
7
370
18
100
AcDbCircle
 10
336.9999999999991
 20
-54.83772733013393
 30
0.0
 40
2.0
100
AcDbArc
 50
180.0
 51
-90.00000000000001
  0
ARC
  5
239
330
17
100
AcDbEntity
  8
0
  6
Continuous
 62
7
370
18
100
AcDbCircle
 10
336.9999999999991
 20
-18.837727330133703
 30
0.0
 40
2.0
100
AcDbArc
 50
90.0
 51
180.0
  0
ARC
  5
23A
330
17
100
AcDbEntity
  8
0
  6
Continuous
 62
7
370
18
100
AcDbCircle
 10
372.9999999999991
 20
-18.837727330133703
 30
0.0
 40
2.0
100
AcDbArc
 50
0.0
 51
90.0
  0
ARC
  5
23B
330
17
100
AcDbEntity
  8
0
  6
Continuous
 62
7
370
18
100
AcDbCircle
 10
372.9999999999991
 20
-54.83772733013393
 30
0.0
 40
2.0
100
AcDbArc
 50
-90.00000000000001
 51
0.0
  0
ARC
  5
23C
330
17
100
AcDbEntity
  8
0
  6
Continuous
 62
7
370
18
100
AcDbCircle
 10
386.9999999999991
 20
45.16227266986607
 30
0.0
 40
2.0
100
AcDbArc
 50
180.0
 51
-90.00000000000001
  0
ARC
  5
23D
330
17
100
AcDbEntity
  8
0
  6
Continuous
 62
7
370
18
100
AcDbCircle
 10
386.9999999999991
 20
81.1622726698663
 30
0.0
 40
2.0
100
AcDbArc
 50
90.0
 51
180.0
  0
ARC
  5
23E
330
17
100
AcDbEntity
  8
0
  6
Continuous
 62
7
370
18
100
AcDbCircle
 10
422.9999999999991
 20
81.1622726698663
 30
0.0
 40
2.0
100
AcDbArc
 50
0.0
 51
90.0
  0
ARC
  5
23F
330
17
100
AcDbEntity
  8
0
  6
Continuous
 62
7
370
18
100
AcDbCircle
 10
422.9999999999991
 20
45.16227266986607
 30
0.0
 40
2.0
100
AcDbArc
 50
-90.00000000000001
 51
0.0
  0
ARC
  5
240
330
17
100
AcDbEntity
  8
0
  6
Continuous
 62
7
370
18
100
AcDbCircle
 10
386.9999999999991
 20
-4.83772733013393
 30
0.0
 40
2.0
100
AcDbArc
 50
180.0
 51
-90.00000000000001
  0
ARC
  5
241
330
17
100
AcDbEntity
  8
0
  6
Continuous
 62
7
370
18
100
AcDbCircle
 10
386.9999999999991
 20
31.162272669866297
 30
0.0
 40
2.0
100
AcDbArc
 50
90.0
 51
180.0
  0
ARC
  5
242
330
17
100
AcDbEntity
  8
0
  6
Continuous
 62
7
370
18
100
AcDbCircle
 10
422.9999999999991
 20
31.162272669866297
 30
0.0
 40
2.0
100
AcDbArc
 50
0.0
 51
90.0
  0
ARC
  5
243
330
17
100
AcDbEntity
  8
0
  6
Continuous
 62
7
370
18
100
AcDbCircle
 10
422.9999999999991
 20
-4.83772733013393
 30
0.0
 40
2.0
100
AcDbArc
 50
-90.00000000000001
 51
0.0
  0
LINE
  5
244
330
17
100
AcDbEntity
  8
0
  6
Continuous
 62
7
370
18
100
AcDbLine
 10
-264.00000000000034
 20
49.16227266986607
 30
0.0
 11
-276.00000000000034
 21
49.16227266986607
 31
0.0
  0
LINE
  5
245
330
17
100
AcDbEntity
  8
0
  6
Continuous
 62
7
370
18
100
AcDbLine
 10
-264.00000000000034
 20
37.16227266986607
 30
0.0
 11
-276.00000000000034
 21
37.16227266986607
 31
0.0
  0
ARC
  5
246
330
17
100
AcDbEntity
  8
0
  6
Continuous
 62
7
370
18
100
AcDbCircle
 10
-264.00000000000034
 20
43.16227266986607
 30
0.0
 40
6.0
100
AcDbArc
 50
-90.00000000000001
 51
90.0
  0
ARC
  5
247
330
17
100
AcDbEntity
  8
0
  6
Continuous
 62
7
370
18
100
AcDbCircle
 10
-276.00000000000034
 20
43.16227266986607
 30
0.0
 40
6.0
100
AcDbArc
 50
90.0
 51
-90.00000000000001
  0
LINE
  5
248
330
17
100
AcDbEntity
  8
0
  6
Continuous
 62
7
370
18
100
AcDbLine
 10
485.9999999999991
 20
49.16227266986607
 30
0.0
 11
473.9999999999991
 21
49.16227266986607
 31
0.0
  0
LINE
  5
249
330
17
100
AcDbEntity
  8
0
  6
Continuous
 62
7
370
18
100
AcDbLine
 10
485.9999999999991
 20
37.16227266986607
 30
0.0
 11
473.9999999999991
 21
37.16227266986607
 31
0.0
  0
ARC
  5
24A
330
17
100
AcDbEntity
  8
0
  6
Continuous
 62
7
370
18
100
AcDbCircle
 10
485.9999999999991
 20
43.16227266986607
 30
0.0
 40
6.0
100
AcDbArc
 50
-90.00000000000001
 51
90.0
  0
ARC
  5
24B
330
17
100
AcDbEntity
  8
0
  6
Continuous
 62
7
370
18
100
AcDbCircle
 10
473.9999999999991
 20
43.16227266986607
 30
0.0
 40
6.0
100
AcDbArc
 50
90.0
 51
-90.00000000000001
  0
ENDSEC
  0
SECTION
  2
OBJECTS
  0
DICTIONARY
  5
A
330
0
100
AcDbDictionary
281
1
  3
ACAD_COLOR
350
B
  3
ACAD_GROUP
350
C
  3
ACAD_LAYOUT
350
D
  3
ACAD_MATERIAL
350
E
  3
ACAD_MLEADERSTYLE
350
F
  3
ACAD_MLINESTYLE
350
10
  3
ACAD_PLOTSETTINGS
350
11
  3
ACAD_PLOTSTYLENAME
350
12
  3
ACAD_SCALELIST
350
14
  3
ACAD_TABLESTYLE
350
15
  3
ACAD_VISUALSTYLE
350
16
  3
EZDXF_META
350
2D
  0
DICTIONARY
  5
B
330
A
100
AcDbDictionary
281
1
  0
DICTIONARY
  5
C
330
A
100
AcDbDictionary
281
1
  0
DICTIONARY
  5
D
330
A
100
AcDbDictionary
281
1
  3
Model
350
1A
  3
Layout1
350
1E
  0
DICTIONARY
  5
E
330
A
100
AcDbDictionary
281
1
  3
ByBlock
350
1F
  3
ByLayer
350
20
  3
Global
350
21
  0
DICTIONARY
  5
F
330
A
100
AcDbDictionary
281
1
  3
Standard
350
2C
  0
DICTIONARY
  5
10
330
A
100
AcDbDictionary
281
1
  3
Standard
350
22
  0
DICTIONARY
  5
11
330
A
100
AcDbDictionary
281
1
  0
ACDBDICTIONARYWDFLT
  5
12
330
A
100
AcDbDictionary
281
1
  3
Normal
350
13
100
AcDbDictionaryWithDefault
340
13
  0
ACDBPLACEHOLDER
  5
13
330
12
  0
DICTIONARY
  5
14
330
A
100
AcDbDictionary
281
1
  0
DICTIONARY
  5
15
330
A
100
AcDbDictionary
281
1
  0
DICTIONARY
  5
16
330
A
100
AcDbDictionary
281
1
  0
LAYOUT
  5
1A
330
D
100
AcDbPlotSettings
  1

  4
A3
  6

 40
7.5
 41
20.0
 42
7.5
 43
20.0
 44
420.0
 45
297.0
 46
0.0
 47
0.0
 48
0.0
 49
0.0
140
0.0
141
0.0
142
1.0
143
1.0
 70
1024
 72
1
 73
0
 74
5
  7

 75
16
 76
0
 77
2
 78
300
147
1.0
148
0.0
149
0.0
100
AcDbLayout
  1
Model
 70
1
 71
0
 10
0.0
 20
0.0
 11
420.0
 21
297.0
 12
0.0
 22
0.0
 32
0.0
 14
-855.0000000000005
 24
-173.52135520855734
 34
0.0
 15
855.0000000000005
 25
173.52135520855768
 35
0.0
146
0.0
 13
0.0
 23
0.0
 33
0.0
 16
1.0
 26
0.0
 36
0.0
 17
0.0
 27
1.0
 37
0.0
 76
1
330
17
  0
LAYOUT
  5
1E
330
D
100
AcDbPlotSettings
  1

  4
A3
  6

 40
7.5
 41
20.0
 42
7.5
 43
20.0
 44
420.0
 45
297.0
 46
0.0
 47
0.0
 48
0.0
 49
0.0
140
0.0
141
0.0
142
1.0
143
1.0
 70
0
 72
1
 73
0
 74
5
  7

 75
16
 76
0
 77
2
 78
300
147
1.0
148
0.0
149
0.0
100
AcDbLayout
  1
Layout1
 70
1
 71
1
 10
0.0
 20
0.0
 11
420.0
 21
297.0
 12
0.0
 22
0.0
 32
0.0
 14
1e+20
 24
1e+20
 34
1e+20
 15
-1e+20
 25
-1e+20
 35
-1e+20
146
0.0
 13
0.0
 23
0.0
 33
0.0
 16
1.0
 26
0.0
 36
0.0
 17
0.0
 27
1.0
 37
0.0
 76
1
330
1B
  0
MATERIAL
  5
1F
102
{ACAD_REACTORS
330
E
102
}
330
E
100
AcDbMaterial
  1
ByBlock
  2

 70
0
 40
1.0
 71
1
 41
1.0
 91
-1023410177
 42
1.0
 72
1
  3

 73
1
 74
1
 75
1
 44
0.5
 73
0
 45
1.0
 46
1.0
 77
1
  4

 78
1
 79
1
170
1
 48
1.0
171
1
  6

172
1
173
1
174
1
140
1.0
141
1.0
175
1
  7

176
1
177
1
178
1
143
1.0
179
1
  8

270
1
271
1
272
1
145
1.0
146
1.0
273
1
  9

274
1
275
1
276
1
 42
1.0
 72
1
  3

 73
1
 74
1
 75
1
 94
63
  0
MATERIAL
  5
20
102
{ACAD_REACTORS
330
E
102
}
330
E
100
AcDbMaterial
  1
ByLayer
  2

 70
0
 40
1.0
 71
1
 41
1.0
 91
-1023410177
 42
1.0
 72
1
  3

 73
1
 74
1
 75
1
 44
0.5
 73
0
 45
1.0
 46
1.0
 77
1
  4

 78
1
 79
1
170
1
 48
1.0
171
1
  6

172
1
173
1
174
1
140
1.0
141
1.0
175
1
  7

176
1
177
1
178
1
143
1.0
179
1
  8

270
1
271
1
272
1
145
1.0
146
1.0
273
1
  9

274
1
275
1
276
1
 42
1.0
 72
1
  3

 73
1
 74
1
 75
1
 94
63
  0
MATERIAL
  5
21
102
{ACAD_REACTORS
330
E
102
}
330
E
100
AcDbMaterial
  1
Global
  2

 70
0
 40
1.0
 71
1
 41
1.0
 91
-1023410177
 42
1.0
 72
1
  3

 73
1
 74
1
 75
1
 44
0.5
 73
0
 45
1.0
 46
1.0
 77
1
  4

 78
1
 79
1
170
1
 48
1.0
171
1
  6

172
1
173
1
174
1
140
1.0
141
1.0
175
1
  7

176
1
177
1
178
1
143
1.0
179
1
  8

270
1
271
1
272
1
145
1.0
146
1.0
273
1
  9

274
1
275
1
276
1
 42
1.0
 72
1
  3

 73
1
 74
1
 75
1
 94
63
  0
MLINESTYLE
  5
22
102
{ACAD_REACTORS
330
10
102
}
330
10
100
AcDbMlineStyle
  2
Standard
 70
0
  3

 62
256
 51
90.0
 52
90.0
 71
2
 49
0.5
 62
256
  6
BYLAYER
 49
-0.5
 62
256
  6
BYLAYER
  0
MLEADERSTYLE
  5
2C
102
{ACAD_REACTORS
330
F
102
}
330
F
100
AcDbMLeaderStyle
179
2
170
2
171
1
172
0
 90
2
 40
0.0
 41
0.0
173
1
 91
-1056964608
 92
-2
290
1
 42
2.0
291
1
 43
8.0
  3
Standard
 44
4.0
300

342
29
174
1
175
1
176
0
178
1
 93
-1056964608
 45
4.0
292
0
297
0
 46
4.0
 94
-1056964608
 47
1.0
 49
1.0
140
1.0
294
1
141
0.0
177
0
142
1.0
295
0
296
0
143
3.75
271
0
272
9
273
9
  0
DICTIONARY
  5
2D
330
A
100
AcDbDictionary
280
1
281
1
  3
CREATED_BY_EZDXF
350
2E
  3
WRITTEN_BY_EZDXF
350
24E
  0
DICTIONARYVAR
  5
2E
330
2D
100
DictionaryVariables
280
0
  1
1.4.4 @ 2026-07-04T22:06:14.478439+00:00
  0
DICTIONARYVAR
  5
24E
330
2D
100
DictionaryVariables
280
0
  1
1.4.4 @ 2026-07-04T22:06:14.526312+00:00
  0
ENDSEC
  0
EOF
