  0
SECTION
  2
HEADER
  9
$ACADVER
  1
AC1021
  9
$ACADMAINTVER
 70
25
  9
$DWGCODEPAGE
  3
ANSI_1252
  9
$LASTSAVEDBY
  1
ezdxf
  9
$INSBASE
 10
0.0
 20
0.0
 30
0.0
  9
$EXTMIN
 10
-59.86426275002921
 20
-49.79586162462021
 30
0.0
  9
$EXTMAX
 10
59.864262750029205
 20
49.79586162462021
 30
0.0
  9
$LIMMIN
 10
0.0
 20
0.0
  9
$LIMMAX
 10
420.0
 20
297.0
  9
$ORTHOMODE
 70
0
  9
$REGENMODE
 70
1
  9
$FILLMODE
 70
1
  9
$QTEXTMODE
 70
0
  9
$MIRRTEXT
 70
1
  9
$LTSCALE
 40
1.0
  9
$ATTMODE
 70
1
  9
$TEXTSIZE
 40
2.5
  9
$TRACEWID
 40
1.0
  9
$TEXTSTYLE
  7
Standard
  9
$CLAYER
  8
0
  9
$CELTYPE
  6
ByLayer
  9
$CECOLOR
 62
256
  9
$CELTSCALE
 40
1.0
  9
$DISPSILH
 70
0
  9
$DIMSCALE
 40
1.0
  9
$DIMASZ
 40
2.5
  9
$DIMEXO
 40
0.625
  9
$DIMDLI
 40
3.75
  9
$DIMRND
 40
0.0
  9
$DIMDLE
 40
0.0
  9
$DIMEXE
 40
1.25
  9
$DIMTP
 40
0.0
  9
$DIMTM
 40
0.0
  9
$DIMTXT
 40
2.5
  9
$DIMCEN
 40
2.5
  9
$DIMTSZ
 40
0.0
  9
$DIMTOL
 70
0
  9
$DIMLIM
 70
0
  9
$DIMTIH
 70
0
  9
$DIMTOH
 70
0
  9
$DIMSE1
 70
0
  9
$DIMSE2
 70
0
  9
$DIMTAD
 70
1
  9
$DIMZIN
 70
8
  9
$DIMBLK
  1

  9
$DIMASO
 70
1
  9
$DIMSHO
 70
1
  9
$DIMPOST
  1

  9
$DIMAPOST
  1

  9
$DIMALT
 70
0
  9
$DIMALTD
 70
3
  9
$DIMALTF
 40
0.03937007874
  9
$DIMLFAC
 40
1.0
  9
$DIMTOFL
 70
1
  9
$DIMTVP
 40
0.0
  9
$DIMTIX
 70
0
  9
$DIMSOXD
 70
0
  9
$DIMSAH
 70
0
  9
$DIMBLK1
  1

  9
$DIMBLK2
  1

  9
$DIMSTYLE
  2
ISO-25
  9
$DIMCLRD
 70
0
  9
$DIMCLRE
 70
0
  9
$DIMCLRT
 70
0
  9
$DIMTFAC
 40
1.0
  9
$DIMGAP
 40
0.625
  9
$DIMJUST
 70
0
  9
$DIMSD1
 70
0
  9
$DIMSD2
 70
0
  9
$DIMTOLJ
 70
0
  9
$DIMTZIN
 70
8
  9
$DIMALTZ
 70
0
  9
$DIMALTTZ
 70
0
  9
$DIMUPT
 70
0
  9
$DIMDEC
 70
2
  9
$DIMTDEC
 70
2
  9
$DIMALTU
 70
2
  9
$DIMALTTD
 70
3
  9
$DIMTXSTY
  7
Standard
  9
$DIMAUNIT
 70
0
  9
$DIMADEC
 70
0
  9
$DIMALTRND
 40
0.0
  9
$DIMAZIN
 70
0
  9
$DIMDSEP
 70
44
  9
$DIMATFIT
 70
3
  9
$DIMFRAC
 70
0
  9
$DIMLDRBLK
  1

  9
$DIMLUNIT
 70
2
  9
$DIMLWD
 70
-2
  9
$DIMLWE
 70
-2
  9
$DIMTMOVE
 70
0
  9
$DIMFXL
 40
1.0
  9
$DIMFXLON
 70
0
  9
$DIMJOGANG
 40
0.785398163397
  9
$DIMTFILL
 70
0
  9
$DIMTFILLCLR
 70
0
  9
$DIMARCSYM
 70
0
  9
$DIMLTYPE
  6

  9
$DIMLTEX1
  6

  9
$DIMLTEX2
  6

  9
$LUNITS
 70
2
  9
$LUPREC
 70
4
  9
$SKETCHINC
 40
1.0
  9
$FILLETRAD
 40
10.0
  9
$AUNITS
 70
0
  9
$AUPREC
 70
2
  9
$MENU
  1
.
  9
$ELEVATION
 40
0.0
  9
$PELEVATION
 40
0.0
  9
$THICKNESS
 40
0.0
  9
$LIMCHECK
 70
0
  9
$CHAMFERA
 40
0.0
  9
$CHAMFERB
 40
0.0
  9
$CHAMFERC
 40
0.0
  9
$CHAMFERD
 40
0.0
  9
$SKPOLY
 70
0
  9
$TDCREATE
 40
2461229.3144675926
  9
$TDUCREATE
 40
2458532.153996898
  9
$TDUPDATE
 40
2461229.3144791666
  9
$TDUUPDATE
 40
2458532.1544311
  9
$TDINDWG
 40
0.0
  9
$TDUSRTIMER
 40
0.0
  9
$USRTIMER
 70
1
  9
$ANGBASE
 50
0.0
  9
$ANGDIR
 70
0
  9
$PDMODE
 70
0
  9
$PDSIZE
 40
0.0
  9
$PLINEWID
 40
0.0
  9
$SPLFRAME
 70
0
  9
$SPLINETYPE
 70
6
  9
$SPLINESEGS
 70
8
  9
$HANDSEED
  5
5D
  9
$SURFTAB1
 70
6
  9
$SURFTAB2
 70
6
  9
$SURFTYPE
 70
6
  9
$SURFU
 70
6
  9
$SURFV
 70
6
  9
$UCSBASE
  2

  9
$UCSNAME
  2

  9
$UCSORG
 10
0.0
 20
0.0
 30
0.0
  9
$UCSXDIR
 10
1.0
 20
0.0
 30
0.0
  9
$UCSYDIR
 10
0.0
 20
1.0
 30
0.0
  9
$UCSORTHOREF
  2

  9
$UCSORTHOVIEW
 70
0
  9
$UCSORGTOP
 10
0.0
 20
0.0
 30
0.0
  9
$UCSORGBOTTOM
 10
0.0
 20
0.0
 30
0.0
  9
$UCSORGLEFT
 10
0.0
 20
0.0
 30
0.0
  9
$UCSORGRIGHT
 10
0.0
 20
0.0
 30
0.0
  9
$UCSORGFRONT
 10
0.0
 20
0.0
 30
0.0
  9
$UCSORGBACK
 10
0.0
 20
0.0
 30
0.0
  9
$PUCSBASE
  2

  9
$PUCSNAME
  2

  9
$PUCSORG
 10
0.0
 20
0.0
 30
0.0
  9
$PUCSXDIR
 10
1.0
 20
0.0
 30
0.0
  9
$PUCSYDIR
 10
0.0
 20
1.0
 30
0.0
  9
$PUCSORTHOREF
  2

  9
$PUCSORTHOVIEW
 70
0
  9
$PUCSORGTOP
 10
0.0
 20
0.0
 30
0.0
  9
$PUCSORGBOTTOM
 10
0.0
 20
0.0
 30
0.0
  9
$PUCSORGLEFT
 10
0.0
 20
0.0
 30
0.0
  9
$PUCSORGRIGHT
 10
0.0
 20
0.0
 30
0.0
  9
$PUCSORGFRONT
 10
0.0
 20
0.0
 30
0.0
  9
$PUCSORGBACK
 10
0.0
 20
0.0
 30
0.0
  9
$USERI1
 70
0
  9
$USERI2
 70
0
  9
$USERI3
 70
0
  9
$USERI4
 70
0
  9
$USERI5
 70
0
  9
$USERR1
 40
0.0
  9
$USERR2
 40
0.0
  9
$USERR3
 40
0.0
  9
$USERR4
 40
0.0
  9
$USERR5
 40
0.0
  9
$WORLDVIEW
 70
1
  9
$SHADEDGE
 70
3
  9
$SHADEDIF
 70
70
  9
$TILEMODE
 70
1
  9
$MAXACTVP
 70
64
  9
$PINSBASE
 10
0.0
 20
0.0
 30
0.0
  9
$PLIMCHECK
 70
0
  9
$PEXTMIN
 10
1e+20
 20
1e+20
 30
1e+20
  9
$PEXTMAX
 10
-1e+20
 20
-1e+20
 30
-1e+20
  9
$PLIMMIN
 10
0.0
 20
0.0
  9
$PLIMMAX
 10
420.0
 20
297.0
  9
$UNITMODE
 70
0
  9
$VISRETAIN
 70
1
  9
$PLINEGEN
 70
0
  9
$PSLTSCALE
 70
1
  9
$TREEDEPTH
 70
3020
  9
$CMLSTYLE
  2
Standard
  9
$CMLJUST
 70
0
  9
$CMLSCALE
 40
20.0
  9
$PROXYGRAPHICS
 70
1
  9
$MEASUREMENT
 70
1
  9
$CELWEIGHT
370
-1
  9
$ENDCAPS
280
0
  9
$JOINSTYLE
280
0
  9
$LWDISPLAY
290
0
  9
$INSUNITS
 70
6
  9
$HYPERLINKBASE
  1

  9
$STYLESHEET
  1

  9
$XEDIT
290
1
  9
$CEPSNTYPE
380
0
  9
$PSTYLEMODE
290
1
  9
$FINGERPRINTGUID
  2
{30DAB21B-382F-4F9F-83EE-A65FE390905C}
  9
$VERSIONGUID
  2
{FB915FC4-AB11-4466-B8B7-850D71D00A26}
  9
$EXTNAMES
290
1
  9
$PSVPSCALE
 40
0.0
  9
$OLESTARTUP
290
0
  9
$SORTENTS
280
127
  9
$INDEXCTL
280
0
  9
$HIDETEXT
280
1
  9
$XCLIPFRAME
290
1
  9
$HALOGAP
280
0
  9
$OBSCOLOR
 70
257
  9
$OBSLTYPE
280
0
  9
$INTERSECTIONDISPLAY
280
0
  9
$INTERSECTIONCOLOR
 70
257
  9
$DIMASSOC
280
2
  9
$PROJECTNAME
  1

  9
$CAMERADISPLAY
290
0
  9
$LENSLENGTH
 40
50.0
  9
$CAMERAHEIGHT
 40
0.0
  9
$STEPSPERSEC
 40
24.0
  9
$STEPSIZE
 40
100.0
  9
$3DDWFPREC
 40
2.0
  9
$PSOLWIDTH
 40
0.005
  9
$PSOLHEIGHT
 40
0.08
  9
$LOFTANG1
 40
1.570796326795
  9
$LOFTANG2
 40
1.570796326795
  9
$LOFTMAG1
 40
0.0
  9
$LOFTMAG2
 40
0.0
  9
$LOFTPARAM
 70
7
  9
$LOFTNORMALS
280
1
  9
$LATITUDE
 40
37.795
  9
$LONGITUDE
 40
-122.394
  9
$NORTHDIRECTION
 40
0.0
  9
$TIMEZONE
 70
-8000
  9
$LIGHTGLYPHDISPLAY
280
1
  9
$TILEMODELIGHTSYNCH
280
1
  9
$CMATERIAL
347
20
  9
$SOLIDHIST
280
0
  9
$SHOWHIST
280
1
  9
$DWFFRAME
280
2
  9
$DGNFRAME
280
2
  9
$REALWORLDSCALE
290
1
  9
$INTERFERECOLOR
 62
256
  9
$CSHADOW
280
0
  9
$SHADOWPLANELOCATION
 40
0.0
  0
ENDSEC
  0
SECTION
  2
CLASSES
  0
CLASS
  1
ACDBDICTIONARYWDFLT
  2
AcDbDictionaryWithDefault
  3
ObjectDBX Classes
 90
0
 91
0
280
0
281
0
  0
CLASS
  1
SUN
  2
AcDbSun
  3
SCENEOE
 90
1153
 91
0
280
0
281
0
  0
CLASS
  1
VISUALSTYLE
  2
AcDbVisualStyle
  3
ObjectDBX Classes
 90
4095
 91
0
280
0
281
0
  0
CLASS
  1
MATERIAL
  2
AcDbMaterial
  3
ObjectDBX Classes
 90
1153
 91
0
280
0
281
0
  0
CLASS
  1
SCALE
  2
AcDbScale
  3
ObjectDBX Classes
 90
1153
 91
0
280
0
281
0
  0
CLASS
  1
TABLESTYLE
  2
AcDbTableStyle
  3
ObjectDBX Classes
 90
4095
 91
0
280
0
281
0
  0
CLASS
  1
MLEADERSTYLE
  2
AcDbMLeaderStyle
  3
ACDB_MLEADERSTYLE_CLASS
 90
4095
 91
0
280
0
281
0
  0
CLASS
  1
DICTIONARYVAR
  2
AcDbDictionaryVar
  3
ObjectDBX Classes
 90
0
 91
0
280
0
281
0
  0
CLASS
  1
CELLSTYLEMAP
  2
AcDbCellStyleMap
  3
ObjectDBX Classes
 90
1152
 91
0
280
0
281
0
  0
CLASS
  1
MENTALRAYRENDERSETTINGS
  2
AcDbMentalRayRenderSettings
  3
SCENEOE
 90
1024
 91
0
280
0
281
0
  0
CLASS
  1
ACDBDETAILVIEWSTYLE
  2
AcDbDetailViewStyle
  3
ObjectDBX Classes
 90
1025
 91
0
280
0
281
0
  0
CLASS
  1
ACDBSECTIONVIEWSTYLE
  2
AcDbSectionViewStyle
  3
ObjectDBX Classes
 90
1025
 91
0
280
0
281
0
  0
CLASS
  1
RASTERVARIABLES
  2
AcDbRasterVariables
  3
ISM
 90
0
 91
0
280
0
281
0
  0
CLASS
  1
LAYOUT
  2
AcDbLayout
  3
ObjectDBX Classes
 90
0
 91
0
280
0
281
0
  0
CLASS
  1
ACDBPLACEHOLDER
  2
AcDbPlaceHolder
  3
ObjectDBX Classes
 90
0
 91
0
280
0
281
0
  0
ENDSEC
  0
SECTION
  2
TABLES
  0
TABLE
  2
VPORT
  5
8
330
0
100
AcDbSymbolTable
 70
1
  0
VPORT
  5
23
330
8
100
AcDbSymbolTableRecord
100
AcDbViewportTableRecord
  2
*Active
 70
0
 10
0.0
 20
0.0
 11
1.0
 21
1.0
 12
0.0
 22
0.0
 13
0.0
 23
0.0
 14
0.5
 24
0.5
 15
0.5
 25
0.5
 16
0.0
 26
0.0
 36
1.0
 17
0.0
 27
0.0
 37
0.0
 40
1000.0
 41
1.34
 42
50.0
 43
0.0
 44
0.0
 50
0.0
 51
0.0
 71
0
 72
1000
 73
1
 74
3
 75
0
 76
0
 77
0
 78
0
281
0
 65
0
146
0.0
  0
ENDTAB
  0
TABLE
  2
LTYPE
  5
2
330
0
100
AcDbSymbolTable
 70
3
  0
LTYPE
  5
24
330
2
100
AcDbSymbolTableRecord
100
AcDbLinetypeTableRecord
  2
ByBlock
 70
0
  3

 72
65
 73
0
 40
0.0
  0
LTYPE
  5
25
330
2
100
AcDbSymbolTableRecord
100
AcDbLinetypeTableRecord
  2
ByLayer
 70
0
  3

 72
65
 73
0
 40
0.0
  0
LTYPE
  5
26
330
2
100
AcDbSymbolTableRecord
100
AcDbLinetypeTableRecord
  2
Continuous
 70
0
  3

 72
65
 73
0
 40
0.0
  0
ENDTAB
  0
TABLE
  2
LAYER
  5
1
330
0
100
AcDbSymbolTable
 70
3
  0
LAYER
  5
27
330
1
100
AcDbSymbolTableRecord
100
AcDbLayerTableRecord
  2
0
 70
0
 62
7
  6
Continuous
370
-3
390
13
347
21
  0
LAYER
  5
28
330
1
100
AcDbSymbolTableRecord
100
AcDbLayerTableRecord
  2
Defpoints
 70
0
 62
7
  6
Continuous
290
0
370
-3
390
13
347
21
  0
LAYER
  5
2F
330
1
100
AcDbSymbolTableRecord
100
AcDbLayerTableRecord
  2
GIECIE
 70
0
 62
6
  6
Continuous
370
-3
390
13
347
21
  0
ENDTAB
  0
TABLE
  2
STYLE
  5
5
330
0
100
AcDbSymbolTable
 70
1
  0
STYLE
  5
29
330
5
100
AcDbSymbolTableRecord
100
AcDbTextStyleTableRecord
  2
Standard
 70
0
 40
0.0
 41
1.0
 50
0.0
 71
0
 42
2.5
  3
txt
  4

  0
ENDTAB
  0
TABLE
  2
VIEW
  5
7
330
0
100
AcDbSymbolTable
 70
0
  0
ENDTAB
  0
TABLE
  2
UCS
  5
6
330
0
100
AcDbSymbolTable
 70
0
  0
ENDTAB
  0
TABLE
  2
APPID
  5
3
330
0
100
AcDbSymbolTable
 70
3
  0
APPID
  5
2A
330
3
100
AcDbSymbolTableRecord
100
AcDbRegAppTableRecord
  2
ACAD
 70
0
  0
APPID
  5
5A
330
3
100
AcDbSymbolTableRecord
100
AcDbRegAppTableRecord
  2
HATCHBACKGROUNDCOLOR
 70
0
  0
APPID
  5
5B
330
3
100
AcDbSymbolTableRecord
100
AcDbRegAppTableRecord
  2
EZDXF
 70
0
  0
ENDTAB
  0
TABLE
  2
DIMSTYLE
  5
4
330
0
100
AcDbSymbolTable
 70
1
100
AcDbDimStyleTable
  0
DIMSTYLE
105
2B
330
4
100
AcDbSymbolTableRecord
100
AcDbDimStyleTableRecord
  2
Standard
 70
0
 40
1.0
 41
2.5
 42
0.625
 43
3.75
 44
1.25
 45
0.0
 46
0.0
 47
0.0
 48
0.0
 49
2.5
140
2.5
141
2.5
142
0.0
143
0.03937007874
144
1.0
145
0.0
146
1.0
147
0.625
148
0.0
 69
0
 70
0
 71
0
 72
0
 73
0
 74
0
 75
0
 76
0
 77
1
 78
8
 79
3
170
0
171
3
172
1
173
0
174
0
175
0
176
0
177
0
178
0
179
2
271
2
272
2
273
2
274
3
275
0
276
0
277
2
278
44
279
0
280
0
281
0
282
0
283
0
284
8
285
0
286
0
288
0
289
3
290
0
371
-2
372
-2
  0
ENDTAB
  0
TABLE
  2
BLOCK_RECORD
  5
9
330
0
100
AcDbSymbolTable
 70
2
  0
BLOCK_RECORD
  5
17
330
9
100
AcDbSymbolTableRecord
100
AcDbBlockTableRecord
  2
*Model_Space
340
1A
 70
0
280
1
281
0
  0
BLOCK_RECORD
  5
1B
330
9
100
AcDbSymbolTableRecord
100
AcDbBlockTableRecord
  2
*Paper_Space
340
1E
 70
0
280
1
281
0
  0
ENDTAB
  0
ENDSEC
  0
SECTION
  2
BLOCKS
  0
BLOCK
  5
18
330
17
100
AcDbEntity
  8
0
100
AcDbBlockBegin
  2
*Model_Space
 70
0
 10
0.0
 20
0.0
 30
0.0
  3
*Model_Space
  1

  0
ENDBLK
  5
19
330
17
100
AcDbEntity
  8
0
100
AcDbBlockEnd
  0
BLOCK
  5
1C
330
1B
100
AcDbEntity
  8
0
100
AcDbBlockBegin
  2
*Paper_Space
 70
0
 10
0.0
 20
0.0
 30
0.0
  3
*Paper_Space
  1

  0
ENDBLK
  5
1D
330
1B
100
AcDbEntity
  8
0
100
AcDbBlockEnd
  0
ENDSEC
  0
SECTION
  2
ENTITIES
  0
LINE
  5
30
330
17
100
AcDbEntity
  8
0
  6
Continuous
 62
7
370
18
100
AcDbLine
 10
59.863735577380936
 20
-2.087749667442104
 30
1.07e-14
 11
59.863735577380936
 21
0.7684778471302636
 31
5.3e-15
  0
LINE
  5
31
330
17
100
AcDbEntity
  8
0
  6
Continuous
 62
7
370
18
100
AcDbLine
 10
-59.86426275002921
 20
33.97110412668831
 30
0.0
 11
-59.86426275002921
 21
31.114876612115943
 31
0.0
  0
LINE
  5
32
330
17
100
AcDbEntity
  8
0
  6
Continuous
 62
7
370
18
100
AcDbLine
 10
-42.35151816738923
 20
-43.28220455005795
 30
3.6e-15
 11
-42.35151816738923
 21
-46.13843206463026
 31
9e-16
  0
LINE
  5
33
330
17
100
AcDbEntity
  8
0
  6
Continuous
 62
7
370
18
100
AcDbLine
 10
-58.839678336636865
 20
35.39921788397452
 30
1.07e-14
 11
-34.92854433276236
 21
49.20431753774073
 31
1.78e-14
  0
LINE
  5
34
330
17
100
AcDbEntity
  8
0
  6
Continuous
 62
7
370
18
100
AcDbLine
 10
-6.070279155672235
 20
35.39921788397452
 30
7.1e-15
 11
-29.981413159546744
 21
49.20431753774073
 31
1.42e-14
  0
LINE
  5
35
330
17
100
AcDbEntity
  8
0
  6
Continuous
 62
7
370
18
100
AcDbLine
 10
-0.2986261202539957
 20
8.2650564955374
 30
1.78e-14
 11
-0.2986261202542231
 21
25.402421582971492
 31
1.42e-14
  0
LINE
  5
36
330
17
100
AcDbEntity
  8
0
  6
Continuous
 62
7
370
18
100
AcDbLine
 10
-25.85880384853382
 20
-16.96495321651816
 30
7.1e-15
 11
-24.192736403546828
 21
-17.92685770436953
 31
5.5e-15
  0
LINE
  5
37
330
17
100
AcDbEntity
  8
0
  6
Continuous
 62
7
370
18
100
AcDbLine
 10
-34.92854433276236
 20
18.73789071563595
 30
5.3e-15
 11
-58.839678336636865
 21
32.542990369402155
 31
3.6e-15
  0
LINE
  5
38
330
17
100
AcDbEntity
  8
0
  6
Continuous
 62
7
370
18
100
AcDbLine
 10
-34.92854433276236
 20
15.881663201063581
 30
1.8e-15
 11
-58.839678336636865
 21
29.686762854829787
 31
1.42e-14
  0
LINE
  5
39
330
17
100
AcDbEntity
  8
0
  6
Continuous
 62
7
370
18
100
AcDbLine
 10
-31.63045688395206
 20
-6.968156915515017
 30
0.0
 11
-31.63045688395206
 21
10.169208171918847
 31
3.6e-15
  0
LINE
  5
3A
330
17
100
AcDbEntity
  8
0
  6
Continuous
 62
7
370
18
100
AcDbLine
 10
-29.156891297344114
 20
-8.396270672801172
 30
7.1e-15
 11
-29.15689129734434
 21
8.741094414632919
 31
7.1e-15
  0
LINE
  5
3B
330
17
100
AcDbEntity
  8
0
  6
Continuous
 62
7
370
18
100
AcDbLine
 10
-39.460815540094785
 20
-48.127406767996725
 30
5.3e-15
 11
-23.376058465692918
 21
-49.76487412055037
 31
4e-16
  0
LINE
  5
3C
330
17
100
AcDbEntity
  8
0
  6
Continuous
 62
7
370
18
100
AcDbLine
 10
-39.460815540094785
 20
-45.27117925342436
 30
8e-15
 11
-23.376058465692918
 21
-46.908646605978
 31
0.0
  0
LINE
  5
3D
330
17
100
AcDbEntity
  8
0
  6
Continuous
 62
7
370
18
100
AcDbLine
 10
59.81059081858049
 20
1.1191877512802577
 30
5.3e-15
 11
56.97441416822207
 21
10.40572657803596
 31
1.07e-14
  0
LINE
  5
3E
330
17
100
AcDbEntity
  8
0
  6
Continuous
 62
7
370
18
100
AcDbLine
 10
6.683922851679004
 20
0.4253766141989601
 30
1.6e-14
 11
2.9994613285560696
 21
2.552601466392666
 31
0.0
  0
LINE
  5
3F
330
17
100
AcDbEntity
  8
0
  6
Continuous
 62
7
370
18
100
AcDbLine
 10
-25.85880384853382
 20
-14.108725701945907
 30
8.9e-15
 11
-22.17434232541117
 21
-16.235950554139613
 31
7.1e-15
  0
ELLIPSE
  5
40
330
17
100
AcDbEntity
  8
0
  6
Continuous
 62
7
370
18
100
AcDbEllipse
 10
-6.070279155672235
 20
28.73468701663915
 30
7.1e-15
 11
4.081175000000003
 21
-7.068802454579922
 31
0.0
 40
0.577350269189626
 41
0.785398163397454
 42
2.356194490192343
  0
ELLIPSE
  5
41
330
17
100
AcDbEntity
  8
0
  6
Continuous
 62
7
370
18
100
AcDbEllipse
 10
48.94807484141867
 20
1.7302047170024863
 30
1.24e-14
 11
-4.081175
 21
0.0
 31
0.0
 40
0.5773502691896258
 41
3.792785905913396
 42
5.631992054445238
  0
ELLIPSE
  5
42
330
17
100
AcDbEntity
  8
0
  6
Continuous
 62
7
370
18
100
AcDbEllipse
 10
56.36558557738093
 20
-2.087749667442104
 30
1.07e-14
 11
3.49815
 21
0.0
 31
0.0
 40
0.577350269189626
 41
4.921019421483622
 42
6.283182863920464
  0
ELLIPSE
  5
43
330
17
100
AcDbEntity
  8
0
  6
Continuous
 62
7
370
18
100
AcDbEllipse
 10
-56.3661127500292
 20
31.114876612115943
 30
1.07e-14
 11
3.49815
 21
0.0
 31
0.0
 40
0.577350269189626
 41
3.141592653589793
 42
3.926990816987237
  0
ELLIPSE
  5
44
330
17
100
AcDbEntity
  8
0
  6
Continuous
 62
7
370
18
100
AcDbEllipse
 10
2.999461328556297
 20
6.360904819155955
 30
1.24e-14
 11
-2.332099999999996
 21
4.039315688331373
 31
0.0
 40
0.577350269189626
 41
0.7853981633974529
 42
2.356194490192348
  0
ELLIPSE
  5
45
330
17
100
AcDbEntity
  8
0
  6
Continuous
 62
7
370
18
100
AcDbEllipse
 10
-56.3661127500292
 20
33.97110412668831
 30
1.42e-14
 11
-3.49815
 21
0.0
 31
0.0
 40
0.577350269189626
 41
5.497787143782137
 42
0.7853981633974545
  0
ELLIPSE
  5
46
330
17
100
AcDbEntity
  8
0
  6
Continuous
 62
7
370
18
100
AcDbEllipse
 10
-32.45497874615441
 20
47.776203780454516
 30
1.07e-14
 11
-3.49815
 21
0.0
 31
0.0
 40
0.577350269189626
 41
3.92699081698724
 42
5.497787143782134
  0
ELLIPSE
  5
47
330
17
100
AcDbEntity
  8
0
  6
Continuous
 62
7
370
18
100
AcDbEllipse
 10
-34.92854433276236
 20
12.07335984830086
 30
5.3e-15
 11
2.3321000000000027
 21
-4.039315688331385
 31
0.0
 40
0.5773502691896258
 41
0.7853981633974494
 42
2.356194490192344
  0
ELLIPSE
  5
48
330
17
100
AcDbEntity
  8
0
  6
Continuous
 62
7
370
18
100
AcDbEllipse
 10
-25.85880384853382
 20
-10.30042234918239
 30
-1.8e-15
 11
-4.081174999999996
 21
7.068802454579908
 31
0.0
 40
0.5773502691896256
 41
0.7853981633974495
 42
2.356194490192345
  0
ELLIPSE
  5
49
330
17
100
AcDbEntity
  8
0
  6
Continuous
 62
7
370
18
100
AcDbEllipse
 10
-25.85880384853405
 20
-10.300422349182618
 30
0.0
 11
-2.332099999999996
 21
4.039315688331373
 31
0.0
 40
0.577350269189626
 41
0.7853981633974472
 42
2.356194490192348
  0
ELLIPSE
  5
4A
330
17
100
AcDbEntity
  8
0
  6
Continuous
 62
7
370
18
100
AcDbEllipse
 10
-34.92854433276236
 20
12.073359848300633
 30
7.1e-15
 11
4.081175000000003
 21
-7.068802454579922
 31
0.0
 40
0.577350269189626
 41
0.7853981633974547
 42
2.356194490192349
  0
ELLIPSE
  5
4B
330
17
100
AcDbEntity
  8
0
  6
Continuous
 62
7
370
18
100
AcDbEllipse
 10
-29.38150206782606
 20
-43.49339759705931
 30
-9e-16
 11
4.081175
 21
0.0
 31
0.0
 40
0.5773502691896258
 41
0.6511932527343494
 42
2.490399401266192
  0
ELLIPSE
  5
4C
330
17
100
AcDbEntity
  8
0
  6
Continuous
 62
7
370
18
100
AcDbEllipse
 10
77.61868985788905
 20
-60.04638489465078
 30
0.0
 11
99.11425
 21
0.0
 31
0.0
 40
0.577350269189626
 41
1.77942676789383
 42
2.93296221249086
  0
ELLIPSE
  5
4D
330
17
100
AcDbEntity
  8
0
  6
Continuous
 62
7
370
18
100
AcDbEllipse
 10
-38.85336816738928
 20
-46.13843206463026
 30
2.2e-15
 11
3.49815
 21
0.0
 31
0.0
 40
0.577350269189626
 41
3.141595782477147
 42
4.537856055185253
  0
ELLIPSE
  5
4E
330
17
100
AcDbEntity
  8
0
  6
Continuous
 62
7
370
18
100
AcDbEllipse
 10
-22.76861109298758
 20
-47.77589941718413
 30
2.2e-15
 11
3.49815
 21
0.0
 31
0.0
 40
0.577350269189626
 41
4.537856055185258
 42
6.07455486608066
  0
ELLIPSE
  5
4F
330
17
100
AcDbEntity
  8
0
  6
Continuous
 62
7
370
18
100
AcDbEllipse
 10
-29.38150206782606
 20
-40.63717008248717
 30
1.8e-15
 11
4.081175
 21
0.0
 31
0.0
 40
0.5773502691896258
 41
0.0
 42
6.283185307179586
  0
ELLIPSE
  5
50
330
17
100
AcDbEntity
  8
0
  6
Continuous
 62
7
370
18
100
AcDbEllipse
 10
48.94807484141867
 20
4.586432231574626
 30
1.24e-14
 11
4.081175
 21
0.0
 31
0.0
 40
0.5773502691896258
 41
0.0
 42
6.283185307179586
  0
ELLIPSE
  5
51
330
17
100
AcDbEntity
  8
0
  6
Continuous
 62
7
370
18
100
AcDbEllipse
 10
77.61868985788905
 20
-57.19015738007841
 30
-2e-16
 11
-122.43525
 21
0.0
 31
0.0
 40
0.5773502691896258
 41
5.665235223001828
 42
6.07923637517222
  0
ELLIPSE
  5
52
330
17
100
AcDbEntity
  8
0
  6
Continuous
 62
7
370
18
100
AcDbEllipse
 10
-38.85336816738928
 20
-43.28220455005795
 30
4.9e-15
 11
-3.49815
 21
0.0
 31
0.0
 40
0.577350269189626
 41
6.07923637517222
 42
1.3962634015954656
  0
ELLIPSE
  5
53
330
17
100
AcDbEntity
  8
0
  6
Continuous
 62
7
370
18
100
AcDbEllipse
 10
-22.76861109298758
 20
-44.91967190261182
 30
-3.6e-15
 11
-3.49815
 21
0.0
 31
0.0
 40
0.577350269189626
 41
1.396263401595464
 42
2.932962212490864
  0
ELLIPSE
  5
54
330
17
100
AcDbEntity
  8
0
  6
Continuous
 62
7
370
18
100
AcDbEllipse
 10
77.61868985788905
 20
-57.19015738007841
 30
-2e-16
 11
99.11425
 21
0.0
 31
0.0
 40
0.577350269189626
 41
1.77942676789383
 42
2.93296221249086
  0
ELLIPSE
  5
55
330
17
100
AcDbEntity
  8
0
  6
Continuous
 62
7
370
18
100
AcDbEllipse
 10
56.36558557738093
 20
0.7684778471302636
 30
7.1e-15
 11
-3.49815
 21
0.0
 31
0.0
 40
0.577350269189626
 41
1.779426767893827
 42
3.316125578789224
  0
ELLIPSE
  5
56
330
17
100
AcDbEntity
  8
0
  6
Continuous
 62
7
370
18
100
AcDbEllipse
 10
53.529408927022445
 20
10.055016673885738
 30
7.1e-15
 11
-3.49815
 21
0.0
 31
0.0
 40
0.577350269189626
 41
3.316125578789224
 42
4.916337912392055
  0
ELLIPSE
  5
57
330
17
100
AcDbEntity
  8
0
  6
Continuous
 62
7
370
18
100
AcDbEllipse
 10
77.61868985788905
 20
-57.19015738007841
 30
-2e-16
 11
-122.43525000000002
 21
0.0
 31
0.0
 40
0.5773502691896258
 41
4.916337912392056
 42
5.330339064562448
  0
LINE
  5
58
330
17
100
AcDbEntity
  8
GIECIE
  6
Continuous
 62
6
370
13
100
AcDbLine
 10
0.6673613285560442
 20
5.014466256378846
 30
5.3e-15
 11
-28.190903848533846
 21
-11.646860911959728
 31
8.9e-15
  0
LINE
  5
59
330
17
100
AcDbEntity
  8
GIECIE
  6
Continuous
 62
6
370
13
100
AcDbLine
 10
-1.989104155672262
 20
31.090954501499304
 30
0.0
 11
-30.84736933276238
 21
14.429627333160504
 31
8.9e-15
  0
ENDSEC
  0
SECTION
  2
OBJECTS
  0
DICTIONARY
  5
A
330
0
100
AcDbDictionary
281
1
  3
ACAD_COLOR
350
B
  3
ACAD_GROUP
350
C
  3
ACAD_LAYOUT
350
D
  3
ACAD_MATERIAL
350
E
  3
ACAD_MLEADERSTYLE
350
F
  3
ACAD_MLINESTYLE
350
10
  3
ACAD_PLOTSETTINGS
350
11
  3
ACAD_PLOTSTYLENAME
350
12
  3
ACAD_SCALELIST
350
14
  3
ACAD_TABLESTYLE
350
15
  3
ACAD_VISUALSTYLE
350
16
  3
EZDXF_META
350
2D
  0
DICTIONARY
  5
B
330
A
100
AcDbDictionary
281
1
  0
DICTIONARY
  5
C
330
A
100
AcDbDictionary
281
1
  0
DICTIONARY
  5
D
330
A
100
AcDbDictionary
281
1
  3
Model
350
1A
  3
Layout1
350
1E
  0
DICTIONARY
  5
E
330
A
100
AcDbDictionary
281
1
  3
ByBlock
350
1F
  3
ByLayer
350
20
  3
Global
350
21
  0
DICTIONARY
  5
F
330
A
100
AcDbDictionary
281
1
  3
Standard
350
2C
  0
DICTIONARY
  5
10
330
A
100
AcDbDictionary
281
1
  3
Standard
350
22
  0
DICTIONARY
  5
11
330
A
100
AcDbDictionary
281
1
  0
ACDBDICTIONARYWDFLT
  5
12
330
A
100
AcDbDictionary
281
1
  3
Normal
350
13
100
AcDbDictionaryWithDefault
340
13
  0
ACDBPLACEHOLDER
  5
13
330
12
  0
DICTIONARY
  5
14
330
A
100
AcDbDictionary
281
1
  0
DICTIONARY
  5
15
330
A
100
AcDbDictionary
281
1
  0
DICTIONARY
  5
16
330
A
100
AcDbDictionary
281
1
  0
LAYOUT
  5
1A
330
D
100
AcDbPlotSettings
  1

  4
A3
  6

 40
7.5
 41
20.0
 42
7.5
 43
20.0
 44
420.0
 45
297.0
 46
0.0
 47
0.0
 48
0.0
 49
0.0
140
0.0
141
0.0
142
1.0
143
1.0
 70
1024
 72
1
 73
0
 74
5
  7

 75
16
 76
0
 77
2
 78
300
147
1.0
148
0.0
149
0.0
100
AcDbLayout
  1
Model
 70
1
 71
0
 10
0.0
 20
0.0
 11
420.0
 21
297.0
 12
0.0
 22
0.0
 32
0.0
 14
-59.86426275002921
 24
-49.79586162462021
 34
0.0
 15
59.864262750029205
 25
49.79586162462021
 35
0.0
146
0.0
 13
0.0
 23
0.0
 33
0.0
 16
1.0
 26
0.0
 36
0.0
 17
0.0
 27
1.0
 37
0.0
 76
1
330
17
  0
LAYOUT
  5
1E
330
D
100
AcDbPlotSettings
  1

  4
A3
  6

 40
7.5
 41
20.0
 42
7.5
 43
20.0
 44
420.0
 45
297.0
 46
0.0
 47
0.0
 48
0.0
 49
0.0
140
0.0
141
0.0
142
1.0
143
1.0
 70
0
 72
1
 73
0
 74
5
  7

 75
16
 76
0
 77
2
 78
300
147
1.0
148
0.0
149
0.0
100
AcDbLayout
  1
Layout1
 70
1
 71
1
 10
0.0
 20
0.0
 11
420.0
 21
297.0
 12
0.0
 22
0.0
 32
0.0
 14
1e+20
 24
1e+20
 34
1e+20
 15
-1e+20
 25
-1e+20
 35
-1e+20
146
0.0
 13
0.0
 23
0.0
 33
0.0
 16
1.0
 26
0.0
 36
0.0
 17
0.0
 27
1.0
 37
0.0
 76
1
330
1B
  0
MATERIAL
  5
1F
102
{ACAD_REACTORS
330
E
102
}
330
E
100
AcDbMaterial
  1
ByBlock
  2

 70
0
 40
1.0
 71
1
 41
1.0
 91
-1023410177
 42
1.0
 72
1
  3

 73
1
 74
1
 75
1
 44
0.5
 73
0
 45
1.0
 46
1.0
 77
1
  4

 78
1
 79
1
170
1
 48
1.0
171
1
  6

172
1
173
1
174
1
140
1.0
141
1.0
175
1
  7

176
1
177
1
178
1
143
1.0
179
1
  8

270
1
271
1
272
1
145
1.0
146
1.0
273
1
  9

274
1
275
1
276
1
 42
1.0
 72
1
  3

 73
1
 74
1
 75
1
 94
63
  0
MATERIAL
  5
20
102
{ACAD_REACTORS
330
E
102
}
330
E
100
AcDbMaterial
  1
ByLayer
  2

 70
0
 40
1.0
 71
1
 41
1.0
 91
-1023410177
 42
1.0
 72
1
  3

 73
1
 74
1
 75
1
 44
0.5
 73
0
 45
1.0
 46
1.0
 77
1
  4

 78
1
 79
1
170
1
 48
1.0
171
1
  6

172
1
173
1
174
1
140
1.0
141
1.0
175
1
  7

176
1
177
1
178
1
143
1.0
179
1
  8

270
1
271
1
272
1
145
1.0
146
1.0
273
1
  9

274
1
275
1
276
1
 42
1.0
 72
1
  3

 73
1
 74
1
 75
1
 94
63
  0
MATERIAL
  5
21
102
{ACAD_REACTORS
330
E
102
}
330
E
100
AcDbMaterial
  1
Global
  2

 70
0
 40
1.0
 71
1
 41
1.0
 91
-1023410177
 42
1.0
 72
1
  3

 73
1
 74
1
 75
1
 44
0.5
 73
0
 45
1.0
 46
1.0
 77
1
  4

 78
1
 79
1
170
1
 48
1.0
171
1
  6

172
1
173
1
174
1
140
1.0
141
1.0
175
1
  7

176
1
177
1
178
1
143
1.0
179
1
  8

270
1
271
1
272
1
145
1.0
146
1.0
273
1
  9

274
1
275
1
276
1
 42
1.0
 72
1
  3

 73
1
 74
1
 75
1
 94
63
  0
MLINESTYLE
  5
22
102
{ACAD_REACTORS
330
10
102
}
330
10
100
AcDbMlineStyle
  2
Standard
 70
0
  3

 62
256
 51
90.0
 52
90.0
 71
2
 49
0.5
 62
256
  6
BYLAYER
 49
-0.5
 62
256
  6
BYLAYER
  0
MLEADERSTYLE
  5
2C
102
{ACAD_REACTORS
330
F
102
}
330
F
100
AcDbMLeaderStyle
179
2
170
2
171
1
172
0
 90
2
 40
0.0
 41
0.0
173
1
 91
-1056964608
 92
-2
290
1
 42
2.0
291
1
 43
8.0
  3
Standard
 44
4.0
300

342
29
174
1
175
1
176
0
178
1
 93
-1056964608
 45
4.0
292
0
297
0
 46
4.0
 94
-1056964608
 47
1.0
 49
1.0
140
1.0
294
1
141
0.0
177
0
142
1.0
295
0
296
0
143
3.75
271
0
272
9
273
9
  0
DICTIONARY
  5
2D
330
A
100
AcDbDictionary
280
1
281
1
  3
CREATED_BY_EZDXF
350
2E
  3
WRITTEN_BY_EZDXF
350
5C
  0
DICTIONARYVAR
  5
2E
330
2D
100
DictionaryVariables
280
0
  1
1.4.4 @ 2026-07-07T05:32:50.988617+00:00
  0
DICTIONARYVAR
  5
5C
330
2D
100
DictionaryVariables
280
0
  1
1.4.4 @ 2026-07-07T05:32:51.003008+00:00
  0
ENDSEC
  0
EOF
