  0
SECTION
  2
HEADER
  9
$ACADVER
  1
AC1021
  9
$ACADMAINTVER
 70
25
  9
$DWGCODEPAGE
  3
ANSI_1252
  9
$LASTSAVEDBY
  1
ezdxf
  9
$INSBASE
 10
0.0
 20
0.0
 30
0.0
  9
$EXTMIN
 10
-855.0000000000008
 20
-173.44160195716324
 30
0.0
  9
$EXTMAX
 10
855.0000000000007
 20
173.44160195716336
 30
0.0
  9
$LIMMIN
 10
0.0
 20
0.0
  9
$LIMMAX
 10
420.0
 20
297.0
  9
$ORTHOMODE
 70
0
  9
$REGENMODE
 70
1
  9
$FILLMODE
 70
1
  9
$QTEXTMODE
 70
0
  9
$MIRRTEXT
 70
1
  9
$LTSCALE
 40
1.0
  9
$ATTMODE
 70
1
  9
$TEXTSIZE
 40
2.5
  9
$TRACEWID
 40
1.0
  9
$TEXTSTYLE
  7
Standard
  9
$CLAYER
  8
0
  9
$CELTYPE
  6
ByLayer
  9
$CECOLOR
 62
256
  9
$CELTSCALE
 40
1.0
  9
$DISPSILH
 70
0
  9
$DIMSCALE
 40
1.0
  9
$DIMASZ
 40
2.5
  9
$DIMEXO
 40
0.625
  9
$DIMDLI
 40
3.75
  9
$DIMRND
 40
0.0
  9
$DIMDLE
 40
0.0
  9
$DIMEXE
 40
1.25
  9
$DIMTP
 40
0.0
  9
$DIMTM
 40
0.0
  9
$DIMTXT
 40
2.5
  9
$DIMCEN
 40
2.5
  9
$DIMTSZ
 40
0.0
  9
$DIMTOL
 70
0
  9
$DIMLIM
 70
0
  9
$DIMTIH
 70
0
  9
$DIMTOH
 70
0
  9
$DIMSE1
 70
0
  9
$DIMSE2
 70
0
  9
$DIMTAD
 70
1
  9
$DIMZIN
 70
8
  9
$DIMBLK
  1

  9
$DIMASO
 70
1
  9
$DIMSHO
 70
1
  9
$DIMPOST
  1

  9
$DIMAPOST
  1

  9
$DIMALT
 70
0
  9
$DIMALTD
 70
3
  9
$DIMALTF
 40
0.03937007874
  9
$DIMLFAC
 40
1.0
  9
$DIMTOFL
 70
1
  9
$DIMTVP
 40
0.0
  9
$DIMTIX
 70
0
  9
$DIMSOXD
 70
0
  9
$DIMSAH
 70
0
  9
$DIMBLK1
  1

  9
$DIMBLK2
  1

  9
$DIMSTYLE
  2
ISO-25
  9
$DIMCLRD
 70
0
  9
$DIMCLRE
 70
0
  9
$DIMCLRT
 70
0
  9
$DIMTFAC
 40
1.0
  9
$DIMGAP
 40
0.625
  9
$DIMJUST
 70
0
  9
$DIMSD1
 70
0
  9
$DIMSD2
 70
0
  9
$DIMTOLJ
 70
0
  9
$DIMTZIN
 70
8
  9
$DIMALTZ
 70
0
  9
$DIMALTTZ
 70
0
  9
$DIMUPT
 70
0
  9
$DIMDEC
 70
2
  9
$DIMTDEC
 70
2
  9
$DIMALTU
 70
2
  9
$DIMALTTD
 70
3
  9
$DIMTXSTY
  7
Standard
  9
$DIMAUNIT
 70
0
  9
$DIMADEC
 70
0
  9
$DIMALTRND
 40
0.0
  9
$DIMAZIN
 70
0
  9
$DIMDSEP
 70
44
  9
$DIMATFIT
 70
3
  9
$DIMFRAC
 70
0
  9
$DIMLDRBLK
  1

  9
$DIMLUNIT
 70
2
  9
$DIMLWD
 70
-2
  9
$DIMLWE
 70
-2
  9
$DIMTMOVE
 70
0
  9
$DIMFXL
 40
1.0
  9
$DIMFXLON
 70
0
  9
$DIMJOGANG
 40
0.785398163397
  9
$DIMTFILL
 70
0
  9
$DIMTFILLCLR
 70
0
  9
$DIMARCSYM
 70
0
  9
$DIMLTYPE
  6

  9
$DIMLTEX1
  6

  9
$DIMLTEX2
  6

  9
$LUNITS
 70
2
  9
$LUPREC
 70
4
  9
$SKETCHINC
 40
1.0
  9
$FILLETRAD
 40
10.0
  9
$AUNITS
 70
0
  9
$AUPREC
 70
2
  9
$MENU
  1
.
  9
$ELEVATION
 40
0.0
  9
$PELEVATION
 40
0.0
  9
$THICKNESS
 40
0.0
  9
$LIMCHECK
 70
0
  9
$CHAMFERA
 40
0.0
  9
$CHAMFERB
 40
0.0
  9
$CHAMFERC
 40
0.0
  9
$CHAMFERD
 40
0.0
  9
$SKPOLY
 70
0
  9
$TDCREATE
 40
2461227.0044907406
  9
$TDUCREATE
 40
2458532.153996898
  9
$TDUPDATE
 40
2461227.0044907406
  9
$TDUUPDATE
 40
2458532.1544311
  9
$TDINDWG
 40
0.0
  9
$TDUSRTIMER
 40
0.0
  9
$USRTIMER
 70
1
  9
$ANGBASE
 50
0.0
  9
$ANGDIR
 70
0
  9
$PDMODE
 70
0
  9
$PDSIZE
 40
0.0
  9
$PLINEWID
 40
0.0
  9
$SPLFRAME
 70
0
  9
$SPLINETYPE
 70
6
  9
$SPLINESEGS
 70
8
  9
$HANDSEED
  5
24F
  9
$SURFTAB1
 70
6
  9
$SURFTAB2
 70
6
  9
$SURFTYPE
 70
6
  9
$SURFU
 70
6
  9
$SURFV
 70
6
  9
$UCSBASE
  2

  9
$UCSNAME
  2

  9
$UCSORG
 10
0.0
 20
0.0
 30
0.0
  9
$UCSXDIR
 10
1.0
 20
0.0
 30
0.0
  9
$UCSYDIR
 10
0.0
 20
1.0
 30
0.0
  9
$UCSORTHOREF
  2

  9
$UCSORTHOVIEW
 70
0
  9
$UCSORGTOP
 10
0.0
 20
0.0
 30
0.0
  9
$UCSORGBOTTOM
 10
0.0
 20
0.0
 30
0.0
  9
$UCSORGLEFT
 10
0.0
 20
0.0
 30
0.0
  9
$UCSORGRIGHT
 10
0.0
 20
0.0
 30
0.0
  9
$UCSORGFRONT
 10
0.0
 20
0.0
 30
0.0
  9
$UCSORGBACK
 10
0.0
 20
0.0
 30
0.0
  9
$PUCSBASE
  2

  9
$PUCSNAME
  2

  9
$PUCSORG
 10
0.0
 20
0.0
 30
0.0
  9
$PUCSXDIR
 10
1.0
 20
0.0
 30
0.0
  9
$PUCSYDIR
 10
0.0
 20
1.0
 30
0.0
  9
$PUCSORTHOREF
  2

  9
$PUCSORTHOVIEW
 70
0
  9
$PUCSORGTOP
 10
0.0
 20
0.0
 30
0.0
  9
$PUCSORGBOTTOM
 10
0.0
 20
0.0
 30
0.0
  9
$PUCSORGLEFT
 10
0.0
 20
0.0
 30
0.0
  9
$PUCSORGRIGHT
 10
0.0
 20
0.0
 30
0.0
  9
$PUCSORGFRONT
 10
0.0
 20
0.0
 30
0.0
  9
$PUCSORGBACK
 10
0.0
 20
0.0
 30
0.0
  9
$USERI1
 70
0
  9
$USERI2
 70
0
  9
$USERI3
 70
0
  9
$USERI4
 70
0
  9
$USERI5
 70
0
  9
$USERR1
 40
0.0
  9
$USERR2
 40
0.0
  9
$USERR3
 40
0.0
  9
$USERR4
 40
0.0
  9
$USERR5
 40
0.0
  9
$WORLDVIEW
 70
1
  9
$SHADEDGE
 70
3
  9
$SHADEDIF
 70
70
  9
$TILEMODE
 70
1
  9
$MAXACTVP
 70
64
  9
$PINSBASE
 10
0.0
 20
0.0
 30
0.0
  9
$PLIMCHECK
 70
0
  9
$PEXTMIN
 10
1e+20
 20
1e+20
 30
1e+20
  9
$PEXTMAX
 10
-1e+20
 20
-1e+20
 30
-1e+20
  9
$PLIMMIN
 10
0.0
 20
0.0
  9
$PLIMMAX
 10
420.0
 20
297.0
  9
$UNITMODE
 70
0
  9
$VISRETAIN
 70
1
  9
$PLINEGEN
 70
0
  9
$PSLTSCALE
 70
1
  9
$TREEDEPTH
 70
3020
  9
$CMLSTYLE
  2
Standard
  9
$CMLJUST
 70
0
  9
$CMLSCALE
 40
20.0
  9
$PROXYGRAPHICS
 70
1
  9
$MEASUREMENT
 70
1
  9
$CELWEIGHT
370
-1
  9
$ENDCAPS
280
0
  9
$JOINSTYLE
280
0
  9
$LWDISPLAY
290
0
  9
$INSUNITS
 70
6
  9
$HYPERLINKBASE
  1

  9
$STYLESHEET
  1

  9
$XEDIT
290
1
  9
$CEPSNTYPE
380
0
  9
$PSTYLEMODE
290
1
  9
$FINGERPRINTGUID
  2
{E878EB70-CEED-4AEA-9798-23E1CDAB9928}
  9
$VERSIONGUID
  2
{85733339-D903-4009-A3C2-F7A6DB8467A4}
  9
$EXTNAMES
290
1
  9
$PSVPSCALE
 40
0.0
  9
$OLESTARTUP
290
0
  9
$SORTENTS
280
127
  9
$INDEXCTL
280
0
  9
$HIDETEXT
280
1
  9
$XCLIPFRAME
290
1
  9
$HALOGAP
280
0
  9
$OBSCOLOR
 70
257
  9
$OBSLTYPE
280
0
  9
$INTERSECTIONDISPLAY
280
0
  9
$INTERSECTIONCOLOR
 70
257
  9
$DIMASSOC
280
2
  9
$PROJECTNAME
  1

  9
$CAMERADISPLAY
290
0
  9
$LENSLENGTH
 40
50.0
  9
$CAMERAHEIGHT
 40
0.0
  9
$STEPSPERSEC
 40
24.0
  9
$STEPSIZE
 40
100.0
  9
$3DDWFPREC
 40
2.0
  9
$PSOLWIDTH
 40
0.005
  9
$PSOLHEIGHT
 40
0.08
  9
$LOFTANG1
 40
1.570796326795
  9
$LOFTANG2
 40
1.570796326795
  9
$LOFTMAG1
 40
0.0
  9
$LOFTMAG2
 40
0.0
  9
$LOFTPARAM
 70
7
  9
$LOFTNORMALS
280
1
  9
$LATITUDE
 40
37.795
  9
$LONGITUDE
 40
-122.394
  9
$NORTHDIRECTION
 40
0.0
  9
$TIMEZONE
 70
-8000
  9
$LIGHTGLYPHDISPLAY
280
1
  9
$TILEMODELIGHTSYNCH
280
1
  9
$CMATERIAL
347
20
  9
$SOLIDHIST
280
0
  9
$SHOWHIST
280
1
  9
$DWFFRAME
280
2
  9
$DGNFRAME
280
2
  9
$REALWORLDSCALE
290
1
  9
$INTERFERECOLOR
 62
256
  9
$CSHADOW
280
0
  9
$SHADOWPLANELOCATION
 40
0.0
  0
ENDSEC
  0
SECTION
  2
CLASSES
  0
CLASS
  1
ACDBDICTIONARYWDFLT
  2
AcDbDictionaryWithDefault
  3
ObjectDBX Classes
 90
0
 91
0
280
0
281
0
  0
CLASS
  1
SUN
  2
AcDbSun
  3
SCENEOE
 90
1153
 91
0
280
0
281
0
  0
CLASS
  1
VISUALSTYLE
  2
AcDbVisualStyle
  3
ObjectDBX Classes
 90
4095
 91
0
280
0
281
0
  0
CLASS
  1
MATERIAL
  2
AcDbMaterial
  3
ObjectDBX Classes
 90
1153
 91
0
280
0
281
0
  0
CLASS
  1
SCALE
  2
AcDbScale
  3
ObjectDBX Classes
 90
1153
 91
0
280
0
281
0
  0
CLASS
  1
TABLESTYLE
  2
AcDbTableStyle
  3
ObjectDBX Classes
 90
4095
 91
0
280
0
281
0
  0
CLASS
  1
MLEADERSTYLE
  2
AcDbMLeaderStyle
  3
ACDB_MLEADERSTYLE_CLASS
 90
4095
 91
0
280
0
281
0
  0
CLASS
  1
DICTIONARYVAR
  2
AcDbDictionaryVar
  3
ObjectDBX Classes
 90
0
 91
0
280
0
281
0
  0
CLASS
  1
CELLSTYLEMAP
  2
AcDbCellStyleMap
  3
ObjectDBX Classes
 90
1152
 91
0
280
0
281
0
  0
CLASS
  1
MENTALRAYRENDERSETTINGS
  2
AcDbMentalRayRenderSettings
  3
SCENEOE
 90
1024
 91
0
280
0
281
0
  0
CLASS
  1
ACDBDETAILVIEWSTYLE
  2
AcDbDetailViewStyle
  3
ObjectDBX Classes
 90
1025
 91
0
280
0
281
0
  0
CLASS
  1
ACDBSECTIONVIEWSTYLE
  2
AcDbSectionViewStyle
  3
ObjectDBX Classes
 90
1025
 91
0
280
0
281
0
  0
CLASS
  1
RASTERVARIABLES
  2
AcDbRasterVariables
  3
ISM
 90
0
 91
0
280
0
281
0
  0
CLASS
  1
ACDBPLACEHOLDER
  2
AcDbPlaceHolder
  3
ObjectDBX Classes
 90
0
 91
0
280
0
281
0
  0
CLASS
  1
LAYOUT
  2
AcDbLayout
  3
ObjectDBX Classes
 90
0
 91
0
280
0
281
0
  0
ENDSEC
  0
SECTION
  2
TABLES
  0
TABLE
  2
VPORT
  5
8
330
0
100
AcDbSymbolTable
 70
1
  0
VPORT
  5
23
330
8
100
AcDbSymbolTableRecord
100
AcDbViewportTableRecord
  2
*Active
 70
0
 10
0.0
 20
0.0
 11
1.0
 21
1.0
 12
0.0
 22
0.0
 13
0.0
 23
0.0
 14
0.5
 24
0.5
 15
0.5
 25
0.5
 16
0.0
 26
0.0
 36
1.0
 17
0.0
 27
0.0
 37
0.0
 40
1000.0
 41
1.34
 42
50.0
 43
0.0
 44
0.0
 50
0.0
 51
0.0
 71
0
 72
1000
 73
1
 74
3
 75
0
 76
0
 77
0
 78
0
281
0
 65
0
146
0.0
  0
ENDTAB
  0
TABLE
  2
LTYPE
  5
2
330
0
100
AcDbSymbolTable
 70
3
  0
LTYPE
  5
24
330
2
100
AcDbSymbolTableRecord
100
AcDbLinetypeTableRecord
  2
ByBlock
 70
0
  3

 72
65
 73
0
 40
0.0
  0
LTYPE
  5
25
330
2
100
AcDbSymbolTableRecord
100
AcDbLinetypeTableRecord
  2
ByLayer
 70
0
  3

 72
65
 73
0
 40
0.0
  0
LTYPE
  5
26
330
2
100
AcDbSymbolTableRecord
100
AcDbLinetypeTableRecord
  2
Continuous
 70
0
  3

 72
65
 73
0
 40
0.0
  0
ENDTAB
  0
TABLE
  2
LAYER
  5
1
330
0
100
AcDbSymbolTable
 70
2
  0
LAYER
  5
27
330
1
100
AcDbSymbolTableRecord
100
AcDbLayerTableRecord
  2
0
 70
0
 62
7
  6
Continuous
370
-3
390
13
347
21
  0
LAYER
  5
28
330
1
100
AcDbSymbolTableRecord
100
AcDbLayerTableRecord
  2
Defpoints
 70
0
 62
7
  6
Continuous
290
0
370
-3
390
13
347
21
  0
ENDTAB
  0
TABLE
  2
STYLE
  5
5
330
0
100
AcDbSymbolTable
 70
1
  0
STYLE
  5
29
330
5
100
AcDbSymbolTableRecord
100
AcDbTextStyleTableRecord
  2
Standard
 70
0
 40
0.0
 41
1.0
 50
0.0
 71
0
 42
2.5
  3
txt
  4

  0
ENDTAB
  0
TABLE
  2
VIEW
  5
7
330
0
100
AcDbSymbolTable
 70
0
  0
ENDTAB
  0
TABLE
  2
UCS
  5
6
330
0
100
AcDbSymbolTable
 70
0
  0
ENDTAB
  0
TABLE
  2
APPID
  5
3
330
0
100
AcDbSymbolTable
 70
3
  0
APPID
  5
2A
330
3
100
AcDbSymbolTableRecord
100
AcDbRegAppTableRecord
  2
ACAD
 70
0
  0
APPID
  5
24C
330
3
100
AcDbSymbolTableRecord
100
AcDbRegAppTableRecord
  2
HATCHBACKGROUNDCOLOR
 70
0
  0
APPID
  5
24D
330
3
100
AcDbSymbolTableRecord
100
AcDbRegAppTableRecord
  2
EZDXF
 70
0
  0
ENDTAB
  0
TABLE
  2
DIMSTYLE
  5
4
330
0
100
AcDbSymbolTable
 70
1
100
AcDbDimStyleTable
  0
DIMSTYLE
105
2B
330
4
100
AcDbSymbolTableRecord
100
AcDbDimStyleTableRecord
  2
Standard
 70
0
 40
1.0
 41
2.5
 42
0.625
 43
3.75
 44
1.25
 45
0.0
 46
0.0
 47
0.0
 48
0.0
 49
2.5
140
2.5
141
2.5
142
0.0
143
0.03937007874
144
1.0
145
0.0
146
1.0
147
0.625
148
0.0
 69
0
 70
0
 71
0
 72
0
 73
0
 74
0
 75
0
 76
0
 77
1
 78
8
 79
3
170
0
171
3
172
1
173
0
174
0
175
0
176
0
177
0
178
0
179
2
271
2
272
2
273
2
274
3
275
0
276
0
277
2
278
44
279
0
280
0
281
0
282
0
283
0
284
8
285
0
286
0
288
0
289
3
290
0
371
-2
372
-2
  0
ENDTAB
  0
TABLE
  2
BLOCK_RECORD
  5
9
330
0
100
AcDbSymbolTable
 70
2
  0
BLOCK_RECORD
  5
17
330
9
100
AcDbSymbolTableRecord
100
AcDbBlockTableRecord
  2
*Model_Space
340
1A
 70
0
280
1
281
0
  0
BLOCK_RECORD
  5
1B
330
9
100
AcDbSymbolTableRecord
100
AcDbBlockTableRecord
  2
*Paper_Space
340
1E
 70
0
280
1
281
0
  0
ENDTAB
  0
ENDSEC
  0
SECTION
  2
BLOCKS
  0
BLOCK
  5
18
330
17
100
AcDbEntity
  8
0
100
AcDbBlockBegin
  2
*Model_Space
 70
0
 10
0.0
 20
0.0
 30
0.0
  3
*Model_Space
  1

  0
ENDBLK
  5
19
330
17
100
AcDbEntity
  8
0
100
AcDbBlockEnd
  0
BLOCK
  5
1C
330
1B
100
AcDbEntity
  8
0
100
AcDbBlockBegin
  2
*Paper_Space
 70
0
 10
0.0
 20
0.0
 30
0.0
  3
*Paper_Space
  1

  0
ENDBLK
  5
1D
330
1B
100
AcDbEntity
  8
0
100
AcDbBlockEnd
  0
ENDSEC
  0
SECTION
  2
ENTITIES
  0
LINE
  5
2F
330
17
100
AcDbEntity
  8
0
  6
Continuous
 62
7
370
18
100
AcDbLine
 10
855.0
 20
-152.91748058152814
 30
0.0
 11
855.0
 21
-157.94160195716313
 31
0.0
  0
LINE
  5
30
330
17
100
AcDbEntity
  8
0
  6
Continuous
 62
7
370
18
100
AcDbLine
 10
335.0
 20
-152.91748058152814
 30
0.0
 11
335.0
 21
-157.94160195716313
 31
0.0
  0
LINE
  5
31
330
17
100
AcDbEntity
  8
0
  6
Continuous
 62
7
370
18
100
AcDbLine
 10
-854.9999999999997
 20
123.08735356260581
 30
0.0
 11
-854.9999999999997
 21
121.41264643739441
 31
0.0
  0
LINE
  5
32
330
17
100
AcDbEntity
  8
0
  6
Continuous
 62
7
370
18
100
AcDbLine
 10
855.0
 20
121.41264643739441
 30
0.0
 11
855.0
 21
123.08735356260581
 31
0.0
  0
LINE
  5
33
330
17
100
AcDbEntity
  8
0
  6
Continuous
 62
7
370
18
100
AcDbLine
 10
-854.9999999999997
 20
-97.41748058152814
 30
0.0
 11
-854.9999999999997
 21
-102.44160195716313
 31
0.0
  0
LINE
  5
34
330
17
100
AcDbEntity
  8
0
  6
Continuous
 62
7
370
18
100
AcDbLine
 10
-854.9999999999997
 20
157.94160195716336
 30
0.0
 11
-854.9999999999997
 21
152.91748058152848
 31
0.0
  0
LINE
  5
35
330
17
100
AcDbEntity
  8
0
  6
Continuous
 62
7
370
18
100
AcDbLine
 10
855.0
 20
152.91748058152848
 30
0.0
 11
855.0
 21
157.94160195716336
 31
0.0
  0
LINE
  5
36
330
17
100
AcDbEntity
  8
0
  6
Continuous
 62
7
370
18
100
AcDbLine
 10
-854.9999999999997
 20
123.08735356260581
 30
0.0
 11
-854.9999999999997
 21
152.91748058152848
 31
0.0
  0
LINE
  5
37
330
17
100
AcDbEntity
  8
0
  6
Continuous
 62
7
370
18
100
AcDbLine
 10
855.0
 20
123.08735356260581
 30
0.0
 11
855.0
 21
152.91748058152848
 31
0.0
  0
LINE
  5
38
330
17
100
AcDbEntity
  8
0
  6
Continuous
 62
7
370
18
100
AcDbLine
 10
-854.9999999999993
 20
-97.41748058152814
 30
0.0
 11
-854.9999999999993
 21
121.41264643739441
 31
0.0
  0
LINE
  5
39
330
17
100
AcDbEntity
  8
0
  6
Continuous
 62
7
370
18
100
AcDbLine
 10
335.0000000000007
 20
-97.41748058152814
 30
0.0
 11
330.0000000000007
 21
-97.41748058152814
 31
0.0
  0
LINE
  5
3A
330
17
100
AcDbEntity
  8
0
  6
Continuous
 62
7
370
18
100
AcDbLine
 10
335.0
 20
-97.41748058152814
 30
0.0
 11
335.0
 21
-152.91748058152814
 31
0.0
  0
LINE
  5
3B
330
17
100
AcDbEntity
  8
0
  6
Continuous
 62
7
370
18
100
AcDbLine
 10
330.0000000000007
 20
-102.44160195716313
 30
0.0
 11
330.0000000000007
 21
-97.41748058152814
 31
0.0
  0
LINE
  5
3C
330
17
100
AcDbEntity
  8
0
  6
Continuous
 62
7
370
18
100
AcDbLine
 10
855.0
 20
157.94160195716336
 30
0.0
 11
855.0
 21
168.44160195716336
 31
0.0
  0
LINE
  5
3D
330
17
100
AcDbEntity
  8
0
  6
Continuous
 62
7
370
18
100
AcDbLine
 10
330.0
 20
-102.44160195716313
 30
0.0
 11
330.0
 21
-112.94160195716313
 31
0.0
  0
LINE
  5
3E
330
17
100
AcDbEntity
  8
0
  6
Continuous
 62
7
370
18
100
AcDbLine
 10
325.0000000000007
 20
-117.94160195716313
 30
0.0
 11
-849.9999999999993
 21
-117.94160195716313
 31
0.0
  0
LINE
  5
3F
330
17
100
AcDbEntity
  8
0
  6
Continuous
 62
7
370
18
100
AcDbLine
 10
855.0
 20
-157.94160195716313
 30
0.0
 11
855.0
 21
-171.44160195716313
 31
0.0
  0
LINE
  5
40
330
17
100
AcDbEntity
  8
0
  6
Continuous
 62
7
370
18
100
AcDbLine
 10
850.0
 20
173.44160195716336
 30
0.0
 11
-850.0000000000016
 21
173.44160195716336
 31
0.0
  0
LINE
  5
41
330
17
100
AcDbEntity
  8
0
  6
Continuous
 62
7
370
18
100
AcDbLine
 10
-854.9999999999993
 20
-112.94160195716313
 30
0.0
 11
-854.9999999999993
 21
-102.44160195716313
 31
0.0
  0
LINE
  5
42
330
17
100
AcDbEntity
  8
0
  6
Continuous
 62
7
370
18
100
AcDbLine
 10
-855.0000000000008
 20
157.94160195716336
 30
0.0
 11
-855.0000000000008
 21
168.44160195716336
 31
0.0
  0
LINE
  5
43
330
17
100
AcDbEntity
  8
0
  6
Continuous
 62
7
370
18
100
AcDbLine
 10
855.0
 20
-152.91748058152814
 30
0.0
 11
855.0
 21
121.41264643739441
 31
0.0
  0
LINE
  5
44
330
17
100
AcDbEntity
  8
0
  6
Continuous
 62
7
370
18
100
AcDbLine
 10
335.0
 20
-157.94160195716313
 30
0.0
 11
335.0
 21
-171.44160195716313
 31
0.0
  0
LINE
  5
45
330
17
100
AcDbEntity
  8
0
  6
Continuous
 62
7
370
18
100
AcDbLine
 10
337.0000000000002
 20
-173.44160195716324
 30
0.0
 11
853.0000000000007
 21
-173.44160195716324
 31
0.0
  0
ARC
  5
46
330
17
100
AcDbEntity
  8
0
  6
Continuous
 62
7
370
18
100
AcDbCircle
 10
-849.9999999999997
 20
168.44160195716336
 30
0.0
 40
5.0
100
AcDbArc
 50
90.00000000001017
 51
180.0
  0
ARC
  5
47
330
17
100
AcDbEntity
  8
0
  6
Continuous
 62
7
370
18
100
AcDbCircle
 10
325.0
 20
-112.94160195716313
 30
0.0
 40
5.0
100
AcDbArc
 50
-89.99999999999741
 51
0.0
  0
ARC
  5
48
330
17
100
AcDbEntity
  8
0
  6
Continuous
 62
7
370
18
100
AcDbCircle
 10
853.0000000000007
 20
-171.44160195716313
 30
0.0
 40
2.0
100
AcDbArc
 50
-90.00000000000001
 51
0.0
  0
ARC
  5
49
330
17
100
AcDbEntity
  8
0
  6
Continuous
 62
7
370
18
100
AcDbCircle
 10
337.0000000000002
 20
-171.44160195716313
 30
0.0
 40
2.0
100
AcDbArc
 50
180.0
 51
-90.00000000000001
  0
ARC
  5
4A
330
17
100
AcDbEntity
  8
0
  6
Continuous
 62
7
370
18
100
AcDbCircle
 10
-849.9999999999997
 20
-112.94160195716313
 30
0.0
 40
5.0
100
AcDbArc
 50
180.0
 51
-89.99999999999487
  0
ARC
  5
4B
330
17
100
AcDbEntity
  8
0
  6
Continuous
 62
7
370
18
100
AcDbCircle
 10
850.0
 20
168.44160195716336
 30
0.0
 40
5.0
100
AcDbArc
 50
0.0
 51
90.0
  0
LINE
  5
4C
330
17
100
AcDbEntity
  8
0
  6
Continuous
 62
7
370
18
100
AcDbLine
 10
668.4565239303217
 20
-76.21885747228964
 30
0.0
 11
668.4651027303216
 21
10.907712527710373
 31
0.0
  0
LINE
  5
4D
330
17
100
AcDbEntity
  8
0
  6
Continuous
 62
7
370
18
100
AcDbLine
 10
525.0404079303216
 20
-47.41021387228966
 30
0.0
 11
525.0404979303216
 21
-46.50457267228967
 31
0.0
  0
LINE
  5
4E
330
17
100
AcDbEntity
  8
0
  6
Continuous
 62
7
370
18
100
AcDbLine
 10
417.60697593032137
 20
-76.19415787228968
 30
0.0
 11
496.2430475066926
 21
-76.20190147236622
 31
0.0
  0
LINE
  5
4F
330
17
100
AcDbEntity
  8
0
  6
Continuous
 62
7
370
18
100
AcDbLine
 10
417.6086787303218
 20
-58.91744467228966
 30
0.0
 11
417.6069759303216
 21
-76.19415787228968
 31
0.0
  0
LINE
  5
50
330
17
100
AcDbEntity
  8
0
  6
Continuous
 62
7
370
18
100
AcDbLine
 10
494.08515993032097
 20
-58.92497587228968
 30
0.0
 11
417.6086787303218
 21
-58.91744467228966
 31
0.0
  0
LINE
  5
51
330
17
100
AcDbEntity
  8
0
  6
Continuous
 62
7
370
18
100
AcDbLine
 10
508.4841591303218
 20
-41.27812147228951
 30
0.0
 11
508.4838387303557
 21
-44.52912992550159
 31
0.0
  0
LINE
  5
52
330
17
100
AcDbEntity
  8
0
  6
Continuous
 62
7
370
18
100
AcDbLine
 10
443.79453873032116
 20
-26.874489072289634
 30
0.0
 11
494.0883156145992
 21
-26.879439072494733
 31
0.0
  0
LINE
  5
53
330
17
100
AcDbEntity
  8
0
  6
Continuous
 62
7
370
18
100
AcDbLine
 10
415.00373673032163
 20
10.932671327710295
 30
0.0
 11
415.002851269679
 21
1.9228646538854264
 31
0.0
  0
LINE
  5
54
330
17
100
AcDbEntity
  8
0
  6
Continuous
 62
7
370
18
100
AcDbLine
 10
512.9540127303217
 20
39.717551327710225
 30
0.0
 11
443.8010979303215
 21
39.724362527710355
 31
0.0
  0
LINE
  5
55
330
17
100
AcDbEntity
  8
0
  6
Continuous
 62
7
370
18
100
AcDbLine
 10
512.9523135303216
 20
22.44083812771032
 30
0.0
 11
512.9540127303217
 21
39.717551327710225
 31
0.0
  0
LINE
  5
56
330
17
100
AcDbEntity
  8
0
  6
Continuous
 62
7
370
18
100
AcDbLine
 10
446.6788479303227
 20
22.44736132771027
 30
0.0
 11
512.9523135303216
 21
22.44083812771032
 31
0.0
  0
LINE
  5
57
330
17
100
AcDbEntity
  8
0
  6
Continuous
 62
7
370
18
100
AcDbLine
 10
432.27984873032165
 20
4.800618527710412
 30
0.0
 11
432.2801691303616
 21
8.051519734051908
 31
0.0
  0
LINE
  5
58
330
17
100
AcDbEntity
  8
0
  6
Continuous
 62
7
370
18
100
AcDbLine
 10
496.24960593032165
 20
-9.602945472289548
 30
0.0
 11
446.675690574551
 21
-9.598063872273997
 31
0.0
  0
LINE
  5
59
330
17
100
AcDbEntity
  8
0
  6
Continuous
 62
7
370
18
100
AcDbLine
 10
525.0404979303216
 20
-46.50457267228967
 30
0.0
 11
525.041296991013
 21
-38.40029869661316
 31
0.0
  0
LINE
  5
5A
330
17
100
AcDbEntity
  8
0
  6
Continuous
 62
7
370
18
100
AcDbLine
 10
639.30411007831
 20
-48.37161661306618
 30
0.0
 11
639.3481443302485
 21
-41.204375484133834
 31
0.0
  0
LINE
  5
5B
330
17
100
AcDbEntity
  8
0
  6
Continuous
 62
7
370
18
100
AcDbLine
 10
535.1666211303218
 20
-76.20573547228969
 30
0.0
 11
610.5225231303218
 21
-76.21315867228964
 31
0.0
  0
LINE
  5
5C
330
17
100
AcDbEntity
  8
0
  6
Continuous
 62
7
370
18
100
AcDbLine
 10
535.1731731303216
 20
-9.649216272289777
 30
0.0
 11
535.1666211303218
 21
-76.20573547228969
 31
0.0
  0
LINE
  5
5D
330
17
100
AcDbEntity
  8
0
  6
Continuous
 62
7
370
18
100
AcDbLine
 10
552.4498899303217
 20
-9.650915472289626
 30
0.0
 11
535.1731731303216
 21
-9.649216272289777
 31
0.0
  0
LINE
  5
5E
330
17
100
AcDbEntity
  8
0
  6
Continuous
 62
7
370
18
100
AcDbLine
 10
552.4450371303215
 20
-58.93072147228975
 30
0.0
 11
552.4498899303217
 21
-9.650915472289626
 31
0.0
  0
LINE
  5
5F
330
17
100
AcDbEntity
  8
0
  6
Continuous
 62
7
370
18
100
AcDbLine
 10
610.3319049469637
 20
-58.93642027211422
 30
0.0
 11
552.4450371303215
 21
-58.93072147228975
 31
0.0
  0
LINE
  5
60
330
17
100
AcDbEntity
  8
0
  6
Continuous
 62
7
370
18
100
AcDbLine
 10
621.8517339302662
 20
-38.45226963178902
 30
0.0
 11
621.8508483303217
 21
-47.41974667228965
 31
0.0
  0
LINE
  5
61
330
17
100
AcDbEntity
  8
0
  6
Continuous
 62
7
370
18
100
AcDbLine
 10
570.0023631303216
 20
-26.929353072289814
 30
0.0
 11
610.3350567303216
 21
-26.933327472289648
 31
0.0
  0
LINE
  5
62
330
17
100
AcDbEntity
  8
0
  6
Continuous
 62
7
370
18
100
AcDbLine
 10
570.0040623303216
 20
-9.65264707228971
 30
0.0
 11
570.0023631303216
 21
-26.929353072289814
 31
0.0
  0
LINE
  5
63
330
17
100
AcDbEntity
  8
0
  6
Continuous
 62
7
370
18
100
AcDbLine
 10
606.7374417466146
 20
-9.656257816289099
 30
0.0
 11
570.0040623303216
 21
-9.65264707228971
 31
0.0
  0
LINE
  5
64
330
17
100
AcDbEntity
  8
0
  6
Continuous
 62
7
370
18
100
AcDbLine
 10
618.257277930046
 20
10.912656138879811
 30
0.0
 11
618.2563851303216
 21
1.8604121277103332
 31
0.0
  0
LINE
  5
65
330
17
100
AcDbEntity
  8
0
  6
Continuous
 62
7
370
18
100
AcDbLine
 10
552.4530471303217
 20
22.436946527710234
 30
0.0
 11
606.7406007303216
 21
22.431600527710316
 31
0.0
  0
LINE
  5
66
330
17
100
AcDbEntity
  8
0
  6
Continuous
 62
7
370
18
100
AcDbLine
 10
552.4515819303215
 20
7.557437327710204
 30
0.0
 11
552.4530471303217
 21
22.436946527710234
 31
0.0
  0
LINE
  5
67
330
17
100
AcDbEntity
  8
0
  6
Continuous
 62
7
370
18
100
AcDbLine
 10
535.1748687303218
 20
7.559140127710407
 30
0.0
 11
552.4515819303215
 21
7.557437327710204
 31
0.0
  0
LINE
  5
68
330
17
100
AcDbEntity
  8
0
  6
Continuous
 62
7
370
18
100
AcDbLine
 10
535.1780331303216
 20
39.71536252771034
 30
0.0
 11
535.1748687303218
 21
7.559140127710407
 31
0.0
  0
LINE
  5
69
330
17
100
AcDbEntity
  8
0
  6
Continuous
 62
7
370
18
100
AcDbLine
 10
606.6330147303217
 20
39.708328127710274
 30
0.0
 11
535.1780331303216
 21
39.71536252771034
 31
0.0
  0
LINE
  5
6A
330
17
100
AcDbEntity
  8
0
  6
Continuous
 62
7
370
18
100
AcDbLine
 10
635.424374730469
 20
7.549266825772747
 30
0.0
 11
635.4247059303216
 21
10.910966927710433
 31
0.0
  0
LINE
  5
6B
330
17
100
AcDbEntity
  8
0
  6
Continuous
 62
7
370
18
100
AcDbLine
 10
757.7281287302626
 20
10.89892073171427
 30
0.0
 11
757.7195499303216
 21
-76.22764867228966
 31
0.0
  0
LINE
  5
6C
330
17
100
AcDbEntity
  8
0
  6
Continuous
 62
7
370
18
100
AcDbLine
 10
733.2539182908376
 20
22.4191480721654
 30
0.0
 11
746.2114515303217
 21
22.417866527710885
 31
0.0
  0
LINE
  5
6D
330
17
100
AcDbEntity
  8
0
  6
Continuous
 62
7
370
18
100
AcDbLine
 10
721.7263935303217
 20
-76.22410267264365
 30
0.0
 11
721.7349723303216
 21
10.902467327710383
 31
0.0
  0
LINE
  5
6E
330
17
100
AcDbEntity
  8
0
  6
Continuous
 62
7
370
18
100
AcDbLine
 10
704.4496803303216
 20
-76.22240347228967
 30
0.0
 11
721.7263935303217
 21
-76.22410267264365
 31
0.0
  0
LINE
  5
6F
330
17
100
AcDbEntity
  8
0
  6
Continuous
 62
7
370
18
100
AcDbLine
 10
704.4582591306171
 20
10.904169531715297
 30
0.0
 11
704.4496803303216
 21
-76.22240347228967
 31
0.0
  0
LINE
  5
70
330
17
100
AcDbEntity
  8
0
  6
Continuous
 62
7
370
18
100
AcDbLine
 10
679.9840486901301
 20
22.42438607216468
 30
0.0
 11
692.9415819303217
 21
22.423111727710875
 31
0.0
  0
LINE
  5
71
330
17
100
AcDbEntity
  8
0
  6
Continuous
 62
7
370
18
100
AcDbLine
 10
651.1798107303216
 20
-76.21715827228968
 30
0.0
 11
668.4565239303217
 21
-76.21885747228964
 31
0.0
  0
LINE
  5
72
330
17
100
AcDbEntity
  8
0
  6
Continuous
 62
7
370
18
100
AcDbLine
 10
651.1825467303217
 20
-48.42029107228973
 30
0.0
 11
651.1798107303216
 21
-76.21715827228968
 31
0.0
  0
LINE
  5
73
330
17
100
AcDbEntity
  8
0
  6
Continuous
 62
7
370
18
100
AcDbLine
 10
651.1883968695306
 20
10.909413546207816
 30
0.0
 11
651.1825467303217
 21
-48.42029107228973
 31
0.0
  0
LINE
  5
74
330
17
100
AcDbEntity
  8
0
  6
Continuous
 62
7
370
18
100
AcDbLine
 10
692.943284862273
 20
39.699827387467394
 30
0.0
 11
679.9857499539371
 21
39.701102788402295
 31
0.0
  0
LINE
  5
75
330
17
100
AcDbEntity
  8
0
  6
Continuous
 62
7
370
18
100
AcDbLine
 10
757.7195499303216
 20
-76.22764867228966
 30
0.0
 11
774.9962631303217
 21
-76.22934787228962
 31
0.0
  0
LINE
  5
76
330
17
100
AcDbEntity
  8
0
  6
Continuous
 62
7
370
18
100
AcDbLine
 10
774.9962631303217
 20
-76.22934787228962
 30
0.0
 11
775.0048419303216
 21
10.897222127710393
 31
0.0
  0
LINE
  5
77
330
17
100
AcDbEntity
  8
0
  6
Continuous
 62
7
370
18
100
AcDbLine
 10
746.213153553937
 20
39.69457958840235
 30
0.0
 11
733.2556167303217
 21
39.69585772771029
 31
0.0
  0
ARC
  5
78
330
17
100
AcDbEntity
  8
0
  6
Continuous
 62
7
370
18
100
AcDbCircle
 10
679.9829175303216
 20
10.906582127710408
 30
0.0
 40
11.517804000000005
100
AcDbArc
 50
89.99437300000002
 51
179.9943767849996
  0
ARC
  5
79
330
17
100
AcDbEntity
  8
0
  6
Continuous
 62
7
370
18
100
AcDbCircle
 10
496.2458799303215
 20
-47.40738067228972
 30
0.0
 40
28.794528000000007
100
AcDbArc
 50
-90.00563600000001
 51
-0.005637543424726411
  0
ARC
  5
7A
330
17
100
AcDbEntity
  8
0
  6
Continuous
 62
7
370
18
100
AcDbCircle
 10
494.08657473032144
 20
-44.52771547228963
 30
0.0
 40
14.397260400000004
100
AcDbArc
 50
-90.00563038149933
 51
-0.005629000004485457
  0
ARC
  5
7B
330
17
100
AcDbEntity
  8
0
  6
Continuous
 62
7
370
18
100
AcDbCircle
 10
494.08689513032164
 20
-41.27670667228972
 30
0.0
 40
14.397263999999995
100
AcDbArc
 50
-0.005630380091435065
 51
89.99434700000373
  0
ARC
  5
7C
330
17
100
AcDbEntity
  8
0
  6
Continuous
 62
7
370
18
100
AcDbCircle
 10
443.7973719303211
 20
1.9200317277102386
 30
0.0
 40
28.794520799999997
100
AcDbArc
 50
179.9943630000004
 51
-90.0056375448342
  0
ARC
  5
7D
330
17
100
AcDbEntity
  8
0
  6
Continuous
 62
7
370
18
100
AcDbCircle
 10
446.6774259303211
 20
8.050104527710346
 30
0.0
 40
14.397260400000004
100
AcDbArc
 50
89.99434096374503
 51
179.9943680000034
  0
ARC
  5
7E
330
17
100
AcDbEntity
  8
0
  6
Continuous
 62
7
370
18
100
AcDbCircle
 10
446.67710553032157
 20
4.7992001277102645
 30
0.0
 40
14.397264
100
AcDbArc
 50
179.9943552904192
 51
-90.00563100000022
  0
ARC
  5
7F
330
17
100
AcDbEntity
  8
0
  6
Continuous
 62
7
370
18
100
AcDbCircle
 10
496.2467691303216
 20
-38.39746627228965
 30
0.0
 40
28.794528000000007
100
AcDbArc
 50
-0.005636000000009469
 51
89.99435529183049
  0
ARC
  5
80
330
17
100
AcDbEntity
  8
0
  6
Continuous
 62
7
370
18
100
AcDbCircle
 10
607.7895831303215
 20
-40.84786027228961
 30
0.0
 40
31.5605772
100
AcDbArc
 50
-0.6472395222717321
 51
50.62906200000001
  0
ARC
  5
81
330
17
100
AcDbEntity
  8
0
  6
Continuous
 62
7
370
18
100
AcDbCircle
 10
610.5253599303217
 20
-47.41863427228964
 30
0.0
 40
28.794524399999997
100
AcDbArc
 50
-90.0056447074639
 51
-1.8966050000000851
  0
ARC
  5
82
330
17
100
AcDbEntity
  8
0
  6
Continuous
 62
7
370
18
100
AcDbCircle
 10
610.3330407303215
 20
-47.41861627228968
 30
0.0
 40
11.517807600000001
100
AcDbArc
 50
-90.00564999999976
 51
-0.0056232185157436805
  0
ARC
  5
83
330
17
100
AcDbEntity
  8
0
  6
Continuous
 62
7
370
18
100
AcDbCircle
 10
610.3339227303215
 20
-38.45113867228906
 30
0.0
 40
11.517807600000001
100
AcDbArc
 50
-0.005626000000122596
 51
89.99435887490868
  0
ARC
  5
84
330
17
100
AcDbEntity
  8
0
  6
Continuous
 62
7
370
18
100
AcDbCircle
 10
606.7385775303217
 20
1.861549727710326
 30
0.0
 40
11.517807600000001
100
AcDbArc
 50
-90.00564999999976
 51
-0.00565903519349774
  0
ARC
  5
85
330
17
100
AcDbEntity
  8
0
  6
Continuous
 62
7
370
18
100
AcDbCircle
 10
606.7394703303216
 20
10.913792927710347
 30
0.0
 40
11.517807600000001
100
AcDbArc
 50
-0.005655000000008262
 51
89.99437678148458
  0
ARC
  5
86
330
17
100
AcDbEntity
  8
0
  6
Continuous
 62
7
370
18
100
AcDbCircle
 10
606.6301815303218
 20
10.913803727710274
 30
0.0
 40
28.7945208
100
AcDbArc
 50
-0.0056447074637446725
 51
89.99436245587057
  0
ARC
  5
87
330
17
100
AcDbEntity
  8
0
  6
Continuous
 62
7
370
18
100
AcDbCircle
 10
591.8327703303216
 20
8.172961727710344
 30
0.0
 40
43.5960648
100
AcDbArc
 50
-34.38790682232491
 51
-0.8197140000000027
  0
ARC
  5
88
330
17
100
AcDbEntity
  8
0
  6
Continuous
 62
7
370
18
100
AcDbCircle
 10
746.2103211303211
 20
10.900058927710461
 30
0.0
 40
11.51780760000001
100
AcDbArc
 50
-0.005661999999959607
 51
89.9943767814841
  0
ARC
  5
89
330
17
100
AcDbEntity
  8
0
  6
Continuous
 62
7
370
18
100
AcDbCircle
 10
733.2527871303212
 20
10.901336927710418
 30
0.0
 40
11.517811200000006
100
AcDbArc
 50
89.99437300000007
 51
179.9943767849996
  0
ARC
  5
8A
330
17
100
AcDbEntity
  8
0
  6
Continuous
 62
7
370
18
100
AcDbCircle
 10
692.9404515303218
 20
10.905307727710351
 30
0.0
 40
11.517804
100
AcDbArc
 50
-0.005661999999908718
 51
89.99437677972682
  0
ARC
  5
8B
330
17
100
AcDbEntity
  8
0
  6
Continuous
 62
7
370
18
100
AcDbCircle
 10
679.9829175303216
 20
10.906582127710408
 30
0.0
 40
28.794520799999997
100
AcDbArc
 50
89.99436399999996
 51
179.994366
  0
ARC
  5
8C
330
17
100
AcDbEntity
  8
0
  6
Continuous
 62
7
370
18
100
AcDbCircle
 10
691.9353315303215
 20
10.398636527710323
 30
0.0
 40
29.318522400000013
100
AcDbArc
 50
43.79352577849502
 51
88.029817
  0
ARC
  5
8D
330
17
100
AcDbEntity
  8
0
  6
Continuous
 62
7
370
18
100
AcDbCircle
 10
734.2578063303217
 20
10.394467727710435
 30
0.0
 40
29.31852240000016
100
AcDbArc
 50
91.95891249519111
 51
136.1951909999999
  0
CIRCLE
  5
8E
330
17
100
AcDbEntity
  8
0
  6
Continuous
 62
7
370
18
100
AcDbCircle
 10
791.0048419303216
 20
-83.29062547308024
 30
0.0
 40
2.6000000000000005
  0
CIRCLE
  5
8F
330
17
100
AcDbEntity
  8
0
  6
Continuous
 62
7
370
18
100
AcDbCircle
 10
791.0048419303216
 20
46.70937452691987
 30
0.0
 40
2.6000000000000005
  0
ARC
  5
90
330
17
100
AcDbEntity
  8
0
  6
Continuous
 62
7
370
18
100
AcDbCircle
 10
746.2103211303215
 20
10.900058927710461
 30
0.0
 40
28.7945208
100
AcDbArc
 50
-0.0056447081696242565
 51
89.9943639999999
  0
CIRCLE
  5
91
330
17
100
AcDbEntity
  8
0
  6
Continuous
 62
7
370
18
100
AcDbCircle
 10
401.00484193032116
 20
-83.29062547307967
 30
0.0
 40
2.6000000000000005
  0
CIRCLE
  5
92
330
17
100
AcDbEntity
  8
0
  6
Continuous
 62
7
370
18
100
AcDbCircle
 10
401.00484193032116
 20
46.70937452691987
 30
0.0
 40
2.6000000000000005
  0
ARC
  5
93
330
17
100
AcDbEntity
  8
0
  6
Continuous
 62
7
370
18
100
AcDbCircle
 10
443.7982575303213
 20
10.929838127710354
 30
0.0
 40
28.794520800000008
100
AcDbArc
 50
89.99434812920153
 51
179.9943624551659
  0
LINE
  5
94
330
17
100
AcDbEntity
  8
0
  6
Continuous
 62
7
370
18
100
AcDbLine
 10
215.00000000000114
 20
45.08251941847243
 30
0.0
 11
215.00000000000114
 21
81.08251941847243
 31
0.0
  0
LINE
  5
95
330
17
100
AcDbEntity
  8
0
  6
Continuous
 62
7
370
18
100
AcDbLine
 10
177.00000000000068
 20
43.08251941847243
 30
0.0
 11
213.00000000000068
 21
43.08251941847243
 31
0.0
  0
LINE
  5
96
330
17
100
AcDbEntity
  8
0
  6
Continuous
 62
7
370
18
100
AcDbLine
 10
175.00000000000068
 20
81.08251941847243
 30
0.0
 11
175.00000000000068
 21
45.08251941847243
 31
0.0
  0
LINE
  5
97
330
17
100
AcDbEntity
  8
0
  6
Continuous
 62
7
370
18
100
AcDbLine
 10
213.00000000000068
 20
83.08251941847243
 30
0.0
 11
177.00000000000068
 21
83.08251941847243
 31
0.0
  0
LINE
  5
98
330
17
100
AcDbEntity
  8
0
  6
Continuous
 62
7
370
18
100
AcDbLine
 10
215.00000000000114
 20
-4.91748058152757
 30
0.0
 11
215.00000000000114
 21
31.08251941847243
 31
0.0
  0
LINE
  5
99
330
17
100
AcDbEntity
  8
0
  6
Continuous
 62
7
370
18
100
AcDbLine
 10
177.00000000000068
 20
-6.91748058152757
 30
0.0
 11
213.00000000000068
 21
-6.91748058152757
 31
0.0
  0
LINE
  5
9A
330
17
100
AcDbEntity
  8
0
  6
Continuous
 62
7
370
18
100
AcDbLine
 10
175.00000000000068
 20
31.08251941847243
 30
0.0
 11
175.00000000000068
 21
-4.91748058152757
 31
0.0
  0
LINE
  5
9B
330
17
100
AcDbEntity
  8
0
  6
Continuous
 62
7
370
18
100
AcDbLine
 10
213.00000000000068
 20
33.08251941847243
 30
0.0
 11
177.00000000000068
 21
33.08251941847243
 31
0.0
  0
LINE
  5
9C
330
17
100
AcDbEntity
  8
0
  6
Continuous
 62
7
370
18
100
AcDbLine
 10
177.00000000000068
 20
-56.91748058152757
 30
0.0
 11
213.00000000000068
 21
-56.91748058152757
 31
0.0
  0
LINE
  5
9D
330
17
100
AcDbEntity
  8
0
  6
Continuous
 62
7
370
18
100
AcDbLine
 10
175.00000000000068
 20
-18.91748058152757
 30
0.0
 11
175.00000000000068
 21
-54.91748058152757
 31
0.0
  0
LINE
  5
9E
330
17
100
AcDbEntity
  8
0
  6
Continuous
 62
7
370
18
100
AcDbLine
 10
213.00000000000068
 20
-16.91748058152757
 30
0.0
 11
177.00000000000068
 21
-16.91748058152757
 31
0.0
  0
LINE
  5
9F
330
17
100
AcDbEntity
  8
0
  6
Continuous
 62
7
370
18
100
AcDbLine
 10
165.00000000000068
 20
45.08251941847243
 30
0.0
 11
165.00000000000068
 21
81.08251941847243
 31
0.0
  0
LINE
  5
A0
330
17
100
AcDbEntity
  8
0
  6
Continuous
 62
7
370
18
100
AcDbLine
 10
127.00000000000068
 20
43.08251941847243
 30
0.0
 11
163.00000000000068
 21
43.08251941847243
 31
0.0
  0
LINE
  5
A1
330
17
100
AcDbEntity
  8
0
  6
Continuous
 62
7
370
18
100
AcDbLine
 10
125.00000000000068
 20
81.08251941847243
 30
0.0
 11
125.00000000000068
 21
45.08251941847243
 31
0.0
  0
LINE
  5
A2
330
17
100
AcDbEntity
  8
0
  6
Continuous
 62
7
370
18
100
AcDbLine
 10
163.00000000000068
 20
83.08251941847243
 30
0.0
 11
127.00000000000068
 21
83.08251941847243
 31
0.0
  0
LINE
  5
A3
330
17
100
AcDbEntity
  8
0
  6
Continuous
 62
7
370
18
100
AcDbLine
 10
165.00000000000068
 20
-4.91748058152757
 30
0.0
 11
165.00000000000068
 21
31.08251941847243
 31
0.0
  0
LINE
  5
A4
330
17
100
AcDbEntity
  8
0
  6
Continuous
 62
7
370
18
100
AcDbLine
 10
127.00000000000068
 20
-6.91748058152757
 30
0.0
 11
163.00000000000068
 21
-6.91748058152757
 31
0.0
  0
LINE
  5
A5
330
17
100
AcDbEntity
  8
0
  6
Continuous
 62
7
370
18
100
AcDbLine
 10
125.00000000000068
 20
31.08251941847243
 30
0.0
 11
125.00000000000068
 21
-4.91748058152757
 31
0.0
  0
LINE
  5
A6
330
17
100
AcDbEntity
  8
0
  6
Continuous
 62
7
370
18
100
AcDbLine
 10
163.00000000000068
 20
33.08251941847243
 30
0.0
 11
127.00000000000068
 21
33.08251941847243
 31
0.0
  0
LINE
  5
A7
330
17
100
AcDbEntity
  8
0
  6
Continuous
 62
7
370
18
100
AcDbLine
 10
165.00000000000068
 20
-54.91748058152757
 30
0.0
 11
165.00000000000068
 21
-18.91748058152757
 31
0.0
  0
LINE
  5
A8
330
17
100
AcDbEntity
  8
0
  6
Continuous
 62
7
370
18
100
AcDbLine
 10
127.00000000000068
 20
-56.91748058152757
 30
0.0
 11
163.00000000000068
 21
-56.91748058152757
 31
0.0
  0
LINE
  5
A9
330
17
100
AcDbEntity
  8
0
  6
Continuous
 62
7
370
18
100
AcDbLine
 10
125.00000000000068
 20
-18.91748058152757
 30
0.0
 11
125.00000000000068
 21
-54.91748058152757
 31
0.0
  0
LINE
  5
AA
330
17
100
AcDbEntity
  8
0
  6
Continuous
 62
7
370
18
100
AcDbLine
 10
163.00000000000068
 20
-16.91748058152757
 30
0.0
 11
127.00000000000068
 21
-16.91748058152757
 31
0.0
  0
LINE
  5
AB
330
17
100
AcDbEntity
  8
0
  6
Continuous
 62
7
370
18
100
AcDbLine
 10
115.00000000000068
 20
45.08251941847243
 30
0.0
 11
115.00000000000068
 21
81.08251941847243
 31
0.0
  0
LINE
  5
AC
330
17
100
AcDbEntity
  8
0
  6
Continuous
 62
7
370
18
100
AcDbLine
 10
77.00000000000068
 20
43.08251941847243
 30
0.0
 11
113.00000000000068
 21
43.08251941847243
 31
0.0
  0
LINE
  5
AD
330
17
100
AcDbEntity
  8
0
  6
Continuous
 62
7
370
18
100
AcDbLine
 10
75.00000000000068
 20
81.08251941847243
 30
0.0
 11
75.00000000000068
 21
45.08251941847243
 31
0.0
  0
LINE
  5
AE
330
17
100
AcDbEntity
  8
0
  6
Continuous
 62
7
370
18
100
AcDbLine
 10
113.00000000000068
 20
83.08251941847243
 30
0.0
 11
77.00000000000068
 21
83.08251941847243
 31
0.0
  0
LINE
  5
AF
330
17
100
AcDbEntity
  8
0
  6
Continuous
 62
7
370
18
100
AcDbLine
 10
115.00000000000068
 20
-4.91748058152757
 30
0.0
 11
115.00000000000068
 21
31.08251941847243
 31
0.0
  0
LINE
  5
B0
330
17
100
AcDbEntity
  8
0
  6
Continuous
 62
7
370
18
100
AcDbLine
 10
77.00000000000068
 20
-6.91748058152757
 30
0.0
 11
113.00000000000068
 21
-6.91748058152757
 31
0.0
  0
LINE
  5
B1
330
17
100
AcDbEntity
  8
0
  6
Continuous
 62
7
370
18
100
AcDbLine
 10
75.00000000000068
 20
31.08251941847243
 30
0.0
 11
75.00000000000068
 21
-4.91748058152757
 31
0.0
  0
LINE
  5
B2
330
17
100
AcDbEntity
  8
0
  6
Continuous
 62
7
370
18
100
AcDbLine
 10
113.00000000000068
 20
33.08251941847243
 30
0.0
 11
77.00000000000068
 21
33.08251941847243
 31
0.0
  0
LINE
  5
B3
330
17
100
AcDbEntity
  8
0
  6
Continuous
 62
7
370
18
100
AcDbLine
 10
115.00000000000068
 20
-54.91748058152757
 30
0.0
 11
115.00000000000068
 21
-18.91748058152757
 31
0.0
  0
LINE
  5
B4
330
17
100
AcDbEntity
  8
0
  6
Continuous
 62
7
370
18
100
AcDbLine
 10
77.00000000000068
 20
-56.91748058152757
 30
0.0
 11
113.00000000000068
 21
-56.91748058152757
 31
0.0
  0
LINE
  5
B5
330
17
100
AcDbEntity
  8
0
  6
Continuous
 62
7
370
18
100
AcDbLine
 10
75.00000000000068
 20
-18.91748058152757
 30
0.0
 11
75.00000000000068
 21
-54.91748058152757
 31
0.0
  0
LINE
  5
B6
330
17
100
AcDbEntity
  8
0
  6
Continuous
 62
7
370
18
100
AcDbLine
 10
113.00000000000068
 20
-16.91748058152757
 30
0.0
 11
77.00000000000068
 21
-16.91748058152757
 31
0.0
  0
LINE
  5
B7
330
17
100
AcDbEntity
  8
0
  6
Continuous
 62
7
370
18
100
AcDbLine
 10
65.00000000000068
 20
45.08251941847243
 30
0.0
 11
65.00000000000068
 21
81.08251941847243
 31
0.0
  0
LINE
  5
B8
330
17
100
AcDbEntity
  8
0
  6
Continuous
 62
7
370
18
100
AcDbLine
 10
27.000000000000682
 20
43.08251941847243
 30
0.0
 11
63.00000000000068
 21
43.08251941847243
 31
0.0
  0
LINE
  5
B9
330
17
100
AcDbEntity
  8
0
  6
Continuous
 62
7
370
18
100
AcDbLine
 10
25.000000000000682
 20
81.08251941847243
 30
0.0
 11
25.000000000000682
 21
45.08251941847243
 31
0.0
  0
LINE
  5
BA
330
17
100
AcDbEntity
  8
0
  6
Continuous
 62
7
370
18
100
AcDbLine
 10
63.00000000000068
 20
83.08251941847243
 30
0.0
 11
27.000000000000682
 21
83.08251941847243
 31
0.0
  0
LINE
  5
BB
330
17
100
AcDbEntity
  8
0
  6
Continuous
 62
7
370
18
100
AcDbLine
 10
65.00000000000068
 20
-4.91748058152757
 30
0.0
 11
65.00000000000068
 21
31.08251941847243
 31
0.0
  0
LINE
  5
BC
330
17
100
AcDbEntity
  8
0
  6
Continuous
 62
7
370
18
100
AcDbLine
 10
27.000000000000682
 20
-6.91748058152757
 30
0.0
 11
63.00000000000068
 21
-6.91748058152757
 31
0.0
  0
LINE
  5
BD
330
17
100
AcDbEntity
  8
0
  6
Continuous
 62
7
370
18
100
AcDbLine
 10
25.000000000000682
 20
31.08251941847243
 30
0.0
 11
25.000000000000682
 21
-4.91748058152757
 31
0.0
  0
LINE
  5
BE
330
17
100
AcDbEntity
  8
0
  6
Continuous
 62
7
370
18
100
AcDbLine
 10
63.00000000000068
 20
33.08251941847243
 30
0.0
 11
27.000000000000682
 21
33.08251941847243
 31
0.0
  0
LINE
  5
BF
330
17
100
AcDbEntity
  8
0
  6
Continuous
 62
7
370
18
100
AcDbLine
 10
65.00000000000068
 20
-54.91748058152757
 30
0.0
 11
65.00000000000068
 21
-18.91748058152757
 31
0.0
  0
LINE
  5
C0
330
17
100
AcDbEntity
  8
0
  6
Continuous
 62
7
370
18
100
AcDbLine
 10
27.000000000000682
 20
-56.91748058152757
 30
0.0
 11
63.00000000000068
 21
-56.91748058152757
 31
0.0
  0
LINE
  5
C1
330
17
100
AcDbEntity
  8
0
  6
Continuous
 62
7
370
18
100
AcDbLine
 10
25.000000000000682
 20
-18.91748058152757
 30
0.0
 11
25.000000000000682
 21
-54.91748058152757
 31
0.0
  0
LINE
  5
C2
330
17
100
AcDbEntity
  8
0
  6
Continuous
 62
7
370
18
100
AcDbLine
 10
63.00000000000068
 20
-16.91748058152757
 30
0.0
 11
27.000000000000682
 21
-16.91748058152757
 31
0.0
  0
LINE
  5
C3
330
17
100
AcDbEntity
  8
0
  6
Continuous
 62
7
370
18
100
AcDbLine
 10
15.000000000000682
 20
45.08251941847243
 30
0.0
 11
15.000000000000682
 21
81.08251941847243
 31
0.0
  0
LINE
  5
C4
330
17
100
AcDbEntity
  8
0
  6
Continuous
 62
7
370
18
100
AcDbLine
 10
-22.999999999999318
 20
43.08251941847243
 30
0.0
 11
13.000000000000682
 21
43.08251941847243
 31
0.0
  0
LINE
  5
C5
330
17
100
AcDbEntity
  8
0
  6
Continuous
 62
7
370
18
100
AcDbLine
 10
-24.999999999999318
 20
81.08251941847243
 30
0.0
 11
-24.999999999999318
 21
45.08251941847243
 31
0.0
  0
LINE
  5
C6
330
17
100
AcDbEntity
  8
0
  6
Continuous
 62
7
370
18
100
AcDbLine
 10
13.000000000000682
 20
83.08251941847243
 30
0.0
 11
-22.999999999999318
 21
83.08251941847243
 31
0.0
  0
LINE
  5
C7
330
17
100
AcDbEntity
  8
0
  6
Continuous
 62
7
370
18
100
AcDbLine
 10
15.000000000000682
 20
-4.91748058152757
 30
0.0
 11
15.000000000000682
 21
31.08251941847243
 31
0.0
  0
LINE
  5
C8
330
17
100
AcDbEntity
  8
0
  6
Continuous
 62
7
370
18
100
AcDbLine
 10
-22.999999999999318
 20
-6.91748058152757
 30
0.0
 11
13.000000000000682
 21
-6.91748058152757
 31
0.0
  0
LINE
  5
C9
330
17
100
AcDbEntity
  8
0
  6
Continuous
 62
7
370
18
100
AcDbLine
 10
-24.999999999999318
 20
31.08251941847243
 30
0.0
 11
-24.999999999999318
 21
-4.91748058152757
 31
0.0
  0
LINE
  5
CA
330
17
100
AcDbEntity
  8
0
  6
Continuous
 62
7
370
18
100
AcDbLine
 10
13.000000000000682
 20
33.08251941847243
 30
0.0
 11
-22.999999999999318
 21
33.08251941847243
 31
0.0
  0
LINE
  5
CB
330
17
100
AcDbEntity
  8
0
  6
Continuous
 62
7
370
18
100
AcDbLine
 10
15.000000000000682
 20
-54.91748058152757
 30
0.0
 11
15.000000000000682
 21
-18.91748058152757
 31
0.0
  0
LINE
  5
CC
330
17
100
AcDbEntity
  8
0
  6
Continuous
 62
7
370
18
100
AcDbLine
 10
-22.999999999999318
 20
-56.91748058152757
 30
0.0
 11
13.000000000000682
 21
-56.91748058152757
 31
0.0
  0
LINE
  5
CD
330
17
100
AcDbEntity
  8
0
  6
Continuous
 62
7
370
18
100
AcDbLine
 10
-24.999999999999318
 20
-18.91748058152757
 30
0.0
 11
-24.999999999999318
 21
-54.91748058152757
 31
0.0
  0
LINE
  5
CE
330
17
100
AcDbEntity
  8
0
  6
Continuous
 62
7
370
18
100
AcDbLine
 10
13.000000000000682
 20
-16.91748058152757
 30
0.0
 11
-22.999999999999318
 21
-16.91748058152757
 31
0.0
  0
LINE
  5
CF
330
17
100
AcDbEntity
  8
0
  6
Continuous
 62
7
370
18
100
AcDbLine
 10
-34.99999999999932
 20
45.08251941847243
 30
0.0
 11
-34.99999999999932
 21
81.08251941847243
 31
0.0
  0
LINE
  5
D0
330
17
100
AcDbEntity
  8
0
  6
Continuous
 62
7
370
18
100
AcDbLine
 10
-72.99999999999932
 20
43.08251941847243
 30
0.0
 11
-36.99999999999932
 21
43.08251941847243
 31
0.0
  0
LINE
  5
D1
330
17
100
AcDbEntity
  8
0
  6
Continuous
 62
7
370
18
100
AcDbLine
 10
-74.99999999999932
 20
81.08251941847243
 30
0.0
 11
-74.99999999999932
 21
45.08251941847243
 31
0.0
  0
LINE
  5
D2
330
17
100
AcDbEntity
  8
0
  6
Continuous
 62
7
370
18
100
AcDbLine
 10
-36.99999999999932
 20
83.08251941847243
 30
0.0
 11
-72.99999999999932
 21
83.08251941847243
 31
0.0
  0
LINE
  5
D3
330
17
100
AcDbEntity
  8
0
  6
Continuous
 62
7
370
18
100
AcDbLine
 10
-34.99999999999932
 20
-4.91748058152757
 30
0.0
 11
-34.99999999999932
 21
31.08251941847243
 31
0.0
  0
LINE
  5
D4
330
17
100
AcDbEntity
  8
0
  6
Continuous
 62
7
370
18
100
AcDbLine
 10
-72.99999999999932
 20
-6.91748058152757
 30
0.0
 11
-36.99999999999932
 21
-6.91748058152757
 31
0.0
  0
LINE
  5
D5
330
17
100
AcDbEntity
  8
0
  6
Continuous
 62
7
370
18
100
AcDbLine
 10
-74.99999999999932
 20
31.08251941847243
 30
0.0
 11
-74.99999999999932
 21
-4.91748058152757
 31
0.0
  0
LINE
  5
D6
330
17
100
AcDbEntity
  8
0
  6
Continuous
 62
7
370
18
100
AcDbLine
 10
-36.99999999999932
 20
33.08251941847243
 30
0.0
 11
-72.99999999999932
 21
33.08251941847243
 31
0.0
  0
LINE
  5
D7
330
17
100
AcDbEntity
  8
0
  6
Continuous
 62
7
370
18
100
AcDbLine
 10
-34.99999999999932
 20
-54.91748058152757
 30
0.0
 11
-34.99999999999932
 21
-18.91748058152757
 31
0.0
  0
LINE
  5
D8
330
17
100
AcDbEntity
  8
0
  6
Continuous
 62
7
370
18
100
AcDbLine
 10
-72.99999999999932
 20
-56.91748058152757
 30
0.0
 11
-36.99999999999932
 21
-56.91748058152757
 31
0.0
  0
LINE
  5
D9
330
17
100
AcDbEntity
  8
0
  6
Continuous
 62
7
370
18
100
AcDbLine
 10
-74.99999999999932
 20
-18.91748058152757
 30
0.0
 11
-74.99999999999932
 21
-54.91748058152757
 31
0.0
  0
LINE
  5
DA
330
17
100
AcDbEntity
  8
0
  6
Continuous
 62
7
370
18
100
AcDbLine
 10
-36.99999999999932
 20
-16.91748058152757
 30
0.0
 11
-72.99999999999932
 21
-16.91748058152757
 31
0.0
  0
LINE
  5
DB
330
17
100
AcDbEntity
  8
0
  6
Continuous
 62
7
370
18
100
AcDbLine
 10
-84.99999999999932
 20
45.08251941847243
 30
0.0
 11
-84.99999999999932
 21
81.08251941847243
 31
0.0
  0
LINE
  5
DC
330
17
100
AcDbEntity
  8
0
  6
Continuous
 62
7
370
18
100
AcDbLine
 10
-122.99999999999932
 20
43.08251941847243
 30
0.0
 11
-86.99999999999943
 21
43.08251941847243
 31
0.0
  0
LINE
  5
DD
330
17
100
AcDbEntity
  8
0
  6
Continuous
 62
7
370
18
100
AcDbLine
 10
-124.99999999999932
 20
81.08251941847243
 30
0.0
 11
-124.99999999999932
 21
45.08251941847243
 31
0.0
  0
LINE
  5
DE
330
17
100
AcDbEntity
  8
0
  6
Continuous
 62
7
370
18
100
AcDbLine
 10
-86.99999999999943
 20
83.08251941847243
 30
0.0
 11
-122.99999999999932
 21
83.08251941847243
 31
0.0
  0
LINE
  5
DF
330
17
100
AcDbEntity
  8
0
  6
Continuous
 62
7
370
18
100
AcDbLine
 10
-84.99999999999932
 20
-4.91748058152757
 30
0.0
 11
-84.99999999999932
 21
31.08251941847243
 31
0.0
  0
LINE
  5
E0
330
17
100
AcDbEntity
  8
0
  6
Continuous
 62
7
370
18
100
AcDbLine
 10
-122.99999999999932
 20
-6.91748058152757
 30
0.0
 11
-86.99999999999943
 21
-6.91748058152757
 31
0.0
  0
LINE
  5
E1
330
17
100
AcDbEntity
  8
0
  6
Continuous
 62
7
370
18
100
AcDbLine
 10
-124.99999999999932
 20
31.08251941847243
 30
0.0
 11
-124.99999999999932
 21
-4.91748058152757
 31
0.0
  0
LINE
  5
E2
330
17
100
AcDbEntity
  8
0
  6
Continuous
 62
7
370
18
100
AcDbLine
 10
-86.99999999999943
 20
33.08251941847243
 30
0.0
 11
-122.99999999999932
 21
33.08251941847243
 31
0.0
  0
LINE
  5
E3
330
17
100
AcDbEntity
  8
0
  6
Continuous
 62
7
370
18
100
AcDbLine
 10
-84.99999999999932
 20
-54.91748058152757
 30
0.0
 11
-84.99999999999932
 21
-18.91748058152757
 31
0.0
  0
LINE
  5
E4
330
17
100
AcDbEntity
  8
0
  6
Continuous
 62
7
370
18
100
AcDbLine
 10
-122.99999999999932
 20
-56.91748058152757
 30
0.0
 11
-86.99999999999943
 21
-56.91748058152757
 31
0.0
  0
LINE
  5
E5
330
17
100
AcDbEntity
  8
0
  6
Continuous
 62
7
370
18
100
AcDbLine
 10
-124.99999999999932
 20
-18.91748058152757
 30
0.0
 11
-124.99999999999932
 21
-54.91748058152757
 31
0.0
  0
LINE
  5
E6
330
17
100
AcDbEntity
  8
0
  6
Continuous
 62
7
370
18
100
AcDbLine
 10
-86.99999999999943
 20
-16.91748058152757
 30
0.0
 11
-122.99999999999932
 21
-16.91748058152757
 31
0.0
  0
LINE
  5
E7
330
17
100
AcDbEntity
  8
0
  6
Continuous
 62
7
370
18
100
AcDbLine
 10
-134.99999999999932
 20
45.08251941847243
 30
0.0
 11
-134.99999999999932
 21
81.08251941847243
 31
0.0
  0
LINE
  5
E8
330
17
100
AcDbEntity
  8
0
  6
Continuous
 62
7
370
18
100
AcDbLine
 10
-172.99999999999932
 20
43.08251941847243
 30
0.0
 11
-136.99999999999943
 21
43.08251941847243
 31
0.0
  0
LINE
  5
E9
330
17
100
AcDbEntity
  8
0
  6
Continuous
 62
7
370
18
100
AcDbLine
 10
-174.99999999999932
 20
81.08251941847243
 30
0.0
 11
-174.99999999999932
 21
45.08251941847243
 31
0.0
  0
LINE
  5
EA
330
17
100
AcDbEntity
  8
0
  6
Continuous
 62
7
370
18
100
AcDbLine
 10
-136.99999999999943
 20
83.08251941847243
 30
0.0
 11
-172.99999999999932
 21
83.08251941847243
 31
0.0
  0
LINE
  5
EB
330
17
100
AcDbEntity
  8
0
  6
Continuous
 62
7
370
18
100
AcDbLine
 10
-134.99999999999932
 20
-4.91748058152757
 30
0.0
 11
-134.99999999999932
 21
31.08251941847243
 31
0.0
  0
LINE
  5
EC
330
17
100
AcDbEntity
  8
0
  6
Continuous
 62
7
370
18
100
AcDbLine
 10
-172.99999999999932
 20
-6.91748058152757
 30
0.0
 11
-136.99999999999943
 21
-6.91748058152757
 31
0.0
  0
LINE
  5
ED
330
17
100
AcDbEntity
  8
0
  6
Continuous
 62
7
370
18
100
AcDbLine
 10
-174.99999999999932
 20
31.08251941847243
 30
0.0
 11
-174.99999999999932
 21
-4.91748058152757
 31
0.0
  0
LINE
  5
EE
330
17
100
AcDbEntity
  8
0
  6
Continuous
 62
7
370
18
100
AcDbLine
 10
-136.99999999999943
 20
33.08251941847243
 30
0.0
 11
-172.99999999999932
 21
33.08251941847243
 31
0.0
  0
LINE
  5
EF
330
17
100
AcDbEntity
  8
0
  6
Continuous
 62
7
370
18
100
AcDbLine
 10
-134.99999999999932
 20
-54.91748058152757
 30
0.0
 11
-134.99999999999932
 21
-18.91748058152757
 31
0.0
  0
LINE
  5
F0
330
17
100
AcDbEntity
  8
0
  6
Continuous
 62
7
370
18
100
AcDbLine
 10
-172.99999999999932
 20
-56.91748058152757
 30
0.0
 11
-136.99999999999943
 21
-56.91748058152757
 31
0.0
  0
LINE
  5
F1
330
17
100
AcDbEntity
  8
0
  6
Continuous
 62
7
370
18
100
AcDbLine
 10
-174.99999999999932
 20
-18.91748058152757
 30
0.0
 11
-174.99999999999932
 21
-54.91748058152757
 31
0.0
  0
LINE
  5
F2
330
17
100
AcDbEntity
  8
0
  6
Continuous
 62
7
370
18
100
AcDbLine
 10
-136.99999999999943
 20
-16.91748058152757
 30
0.0
 11
-172.99999999999932
 21
-16.91748058152757
 31
0.0
  0
LINE
  5
F3
330
17
100
AcDbEntity
  8
0
  6
Continuous
 62
7
370
18
100
AcDbLine
 10
-184.99999999999932
 20
45.08251941847243
 30
0.0
 11
-184.99999999999932
 21
81.08251941847243
 31
0.0
  0
LINE
  5
F4
330
17
100
AcDbEntity
  8
0
  6
Continuous
 62
7
370
18
100
AcDbLine
 10
-222.99999999999932
 20
43.08251941847243
 30
0.0
 11
-186.99999999999943
 21
43.08251941847243
 31
0.0
  0
LINE
  5
F5
330
17
100
AcDbEntity
  8
0
  6
Continuous
 62
7
370
18
100
AcDbLine
 10
-224.99999999999932
 20
81.08251941847243
 30
0.0
 11
-224.99999999999932
 21
45.08251941847243
 31
0.0
  0
LINE
  5
F6
330
17
100
AcDbEntity
  8
0
  6
Continuous
 62
7
370
18
100
AcDbLine
 10
-186.99999999999943
 20
83.08251941847243
 30
0.0
 11
-222.99999999999932
 21
83.08251941847243
 31
0.0
  0
LINE
  5
F7
330
17
100
AcDbEntity
  8
0
  6
Continuous
 62
7
370
18
100
AcDbLine
 10
-184.99999999999932
 20
-4.91748058152757
 30
0.0
 11
-184.99999999999932
 21
31.08251941847243
 31
0.0
  0
LINE
  5
F8
330
17
100
AcDbEntity
  8
0
  6
Continuous
 62
7
370
18
100
AcDbLine
 10
-222.99999999999932
 20
-6.91748058152757
 30
0.0
 11
-186.99999999999943
 21
-6.91748058152757
 31
0.0
  0
LINE
  5
F9
330
17
100
AcDbEntity
  8
0
  6
Continuous
 62
7
370
18
100
AcDbLine
 10
-224.99999999999932
 20
31.08251941847243
 30
0.0
 11
-224.99999999999932
 21
-4.91748058152757
 31
0.0
  0
LINE
  5
FA
330
17
100
AcDbEntity
  8
0
  6
Continuous
 62
7
370
18
100
AcDbLine
 10
-186.99999999999943
 20
33.08251941847243
 30
0.0
 11
-222.99999999999932
 21
33.08251941847243
 31
0.0
  0
LINE
  5
FB
330
17
100
AcDbEntity
  8
0
  6
Continuous
 62
7
370
18
100
AcDbLine
 10
-184.99999999999932
 20
-54.91748058152757
 30
0.0
 11
-184.99999999999932
 21
-18.91748058152757
 31
0.0
  0
LINE
  5
FC
330
17
100
AcDbEntity
  8
0
  6
Continuous
 62
7
370
18
100
AcDbLine
 10
-222.99999999999932
 20
-56.91748058152757
 30
0.0
 11
-186.99999999999943
 21
-56.91748058152757
 31
0.0
  0
LINE
  5
FD
330
17
100
AcDbEntity
  8
0
  6
Continuous
 62
7
370
18
100
AcDbLine
 10
-224.99999999999932
 20
-18.91748058152757
 30
0.0
 11
-224.99999999999932
 21
-54.91748058152757
 31
0.0
  0
LINE
  5
FE
330
17
100
AcDbEntity
  8
0
  6
Continuous
 62
7
370
18
100
AcDbLine
 10
-186.99999999999943
 20
-16.91748058152757
 30
0.0
 11
-222.99999999999932
 21
-16.91748058152757
 31
0.0
  0
LINE
  5
FF
330
17
100
AcDbEntity
  8
0
  6
Continuous
 62
7
370
18
100
AcDbLine
 10
-234.99999999999886
 20
45.08251941847243
 30
0.0
 11
-234.99999999999886
 21
81.08251941847243
 31
0.0
  0
LINE
  5
100
330
17
100
AcDbEntity
  8
0
  6
Continuous
 62
7
370
18
100
AcDbLine
 10
-272.9999999999993
 20
43.08251941847243
 30
0.0
 11
-236.99999999999943
 21
43.08251941847243
 31
0.0
  0
LINE
  5
101
330
17
100
AcDbEntity
  8
0
  6
Continuous
 62
7
370
18
100
AcDbLine
 10
-274.9999999999993
 20
81.08251941847243
 30
0.0
 11
-274.9999999999993
 21
45.08251941847243
 31
0.0
  0
LINE
  5
102
330
17
100
AcDbEntity
  8
0
  6
Continuous
 62
7
370
18
100
AcDbLine
 10
-236.99999999999943
 20
83.08251941847243
 30
0.0
 11
-272.9999999999993
 21
83.08251941847243
 31
0.0
  0
LINE
  5
103
330
17
100
AcDbEntity
  8
0
  6
Continuous
 62
7
370
18
100
AcDbLine
 10
-234.99999999999886
 20
-4.91748058152757
 30
0.0
 11
-234.99999999999886
 21
31.08251941847243
 31
0.0
  0
LINE
  5
104
330
17
100
AcDbEntity
  8
0
  6
Continuous
 62
7
370
18
100
AcDbLine
 10
-272.9999999999993
 20
-6.91748058152757
 30
0.0
 11
-236.99999999999943
 21
-6.91748058152757
 31
0.0
  0
LINE
  5
105
330
17
100
AcDbEntity
  8
0
  6
Continuous
 62
7
370
18
100
AcDbLine
 10
-274.9999999999993
 20
31.08251941847243
 30
0.0
 11
-274.9999999999993
 21
-4.91748058152757
 31
0.0
  0
LINE
  5
106
330
17
100
AcDbEntity
  8
0
  6
Continuous
 62
7
370
18
100
AcDbLine
 10
-236.99999999999943
 20
33.08251941847243
 30
0.0
 11
-272.9999999999993
 21
33.08251941847243
 31
0.0
  0
LINE
  5
107
330
17
100
AcDbEntity
  8
0
  6
Continuous
 62
7
370
18
100
AcDbLine
 10
-234.99999999999886
 20
-54.91748058152757
 30
0.0
 11
-234.99999999999886
 21
-18.91748058152757
 31
0.0
  0
LINE
  5
108
330
17
100
AcDbEntity
  8
0
  6
Continuous
 62
7
370
18
100
AcDbLine
 10
-272.9999999999993
 20
-56.91748058152757
 30
0.0
 11
-236.99999999999943
 21
-56.91748058152757
 31
0.0
  0
LINE
  5
109
330
17
100
AcDbEntity
  8
0
  6
Continuous
 62
7
370
18
100
AcDbLine
 10
-274.9999999999993
 20
-18.91748058152757
 30
0.0
 11
-274.9999999999993
 21
-54.91748058152757
 31
0.0
  0
LINE
  5
10A
330
17
100
AcDbEntity
  8
0
  6
Continuous
 62
7
370
18
100
AcDbLine
 10
-236.99999999999943
 20
-16.91748058152757
 30
0.0
 11
-272.9999999999993
 21
-16.91748058152757
 31
0.0
  0
LINE
  5
10B
330
17
100
AcDbEntity
  8
0
  6
Continuous
 62
7
370
18
100
AcDbLine
 10
-284.9999999999993
 20
45.08251941847243
 30
0.0
 11
-284.9999999999993
 21
81.08251941847243
 31
0.0
  0
LINE
  5
10C
330
17
100
AcDbEntity
  8
0
  6
Continuous
 62
7
370
18
100
AcDbLine
 10
-322.9999999999993
 20
43.08251941847243
 30
0.0
 11
-286.99999999999943
 21
43.08251941847243
 31
0.0
  0
LINE
  5
10D
330
17
100
AcDbEntity
  8
0
  6
Continuous
 62
7
370
18
100
AcDbLine
 10
-324.9999999999993
 20
81.08251941847243
 30
0.0
 11
-324.9999999999993
 21
45.08251941847243
 31
0.0
  0
LINE
  5
10E
330
17
100
AcDbEntity
  8
0
  6
Continuous
 62
7
370
18
100
AcDbLine
 10
-286.99999999999943
 20
83.08251941847243
 30
0.0
 11
-322.9999999999993
 21
83.08251941847243
 31
0.0
  0
LINE
  5
10F
330
17
100
AcDbEntity
  8
0
  6
Continuous
 62
7
370
18
100
AcDbLine
 10
-284.9999999999993
 20
-4.91748058152757
 30
0.0
 11
-284.9999999999993
 21
31.08251941847243
 31
0.0
  0
LINE
  5
110
330
17
100
AcDbEntity
  8
0
  6
Continuous
 62
7
370
18
100
AcDbLine
 10
-322.9999999999993
 20
-6.91748058152757
 30
0.0
 11
-286.99999999999943
 21
-6.91748058152757
 31
0.0
  0
LINE
  5
111
330
17
100
AcDbEntity
  8
0
  6
Continuous
 62
7
370
18
100
AcDbLine
 10
-324.9999999999993
 20
31.08251941847243
 30
0.0
 11
-324.9999999999993
 21
-4.91748058152757
 31
0.0
  0
LINE
  5
112
330
17
100
AcDbEntity
  8
0
  6
Continuous
 62
7
370
18
100
AcDbLine
 10
-286.99999999999943
 20
33.08251941847243
 30
0.0
 11
-322.9999999999993
 21
33.08251941847243
 31
0.0
  0
LINE
  5
113
330
17
100
AcDbEntity
  8
0
  6
Continuous
 62
7
370
18
100
AcDbLine
 10
-284.9999999999993
 20
-54.91748058152757
 30
0.0
 11
-284.9999999999993
 21
-18.91748058152757
 31
0.0
  0
LINE
  5
114
330
17
100
AcDbEntity
  8
0
  6
Continuous
 62
7
370
18
100
AcDbLine
 10
-322.9999999999993
 20
-56.91748058152757
 30
0.0
 11
-286.99999999999943
 21
-56.91748058152757
 31
0.0
  0
LINE
  5
115
330
17
100
AcDbEntity
  8
0
  6
Continuous
 62
7
370
18
100
AcDbLine
 10
-324.9999999999993
 20
-18.91748058152757
 30
0.0
 11
-324.9999999999993
 21
-54.91748058152757
 31
0.0
  0
LINE
  5
116
330
17
100
AcDbEntity
  8
0
  6
Continuous
 62
7
370
18
100
AcDbLine
 10
-286.99999999999943
 20
-16.91748058152757
 30
0.0
 11
-322.9999999999993
 21
-16.91748058152757
 31
0.0
  0
LINE
  5
117
330
17
100
AcDbEntity
  8
0
  6
Continuous
 62
7
370
18
100
AcDbLine
 10
-334.9999999999993
 20
45.08251941847243
 30
0.0
 11
-334.9999999999993
 21
81.08251941847243
 31
0.0
  0
LINE
  5
118
330
17
100
AcDbEntity
  8
0
  6
Continuous
 62
7
370
18
100
AcDbLine
 10
-372.9999999999993
 20
43.08251941847243
 30
0.0
 11
-336.99999999999943
 21
43.08251941847243
 31
0.0
  0
LINE
  5
119
330
17
100
AcDbEntity
  8
0
  6
Continuous
 62
7
370
18
100
AcDbLine
 10
-374.9999999999993
 20
81.08251941847243
 30
0.0
 11
-374.9999999999993
 21
45.08251941847243
 31
0.0
  0
LINE
  5
11A
330
17
100
AcDbEntity
  8
0
  6
Continuous
 62
7
370
18
100
AcDbLine
 10
-336.99999999999943
 20
83.08251941847243
 30
0.0
 11
-372.9999999999993
 21
83.08251941847243
 31
0.0
  0
LINE
  5
11B
330
17
100
AcDbEntity
  8
0
  6
Continuous
 62
7
370
18
100
AcDbLine
 10
-334.9999999999993
 20
-4.91748058152757
 30
0.0
 11
-334.9999999999993
 21
31.08251941847243
 31
0.0
  0
LINE
  5
11C
330
17
100
AcDbEntity
  8
0
  6
Continuous
 62
7
370
18
100
AcDbLine
 10
-372.9999999999993
 20
-6.91748058152757
 30
0.0
 11
-336.99999999999943
 21
-6.91748058152757
 31
0.0
  0
LINE
  5
11D
330
17
100
AcDbEntity
  8
0
  6
Continuous
 62
7
370
18
100
AcDbLine
 10
-374.9999999999993
 20
31.08251941847243
 30
0.0
 11
-374.9999999999993
 21
-4.91748058152757
 31
0.0
  0
LINE
  5
11E
330
17
100
AcDbEntity
  8
0
  6
Continuous
 62
7
370
18
100
AcDbLine
 10
-336.99999999999943
 20
33.08251941847243
 30
0.0
 11
-372.9999999999993
 21
33.08251941847243
 31
0.0
  0
LINE
  5
11F
330
17
100
AcDbEntity
  8
0
  6
Continuous
 62
7
370
18
100
AcDbLine
 10
-334.9999999999993
 20
-54.91748058152757
 30
0.0
 11
-334.9999999999993
 21
-18.91748058152757
 31
0.0
  0
LINE
  5
120
330
17
100
AcDbEntity
  8
0
  6
Continuous
 62
7
370
18
100
AcDbLine
 10
-372.9999999999993
 20
-56.91748058152757
 30
0.0
 11
-336.99999999999943
 21
-56.91748058152757
 31
0.0
  0
LINE
  5
121
330
17
100
AcDbEntity
  8
0
  6
Continuous
 62
7
370
18
100
AcDbLine
 10
-374.9999999999993
 20
-18.91748058152757
 30
0.0
 11
-374.9999999999993
 21
-54.91748058152757
 31
0.0
  0
LINE
  5
122
330
17
100
AcDbEntity
  8
0
  6
Continuous
 62
7
370
18
100
AcDbLine
 10
-336.99999999999943
 20
-16.91748058152757
 30
0.0
 11
-372.9999999999993
 21
-16.91748058152757
 31
0.0
  0
LINE
  5
123
330
17
100
AcDbEntity
  8
0
  6
Continuous
 62
7
370
18
100
AcDbLine
 10
-384.9999999999993
 20
45.08251941847243
 30
0.0
 11
-384.9999999999993
 21
81.08251941847243
 31
0.0
  0
LINE
  5
124
330
17
100
AcDbEntity
  8
0
  6
Continuous
 62
7
370
18
100
AcDbLine
 10
-422.9999999999993
 20
43.08251941847243
 30
0.0
 11
-386.99999999999943
 21
43.08251941847243
 31
0.0
  0
LINE
  5
125
330
17
100
AcDbEntity
  8
0
  6
Continuous
 62
7
370
18
100
AcDbLine
 10
-424.9999999999993
 20
81.08251941847243
 30
0.0
 11
-424.9999999999993
 21
45.08251941847243
 31
0.0
  0
LINE
  5
126
330
17
100
AcDbEntity
  8
0
  6
Continuous
 62
7
370
18
100
AcDbLine
 10
-386.99999999999943
 20
83.08251941847243
 30
0.0
 11
-422.9999999999993
 21
83.08251941847243
 31
0.0
  0
LINE
  5
127
330
17
100
AcDbEntity
  8
0
  6
Continuous
 62
7
370
18
100
AcDbLine
 10
-384.9999999999993
 20
-4.91748058152757
 30
0.0
 11
-384.9999999999993
 21
31.08251941847243
 31
0.0
  0
LINE
  5
128
330
17
100
AcDbEntity
  8
0
  6
Continuous
 62
7
370
18
100
AcDbLine
 10
-422.9999999999993
 20
-6.91748058152757
 30
0.0
 11
-386.99999999999943
 21
-6.91748058152757
 31
0.0
  0
LINE
  5
129
330
17
100
AcDbEntity
  8
0
  6
Continuous
 62
7
370
18
100
AcDbLine
 10
-424.9999999999993
 20
31.08251941847243
 30
0.0
 11
-424.9999999999993
 21
-4.91748058152757
 31
0.0
  0
LINE
  5
12A
330
17
100
AcDbEntity
  8
0
  6
Continuous
 62
7
370
18
100
AcDbLine
 10
-386.99999999999943
 20
33.08251941847243
 30
0.0
 11
-422.9999999999993
 21
33.08251941847243
 31
0.0
  0
LINE
  5
12B
330
17
100
AcDbEntity
  8
0
  6
Continuous
 62
7
370
18
100
AcDbLine
 10
-384.9999999999993
 20
-54.91748058152757
 30
0.0
 11
-384.9999999999993
 21
-18.91748058152757
 31
0.0
  0
LINE
  5
12C
330
17
100
AcDbEntity
  8
0
  6
Continuous
 62
7
370
18
100
AcDbLine
 10
-422.9999999999993
 20
-56.91748058152757
 30
0.0
 11
-386.99999999999943
 21
-56.91748058152757
 31
0.0
  0
LINE
  5
12D
330
17
100
AcDbEntity
  8
0
  6
Continuous
 62
7
370
18
100
AcDbLine
 10
-424.9999999999993
 20
-18.91748058152757
 30
0.0
 11
-424.9999999999993
 21
-54.91748058152757
 31
0.0
  0
LINE
  5
12E
330
17
100
AcDbEntity
  8
0
  6
Continuous
 62
7
370
18
100
AcDbLine
 10
-386.99999999999943
 20
-16.91748058152757
 30
0.0
 11
-422.9999999999993
 21
-16.91748058152757
 31
0.0
  0
LINE
  5
12F
330
17
100
AcDbEntity
  8
0
  6
Continuous
 62
7
370
18
100
AcDbLine
 10
215.00000000000114
 20
-54.91748058152757
 30
0.0
 11
215.00000000000114
 21
-18.91748058152757
 31
0.0
  0
ARC
  5
130
330
17
100
AcDbEntity
  8
0
  6
Continuous
 62
7
370
18
100
AcDbCircle
 10
213.00000000000068
 20
45.08251941847243
 30
0.0
 40
2.0
100
AcDbArc
 50
-90.00000000000001
 51
0.0
  0
ARC
  5
131
330
17
100
AcDbEntity
  8
0
  6
Continuous
 62
7
370
18
100
AcDbCircle
 10
177.00000000000068
 20
45.08251941847243
 30
0.0
 40
2.0
100
AcDbArc
 50
180.0
 51
-90.00000000000001
  0
ARC
  5
132
330
17
100
AcDbEntity
  8
0
  6
Continuous
 62
7
370
18
100
AcDbCircle
 10
177.00000000000068
 20
81.08251941847243
 30
0.0
 40
2.0
100
AcDbArc
 50
90.0
 51
180.0
  0
ARC
  5
133
330
17
100
AcDbEntity
  8
0
  6
Continuous
 62
7
370
18
100
AcDbCircle
 10
213.00000000000068
 20
81.08251941847243
 30
0.0
 40
2.0
100
AcDbArc
 50
0.0
 51
90.0
  0
ARC
  5
134
330
17
100
AcDbEntity
  8
0
  6
Continuous
 62
7
370
18
100
AcDbCircle
 10
213.00000000000068
 20
-4.91748058152757
 30
0.0
 40
2.0
100
AcDbArc
 50
-90.00000000000001
 51
0.0
  0
ARC
  5
135
330
17
100
AcDbEntity
  8
0
  6
Continuous
 62
7
370
18
100
AcDbCircle
 10
177.00000000000068
 20
-4.91748058152757
 30
0.0
 40
2.0
100
AcDbArc
 50
180.0
 51
-90.00000000000001
  0
ARC
  5
136
330
17
100
AcDbEntity
  8
0
  6
Continuous
 62
7
370
18
100
AcDbCircle
 10
177.00000000000068
 20
31.08251941847243
 30
0.0
 40
2.0
100
AcDbArc
 50
90.0
 51
180.0
  0
ARC
  5
137
330
17
100
AcDbEntity
  8
0
  6
Continuous
 62
7
370
18
100
AcDbCircle
 10
213.00000000000068
 20
31.08251941847243
 30
0.0
 40
2.0
100
AcDbArc
 50
0.0
 51
90.0
  0
ARC
  5
138
330
17
100
AcDbEntity
  8
0
  6
Continuous
 62
7
370
18
100
AcDbCircle
 10
213.00000000000068
 20
-54.91748058152757
 30
0.0
 40
2.0
100
AcDbArc
 50
-90.00000000000001
 51
0.0
  0
ARC
  5
139
330
17
100
AcDbEntity
  8
0
  6
Continuous
 62
7
370
18
100
AcDbCircle
 10
177.00000000000068
 20
-54.91748058152757
 30
0.0
 40
2.0
100
AcDbArc
 50
180.0
 51
-90.00000000000001
  0
ARC
  5
13A
330
17
100
AcDbEntity
  8
0
  6
Continuous
 62
7
370
18
100
AcDbCircle
 10
177.00000000000068
 20
-18.91748058152757
 30
0.0
 40
2.0
100
AcDbArc
 50
90.0
 51
180.0
  0
ARC
  5
13B
330
17
100
AcDbEntity
  8
0
  6
Continuous
 62
7
370
18
100
AcDbCircle
 10
213.00000000000068
 20
-18.91748058152757
 30
0.0
 40
2.0
100
AcDbArc
 50
0.0
 51
90.0
  0
ARC
  5
13C
330
17
100
AcDbEntity
  8
0
  6
Continuous
 62
7
370
18
100
AcDbCircle
 10
163.00000000000068
 20
45.08251941847243
 30
0.0
 40
2.0
100
AcDbArc
 50
-90.00000000000001
 51
0.0
  0
ARC
  5
13D
330
17
100
AcDbEntity
  8
0
  6
Continuous
 62
7
370
18
100
AcDbCircle
 10
127.00000000000068
 20
45.08251941847243
 30
0.0
 40
2.0
100
AcDbArc
 50
180.0
 51
-90.00000000000001
  0
ARC
  5
13E
330
17
100
AcDbEntity
  8
0
  6
Continuous
 62
7
370
18
100
AcDbCircle
 10
127.00000000000068
 20
81.08251941847243
 30
0.0
 40
2.0
100
AcDbArc
 50
90.0
 51
180.0
  0
ARC
  5
13F
330
17
100
AcDbEntity
  8
0
  6
Continuous
 62
7
370
18
100
AcDbCircle
 10
163.00000000000068
 20
81.08251941847243
 30
0.0
 40
2.0
100
AcDbArc
 50
0.0
 51
90.0
  0
ARC
  5
140
330
17
100
AcDbEntity
  8
0
  6
Continuous
 62
7
370
18
100
AcDbCircle
 10
163.00000000000068
 20
-4.91748058152757
 30
0.0
 40
2.0
100
AcDbArc
 50
-90.00000000000001
 51
0.0
  0
ARC
  5
141
330
17
100
AcDbEntity
  8
0
  6
Continuous
 62
7
370
18
100
AcDbCircle
 10
127.00000000000068
 20
-4.91748058152757
 30
0.0
 40
2.0
100
AcDbArc
 50
180.0
 51
-90.00000000000001
  0
ARC
  5
142
330
17
100
AcDbEntity
  8
0
  6
Continuous
 62
7
370
18
100
AcDbCircle
 10
127.00000000000068
 20
31.08251941847243
 30
0.0
 40
2.0
100
AcDbArc
 50
90.0
 51
180.0
  0
ARC
  5
143
330
17
100
AcDbEntity
  8
0
  6
Continuous
 62
7
370
18
100
AcDbCircle
 10
163.00000000000068
 20
31.08251941847243
 30
0.0
 40
2.0
100
AcDbArc
 50
0.0
 51
90.0
  0
ARC
  5
144
330
17
100
AcDbEntity
  8
0
  6
Continuous
 62
7
370
18
100
AcDbCircle
 10
163.00000000000068
 20
-54.91748058152757
 30
0.0
 40
2.0
100
AcDbArc
 50
-90.00000000000001
 51
0.0
  0
ARC
  5
145
330
17
100
AcDbEntity
  8
0
  6
Continuous
 62
7
370
18
100
AcDbCircle
 10
127.00000000000068
 20
-54.91748058152757
 30
0.0
 40
2.0
100
AcDbArc
 50
180.0
 51
-90.00000000000001
  0
ARC
  5
146
330
17
100
AcDbEntity
  8
0
  6
Continuous
 62
7
370
18
100
AcDbCircle
 10
127.00000000000068
 20
-18.91748058152757
 30
0.0
 40
2.0
100
AcDbArc
 50
90.0
 51
180.0
  0
ARC
  5
147
330
17
100
AcDbEntity
  8
0
  6
Continuous
 62
7
370
18
100
AcDbCircle
 10
163.00000000000068
 20
-18.91748058152757
 30
0.0
 40
2.0
100
AcDbArc
 50
0.0
 51
90.0
  0
ARC
  5
148
330
17
100
AcDbEntity
  8
0
  6
Continuous
 62
7
370
18
100
AcDbCircle
 10
113.00000000000068
 20
45.08251941847243
 30
0.0
 40
2.0
100
AcDbArc
 50
-90.00000000000001
 51
0.0
  0
ARC
  5
149
330
17
100
AcDbEntity
  8
0
  6
Continuous
 62
7
370
18
100
AcDbCircle
 10
77.00000000000068
 20
45.08251941847243
 30
0.0
 40
2.0
100
AcDbArc
 50
180.0
 51
-90.00000000000001
  0
ARC
  5
14A
330
17
100
AcDbEntity
  8
0
  6
Continuous
 62
7
370
18
100
AcDbCircle
 10
77.00000000000068
 20
81.08251941847243
 30
0.0
 40
2.0
100
AcDbArc
 50
90.0
 51
180.0
  0
ARC
  5
14B
330
17
100
AcDbEntity
  8
0
  6
Continuous
 62
7
370
18
100
AcDbCircle
 10
113.00000000000068
 20
81.08251941847243
 30
0.0
 40
2.0
100
AcDbArc
 50
0.0
 51
90.0
  0
ARC
  5
14C
330
17
100
AcDbEntity
  8
0
  6
Continuous
 62
7
370
18
100
AcDbCircle
 10
113.00000000000068
 20
-4.91748058152757
 30
0.0
 40
2.0
100
AcDbArc
 50
-90.00000000000001
 51
0.0
  0
ARC
  5
14D
330
17
100
AcDbEntity
  8
0
  6
Continuous
 62
7
370
18
100
AcDbCircle
 10
77.00000000000068
 20
-4.91748058152757
 30
0.0
 40
2.0
100
AcDbArc
 50
180.0
 51
-90.00000000000001
  0
ARC
  5
14E
330
17
100
AcDbEntity
  8
0
  6
Continuous
 62
7
370
18
100
AcDbCircle
 10
77.00000000000068
 20
31.08251941847243
 30
0.0
 40
2.0
100
AcDbArc
 50
90.0
 51
180.0
  0
ARC
  5
14F
330
17
100
AcDbEntity
  8
0
  6
Continuous
 62
7
370
18
100
AcDbCircle
 10
113.00000000000068
 20
31.08251941847243
 30
0.0
 40
2.0
100
AcDbArc
 50
0.0
 51
90.0
  0
ARC
  5
150
330
17
100
AcDbEntity
  8
0
  6
Continuous
 62
7
370
18
100
AcDbCircle
 10
113.00000000000068
 20
-54.91748058152757
 30
0.0
 40
2.0
100
AcDbArc
 50
-90.00000000000001
 51
0.0
  0
ARC
  5
151
330
17
100
AcDbEntity
  8
0
  6
Continuous
 62
7
370
18
100
AcDbCircle
 10
77.00000000000068
 20
-54.91748058152757
 30
0.0
 40
2.0
100
AcDbArc
 50
180.0
 51
-90.00000000000001
  0
ARC
  5
152
330
17
100
AcDbEntity
  8
0
  6
Continuous
 62
7
370
18
100
AcDbCircle
 10
77.00000000000068
 20
-18.91748058152757
 30
0.0
 40
2.0
100
AcDbArc
 50
90.0
 51
180.0
  0
ARC
  5
153
330
17
100
AcDbEntity
  8
0
  6
Continuous
 62
7
370
18
100
AcDbCircle
 10
113.00000000000068
 20
-18.91748058152757
 30
0.0
 40
2.0
100
AcDbArc
 50
0.0
 51
90.0
  0
ARC
  5
154
330
17
100
AcDbEntity
  8
0
  6
Continuous
 62
7
370
18
100
AcDbCircle
 10
63.00000000000068
 20
45.08251941847243
 30
0.0
 40
2.0
100
AcDbArc
 50
-90.00000000000001
 51
0.0
  0
ARC
  5
155
330
17
100
AcDbEntity
  8
0
  6
Continuous
 62
7
370
18
100
AcDbCircle
 10
27.000000000000682
 20
45.08251941847243
 30
0.0
 40
2.0
100
AcDbArc
 50
180.0
 51
-90.00000000000001
  0
ARC
  5
156
330
17
100
AcDbEntity
  8
0
  6
Continuous
 62
7
370
18
100
AcDbCircle
 10
27.000000000000682
 20
81.08251941847243
 30
0.0
 40
2.0
100
AcDbArc
 50
90.0
 51
180.0
  0
ARC
  5
157
330
17
100
AcDbEntity
  8
0
  6
Continuous
 62
7
370
18
100
AcDbCircle
 10
63.00000000000068
 20
81.08251941847243
 30
0.0
 40
2.0
100
AcDbArc
 50
0.0
 51
90.0
  0
ARC
  5
158
330
17
100
AcDbEntity
  8
0
  6
Continuous
 62
7
370
18
100
AcDbCircle
 10
63.00000000000068
 20
-4.91748058152757
 30
0.0
 40
2.0
100
AcDbArc
 50
-90.00000000000001
 51
0.0
  0
ARC
  5
159
330
17
100
AcDbEntity
  8
0
  6
Continuous
 62
7
370
18
100
AcDbCircle
 10
27.000000000000682
 20
-4.91748058152757
 30
0.0
 40
2.0
100
AcDbArc
 50
180.0
 51
-90.00000000000001
  0
ARC
  5
15A
330
17
100
AcDbEntity
  8
0
  6
Continuous
 62
7
370
18
100
AcDbCircle
 10
27.000000000000682
 20
31.08251941847243
 30
0.0
 40
2.0
100
AcDbArc
 50
90.0
 51
180.0
  0
ARC
  5
15B
330
17
100
AcDbEntity
  8
0
  6
Continuous
 62
7
370
18
100
AcDbCircle
 10
63.00000000000068
 20
31.08251941847243
 30
0.0
 40
2.0
100
AcDbArc
 50
0.0
 51
90.0
  0
ARC
  5
15C
330
17
100
AcDbEntity
  8
0
  6
Continuous
 62
7
370
18
100
AcDbCircle
 10
63.00000000000068
 20
-54.91748058152757
 30
0.0
 40
2.0
100
AcDbArc
 50
-90.00000000000001
 51
0.0
  0
ARC
  5
15D
330
17
100
AcDbEntity
  8
0
  6
Continuous
 62
7
370
18
100
AcDbCircle
 10
27.000000000000682
 20
-54.91748058152757
 30
0.0
 40
2.0
100
AcDbArc
 50
180.0
 51
-90.00000000000001
  0
ARC
  5
15E
330
17
100
AcDbEntity
  8
0
  6
Continuous
 62
7
370
18
100
AcDbCircle
 10
27.000000000000682
 20
-18.91748058152757
 30
0.0
 40
2.0
100
AcDbArc
 50
90.0
 51
180.0
  0
ARC
  5
15F
330
17
100
AcDbEntity
  8
0
  6
Continuous
 62
7
370
18
100
AcDbCircle
 10
63.00000000000068
 20
-18.91748058152757
 30
0.0
 40
2.0
100
AcDbArc
 50
0.0
 51
90.0
  0
ARC
  5
160
330
17
100
AcDbEntity
  8
0
  6
Continuous
 62
7
370
18
100
AcDbCircle
 10
13.000000000000682
 20
45.08251941847243
 30
0.0
 40
2.0
100
AcDbArc
 50
-90.00000000000001
 51
0.0
  0
ARC
  5
161
330
17
100
AcDbEntity
  8
0
  6
Continuous
 62
7
370
18
100
AcDbCircle
 10
-22.999999999999318
 20
45.08251941847243
 30
0.0
 40
2.0
100
AcDbArc
 50
180.0
 51
-90.00000000000001
  0
ARC
  5
162
330
17
100
AcDbEntity
  8
0
  6
Continuous
 62
7
370
18
100
AcDbCircle
 10
-22.999999999999318
 20
81.08251941847243
 30
0.0
 40
2.0
100
AcDbArc
 50
90.0
 51
180.0
  0
ARC
  5
163
330
17
100
AcDbEntity
  8
0
  6
Continuous
 62
7
370
18
100
AcDbCircle
 10
13.000000000000682
 20
81.08251941847243
 30
0.0
 40
2.0
100
AcDbArc
 50
0.0
 51
90.0
  0
ARC
  5
164
330
17
100
AcDbEntity
  8
0
  6
Continuous
 62
7
370
18
100
AcDbCircle
 10
13.000000000000682
 20
-4.91748058152757
 30
0.0
 40
2.0
100
AcDbArc
 50
-90.00000000000001
 51
0.0
  0
ARC
  5
165
330
17
100
AcDbEntity
  8
0
  6
Continuous
 62
7
370
18
100
AcDbCircle
 10
-22.999999999999318
 20
-4.91748058152757
 30
0.0
 40
2.0
100
AcDbArc
 50
180.0
 51
-90.00000000000001
  0
ARC
  5
166
330
17
100
AcDbEntity
  8
0
  6
Continuous
 62
7
370
18
100
AcDbCircle
 10
-22.999999999999318
 20
31.08251941847243
 30
0.0
 40
2.0
100
AcDbArc
 50
90.0
 51
180.0
  0
ARC
  5
167
330
17
100
AcDbEntity
  8
0
  6
Continuous
 62
7
370
18
100
AcDbCircle
 10
13.000000000000682
 20
31.08251941847243
 30
0.0
 40
2.0
100
AcDbArc
 50
0.0
 51
90.0
  0
ARC
  5
168
330
17
100
AcDbEntity
  8
0
  6
Continuous
 62
7
370
18
100
AcDbCircle
 10
13.000000000000682
 20
-54.91748058152757
 30
0.0
 40
2.0
100
AcDbArc
 50
-90.00000000000001
 51
0.0
  0
ARC
  5
169
330
17
100
AcDbEntity
  8
0
  6
Continuous
 62
7
370
18
100
AcDbCircle
 10
-22.999999999999318
 20
-54.91748058152757
 30
0.0
 40
2.0
100
AcDbArc
 50
180.0
 51
-90.00000000000001
  0
ARC
  5
16A
330
17
100
AcDbEntity
  8
0
  6
Continuous
 62
7
370
18
100
AcDbCircle
 10
-22.999999999999318
 20
-18.91748058152757
 30
0.0
 40
2.0
100
AcDbArc
 50
90.0
 51
180.0
  0
ARC
  5
16B
330
17
100
AcDbEntity
  8
0
  6
Continuous
 62
7
370
18
100
AcDbCircle
 10
13.000000000000682
 20
-18.91748058152757
 30
0.0
 40
2.0
100
AcDbArc
 50
0.0
 51
90.0
  0
ARC
  5
16C
330
17
100
AcDbEntity
  8
0
  6
Continuous
 62
7
370
18
100
AcDbCircle
 10
-36.99999999999932
 20
45.08251941847243
 30
0.0
 40
2.0
100
AcDbArc
 50
-90.00000000000001
 51
0.0
  0
ARC
  5
16D
330
17
100
AcDbEntity
  8
0
  6
Continuous
 62
7
370
18
100
AcDbCircle
 10
-72.99999999999932
 20
45.08251941847243
 30
0.0
 40
2.0
100
AcDbArc
 50
180.0
 51
-90.00000000000001
  0
ARC
  5
16E
330
17
100
AcDbEntity
  8
0
  6
Continuous
 62
7
370
18
100
AcDbCircle
 10
-72.99999999999932
 20
81.08251941847243
 30
0.0
 40
2.0
100
AcDbArc
 50
90.0
 51
180.0
  0
ARC
  5
16F
330
17
100
AcDbEntity
  8
0
  6
Continuous
 62
7
370
18
100
AcDbCircle
 10
-36.99999999999932
 20
81.08251941847243
 30
0.0
 40
2.0
100
AcDbArc
 50
0.0
 51
90.0
  0
ARC
  5
170
330
17
100
AcDbEntity
  8
0
  6
Continuous
 62
7
370
18
100
AcDbCircle
 10
-36.99999999999932
 20
-4.91748058152757
 30
0.0
 40
2.0
100
AcDbArc
 50
-90.00000000000001
 51
0.0
  0
ARC
  5
171
330
17
100
AcDbEntity
  8
0
  6
Continuous
 62
7
370
18
100
AcDbCircle
 10
-72.99999999999932
 20
-4.91748058152757
 30
0.0
 40
2.0
100
AcDbArc
 50
180.0
 51
-90.00000000000001
  0
ARC
  5
172
330
17
100
AcDbEntity
  8
0
  6
Continuous
 62
7
370
18
100
AcDbCircle
 10
-72.99999999999932
 20
31.08251941847243
 30
0.0
 40
2.0
100
AcDbArc
 50
90.0
 51
180.0
  0
ARC
  5
173
330
17
100
AcDbEntity
  8
0
  6
Continuous
 62
7
370
18
100
AcDbCircle
 10
-36.99999999999932
 20
31.08251941847243
 30
0.0
 40
2.0
100
AcDbArc
 50
0.0
 51
90.0
  0
ARC
  5
174
330
17
100
AcDbEntity
  8
0
  6
Continuous
 62
7
370
18
100
AcDbCircle
 10
-36.99999999999932
 20
-54.91748058152757
 30
0.0
 40
2.0
100
AcDbArc
 50
-90.00000000000001
 51
0.0
  0
ARC
  5
175
330
17
100
AcDbEntity
  8
0
  6
Continuous
 62
7
370
18
100
AcDbCircle
 10
-72.99999999999932
 20
-54.91748058152757
 30
0.0
 40
2.0
100
AcDbArc
 50
180.0
 51
-90.00000000000001
  0
ARC
  5
176
330
17
100
AcDbEntity
  8
0
  6
Continuous
 62
7
370
18
100
AcDbCircle
 10
-72.99999999999932
 20
-18.91748058152757
 30
0.0
 40
2.0
100
AcDbArc
 50
90.0
 51
180.0
  0
ARC
  5
177
330
17
100
AcDbEntity
  8
0
  6
Continuous
 62
7
370
18
100
AcDbCircle
 10
-36.99999999999932
 20
-18.91748058152757
 30
0.0
 40
2.0
100
AcDbArc
 50
0.0
 51
90.0
  0
ARC
  5
178
330
17
100
AcDbEntity
  8
0
  6
Continuous
 62
7
370
18
100
AcDbCircle
 10
-86.99999999999943
 20
45.08251941847243
 30
0.0
 40
2.0
100
AcDbArc
 50
-90.00000000000001
 51
0.0
  0
ARC
  5
179
330
17
100
AcDbEntity
  8
0
  6
Continuous
 62
7
370
18
100
AcDbCircle
 10
-122.99999999999932
 20
45.08251941847243
 30
0.0
 40
2.0
100
AcDbArc
 50
180.0
 51
-90.00000000000001
  0
ARC
  5
17A
330
17
100
AcDbEntity
  8
0
  6
Continuous
 62
7
370
18
100
AcDbCircle
 10
-122.99999999999932
 20
81.08251941847243
 30
0.0
 40
2.0
100
AcDbArc
 50
90.0
 51
180.0
  0
ARC
  5
17B
330
17
100
AcDbEntity
  8
0
  6
Continuous
 62
7
370
18
100
AcDbCircle
 10
-86.99999999999943
 20
81.08251941847243
 30
0.0
 40
2.0
100
AcDbArc
 50
0.0
 51
90.0
  0
ARC
  5
17C
330
17
100
AcDbEntity
  8
0
  6
Continuous
 62
7
370
18
100
AcDbCircle
 10
-86.99999999999943
 20
-4.91748058152757
 30
0.0
 40
2.0
100
AcDbArc
 50
-90.00000000000001
 51
0.0
  0
ARC
  5
17D
330
17
100
AcDbEntity
  8
0
  6
Continuous
 62
7
370
18
100
AcDbCircle
 10
-122.99999999999932
 20
-4.91748058152757
 30
0.0
 40
2.0
100
AcDbArc
 50
180.0
 51
-90.00000000000001
  0
ARC
  5
17E
330
17
100
AcDbEntity
  8
0
  6
Continuous
 62
7
370
18
100
AcDbCircle
 10
-122.99999999999932
 20
31.08251941847243
 30
0.0
 40
2.0
100
AcDbArc
 50
90.0
 51
180.0
  0
ARC
  5
17F
330
17
100
AcDbEntity
  8
0
  6
Continuous
 62
7
370
18
100
AcDbCircle
 10
-86.99999999999943
 20
31.08251941847243
 30
0.0
 40
2.0
100
AcDbArc
 50
0.0
 51
90.0
  0
ARC
  5
180
330
17
100
AcDbEntity
  8
0
  6
Continuous
 62
7
370
18
100
AcDbCircle
 10
-86.99999999999943
 20
-54.91748058152757
 30
0.0
 40
2.0
100
AcDbArc
 50
-90.00000000000001
 51
0.0
  0
ARC
  5
181
330
17
100
AcDbEntity
  8
0
  6
Continuous
 62
7
370
18
100
AcDbCircle
 10
-122.99999999999932
 20
-54.91748058152757
 30
0.0
 40
2.0
100
AcDbArc
 50
180.0
 51
-90.00000000000001
  0
ARC
  5
182
330
17
100
AcDbEntity
  8
0
  6
Continuous
 62
7
370
18
100
AcDbCircle
 10
-122.99999999999932
 20
-18.91748058152757
 30
0.0
 40
2.0
100
AcDbArc
 50
90.0
 51
180.0
  0
ARC
  5
183
330
17
100
AcDbEntity
  8
0
  6
Continuous
 62
7
370
18
100
AcDbCircle
 10
-86.99999999999943
 20
-18.91748058152757
 30
0.0
 40
2.0
100
AcDbArc
 50
0.0
 51
90.0
  0
ARC
  5
184
330
17
100
AcDbEntity
  8
0
  6
Continuous
 62
7
370
18
100
AcDbCircle
 10
-136.99999999999943
 20
45.08251941847243
 30
0.0
 40
2.0
100
AcDbArc
 50
-90.00000000000001
 51
0.0
  0
ARC
  5
185
330
17
100
AcDbEntity
  8
0
  6
Continuous
 62
7
370
18
100
AcDbCircle
 10
-172.99999999999932
 20
45.08251941847243
 30
0.0
 40
2.0
100
AcDbArc
 50
180.0
 51
-90.00000000000001
  0
ARC
  5
186
330
17
100
AcDbEntity
  8
0
  6
Continuous
 62
7
370
18
100
AcDbCircle
 10
-172.99999999999932
 20
81.08251941847243
 30
0.0
 40
2.0
100
AcDbArc
 50
90.0
 51
180.0
  0
ARC
  5
187
330
17
100
AcDbEntity
  8
0
  6
Continuous
 62
7
370
18
100
AcDbCircle
 10
-136.99999999999943
 20
81.08251941847243
 30
0.0
 40
2.0
100
AcDbArc
 50
0.0
 51
90.0
  0
ARC
  5
188
330
17
100
AcDbEntity
  8
0
  6
Continuous
 62
7
370
18
100
AcDbCircle
 10
-136.99999999999943
 20
-4.91748058152757
 30
0.0
 40
2.0
100
AcDbArc
 50
-90.00000000000001
 51
0.0
  0
ARC
  5
189
330
17
100
AcDbEntity
  8
0
  6
Continuous
 62
7
370
18
100
AcDbCircle
 10
-172.99999999999932
 20
-4.91748058152757
 30
0.0
 40
2.0
100
AcDbArc
 50
180.0
 51
-90.00000000000001
  0
ARC
  5
18A
330
17
100
AcDbEntity
  8
0
  6
Continuous
 62
7
370
18
100
AcDbCircle
 10
-172.99999999999932
 20
31.08251941847243
 30
0.0
 40
2.0
100
AcDbArc
 50
90.0
 51
180.0
  0
ARC
  5
18B
330
17
100
AcDbEntity
  8
0
  6
Continuous
 62
7
370
18
100
AcDbCircle
 10
-136.99999999999943
 20
31.08251941847243
 30
0.0
 40
2.0
100
AcDbArc
 50
0.0
 51
90.0
  0
ARC
  5
18C
330
17
100
AcDbEntity
  8
0
  6
Continuous
 62
7
370
18
100
AcDbCircle
 10
-136.99999999999943
 20
-54.91748058152757
 30
0.0
 40
2.0
100
AcDbArc
 50
-90.00000000000001
 51
0.0
  0
ARC
  5
18D
330
17
100
AcDbEntity
  8
0
  6
Continuous
 62
7
370
18
100
AcDbCircle
 10
-172.99999999999932
 20
-54.91748058152757
 30
0.0
 40
2.0
100
AcDbArc
 50
180.0
 51
-90.00000000000001
  0
ARC
  5
18E
330
17
100
AcDbEntity
  8
0
  6
Continuous
 62
7
370
18
100
AcDbCircle
 10
-172.99999999999932
 20
-18.91748058152757
 30
0.0
 40
2.0
100
AcDbArc
 50
90.0
 51
180.0
  0
ARC
  5
18F
330
17
100
AcDbEntity
  8
0
  6
Continuous
 62
7
370
18
100
AcDbCircle
 10
-136.99999999999943
 20
-18.91748058152757
 30
0.0
 40
2.0
100
AcDbArc
 50
0.0
 51
90.0
  0
ARC
  5
190
330
17
100
AcDbEntity
  8
0
  6
Continuous
 62
7
370
18
100
AcDbCircle
 10
-186.99999999999943
 20
45.08251941847243
 30
0.0
 40
2.0
100
AcDbArc
 50
-90.00000000000001
 51
0.0
  0
ARC
  5
191
330
17
100
AcDbEntity
  8
0
  6
Continuous
 62
7
370
18
100
AcDbCircle
 10
-222.99999999999932
 20
45.08251941847243
 30
0.0
 40
2.0
100
AcDbArc
 50
180.0
 51
-90.00000000000001
  0
ARC
  5
192
330
17
100
AcDbEntity
  8
0
  6
Continuous
 62
7
370
18
100
AcDbCircle
 10
-222.99999999999932
 20
81.08251941847243
 30
0.0
 40
2.0
100
AcDbArc
 50
90.0
 51
180.0
  0
ARC
  5
193
330
17
100
AcDbEntity
  8
0
  6
Continuous
 62
7
370
18
100
AcDbCircle
 10
-186.99999999999943
 20
81.08251941847243
 30
0.0
 40
2.0
100
AcDbArc
 50
0.0
 51
90.0
  0
ARC
  5
194
330
17
100
AcDbEntity
  8
0
  6
Continuous
 62
7
370
18
100
AcDbCircle
 10
-186.99999999999943
 20
-4.91748058152757
 30
0.0
 40
2.0
100
AcDbArc
 50
-90.00000000000001
 51
0.0
  0
ARC
  5
195
330
17
100
AcDbEntity
  8
0
  6
Continuous
 62
7
370
18
100
AcDbCircle
 10
-222.99999999999932
 20
-4.91748058152757
 30
0.0
 40
2.0
100
AcDbArc
 50
180.0
 51
-90.00000000000001
  0
ARC
  5
196
330
17
100
AcDbEntity
  8
0
  6
Continuous
 62
7
370
18
100
AcDbCircle
 10
-222.99999999999932
 20
31.08251941847243
 30
0.0
 40
2.0
100
AcDbArc
 50
90.0
 51
180.0
  0
ARC
  5
197
330
17
100
AcDbEntity
  8
0
  6
Continuous
 62
7
370
18
100
AcDbCircle
 10
-186.99999999999943
 20
31.08251941847243
 30
0.0
 40
2.0
100
AcDbArc
 50
0.0
 51
90.0
  0
ARC
  5
198
330
17
100
AcDbEntity
  8
0
  6
Continuous
 62
7
370
18
100
AcDbCircle
 10
-186.99999999999943
 20
-54.91748058152757
 30
0.0
 40
2.0
100
AcDbArc
 50
-90.00000000000001
 51
0.0
  0
ARC
  5
199
330
17
100
AcDbEntity
  8
0
  6
Continuous
 62
7
370
18
100
AcDbCircle
 10
-222.99999999999932
 20
-54.91748058152757
 30
0.0
 40
2.0
100
AcDbArc
 50
180.0
 51
-90.00000000000001
  0
ARC
  5
19A
330
17
100
AcDbEntity
  8
0
  6
Continuous
 62
7
370
18
100
AcDbCircle
 10
-222.99999999999932
 20
-18.91748058152757
 30
0.0
 40
2.0
100
AcDbArc
 50
90.0
 51
180.0
  0
ARC
  5
19B
330
17
100
AcDbEntity
  8
0
  6
Continuous
 62
7
370
18
100
AcDbCircle
 10
-186.99999999999943
 20
-18.91748058152757
 30
0.0
 40
2.0
100
AcDbArc
 50
0.0
 51
90.0
  0
ARC
  5
19C
330
17
100
AcDbEntity
  8
0
  6
Continuous
 62
7
370
18
100
AcDbCircle
 10
-236.99999999999943
 20
45.08251941847243
 30
0.0
 40
2.0
100
AcDbArc
 50
-90.00000000000001
 51
0.0
  0
ARC
  5
19D
330
17
100
AcDbEntity
  8
0
  6
Continuous
 62
7
370
18
100
AcDbCircle
 10
-272.9999999999993
 20
45.08251941847243
 30
0.0
 40
2.0
100
AcDbArc
 50
180.0
 51
-90.00000000000001
  0
ARC
  5
19E
330
17
100
AcDbEntity
  8
0
  6
Continuous
 62
7
370
18
100
AcDbCircle
 10
-272.9999999999993
 20
81.08251941847243
 30
0.0
 40
2.0
100
AcDbArc
 50
90.0
 51
180.0
  0
ARC
  5
19F
330
17
100
AcDbEntity
  8
0
  6
Continuous
 62
7
370
18
100
AcDbCircle
 10
-236.99999999999943
 20
81.08251941847243
 30
0.0
 40
2.0
100
AcDbArc
 50
0.0
 51
90.0
  0
ARC
  5
1A0
330
17
100
AcDbEntity
  8
0
  6
Continuous
 62
7
370
18
100
AcDbCircle
 10
-236.99999999999943
 20
-4.91748058152757
 30
0.0
 40
2.0
100
AcDbArc
 50
-90.00000000000001
 51
0.0
  0
ARC
  5
1A1
330
17
100
AcDbEntity
  8
0
  6
Continuous
 62
7
370
18
100
AcDbCircle
 10
-272.9999999999993
 20
-4.91748058152757
 30
0.0
 40
2.0
100
AcDbArc
 50
180.0
 51
-90.00000000000001
  0
ARC
  5
1A2
330
17
100
AcDbEntity
  8
0
  6
Continuous
 62
7
370
18
100
AcDbCircle
 10
-272.9999999999993
 20
31.08251941847243
 30
0.0
 40
2.0
100
AcDbArc
 50
90.0
 51
180.0
  0
ARC
  5
1A3
330
17
100
AcDbEntity
  8
0
  6
Continuous
 62
7
370
18
100
AcDbCircle
 10
-236.99999999999943
 20
31.08251941847243
 30
0.0
 40
2.0
100
AcDbArc
 50
0.0
 51
90.0
  0
ARC
  5
1A4
330
17
100
AcDbEntity
  8
0
  6
Continuous
 62
7
370
18
100
AcDbCircle
 10
-236.99999999999943
 20
-54.91748058152757
 30
0.0
 40
2.0
100
AcDbArc
 50
-90.00000000000001
 51
0.0
  0
ARC
  5
1A5
330
17
100
AcDbEntity
  8
0
  6
Continuous
 62
7
370
18
100
AcDbCircle
 10
-272.9999999999993
 20
-54.91748058152757
 30
0.0
 40
2.0
100
AcDbArc
 50
180.0
 51
-90.00000000000001
  0
ARC
  5
1A6
330
17
100
AcDbEntity
  8
0
  6
Continuous
 62
7
370
18
100
AcDbCircle
 10
-272.9999999999993
 20
-18.91748058152757
 30
0.0
 40
2.0
100
AcDbArc
 50
90.0
 51
180.0
  0
ARC
  5
1A7
330
17
100
AcDbEntity
  8
0
  6
Continuous
 62
7
370
18
100
AcDbCircle
 10
-236.99999999999943
 20
-18.91748058152757
 30
0.0
 40
2.0
100
AcDbArc
 50
0.0
 51
90.0
  0
ARC
  5
1A8
330
17
100
AcDbEntity
  8
0
  6
Continuous
 62
7
370
18
100
AcDbCircle
 10
-286.99999999999943
 20
45.08251941847243
 30
0.0
 40
2.0
100
AcDbArc
 50
-90.00000000000001
 51
0.0
  0
ARC
  5
1A9
330
17
100
AcDbEntity
  8
0
  6
Continuous
 62
7
370
18
100
AcDbCircle
 10
-322.9999999999993
 20
45.08251941847243
 30
0.0
 40
2.0
100
AcDbArc
 50
180.0
 51
-90.00000000000001
  0
ARC
  5
1AA
330
17
100
AcDbEntity
  8
0
  6
Continuous
 62
7
370
18
100
AcDbCircle
 10
-322.9999999999993
 20
81.08251941847243
 30
0.0
 40
2.0
100
AcDbArc
 50
90.0
 51
180.0
  0
ARC
  5
1AB
330
17
100
AcDbEntity
  8
0
  6
Continuous
 62
7
370
18
100
AcDbCircle
 10
-286.99999999999943
 20
81.08251941847243
 30
0.0
 40
2.0
100
AcDbArc
 50
0.0
 51
90.0
  0
ARC
  5
1AC
330
17
100
AcDbEntity
  8
0
  6
Continuous
 62
7
370
18
100
AcDbCircle
 10
-286.99999999999943
 20
-4.91748058152757
 30
0.0
 40
2.0
100
AcDbArc
 50
-90.00000000000001
 51
0.0
  0
ARC
  5
1AD
330
17
100
AcDbEntity
  8
0
  6
Continuous
 62
7
370
18
100
AcDbCircle
 10
-322.9999999999993
 20
-4.91748058152757
 30
0.0
 40
2.0
100
AcDbArc
 50
180.0
 51
-90.00000000000001
  0
ARC
  5
1AE
330
17
100
AcDbEntity
  8
0
  6
Continuous
 62
7
370
18
100
AcDbCircle
 10
-322.9999999999993
 20
31.08251941847243
 30
0.0
 40
2.0
100
AcDbArc
 50
90.0
 51
180.0
  0
ARC
  5
1AF
330
17
100
AcDbEntity
  8
0
  6
Continuous
 62
7
370
18
100
AcDbCircle
 10
-286.99999999999943
 20
31.08251941847243
 30
0.0
 40
2.0
100
AcDbArc
 50
0.0
 51
90.0
  0
ARC
  5
1B0
330
17
100
AcDbEntity
  8
0
  6
Continuous
 62
7
370
18
100
AcDbCircle
 10
-286.99999999999943
 20
-54.91748058152757
 30
0.0
 40
2.0
100
AcDbArc
 50
-90.00000000000001
 51
0.0
  0
ARC
  5
1B1
330
17
100
AcDbEntity
  8
0
  6
Continuous
 62
7
370
18
100
AcDbCircle
 10
-322.9999999999993
 20
-54.91748058152757
 30
0.0
 40
2.0
100
AcDbArc
 50
180.0
 51
-90.00000000000001
  0
ARC
  5
1B2
330
17
100
AcDbEntity
  8
0
  6
Continuous
 62
7
370
18
100
AcDbCircle
 10
-322.9999999999993
 20
-18.91748058152757
 30
0.0
 40
2.0
100
AcDbArc
 50
90.0
 51
180.0
  0
ARC
  5
1B3
330
17
100
AcDbEntity
  8
0
  6
Continuous
 62
7
370
18
100
AcDbCircle
 10
-286.99999999999943
 20
-18.91748058152757
 30
0.0
 40
2.0
100
AcDbArc
 50
0.0
 51
90.0
  0
ARC
  5
1B4
330
17
100
AcDbEntity
  8
0
  6
Continuous
 62
7
370
18
100
AcDbCircle
 10
-336.99999999999943
 20
45.08251941847243
 30
0.0
 40
2.0
100
AcDbArc
 50
-90.00000000000001
 51
0.0
  0
ARC
  5
1B5
330
17
100
AcDbEntity
  8
0
  6
Continuous
 62
7
370
18
100
AcDbCircle
 10
-372.9999999999993
 20
45.08251941847243
 30
0.0
 40
2.0
100
AcDbArc
 50
180.0
 51
-90.00000000000001
  0
ARC
  5
1B6
330
17
100
AcDbEntity
  8
0
  6
Continuous
 62
7
370
18
100
AcDbCircle
 10
-372.9999999999993
 20
81.08251941847243
 30
0.0
 40
2.0
100
AcDbArc
 50
90.0
 51
180.0
  0
ARC
  5
1B7
330
17
100
AcDbEntity
  8
0
  6
Continuous
 62
7
370
18
100
AcDbCircle
 10
-336.99999999999943
 20
81.08251941847243
 30
0.0
 40
2.0
100
AcDbArc
 50
0.0
 51
90.0
  0
ARC
  5
1B8
330
17
100
AcDbEntity
  8
0
  6
Continuous
 62
7
370
18
100
AcDbCircle
 10
-336.99999999999943
 20
-4.91748058152757
 30
0.0
 40
2.0
100
AcDbArc
 50
-90.00000000000001
 51
0.0
  0
ARC
  5
1B9
330
17
100
AcDbEntity
  8
0
  6
Continuous
 62
7
370
18
100
AcDbCircle
 10
-372.9999999999993
 20
-4.91748058152757
 30
0.0
 40
2.0
100
AcDbArc
 50
180.0
 51
-90.00000000000001
  0
ARC
  5
1BA
330
17
100
AcDbEntity
  8
0
  6
Continuous
 62
7
370
18
100
AcDbCircle
 10
-372.9999999999993
 20
31.08251941847243
 30
0.0
 40
2.0
100
AcDbArc
 50
90.0
 51
180.0
  0
ARC
  5
1BB
330
17
100
AcDbEntity
  8
0
  6
Continuous
 62
7
370
18
100
AcDbCircle
 10
-336.99999999999943
 20
31.08251941847243
 30
0.0
 40
2.0
100
AcDbArc
 50
0.0
 51
90.0
  0
ARC
  5
1BC
330
17
100
AcDbEntity
  8
0
  6
Continuous
 62
7
370
18
100
AcDbCircle
 10
-336.99999999999943
 20
-54.91748058152757
 30
0.0
 40
2.0
100
AcDbArc
 50
-90.00000000000001
 51
0.0
  0
ARC
  5
1BD
330
17
100
AcDbEntity
  8
0
  6
Continuous
 62
7
370
18
100
AcDbCircle
 10
-372.9999999999993
 20
-54.91748058152757
 30
0.0
 40
2.0
100
AcDbArc
 50
180.0
 51
-90.00000000000001
  0
ARC
  5
1BE
330
17
100
AcDbEntity
  8
0
  6
Continuous
 62
7
370
18
100
AcDbCircle
 10
-372.9999999999993
 20
-18.91748058152757
 30
0.0
 40
2.0
100
AcDbArc
 50
90.0
 51
180.0
  0
ARC
  5
1BF
330
17
100
AcDbEntity
  8
0
  6
Continuous
 62
7
370
18
100
AcDbCircle
 10
-336.99999999999943
 20
-18.91748058152757
 30
0.0
 40
2.0
100
AcDbArc
 50
0.0
 51
90.0
  0
ARC
  5
1C0
330
17
100
AcDbEntity
  8
0
  6
Continuous
 62
7
370
18
100
AcDbCircle
 10
-386.99999999999943
 20
45.08251941847243
 30
0.0
 40
2.0
100
AcDbArc
 50
-90.00000000000001
 51
0.0
  0
ARC
  5
1C1
330
17
100
AcDbEntity
  8
0
  6
Continuous
 62
7
370
18
100
AcDbCircle
 10
-422.9999999999993
 20
45.08251941847243
 30
0.0
 40
2.0
100
AcDbArc
 50
180.0
 51
-90.00000000000001
  0
ARC
  5
1C2
330
17
100
AcDbEntity
  8
0
  6
Continuous
 62
7
370
18
100
AcDbCircle
 10
-422.9999999999993
 20
81.08251941847243
 30
0.0
 40
2.0
100
AcDbArc
 50
90.0
 51
180.0
  0
ARC
  5
1C3
330
17
100
AcDbEntity
  8
0
  6
Continuous
 62
7
370
18
100
AcDbCircle
 10
-386.99999999999943
 20
81.08251941847243
 30
0.0
 40
2.0
100
AcDbArc
 50
0.0
 51
90.0
  0
ARC
  5
1C4
330
17
100
AcDbEntity
  8
0
  6
Continuous
 62
7
370
18
100
AcDbCircle
 10
-386.99999999999943
 20
-4.91748058152757
 30
0.0
 40
2.0
100
AcDbArc
 50
-90.00000000000001
 51
0.0
  0
ARC
  5
1C5
330
17
100
AcDbEntity
  8
0
  6
Continuous
 62
7
370
18
100
AcDbCircle
 10
-422.9999999999993
 20
-4.91748058152757
 30
0.0
 40
2.0
100
AcDbArc
 50
180.0
 51
-90.00000000000001
  0
ARC
  5
1C6
330
17
100
AcDbEntity
  8
0
  6
Continuous
 62
7
370
18
100
AcDbCircle
 10
-422.9999999999993
 20
31.08251941847243
 30
0.0
 40
2.0
100
AcDbArc
 50
90.0
 51
180.0
  0
ARC
  5
1C7
330
17
100
AcDbEntity
  8
0
  6
Continuous
 62
7
370
18
100
AcDbCircle
 10
-386.99999999999943
 20
31.08251941847243
 30
0.0
 40
2.0
100
AcDbArc
 50
0.0
 51
90.0
  0
ARC
  5
1C8
330
17
100
AcDbEntity
  8
0
  6
Continuous
 62
7
370
18
100
AcDbCircle
 10
-386.99999999999943
 20
-54.91748058152757
 30
0.0
 40
2.0
100
AcDbArc
 50
-90.00000000000001
 51
0.0
  0
ARC
  5
1C9
330
17
100
AcDbEntity
  8
0
  6
Continuous
 62
7
370
18
100
AcDbCircle
 10
-422.9999999999993
 20
-18.91748058152757
 30
0.0
 40
2.0
100
AcDbArc
 50
90.0
 51
180.0
  0
ARC
  5
1CA
330
17
100
AcDbEntity
  8
0
  6
Continuous
 62
7
370
18
100
AcDbCircle
 10
-386.99999999999943
 20
-18.91748058152757
 30
0.0
 40
2.0
100
AcDbArc
 50
0.0
 51
90.0
  0
ARC
  5
1CB
330
17
100
AcDbEntity
  8
0
  6
Continuous
 62
7
370
18
100
AcDbCircle
 10
-422.9999999999993
 20
-54.91748058152757
 30
0.0
 40
2.0
100
AcDbArc
 50
180.0
 51
-90.00000000000001
  0
LINE
  5
1CC
330
17
100
AcDbEntity
  8
0
  6
Continuous
 62
7
370
18
100
AcDbLine
 10
-534.9999999999993
 20
45.08251941847175
 30
0.0
 11
-534.9999999999993
 21
81.08251941847175
 31
0.0
  0
LINE
  5
1CD
330
17
100
AcDbEntity
  8
0
  6
Continuous
 62
7
370
18
100
AcDbLine
 10
-572.9999999999993
 20
43.08251941847175
 30
0.0
 11
-536.9999999999993
 21
43.08251941847175
 31
0.0
  0
LINE
  5
1CE
330
17
100
AcDbEntity
  8
0
  6
Continuous
 62
7
370
18
100
AcDbLine
 10
-574.9999999999993
 20
81.08251941847175
 30
0.0
 11
-574.9999999999993
 21
45.08251941847175
 31
0.0
  0
LINE
  5
1CF
330
17
100
AcDbEntity
  8
0
  6
Continuous
 62
7
370
18
100
AcDbLine
 10
-536.9999999999993
 20
83.08251941847175
 30
0.0
 11
-572.9999999999993
 21
83.08251941847175
 31
0.0
  0
LINE
  5
1D0
330
17
100
AcDbEntity
  8
0
  6
Continuous
 62
7
370
18
100
AcDbLine
 10
-534.9999999999993
 20
-4.9174805815282525
 30
0.0
 11
-534.9999999999993
 21
31.082519418471747
 31
0.0
  0
LINE
  5
1D1
330
17
100
AcDbEntity
  8
0
  6
Continuous
 62
7
370
18
100
AcDbLine
 10
-572.9999999999993
 20
-6.9174805815282525
 30
0.0
 11
-536.9999999999993
 21
-6.9174805815282525
 31
0.0
  0
LINE
  5
1D2
330
17
100
AcDbEntity
  8
0
  6
Continuous
 62
7
370
18
100
AcDbLine
 10
-574.9999999999993
 20
31.082519418471747
 30
0.0
 11
-574.9999999999993
 21
-4.9174805815282525
 31
0.0
  0
LINE
  5
1D3
330
17
100
AcDbEntity
  8
0
  6
Continuous
 62
7
370
18
100
AcDbLine
 10
-536.9999999999993
 20
33.08251941847175
 30
0.0
 11
-572.9999999999993
 21
33.08251941847175
 31
0.0
  0
LINE
  5
1D4
330
17
100
AcDbEntity
  8
0
  6
Continuous
 62
7
370
18
100
AcDbLine
 10
-572.9999999999993
 20
-56.91748058152825
 30
0.0
 11
-536.9999999999993
 21
-56.91748058152825
 31
0.0
  0
LINE
  5
1D5
330
17
100
AcDbEntity
  8
0
  6
Continuous
 62
7
370
18
100
AcDbLine
 10
-574.9999999999993
 20
-18.917480581528253
 30
0.0
 11
-574.9999999999993
 21
-54.91748058152814
 31
0.0
  0
LINE
  5
1D6
330
17
100
AcDbEntity
  8
0
  6
Continuous
 62
7
370
18
100
AcDbLine
 10
-536.9999999999993
 20
-16.917480581528253
 30
0.0
 11
-572.9999999999993
 21
-16.917480581528253
 31
0.0
  0
LINE
  5
1D7
330
17
100
AcDbEntity
  8
0
  6
Continuous
 62
7
370
18
100
AcDbLine
 10
-584.9999999999993
 20
45.08251941847175
 30
0.0
 11
-584.9999999999993
 21
81.08251941847175
 31
0.0
  0
LINE
  5
1D8
330
17
100
AcDbEntity
  8
0
  6
Continuous
 62
7
370
18
100
AcDbLine
 10
-622.9999999999995
 20
43.08251941847175
 30
0.0
 11
-586.9999999999993
 21
43.08251941847175
 31
0.0
  0
LINE
  5
1D9
330
17
100
AcDbEntity
  8
0
  6
Continuous
 62
7
370
18
100
AcDbLine
 10
-624.9999999999993
 20
81.08251941847175
 30
0.0
 11
-624.9999999999993
 21
45.08251941847175
 31
0.0
  0
LINE
  5
1DA
330
17
100
AcDbEntity
  8
0
  6
Continuous
 62
7
370
18
100
AcDbLine
 10
-586.9999999999993
 20
83.08251941847175
 30
0.0
 11
-622.9999999999995
 21
83.08251941847175
 31
0.0
  0
LINE
  5
1DB
330
17
100
AcDbEntity
  8
0
  6
Continuous
 62
7
370
18
100
AcDbLine
 10
-584.9999999999993
 20
-4.9174805815282525
 30
0.0
 11
-584.9999999999993
 21
31.082519418471747
 31
0.0
  0
LINE
  5
1DC
330
17
100
AcDbEntity
  8
0
  6
Continuous
 62
7
370
18
100
AcDbLine
 10
-622.9999999999995
 20
-6.9174805815282525
 30
0.0
 11
-586.9999999999993
 21
-6.9174805815282525
 31
0.0
  0
LINE
  5
1DD
330
17
100
AcDbEntity
  8
0
  6
Continuous
 62
7
370
18
100
AcDbLine
 10
-624.9999999999993
 20
31.082519418471747
 30
0.0
 11
-624.9999999999993
 21
-4.9174805815282525
 31
0.0
  0
LINE
  5
1DE
330
17
100
AcDbEntity
  8
0
  6
Continuous
 62
7
370
18
100
AcDbLine
 10
-586.9999999999993
 20
33.08251941847175
 30
0.0
 11
-622.9999999999995
 21
33.08251941847175
 31
0.0
  0
LINE
  5
1DF
330
17
100
AcDbEntity
  8
0
  6
Continuous
 62
7
370
18
100
AcDbLine
 10
-584.9999999999993
 20
-54.91748058152814
 30
0.0
 11
-584.9999999999993
 21
-18.917480581528253
 31
0.0
  0
LINE
  5
1E0
330
17
100
AcDbEntity
  8
0
  6
Continuous
 62
7
370
18
100
AcDbLine
 10
-622.9999999999995
 20
-56.91748058152825
 30
0.0
 11
-586.9999999999993
 21
-56.91748058152825
 31
0.0
  0
LINE
  5
1E1
330
17
100
AcDbEntity
  8
0
  6
Continuous
 62
7
370
18
100
AcDbLine
 10
-624.9999999999993
 20
-18.917480581528253
 30
0.0
 11
-624.9999999999993
 21
-54.91748058152814
 31
0.0
  0
LINE
  5
1E2
330
17
100
AcDbEntity
  8
0
  6
Continuous
 62
7
370
18
100
AcDbLine
 10
-586.9999999999993
 20
-16.917480581528253
 30
0.0
 11
-622.9999999999995
 21
-16.917480581528253
 31
0.0
  0
LINE
  5
1E3
330
17
100
AcDbEntity
  8
0
  6
Continuous
 62
7
370
18
100
AcDbLine
 10
-634.9999999999993
 20
45.08251941847175
 30
0.0
 11
-634.9999999999993
 21
81.08251941847175
 31
0.0
  0
LINE
  5
1E4
330
17
100
AcDbEntity
  8
0
  6
Continuous
 62
7
370
18
100
AcDbLine
 10
-672.9999999999992
 20
43.08251941847175
 30
0.0
 11
-636.9999999999993
 21
43.08251941847175
 31
0.0
  0
LINE
  5
1E5
330
17
100
AcDbEntity
  8
0
  6
Continuous
 62
7
370
18
100
AcDbLine
 10
-674.9999999999993
 20
81.08251941847175
 30
0.0
 11
-674.9999999999993
 21
45.08251941847175
 31
0.0
  0
LINE
  5
1E6
330
17
100
AcDbEntity
  8
0
  6
Continuous
 62
7
370
18
100
AcDbLine
 10
-636.9999999999993
 20
83.08251941847175
 30
0.0
 11
-672.9999999999992
 21
83.08251941847175
 31
0.0
  0
LINE
  5
1E7
330
17
100
AcDbEntity
  8
0
  6
Continuous
 62
7
370
18
100
AcDbLine
 10
-634.9999999999993
 20
-4.9174805815282525
 30
0.0
 11
-634.9999999999993
 21
31.082519418471747
 31
0.0
  0
LINE
  5
1E8
330
17
100
AcDbEntity
  8
0
  6
Continuous
 62
7
370
18
100
AcDbLine
 10
-672.9999999999992
 20
-6.9174805815282525
 30
0.0
 11
-636.9999999999993
 21
-6.9174805815282525
 31
0.0
  0
LINE
  5
1E9
330
17
100
AcDbEntity
  8
0
  6
Continuous
 62
7
370
18
100
AcDbLine
 10
-674.9999999999993
 20
31.082519418471747
 30
0.0
 11
-674.9999999999993
 21
-4.9174805815282525
 31
0.0
  0
LINE
  5
1EA
330
17
100
AcDbEntity
  8
0
  6
Continuous
 62
7
370
18
100
AcDbLine
 10
-636.9999999999993
 20
33.08251941847175
 30
0.0
 11
-672.9999999999992
 21
33.08251941847175
 31
0.0
  0
LINE
  5
1EB
330
17
100
AcDbEntity
  8
0
  6
Continuous
 62
7
370
18
100
AcDbLine
 10
-634.9999999999993
 20
-54.91748058152814
 30
0.0
 11
-634.9999999999993
 21
-18.917480581528253
 31
0.0
  0
LINE
  5
1EC
330
17
100
AcDbEntity
  8
0
  6
Continuous
 62
7
370
18
100
AcDbLine
 10
-672.9999999999992
 20
-56.91748058152825
 30
0.0
 11
-636.9999999999993
 21
-56.91748058152825
 31
0.0
  0
LINE
  5
1ED
330
17
100
AcDbEntity
  8
0
  6
Continuous
 62
7
370
18
100
AcDbLine
 10
-674.9999999999993
 20
-18.917480581528253
 30
0.0
 11
-674.9999999999993
 21
-54.91748058152814
 31
0.0
  0
LINE
  5
1EE
330
17
100
AcDbEntity
  8
0
  6
Continuous
 62
7
370
18
100
AcDbLine
 10
-636.9999999999993
 20
-16.917480581528253
 30
0.0
 11
-672.9999999999992
 21
-16.917480581528253
 31
0.0
  0
LINE
  5
1EF
330
17
100
AcDbEntity
  8
0
  6
Continuous
 62
7
370
18
100
AcDbLine
 10
-684.9999999999993
 20
45.08251941847175
 30
0.0
 11
-684.9999999999993
 21
81.08251941847175
 31
0.0
  0
LINE
  5
1F0
330
17
100
AcDbEntity
  8
0
  6
Continuous
 62
7
370
18
100
AcDbLine
 10
-722.9999999999992
 20
43.08251941847175
 30
0.0
 11
-686.9999999999993
 21
43.08251941847175
 31
0.0
  0
LINE
  5
1F1
330
17
100
AcDbEntity
  8
0
  6
Continuous
 62
7
370
18
100
AcDbLine
 10
-724.9999999999993
 20
81.08251941847175
 30
0.0
 11
-724.9999999999993
 21
45.08251941847175
 31
0.0
  0
LINE
  5
1F2
330
17
100
AcDbEntity
  8
0
  6
Continuous
 62
7
370
18
100
AcDbLine
 10
-686.9999999999993
 20
83.08251941847175
 30
0.0
 11
-722.9999999999992
 21
83.08251941847175
 31
0.0
  0
LINE
  5
1F3
330
17
100
AcDbEntity
  8
0
  6
Continuous
 62
7
370
18
100
AcDbLine
 10
-684.9999999999993
 20
-4.9174805815282525
 30
0.0
 11
-684.9999999999993
 21
31.082519418471747
 31
0.0
  0
LINE
  5
1F4
330
17
100
AcDbEntity
  8
0
  6
Continuous
 62
7
370
18
100
AcDbLine
 10
-722.9999999999992
 20
-6.9174805815282525
 30
0.0
 11
-686.9999999999993
 21
-6.9174805815282525
 31
0.0
  0
LINE
  5
1F5
330
17
100
AcDbEntity
  8
0
  6
Continuous
 62
7
370
18
100
AcDbLine
 10
-724.9999999999993
 20
31.082519418471747
 30
0.0
 11
-724.9999999999993
 21
-4.9174805815282525
 31
0.0
  0
LINE
  5
1F6
330
17
100
AcDbEntity
  8
0
  6
Continuous
 62
7
370
18
100
AcDbLine
 10
-686.9999999999993
 20
33.08251941847175
 30
0.0
 11
-722.9999999999992
 21
33.08251941847175
 31
0.0
  0
LINE
  5
1F7
330
17
100
AcDbEntity
  8
0
  6
Continuous
 62
7
370
18
100
AcDbLine
 10
-684.9999999999993
 20
-54.91748058152814
 30
0.0
 11
-684.9999999999993
 21
-18.917480581528253
 31
0.0
  0
LINE
  5
1F8
330
17
100
AcDbEntity
  8
0
  6
Continuous
 62
7
370
18
100
AcDbLine
 10
-722.9999999999992
 20
-56.91748058152825
 30
0.0
 11
-686.9999999999993
 21
-56.91748058152825
 31
0.0
  0
LINE
  5
1F9
330
17
100
AcDbEntity
  8
0
  6
Continuous
 62
7
370
18
100
AcDbLine
 10
-686.9999999999993
 20
-16.917480581528253
 30
0.0
 11
-722.9999999999992
 21
-16.917480581528253
 31
0.0
  0
LINE
  5
1FA
330
17
100
AcDbEntity
  8
0
  6
Continuous
 62
7
370
18
100
AcDbLine
 10
-734.9999999999993
 20
45.08251941847175
 30
0.0
 11
-734.9999999999993
 21
81.08251941847175
 31
0.0
  0
LINE
  5
1FB
330
17
100
AcDbEntity
  8
0
  6
Continuous
 62
7
370
18
100
AcDbLine
 10
-772.9999999999995
 20
43.08251941847175
 30
0.0
 11
-736.9999999999995
 21
43.08251941847175
 31
0.0
  0
LINE
  5
1FC
330
17
100
AcDbEntity
  8
0
  6
Continuous
 62
7
370
18
100
AcDbLine
 10
-774.9999999999997
 20
81.08251941847175
 30
0.0
 11
-774.9999999999997
 21
45.08251941847175
 31
0.0
  0
LINE
  5
1FD
330
17
100
AcDbEntity
  8
0
  6
Continuous
 62
7
370
18
100
AcDbLine
 10
-734.9999999999993
 20
-4.9174805815282525
 30
0.0
 11
-734.9999999999993
 21
31.082519418471747
 31
0.0
  0
LINE
  5
1FE
330
17
100
AcDbEntity
  8
0
  6
Continuous
 62
7
370
18
100
AcDbLine
 10
-774.9999999999997
 20
31.082519418471747
 30
0.0
 11
-774.9999999999997
 21
-4.9174805815282525
 31
0.0
  0
LINE
  5
1FF
330
17
100
AcDbEntity
  8
0
  6
Continuous
 62
7
370
18
100
AcDbLine
 10
-736.9999999999993
 20
33.08251941847175
 30
0.0
 11
-772.9999999999992
 21
33.08251941847175
 31
0.0
  0
LINE
  5
200
330
17
100
AcDbEntity
  8
0
  6
Continuous
 62
7
370
18
100
AcDbLine
 10
-534.9999999999993
 20
-54.91748058152814
 30
0.0
 11
-534.9999999999993
 21
-18.917480581528253
 31
0.0
  0
LINE
  5
201
330
17
100
AcDbEntity
  8
0
  6
Continuous
 62
7
370
18
100
AcDbLine
 10
-736.9999999999993
 20
83.08251941847175
 30
0.0
 11
-772.9999999999992
 21
83.08251941847175
 31
0.0
  0
LINE
  5
202
330
17
100
AcDbEntity
  8
0
  6
Continuous
 62
7
370
18
100
AcDbLine
 10
-772.9999999999995
 20
-56.91748058152825
 30
0.0
 11
-736.9999999999995
 21
-56.91748058152825
 31
0.0
  0
LINE
  5
203
330
17
100
AcDbEntity
  8
0
  6
Continuous
 62
7
370
18
100
AcDbLine
 10
-734.9999999999993
 20
-54.91748058152814
 30
0.0
 11
-734.9999999999993
 21
-18.917480581528253
 31
0.0
  0
LINE
  5
204
330
17
100
AcDbEntity
  8
0
  6
Continuous
 62
7
370
18
100
AcDbLine
 10
-772.9999999999995
 20
-6.9174805815282525
 30
0.0
 11
-736.9999999999995
 21
-6.9174805815282525
 31
0.0
  0
LINE
  5
205
330
17
100
AcDbEntity
  8
0
  6
Continuous
 62
7
370
18
100
AcDbLine
 10
-774.9999999999997
 20
-18.917480581528253
 30
0.0
 11
-774.9999999999997
 21
-54.91748058152814
 31
0.0
  0
LINE
  5
206
330
17
100
AcDbEntity
  8
0
  6
Continuous
 62
7
370
18
100
AcDbLine
 10
-724.9999999999993
 20
-18.917480581528253
 30
0.0
 11
-724.9999999999993
 21
-54.91748058152814
 31
0.0
  0
LINE
  5
207
330
17
100
AcDbEntity
  8
0
  6
Continuous
 62
7
370
18
100
AcDbLine
 10
-736.9999999999993
 20
-16.917480581528253
 30
0.0
 11
-772.9999999999992
 21
-16.917480581528253
 31
0.0
  0
ARC
  5
208
330
17
100
AcDbEntity
  8
0
  6
Continuous
 62
7
370
18
100
AcDbCircle
 10
-536.9999999999993
 20
45.08251941847175
 30
0.0
 40
2.0
100
AcDbArc
 50
-90.00000000000001
 51
0.0
  0
ARC
  5
209
330
17
100
AcDbEntity
  8
0
  6
Continuous
 62
7
370
18
100
AcDbCircle
 10
-572.9999999999993
 20
45.08251941847175
 30
0.0
 40
2.0
100
AcDbArc
 50
180.0
 51
-90.00000000000001
  0
ARC
  5
20A
330
17
100
AcDbEntity
  8
0
  6
Continuous
 62
7
370
18
100
AcDbCircle
 10
-572.9999999999993
 20
81.08251941847175
 30
0.0
 40
2.0
100
AcDbArc
 50
90.0
 51
180.0
  0
ARC
  5
20B
330
17
100
AcDbEntity
  8
0
  6
Continuous
 62
7
370
18
100
AcDbCircle
 10
-536.9999999999993
 20
81.08251941847175
 30
0.0
 40
2.0
100
AcDbArc
 50
0.0
 51
90.0
  0
ARC
  5
20C
330
17
100
AcDbEntity
  8
0
  6
Continuous
 62
7
370
18
100
AcDbCircle
 10
-536.9999999999993
 20
-4.9174805815282525
 30
0.0
 40
2.0
100
AcDbArc
 50
-90.00000000000001
 51
0.0
  0
ARC
  5
20D
330
17
100
AcDbEntity
  8
0
  6
Continuous
 62
7
370
18
100
AcDbCircle
 10
-572.9999999999993
 20
-4.9174805815282525
 30
0.0
 40
2.0
100
AcDbArc
 50
180.0
 51
-90.00000000000001
  0
ARC
  5
20E
330
17
100
AcDbEntity
  8
0
  6
Continuous
 62
7
370
18
100
AcDbCircle
 10
-572.9999999999993
 20
31.082519418471747
 30
0.0
 40
2.0
100
AcDbArc
 50
90.0
 51
180.0
  0
ARC
  5
20F
330
17
100
AcDbEntity
  8
0
  6
Continuous
 62
7
370
18
100
AcDbCircle
 10
-536.9999999999993
 20
31.082519418471747
 30
0.0
 40
2.0
100
AcDbArc
 50
0.0
 51
90.0
  0
ARC
  5
210
330
17
100
AcDbEntity
  8
0
  6
Continuous
 62
7
370
18
100
AcDbCircle
 10
-536.9999999999993
 20
-54.91748058152814
 30
0.0
 40
2.0
100
AcDbArc
 50
-90.00000000000001
 51
0.0
  0
ARC
  5
211
330
17
100
AcDbEntity
  8
0
  6
Continuous
 62
7
370
18
100
AcDbCircle
 10
-572.9999999999993
 20
-54.91748058152814
 30
0.0
 40
2.0
100
AcDbArc
 50
180.0
 51
-90.00000000000001
  0
ARC
  5
212
330
17
100
AcDbEntity
  8
0
  6
Continuous
 62
7
370
18
100
AcDbCircle
 10
-572.9999999999993
 20
-18.917480581528253
 30
0.0
 40
2.0
100
AcDbArc
 50
90.0
 51
180.0
  0
ARC
  5
213
330
17
100
AcDbEntity
  8
0
  6
Continuous
 62
7
370
18
100
AcDbCircle
 10
-536.9999999999993
 20
-18.917480581528253
 30
0.0
 40
2.0
100
AcDbArc
 50
0.0
 51
90.0
  0
ARC
  5
214
330
17
100
AcDbEntity
  8
0
  6
Continuous
 62
7
370
18
100
AcDbCircle
 10
-586.9999999999993
 20
45.08251941847175
 30
0.0
 40
2.0
100
AcDbArc
 50
-90.00000000000001
 51
0.0
  0
ARC
  5
215
330
17
100
AcDbEntity
  8
0
  6
Continuous
 62
7
370
18
100
AcDbCircle
 10
-622.9999999999995
 20
45.08251941847175
 30
0.0
 40
2.0
100
AcDbArc
 50
180.0
 51
-90.00000000000001
  0
ARC
  5
216
330
17
100
AcDbEntity
  8
0
  6
Continuous
 62
7
370
18
100
AcDbCircle
 10
-622.9999999999995
 20
81.08251941847175
 30
0.0
 40
2.0
100
AcDbArc
 50
90.0
 51
180.0
  0
ARC
  5
217
330
17
100
AcDbEntity
  8
0
  6
Continuous
 62
7
370
18
100
AcDbCircle
 10
-586.9999999999993
 20
81.08251941847175
 30
0.0
 40
2.0
100
AcDbArc
 50
0.0
 51
90.0
  0
ARC
  5
218
330
17
100
AcDbEntity
  8
0
  6
Continuous
 62
7
370
18
100
AcDbCircle
 10
-586.9999999999993
 20
-4.9174805815282525
 30
0.0
 40
2.0
100
AcDbArc
 50
-90.00000000000001
 51
0.0
  0
ARC
  5
219
330
17
100
AcDbEntity
  8
0
  6
Continuous
 62
7
370
18
100
AcDbCircle
 10
-622.9999999999995
 20
-4.9174805815282525
 30
0.0
 40
2.0
100
AcDbArc
 50
180.0
 51
-90.00000000000001
  0
ARC
  5
21A
330
17
100
AcDbEntity
  8
0
  6
Continuous
 62
7
370
18
100
AcDbCircle
 10
-622.9999999999995
 20
31.082519418471747
 30
0.0
 40
2.0
100
AcDbArc
 50
90.0
 51
180.0
  0
ARC
  5
21B
330
17
100
AcDbEntity
  8
0
  6
Continuous
 62
7
370
18
100
AcDbCircle
 10
-586.9999999999993
 20
31.082519418471747
 30
0.0
 40
2.0
100
AcDbArc
 50
0.0
 51
90.0
  0
ARC
  5
21C
330
17
100
AcDbEntity
  8
0
  6
Continuous
 62
7
370
18
100
AcDbCircle
 10
-586.9999999999993
 20
-54.91748058152814
 30
0.0
 40
2.0
100
AcDbArc
 50
-90.00000000000001
 51
0.0
  0
ARC
  5
21D
330
17
100
AcDbEntity
  8
0
  6
Continuous
 62
7
370
18
100
AcDbCircle
 10
-622.9999999999995
 20
-54.91748058152814
 30
0.0
 40
2.0
100
AcDbArc
 50
180.0
 51
-90.00000000000001
  0
ARC
  5
21E
330
17
100
AcDbEntity
  8
0
  6
Continuous
 62
7
370
18
100
AcDbCircle
 10
-622.9999999999995
 20
-18.917480581528253
 30
0.0
 40
2.0
100
AcDbArc
 50
90.0
 51
180.0
  0
ARC
  5
21F
330
17
100
AcDbEntity
  8
0
  6
Continuous
 62
7
370
18
100
AcDbCircle
 10
-586.9999999999993
 20
-18.917480581528253
 30
0.0
 40
2.0
100
AcDbArc
 50
0.0
 51
90.0
  0
ARC
  5
220
330
17
100
AcDbEntity
  8
0
  6
Continuous
 62
7
370
18
100
AcDbCircle
 10
-636.9999999999993
 20
45.08251941847175
 30
0.0
 40
2.0
100
AcDbArc
 50
-90.00000000000001
 51
0.0
  0
ARC
  5
221
330
17
100
AcDbEntity
  8
0
  6
Continuous
 62
7
370
18
100
AcDbCircle
 10
-672.9999999999992
 20
45.08251941847175
 30
0.0
 40
2.0
100
AcDbArc
 50
180.0
 51
-90.00000000000001
  0
ARC
  5
222
330
17
100
AcDbEntity
  8
0
  6
Continuous
 62
7
370
18
100
AcDbCircle
 10
-672.9999999999992
 20
81.08251941847175
 30
0.0
 40
2.0
100
AcDbArc
 50
90.0
 51
180.0
  0
ARC
  5
223
330
17
100
AcDbEntity
  8
0
  6
Continuous
 62
7
370
18
100
AcDbCircle
 10
-636.9999999999993
 20
81.08251941847175
 30
0.0
 40
2.0
100
AcDbArc
 50
0.0
 51
90.0
  0
ARC
  5
224
330
17
100
AcDbEntity
  8
0
  6
Continuous
 62
7
370
18
100
AcDbCircle
 10
-636.9999999999993
 20
-4.9174805815282525
 30
0.0
 40
2.0
100
AcDbArc
 50
-90.00000000000001
 51
0.0
  0
ARC
  5
225
330
17
100
AcDbEntity
  8
0
  6
Continuous
 62
7
370
18
100
AcDbCircle
 10
-672.9999999999992
 20
-4.9174805815282525
 30
0.0
 40
2.0
100
AcDbArc
 50
180.0
 51
-90.00000000000001
  0
ARC
  5
226
330
17
100
AcDbEntity
  8
0
  6
Continuous
 62
7
370
18
100
AcDbCircle
 10
-672.9999999999992
 20
31.082519418471747
 30
0.0
 40
2.0
100
AcDbArc
 50
90.0
 51
180.0
  0
ARC
  5
227
330
17
100
AcDbEntity
  8
0
  6
Continuous
 62
7
370
18
100
AcDbCircle
 10
-636.9999999999993
 20
31.082519418471747
 30
0.0
 40
2.0
100
AcDbArc
 50
0.0
 51
90.0
  0
ARC
  5
228
330
17
100
AcDbEntity
  8
0
  6
Continuous
 62
7
370
18
100
AcDbCircle
 10
-636.9999999999993
 20
-54.91748058152814
 30
0.0
 40
2.0
100
AcDbArc
 50
-90.00000000000001
 51
0.0
  0
ARC
  5
229
330
17
100
AcDbEntity
  8
0
  6
Continuous
 62
7
370
18
100
AcDbCircle
 10
-672.9999999999992
 20
-54.91748058152814
 30
0.0
 40
2.0
100
AcDbArc
 50
180.0
 51
-90.00000000000001
  0
ARC
  5
22A
330
17
100
AcDbEntity
  8
0
  6
Continuous
 62
7
370
18
100
AcDbCircle
 10
-672.9999999999992
 20
-18.917480581528253
 30
0.0
 40
2.0
100
AcDbArc
 50
90.0
 51
180.0
  0
ARC
  5
22B
330
17
100
AcDbEntity
  8
0
  6
Continuous
 62
7
370
18
100
AcDbCircle
 10
-636.9999999999993
 20
-18.917480581528253
 30
0.0
 40
2.0
100
AcDbArc
 50
0.0
 51
90.0
  0
ARC
  5
22C
330
17
100
AcDbEntity
  8
0
  6
Continuous
 62
7
370
18
100
AcDbCircle
 10
-686.9999999999993
 20
45.08251941847175
 30
0.0
 40
2.0
100
AcDbArc
 50
-90.00000000000001
 51
0.0
  0
ARC
  5
22D
330
17
100
AcDbEntity
  8
0
  6
Continuous
 62
7
370
18
100
AcDbCircle
 10
-722.9999999999992
 20
45.08251941847175
 30
0.0
 40
2.0
100
AcDbArc
 50
180.0
 51
-90.00000000000001
  0
ARC
  5
22E
330
17
100
AcDbEntity
  8
0
  6
Continuous
 62
7
370
18
100
AcDbCircle
 10
-722.9999999999992
 20
81.08251941847175
 30
0.0
 40
2.0
100
AcDbArc
 50
90.0
 51
180.0
  0
ARC
  5
22F
330
17
100
AcDbEntity
  8
0
  6
Continuous
 62
7
370
18
100
AcDbCircle
 10
-686.9999999999993
 20
81.08251941847175
 30
0.0
 40
2.0
100
AcDbArc
 50
0.0
 51
90.0
  0
ARC
  5
230
330
17
100
AcDbEntity
  8
0
  6
Continuous
 62
7
370
18
100
AcDbCircle
 10
-686.9999999999993
 20
-4.9174805815282525
 30
0.0
 40
2.0
100
AcDbArc
 50
-90.00000000000001
 51
0.0
  0
ARC
  5
231
330
17
100
AcDbEntity
  8
0
  6
Continuous
 62
7
370
18
100
AcDbCircle
 10
-722.9999999999992
 20
-4.9174805815282525
 30
0.0
 40
2.0
100
AcDbArc
 50
180.0
 51
-90.00000000000001
  0
ARC
  5
232
330
17
100
AcDbEntity
  8
0
  6
Continuous
 62
7
370
18
100
AcDbCircle
 10
-722.9999999999992
 20
31.082519418471747
 30
0.0
 40
2.0
100
AcDbArc
 50
90.0
 51
180.0
  0
ARC
  5
233
330
17
100
AcDbEntity
  8
0
  6
Continuous
 62
7
370
18
100
AcDbCircle
 10
-686.9999999999993
 20
31.082519418471747
 30
0.0
 40
2.0
100
AcDbArc
 50
0.0
 51
90.0
  0
ARC
  5
234
330
17
100
AcDbEntity
  8
0
  6
Continuous
 62
7
370
18
100
AcDbCircle
 10
-686.9999999999993
 20
-54.91748058152814
 30
0.0
 40
2.0
100
AcDbArc
 50
-90.00000000000001
 51
0.0
  0
ARC
  5
235
330
17
100
AcDbEntity
  8
0
  6
Continuous
 62
7
370
18
100
AcDbCircle
 10
-722.9999999999992
 20
-54.91748058152814
 30
0.0
 40
2.0
100
AcDbArc
 50
180.0
 51
-90.00000000000001
  0
ARC
  5
236
330
17
100
AcDbEntity
  8
0
  6
Continuous
 62
7
370
18
100
AcDbCircle
 10
-722.9999999999992
 20
-18.917480581528253
 30
0.0
 40
2.0
100
AcDbArc
 50
90.0
 51
180.0
  0
ARC
  5
237
330
17
100
AcDbEntity
  8
0
  6
Continuous
 62
7
370
18
100
AcDbCircle
 10
-686.9999999999993
 20
-18.917480581528253
 30
0.0
 40
2.0
100
AcDbArc
 50
0.0
 51
90.0
  0
ARC
  5
238
330
17
100
AcDbEntity
  8
0
  6
Continuous
 62
7
370
18
100
AcDbCircle
 10
-736.9999999999993
 20
45.08251941847175
 30
0.0
 40
2.0
100
AcDbArc
 50
-90.00000000000001
 51
0.0
  0
ARC
  5
239
330
17
100
AcDbEntity
  8
0
  6
Continuous
 62
7
370
18
100
AcDbCircle
 10
-772.9999999999995
 20
45.08251941847175
 30
0.0
 40
2.0
100
AcDbArc
 50
180.0
 51
-90.00000000000001
  0
ARC
  5
23A
330
17
100
AcDbEntity
  8
0
  6
Continuous
 62
7
370
18
100
AcDbCircle
 10
-772.9999999999995
 20
81.08251941847175
 30
0.0
 40
2.0
100
AcDbArc
 50
90.0
 51
180.0
  0
ARC
  5
23B
330
17
100
AcDbEntity
  8
0
  6
Continuous
 62
7
370
18
100
AcDbCircle
 10
-736.9999999999993
 20
81.08251941847175
 30
0.0
 40
2.0
100
AcDbArc
 50
0.0
 51
90.0
  0
ARC
  5
23C
330
17
100
AcDbEntity
  8
0
  6
Continuous
 62
7
370
18
100
AcDbCircle
 10
-736.9999999999993
 20
-4.9174805815282525
 30
0.0
 40
2.0
100
AcDbArc
 50
-90.00000000000001
 51
0.0
  0
ARC
  5
23D
330
17
100
AcDbEntity
  8
0
  6
Continuous
 62
7
370
18
100
AcDbCircle
 10
-772.9999999999995
 20
-4.9174805815282525
 30
0.0
 40
2.0
100
AcDbArc
 50
180.0
 51
-90.00000000000001
  0
ARC
  5
23E
330
17
100
AcDbEntity
  8
0
  6
Continuous
 62
7
370
18
100
AcDbCircle
 10
-772.9999999999995
 20
31.082519418471747
 30
0.0
 40
2.0
100
AcDbArc
 50
90.0
 51
180.0
  0
ARC
  5
23F
330
17
100
AcDbEntity
  8
0
  6
Continuous
 62
7
370
18
100
AcDbCircle
 10
-736.9999999999993
 20
31.082519418471747
 30
0.0
 40
2.0
100
AcDbArc
 50
0.0
 51
90.0
  0
ARC
  5
240
330
17
100
AcDbEntity
  8
0
  6
Continuous
 62
7
370
18
100
AcDbCircle
 10
-736.9999999999993
 20
-54.91748058152814
 30
0.0
 40
2.0
100
AcDbArc
 50
-90.00000000000001
 51
0.0
  0
ARC
  5
241
330
17
100
AcDbEntity
  8
0
  6
Continuous
 62
7
370
18
100
AcDbCircle
 10
-772.9999999999995
 20
-18.917480581528253
 30
0.0
 40
2.0
100
AcDbArc
 50
90.0
 51
180.0
  0
ARC
  5
242
330
17
100
AcDbEntity
  8
0
  6
Continuous
 62
7
370
18
100
AcDbCircle
 10
-736.9999999999993
 20
-18.917480581528253
 30
0.0
 40
2.0
100
AcDbArc
 50
0.0
 51
90.0
  0
ARC
  5
243
330
17
100
AcDbEntity
  8
0
  6
Continuous
 62
7
370
18
100
AcDbCircle
 10
-772.9999999999995
 20
-54.91748058152814
 30
0.0
 40
2.0
100
AcDbArc
 50
180.0
 51
-90.00000000000001
  0
LINE
  5
244
330
17
100
AcDbEntity
  8
0
  6
Continuous
 62
7
370
18
100
AcDbLine
 10
264.0000000000007
 20
37.08251941847175
 30
0.0
 11
276.0000000000002
 21
37.08251941847175
 31
0.0
  0
LINE
  5
245
330
17
100
AcDbEntity
  8
0
  6
Continuous
 62
7
370
18
100
AcDbLine
 10
264.0000000000007
 20
49.082519418471975
 30
0.0
 11
276.0000000000002
 21
49.082519418471975
 31
0.0
  0
ARC
  5
246
330
17
100
AcDbEntity
  8
0
  6
Continuous
 62
7
370
18
100
AcDbCircle
 10
264.0000000000007
 20
43.08251941847175
 30
0.0
 40
6.0
100
AcDbArc
 50
90.0
 51
-90.00000000000001
  0
ARC
  5
247
330
17
100
AcDbEntity
  8
0
  6
Continuous
 62
7
370
18
100
AcDbCircle
 10
276.0000000000002
 20
43.08251941847175
 30
0.0
 40
6.0
100
AcDbArc
 50
-90.00000000000001
 51
90.0
  0
LINE
  5
248
330
17
100
AcDbEntity
  8
0
  6
Continuous
 62
7
370
18
100
AcDbLine
 10
-485.99999999999943
 20
49.082519418471975
 30
0.0
 11
-473.9999999999993
 21
49.082519418471975
 31
0.0
  0
LINE
  5
249
330
17
100
AcDbEntity
  8
0
  6
Continuous
 62
7
370
18
100
AcDbLine
 10
-485.99999999999943
 20
37.08251941847175
 30
0.0
 11
-473.9999999999993
 21
37.08251941847175
 31
0.0
  0
ARC
  5
24A
330
17
100
AcDbEntity
  8
0
  6
Continuous
 62
7
370
18
100
AcDbCircle
 10
-485.99999999999943
 20
43.08251941847175
 30
0.0
 40
6.0
100
AcDbArc
 50
90.0
 51
-90.00000000000001
  0
ARC
  5
24B
330
17
100
AcDbEntity
  8
0
  6
Continuous
 62
7
370
18
100
AcDbCircle
 10
-473.9999999999993
 20
43.08251941847175
 30
0.0
 40
6.0
100
AcDbArc
 50
-90.00000000000001
 51
90.0
  0
ENDSEC
  0
SECTION
  2
OBJECTS
  0
DICTIONARY
  5
A
330
0
100
AcDbDictionary
281
1
  3
ACAD_COLOR
350
B
  3
ACAD_GROUP
350
C
  3
ACAD_LAYOUT
350
D
  3
ACAD_MATERIAL
350
E
  3
ACAD_MLEADERSTYLE
350
F
  3
ACAD_MLINESTYLE
350
10
  3
ACAD_PLOTSETTINGS
350
11
  3
ACAD_PLOTSTYLENAME
350
12
  3
ACAD_SCALELIST
350
14
  3
ACAD_TABLESTYLE
350
15
  3
ACAD_VISUALSTYLE
350
16
  3
EZDXF_META
350
2D
  0
DICTIONARY
  5
B
330
A
100
AcDbDictionary
281
1
  0
DICTIONARY
  5
C
330
A
100
AcDbDictionary
281
1
  0
DICTIONARY
  5
D
330
A
100
AcDbDictionary
281
1
  3
Model
350
1A
  3
Layout1
350
1E
  0
DICTIONARY
  5
E
330
A
100
AcDbDictionary
281
1
  3
ByBlock
350
1F
  3
ByLayer
350
20
  3
Global
350
21
  0
DICTIONARY
  5
F
330
A
100
AcDbDictionary
281
1
  3
Standard
350
2C
  0
DICTIONARY
  5
10
330
A
100
AcDbDictionary
281
1
  3
Standard
350
22
  0
DICTIONARY
  5
11
330
A
100
AcDbDictionary
281
1
  0
ACDBDICTIONARYWDFLT
  5
12
330
A
100
AcDbDictionary
281
1
  3
Normal
350
13
100
AcDbDictionaryWithDefault
340
13
  0
ACDBPLACEHOLDER
  5
13
330
12
  0
DICTIONARY
  5
14
330
A
100
AcDbDictionary
281
1
  0
DICTIONARY
  5
15
330
A
100
AcDbDictionary
281
1
  0
DICTIONARY
  5
16
330
A
100
AcDbDictionary
281
1
  0
LAYOUT
  5
1A
330
D
100
AcDbPlotSettings
  1

  4
A3
  6

 40
7.5
 41
20.0
 42
7.5
 43
20.0
 44
420.0
 45
297.0
 46
0.0
 47
0.0
 48
0.0
 49
0.0
140
0.0
141
0.0
142
1.0
143
1.0
 70
1024
 72
1
 73
0
 74
5
  7

 75
16
 76
0
 77
2
 78
300
147
1.0
148
0.0
149
0.0
100
AcDbLayout
  1
Model
 70
1
 71
0
 10
0.0
 20
0.0
 11
420.0
 21
297.0
 12
0.0
 22
0.0
 32
0.0
 14
-855.0000000000008
 24
-173.44160195716324
 34
0.0
 15
855.0000000000007
 25
173.44160195716336
 35
0.0
146
0.0
 13
0.0
 23
0.0
 33
0.0
 16
1.0
 26
0.0
 36
0.0
 17
0.0
 27
1.0
 37
0.0
 76
1
330
17
  0
LAYOUT
  5
1E
330
D
100
AcDbPlotSettings
  1

  4
A3
  6

 40
7.5
 41
20.0
 42
7.5
 43
20.0
 44
420.0
 45
297.0
 46
0.0
 47
0.0
 48
0.0
 49
0.0
140
0.0
141
0.0
142
1.0
143
1.0
 70
0
 72
1
 73
0
 74
5
  7

 75
16
 76
0
 77
2
 78
300
147
1.0
148
0.0
149
0.0
100
AcDbLayout
  1
Layout1
 70
1
 71
1
 10
0.0
 20
0.0
 11
420.0
 21
297.0
 12
0.0
 22
0.0
 32
0.0
 14
1e+20
 24
1e+20
 34
1e+20
 15
-1e+20
 25
-1e+20
 35
-1e+20
146
0.0
 13
0.0
 23
0.0
 33
0.0
 16
1.0
 26
0.0
 36
0.0
 17
0.0
 27
1.0
 37
0.0
 76
1
330
1B
  0
MATERIAL
  5
1F
102
{ACAD_REACTORS
330
E
102
}
330
E
100
AcDbMaterial
  1
ByBlock
  2

 70
0
 40
1.0
 71
1
 41
1.0
 91
-1023410177
 42
1.0
 72
1
  3

 73
1
 74
1
 75
1
 44
0.5
 73
0
 45
1.0
 46
1.0
 77
1
  4

 78
1
 79
1
170
1
 48
1.0
171
1
  6

172
1
173
1
174
1
140
1.0
141
1.0
175
1
  7

176
1
177
1
178
1
143
1.0
179
1
  8

270
1
271
1
272
1
145
1.0
146
1.0
273
1
  9

274
1
275
1
276
1
 42
1.0
 72
1
  3

 73
1
 74
1
 75
1
 94
63
  0
MATERIAL
  5
20
102
{ACAD_REACTORS
330
E
102
}
330
E
100
AcDbMaterial
  1
ByLayer
  2

 70
0
 40
1.0
 71
1
 41
1.0
 91
-1023410177
 42
1.0
 72
1
  3

 73
1
 74
1
 75
1
 44
0.5
 73
0
 45
1.0
 46
1.0
 77
1
  4

 78
1
 79
1
170
1
 48
1.0
171
1
  6

172
1
173
1
174
1
140
1.0
141
1.0
175
1
  7

176
1
177
1
178
1
143
1.0
179
1
  8

270
1
271
1
272
1
145
1.0
146
1.0
273
1
  9

274
1
275
1
276
1
 42
1.0
 72
1
  3

 73
1
 74
1
 75
1
 94
63
  0
MATERIAL
  5
21
102
{ACAD_REACTORS
330
E
102
}
330
E
100
AcDbMaterial
  1
Global
  2

 70
0
 40
1.0
 71
1
 41
1.0
 91
-1023410177
 42
1.0
 72
1
  3

 73
1
 74
1
 75
1
 44
0.5
 73
0
 45
1.0
 46
1.0
 77
1
  4

 78
1
 79
1
170
1
 48
1.0
171
1
  6

172
1
173
1
174
1
140
1.0
141
1.0
175
1
  7

176
1
177
1
178
1
143
1.0
179
1
  8

270
1
271
1
272
1
145
1.0
146
1.0
273
1
  9

274
1
275
1
276
1
 42
1.0
 72
1
  3

 73
1
 74
1
 75
1
 94
63
  0
MLINESTYLE
  5
22
102
{ACAD_REACTORS
330
10
102
}
330
10
100
AcDbMlineStyle
  2
Standard
 70
0
  3

 62
256
 51
90.0
 52
90.0
 71
2
 49
0.5
 62
256
  6
BYLAYER
 49
-0.5
 62
256
  6
BYLAYER
  0
MLEADERSTYLE
  5
2C
102
{ACAD_REACTORS
330
F
102
}
330
F
100
AcDbMLeaderStyle
179
2
170
2
171
1
172
0
 90
2
 40
0.0
 41
0.0
173
1
 91
-1056964608
 92
-2
290
1
 42
2.0
291
1
 43
8.0
  3
Standard
 44
4.0
300

342
29
174
1
175
1
176
0
178
1
 93
-1056964608
 45
4.0
292
0
297
0
 46
4.0
 94
-1056964608
 47
1.0
 49
1.0
140
1.0
294
1
141
0.0
177
0
142
1.0
295
0
296
0
143
3.75
271
0
272
9
273
9
  0
DICTIONARY
  5
2D
330
A
100
AcDbDictionary
280
1
281
1
  3
CREATED_BY_EZDXF
350
2E
  3
WRITTEN_BY_EZDXF
350
24E
  0
DICTIONARYVAR
  5
2E
330
2D
100
DictionaryVariables
280
0
  1
1.4.4 @ 2026-07-04T22:06:28.237194+00:00
  0
DICTIONARYVAR
  5
24E
330
2D
100
DictionaryVariables
280
0
  1
1.4.4 @ 2026-07-04T22:06:28.283646+00:00
  0
ENDSEC
  0
EOF
